<svg width="96" height="88" fill="none" xmlns="http://www.w3.org/2000/svg"><path d="M48.304 15.41H13.03v30.643h35.273V15.41zm20.242 40.327H33.273V86.38h35.273V55.737z" stroke="currentColor" stroke-width=".7" stroke-miterlimit="10" stroke-linecap="round"/><path d="M59.478 55.737V32.976h35.273v30.678H59.478v-7.917zM51.266 8.2l-4.784-2.05 2.107-4.913" stroke="currentColor" stroke-width=".7" stroke-miterlimit="10" stroke-linecap="round"/><path d="M74.151 24.705c.107-.813.179-1.66.179-2.51 0-10.107-8.283-18.307-18.493-18.307-3 0-5.856.707-8.355 1.98M16.031 70.9l2.928 4.276-4.463 3.004" stroke="currentColor" stroke-width=".7" stroke-miterlimit="10" stroke-linecap="round"/><path d="M5.642 44.78a21.15 21.15 0 00-1.5 2.015c-5.462 8.553-2.927 19.863 5.712 25.27a18.306 18.306 0 008.14 2.757" stroke="currentColor" stroke-width=".7" stroke-miterlimit="10" stroke-linecap="round"/></svg>