<svg width="56" height="56" fill="none" xmlns="http://www.w3.org/2000/svg"><path d="M56.035.052h-56v56h56v-56z" fill="#fff"/><path d="M30.503 48.737h-18.62c-3.36 0-6.09-2.712-6.09-6.055V7.28c0-3.343 2.73-6.055 6.09-6.055h25.2c3.36 0 6.09 2.712 6.09 6.055v23.66H41.58V7.28c0-2.468-2.03-4.48-4.514-4.48H11.883c-2.485 0-4.515 2.012-4.515 4.48v35.385c0 2.468 2.03 4.48 4.515 4.48H30.52v1.592h-.017z" fill="#1D1D1B"/><path fill-rule="evenodd" clip-rule="evenodd" d="M44.817 55.055l-11.602-.053a.936.936 0 01-.928-.875c-.245-3.815-2.555-6.737-4.672-9.94-.998-1.522-1.54-3.447-1.12-5.11.385-1.575 1.54-2.764 3.482-3.15l.315-.035V24.36c.018-.875.333-1.627.928-2.17.647-.595 1.522-.84 2.362-.84.928 0 1.89.122 2.555.84.648.682.753 1.68.718 2.712v4.638l.35-.105c.245-.035.49-.07.735-.07.49 0 .962.035 1.382.158.438.122.84.332 1.173.682.157.175.28.368.385.578l.14.42.665-.193c.245-.035.49-.07.735-.07.49 0 .962.035 1.382.157.438.123.84.333 1.173.683.315.35.507.77.612 1.225v.052l.158-.017c.157 0 .315-.017.472-.017 1.068 0 1.978.262 2.625 1.12.56.734.823 1.802 1.05 3.062.98 6.335-3.552 12.95-4.147 17.098a.911.911 0 01-.928.787v-.035zm-.77-1.855v-.088c1.05-4.515 4.83-10.29 4.008-15.662-.228-1.278-.438-1.908-.683-2.24-.157-.21-.402-.385-1.137-.385-.193 0-.368.017-.525.052l-.035 2.783c0 .508-.42.928-.945.91a.934.934 0 01-.928-.928l.035-3.237c.035-.998-.122-1.313-.227-1.418-.088-.087-.315-.245-1.19-.245-.63 0-1.015.193-1.208.456l-.035 2.887c0 .508-.42.928-.945.91a.934.934 0 01-.927-.927l.035-3.238c.035-.997-.123-1.313-.228-1.417-.087-.088-.332-.245-1.19-.245-.472 0-.805.105-1.015.28l-.087.087v4.637c0 .508-.438.928-.945.928a.934.934 0 01-.928-.928l.035-11.34c.035-1.015-.122-1.312-.227-1.417-.088-.087-.333-.245-1.19-.245-.525 0-.893.14-1.103.332-.192.175-.367.473-.332 1.068v16.485c0 .508-.42.928-.928.928a.934.934 0 01-.927-.928v-3.343l-.438.123c-.945.332-1.382.945-1.54 1.645-.245 1.033.07 2.433.875 3.658 1.733 2.625 4.025 5.565 4.76 9.24l.123.752 9.975.052.017.018z" fill="#010101"/><path d="M44.818 55.318l-11.603-.053a1.19 1.19 0 01-1.19-1.12c-.192-3.255-1.96-5.845-3.797-8.593-.28-.402-.543-.804-.823-1.224-1.12-1.698-1.557-3.693-1.155-5.32.42-1.768 1.733-2.958 3.675-3.343h.105V24.343c.018-.963.368-1.785 1.015-2.363.805-.753 1.838-.91 2.555-.91.875 0 1.995.105 2.748.91.752.822.822 1.977.787 2.905v4.27c.28-.053.543-.07.823-.07.577 0 1.05.052 1.452.157.525.14.963.403 1.295.753.175.175.315.402.438.63l.07.21.42-.123c.28-.052.542-.07.822-.07.578 0 1.05.053 1.453.158.525.14.962.402 1.295.752.297.316.507.7.63 1.173 1.522-.14 2.555.28 3.255 1.19.577.752.857 1.82 1.085 3.168.647 4.165-1.015 8.347-2.468 12.04-.752 1.907-1.47 3.71-1.68 5.145a1.205 1.205 0 01-1.19 1.014l-.017.036zm0-.526a.676.676 0 00.665-.577c.21-1.505.945-3.325 1.715-5.268 1.435-3.622 3.062-7.735 2.432-11.76-.227-1.277-.472-2.274-.997-2.94-.525-.682-1.295-1.014-2.415-1.014-.158 0-.298 0-.455.017l-.385.07-.035-.263c-.105-.49-.28-.857-.56-1.137a2.235 2.235 0 00-1.05-.613c-.35-.104-.788-.14-1.313-.14-.245 0-.472.018-.7.053l-.875.245-.227-.648a2.108 2.108 0 00-.333-.472 2.077 2.077 0 00-1.05-.595c-.35-.105-.787-.14-1.312-.14-.245 0-.473.018-.7.053l-.665.192v-4.988c.052-1.225-.14-2.012-.63-2.537-.613-.665-1.593-.752-2.363-.752-.63 0-1.505.14-2.187.77-.525.49-.823 1.172-.84 1.977v11.76l-.543.07c-1.715.35-2.887 1.4-3.255 2.957-.367 1.488.053 3.325 1.085 4.9.28.42.543.823.823 1.225 1.89 2.8 3.692 5.46 3.902 8.855.018.35.315.613.665.613l11.603.053v.034zm-.56-1.33l-10.413-.052-.157-.98c-.613-3.063-2.38-5.67-3.938-7.962-.28-.403-.542-.788-.787-1.173-.84-1.26-1.19-2.748-.91-3.867.227-.893.805-1.505 1.715-1.82l.787-.21v3.692a.665.665 0 101.33 0V24.675c-.035-.613.105-1.05.403-1.33.21-.192.595-.402 1.277-.402.963 0 1.243.192 1.383.332.227.245.315.77.297 1.61l-.035 11.34c0 .175.07.35.193.472a.676.676 0 00.472.193.665.665 0 00.665-.665v-4.76l.193-.157c.315-.228.717-.35 1.207-.35.963 0 1.243.192 1.383.332.227.245.315.77.297 1.61l-.035 3.238c0 .175.07.35.193.472a.676.676 0 00.472.193.661.661 0 00.665-.648l.035-2.975.053-.07c.21-.245.612-.56 1.417-.56.963 0 1.243.193 1.383.333.227.244.315.77.297 1.61l-.035 3.237c0 .175.07.35.193.473a.676.676 0 00.472.192.661.661 0 00.665-.648l.035-2.992.21-.053c.193-.035.385-.07.595-.07.805 0 1.12.193 1.348.49.297.386.507 1.086.735 2.346.56 3.622-.963 7.472-2.31 10.867-.683 1.75-1.348 3.395-1.68 4.9l-.053.297-.017-.07zm-9.975-.577l9.537.035c.368-1.505.998-3.133 1.68-4.848 1.313-3.325 2.818-7.105 2.275-10.587-.21-1.155-.402-1.803-.63-2.117-.087-.105-.21-.28-.927-.28h-.263v2.572a1.242 1.242 0 01-1.225 1.173 1.15 1.15 0 01-.84-.35 1.095 1.095 0 01-.332-.84l.035-3.238c.035-.998-.123-1.208-.14-1.225 0 0-.158-.157-.998-.157-.42 0-.752.104-.945.297l-.035 2.782a1.188 1.188 0 01-2.03.823 1.095 1.095 0 01-.332-.84l.035-3.238c.035-1.015-.123-1.207-.14-1.225 0 0-.158-.157-.998-.157-.437 0-.7.105-.84.21v4.533c0 .647-.56 1.19-1.207 1.19-.315 0-.613-.123-.84-.35a1.179 1.179 0 01-.35-.84l.035-11.34c.035-1.015-.14-1.226-.158-1.243 0 0-.157-.157-.997-.157-.543 0-.823.174-.928.262-.175.175-.262.455-.245.857V41.09c0 .665-.542 1.19-1.19 1.19-.647 0-1.19-.543-1.19-1.19v-3.01l-.105.035c-.735.245-1.19.735-1.365 1.453-.245.98.088 2.31.84 3.447.245.385.508.77.788 1.172 1.592 2.328 3.377 4.97 4.007 8.156l.088.542h-.07z" fill="#fff"/><path d="M36.102 12.197H13.334a.784.784 0 01-.787-.787c0-.438.35-.787.787-.787h22.768c.437 0 .787.35.787.787 0 .438-.35.787-.787.787zM36.102 17.413H13.334a.784.784 0 01-.787-.788c0-.438.35-.787.787-.787h22.768c.437 0 .787.35.787.787 0 .438-.35.788-.787.788zM28.437 22.645H13.334a.784.784 0 01-.787-.787c0-.438.35-.788.787-.788h15.103c.437 0 .787.35.787.788 0 .437-.35.787-.787.787zM28.437 27.86H13.334a.784.784 0 01-.787-.787c0-.438.35-.788.787-.788h15.103c.437 0 .787.35.787.788 0 .437-.35.787-.787.787zM28.437 33.093H13.334a.784.784 0 01-.787-.788c0-.438.35-.788.787-.788h15.103c.437 0 .787.35.787.788 0 .438-.35.788-.787.788z" fill="#1D1D1B"/></svg>