<svg width="56" height="56" viewBox="0 0 56 56" fill="none" xmlns="http://www.w3.org/2000/svg">
<g clip-path="url(#clip0_1335_3394)">
<path d="M56.0352 0H0.0351562V56H56.0352V0Z" fill="white"/>
<path d="M53.6734 46.865H2.66094C2.27594 46.865 1.96094 46.55 1.96094 46.165V15.0325C1.96094 14.6475 2.27594 14.3325 2.66094 14.3325H5.60094V12.495C5.60094 12.11 5.91594 11.795 6.30094 11.795H9.29344V11.1475C9.29344 10.7625 9.60844 10.4475 9.99344 10.4475H17.5184C23.2934 10.4475 26.2334 13.125 27.4234 14.63C28.7009 12.6525 31.9734 8.155 36.4359 6.1775C36.6459 6.0725 36.9084 6.1075 37.1009 6.23C37.2934 6.3525 37.4159 6.58 37.4159 6.825V11.8475H49.5609C49.9459 11.8475 50.2609 12.1625 50.2609 12.5475V14.3675H53.6209C54.0059 14.3675 54.3209 14.6825 54.3209 15.0675V46.1475C54.3209 46.5325 54.0059 46.8475 53.6209 46.8475L53.6734 46.865ZM29.9784 45.4475H52.9559V15.75H50.2959V43.05V43.085V43.1025C50.2959 43.1025 50.2434 43.1725 50.2084 43.2075C50.1559 43.2425 50.1209 43.295 50.0684 43.3125C50.0684 43.3125 49.9809 43.3125 49.9284 43.3125C49.7884 43.3125 45.0459 43.1725 41.3359 43.12C39.7784 43.12 38.2909 43.12 37.1184 43.1725C36.4534 43.225 35.5084 43.3125 34.4584 43.47C32.5334 43.8725 31.2209 44.485 30.3459 45.01L29.9784 45.4475ZM3.36094 45.4475H25.5684C24.3084 44.66 22.1034 43.68 19.0059 43.6275C13.5634 43.5575 6.49344 43.75 6.33594 43.75C6.30094 43.75 6.28344 43.75 6.24844 43.75C6.24844 43.75 6.10844 43.715 6.03844 43.6975C6.03844 43.6975 5.89844 43.6275 5.84594 43.5575C5.72344 43.435 5.65344 43.2775 5.63594 43.12V43.1025V43.0675V15.75H3.36094V45.4475ZM15.9609 42.1575C18.2009 42.1575 20.1959 42.21 21.1759 42.35C22.9959 42.63 24.3784 43.1025 25.4284 43.645C25.3234 43.5575 25.2184 43.47 25.1134 43.3825C24.4309 42.9275 23.5209 42.5075 22.3659 42.14C20.9834 41.7025 19.4784 41.475 17.9034 41.475H9.99344C9.60844 41.475 9.29344 41.16 9.29344 40.775V13.195H7.00094V14.875C7.00094 14.875 7.00094 14.98 7.00094 15.0325V42.315C8.61094 42.2625 12.5309 42.1575 15.9259 42.1575H15.9609ZM28.1934 16.1V43.505C28.9634 42.63 29.8909 41.8075 30.8359 41.09C32.1659 39.97 33.8809 38.7975 36.0509 37.8525V7.9275C31.7809 10.325 28.7534 15.155 28.1934 16.0825V16.1ZM31.7984 42.1575C31.3259 42.56 30.9059 42.9625 30.5209 43.3475C31.6059 42.9625 32.7434 42.7175 33.7934 42.5425C34.0909 42.4725 34.4234 42.42 34.7384 42.3675C35.1759 42.2975 35.8234 42.245 36.6109 42.21C36.6809 42.21 36.7684 42.21 36.8384 42.1925C37.5209 42.14 39.1134 42.14 40.9684 42.1575C44.1009 42.175 47.4259 42.28 48.8959 42.3325V15.0325C48.8959 15.0325 48.8959 14.9625 48.8959 14.9275V13.2125H37.4509V38.29C37.4509 38.57 37.3109 38.8325 37.0484 38.955C37.0484 38.955 34.3009 40.25 31.7984 42.14V42.1575ZM26.5134 42.6825C26.6009 42.7525 26.6884 42.84 26.7759 42.9275V16.0825C26.3209 15.33 23.8884 11.83 17.5534 11.83H10.7284V40.0225C12.6534 39.97 17.8334 39.8825 19.6359 40.0925C22.8209 40.495 25.1134 41.3525 26.5134 42.6475V42.6825Z" fill="#1D1D1B"/>
</g>
<defs>
<clipPath id="clip0_1335_3394">
<rect width="56" height="56" fill="white"/>
</clipPath>
</defs>
</svg>
