<svg viewBox="0 0 32 32"><g clip-path="url(#prefix__prefix__prefix__clip0_1335_4918)"><path d="M29.631 0H2.363C1.056 0 0 1.031 0 2.306v27.382C0 30.962 1.056 32 2.362 32h27.27C30.936 32 32 30.962 32 29.694V2.306C32 1.031 30.937 0 29.631 0zM9.494 27.269h-4.75V11.994h4.75v15.275zM7.119 9.912a2.751 2.751 0 01-2.756-2.75 2.751 2.751 0 012.756-2.75 2.75 2.75 0 010 5.5zm20.15 17.357h-4.744v-7.425c0-1.769-.031-4.05-2.469-4.05-2.469 0-2.844 1.931-2.844 3.925v7.55h-4.737V11.994h4.55v2.087h.063c.63-1.2 2.18-2.468 4.487-2.468 4.806 0 5.694 3.162 5.694 7.274v8.382z" fill="#fff"/></g><defs><clipPath id="prefix__prefix__prefix__clip0_1335_4918"><path fill="#fff" d="M0 0h32v32H0z"/></clipPath></defs></svg>