<svg width="56" height="56" fill="none" xmlns="http://www.w3.org/2000/svg">
  <g clip-path="url(#prefix__clip0_1335_5149)">
    <path d="M56 0H0v56h56V0z" fill="#fff" />
    <path
      d="M18.426 39.025v6.09c0 .367-.192.682-.42.682-.227 0-.42-.297-.42-.682v-6.09c0-.367.193-.682.42-.682.228 0 .42.297.42.682zm7.263-.682c-.245 0-.42.297-.42.682v6.09c0 .367.192.682.42.682.227 0 .42-.297.42-.682v-6.09c0-.367-.193-.682-.42-.682zm10.272 0c-.227 0-.42.297-.42.682v6.09c0 .367.193.682.42.682.228 0 .42-.297.42-.682v-6.09c0-.367-.192-.682-.42-.682zm-15.4-3.536c-.245 0-.42.298-.42.683v13.16c0 .367.193.683.42.683.228 0 .42-.298.42-.683V35.49c0-.367-.192-.683-.42-.683zm2.573 0c-.245 0-.42.298-.42.683v13.16c0 .367.192.683.42.683.227 0 .42-.298.42-.683V35.49c0-.367-.193-.683-.42-.683zm5.127 0c-.245 0-.42.298-.42.683v13.16c0 .367.193.683.42.683.228 0 .42-.298.42-.683V35.49c0-.367-.192-.683-.42-.683zm5.128 0c-.228 0-.42.298-.42.683v13.16c0 .367.192.683.42.683.227 0 .42-.298.42-.683V35.49c0-.367-.193-.683-.42-.683zm-2.573-3.01c-.227 0-.42.298-.42.683v19.163c0 .367.193.682.42.682.228 0 .42-.297.42-.683V32.48c0-.367-.192-.682-.42-.682zm7.7 7.28c-.227 0-.42.298-.42.683v4.62c0 .367.193.682.42.682.228 0 .42-.297.42-.682v-4.62c0-.367-.192-.682-.42-.682zm2.573.666c-.228 0-.42.297-.42.682v3.273c0 .367.192.682.42.682.227 0 .42-.297.42-.683v-3.272c0-.367-.193-.682-.42-.682zm-25.655 0c-.245 0-.42.297-.42.682v3.273c0 .367.192.682.42.682.227 0 .42-.297.42-.683v-3.272c0-.367-.193-.682-.42-.682z"
      fill="#010101" />
    <path
      d="M30.835 52.57c-.368 0-.665-.403-.665-.91V32.498c0-.508.297-.91.665-.91.367 0 .665.402.665.91V51.66c0 .508-.298.91-.665.91zm0-20.51s-.193.175-.193.438V51.66c0 .28.14.438.193.438.07 0 .192-.175.192-.438V32.498c0-.263-.122-.438-.192-.438zm2.572 17.517c-.367 0-.665-.402-.665-.91v-13.16c0-.507.298-.91.665-.91.368 0 .665.403.665.91v13.16c0 .508-.297.91-.665.91zm0-14.507s-.192.175-.192.438v13.16c0 .262.122.437.192.437s.193-.175.193-.438v-13.16c0-.262-.123-.437-.193-.437zM28.28 49.578c-.368 0-.665-.403-.665-.91v-13.16c0-.508.297-.91.665-.91.367 0 .665.402.665.91v13.16c0 .507-.298.91-.665.91zm0-14.508s-.193.175-.193.438v13.16c0 .262.123.437.193.437s.192-.175.192-.438v-13.16c0-.262-.122-.437-.192-.437zm-5.128 14.508c-.367 0-.665-.403-.665-.91v-13.16c0-.508.298-.91.665-.91.368 0 .665.402.665.91v13.16c0 .507-.297.91-.665.91zm0-14.508s-.192.175-.192.438v13.16c0 .262.122.437.192.437s.193-.175.193-.438v-13.16c0-.262-.123-.437-.193-.437zM20.58 49.578c-.368 0-.665-.403-.665-.91v-13.16c0-.508.297-.91.665-.91.367 0 .665.402.665.91v13.16c0 .507-.298.91-.665.91zm0-14.508s-.193.175-.193.438v13.16c0 .262.123.437.193.437s.192-.175.192-.438v-13.16c0-.262-.122-.437-.192-.437zm15.4 10.972c-.368 0-.665-.402-.665-.91v-6.09c0-.507.297-.91.665-.91.367 0 .665.403.665.91v6.09c0 .508-.298.91-.665.91zm0-7.437s-.193.175-.193.438v6.09c0 .262.123.437.193.437s.192-.175.192-.438v-6.09c0-.262-.122-.437-.192-.437zm-10.273 7.438c-.367 0-.665-.403-.665-.91v-6.09c0-.508.298-.91.665-.91.368 0 .665.402.665.91v6.09c0 .507-.297.91-.665.91zm0-7.438s-.192.175-.192.438v6.09c0 .262.122.437.192.437s.193-.175.193-.438v-6.09c0-.262-.123-.437-.193-.437zm-7.7 7.438c-.367 0-.665-.403-.665-.91v-6.09c0-.508.298-.91.665-.91.368 0 .665.402.665.91v6.09c0 .507-.297.91-.665.91zm0-7.438s-.192.175-.192.438v6.09c0 .262.122.437.192.437s.193-.175.193-.438v-6.09c0-.262-.123-.437-.193-.437zm20.528 6.703c-.368 0-.665-.403-.665-.91v-4.62c0-.508.297-.91.665-.91.367 0 .665.402.665.91v4.62c0 .507-.298.91-.665.91zm0-5.968s-.193.175-.193.438v4.62c0 .262.123.437.193.437s.192-.175.192-.438v-4.62c0-.262-.122-.437-.192-.437zm2.572 5.285c-.367 0-.665-.403-.665-.91v-3.273c0-.507.298-.91.665-.91.14 0 .28.07.403.176.175.175.262.437.262.735v3.272c0 .507-.297.91-.665.91zm0-4.62s-.192.175-.192.438v3.272c0 .28.14.438.192.438.053 0 .193-.158.193-.438v-3.273a.681.681 0 00-.123-.402s-.035-.035-.052-.035h-.018zm-25.655 4.62c-.367 0-.665-.403-.665-.91v-3.273c0-.507.298-.91.665-.91.368 0 .665.403.665.91v3.273c0 .507-.297.91-.665.91zm0-4.62s-.192.175-.192.438v3.272c0 .28.14.438.192.438.07 0 .193-.175.193-.438v-3.273c0-.262-.123-.437-.193-.437z"
      fill="#1D1D1B" />
    <path
      d="M54.18 32.55a4.963 4.963 0 00-3.115-1.61v-6.475a22.755 22.755 0 00-6.72-16.135 22.998 22.998 0 00-16.223-6.685A22.998 22.998 0 0011.9 8.33a22.755 22.755 0 00-6.72 16.135v6.545c-1.19.14-2.293.7-3.08 1.575a4.892 4.892 0 00-1.26 3.22v11.13c0 1.207.437 2.38 1.26 3.29a4.795 4.795 0 002.747 1.523h7.455V30.94H6.58v-6.475c0-5.688 2.275-11.13 6.317-15.155A21.59 21.59 0 0128.14 3.028 21.59 21.59 0 0143.382 9.31 21.378 21.378 0 0149.7 24.465v6.475h-5.74v20.878h6.58a4.887 4.887 0 003.465-1.435 4.89 4.89 0 001.435-3.448v-11.13a4.914 4.914 0 00-1.225-3.255h-.035zm-43.208-.21l-.07 18.095H5.74a3.496 3.496 0 01-3.5-3.483v-11.13a3.47 3.47 0 011.032-2.467A3.527 3.527 0 015.74 32.34h5.25-.018zm43.033 3.482v11.13a3.47 3.47 0 01-1.033 2.468 3.527 3.527 0 01-2.467 1.015h-5.18V32.34h5.18a3.496 3.496 0 013.5 3.482z"
      fill="#010101" />
  </g>
  <defs>
    <clipPath id="prefix__clip0_1335_5149">
      <path fill="#fff" d="M0 0h56v56H0z" />
    </clipPath>
  </defs>
</svg>