<svg width="32" height="32" viewBox="0 0 32 32" fill="none" xmlns="http://www.w3.org/2000/svg">
<path fill-rule="evenodd" clip-rule="evenodd" d="M5 24C5 23.7348 5.10536 23.4804 5.29289 23.2929C5.48043 23.1054 5.73478 23 6 23H26C26.2652 23 26.5196 23.1054 26.7071 23.2929C26.8946 23.4804 27 23.7348 27 24C27 24.2652 26.8946 24.5196 26.7071 24.7071C26.5196 24.8946 26.2652 25 26 25H6C5.73478 25 5.48043 24.8946 5.29289 24.7071C5.10536 24.5196 5 24.2652 5 24ZM5 16C5 15.7348 5.10536 15.4804 5.29289 15.2929C5.48043 15.1054 5.73478 15 6 15H26C26.2652 15 26.5196 15.1054 26.7071 15.2929C26.8946 15.4804 27 15.7348 27 16C27 16.2652 26.8946 16.5196 26.7071 16.7071C26.5196 16.8946 26.2652 17 26 17H6C5.73478 17 5.48043 16.8946 5.29289 16.7071C5.10536 16.5196 5 16.2652 5 16ZM5 8C5 7.73478 5.10536 7.48043 5.29289 7.29289C5.48043 7.10536 5.73478 7 6 7H26C26.2652 7 26.5196 7.10536 26.7071 7.29289C26.8946 7.48043 27 7.73478 27 8C27 8.26522 26.8946 8.51957 26.7071 8.70711C26.5196 8.89464 26.2652 9 26 9H6C5.73478 9 5.48043 8.89464 5.29289 8.70711C5.10536 8.51957 5 8.26522 5 8Z" fill="black"/>
</svg>
