<svg width="96" height="96" fill="none" xmlns="http://www.w3.org/2000/svg"><g clip-path="url(#prefix__prefix__clip0_1335_3123)" stroke="#fff" stroke-width=".7" stroke-miterlimit="10" stroke-linecap="round"><path d="M48 94.668c25.774 0 46.668-20.894 46.668-46.668S73.774 1.332 48 1.332 1.332 22.226 1.332 48 22.226 94.668 48 94.668z"/><path d="M3.084 15.987h11.077V27.37m76.092 55.688H79.176v-11.42M48 77.272c16.167 0 29.272-13.106 29.272-29.272 0-16.166-13.105-29.272-29.272-29.272-16.165 0-29.27 13.105-29.27 29.272 0 16.166 13.105 29.272 29.272 29.272z"/><path d="M66.044 70.84c0-7.652-4.796-14.2-11.496-16.788a12.16 12.16 0 005.443-10.163c0-6.737-5.443-12.18-12.18-12.18a12.168 12.168 0 00-12.181 12.18c0 4.301 2.246 8.07 5.595 10.24-6.585 2.702-11.229 9.135-11.229 16.71"/></g><defs><clipPath id="prefix__prefix__clip0_1335_3123"><path fill="#fff" d="M0 0h96v96H0z"/></clipPath></defs></svg>