<svg width="95" height="89" fill="none" xmlns="http://www.w3.org/2000/svg">
  <g clip-path="url(#prefix__clip0_1335_3130)" stroke="#fff" stroke-width=".7" stroke-miterlimit="10"
    stroke-linecap="round">
    <path
      d="M18.429 52.522c3.84 0 6.952-3.09 6.952-6.9 0-3.81-3.113-6.9-6.952-6.9-3.84 0-6.952 3.09-6.952 6.9 0 3.81 3.112 6.9 6.952 6.9zM48.43 62.954c3.84 0 6.953-3.09 6.953-6.9 0-3.81-3.113-6.9-6.953-6.9-3.839 0-6.952 3.09-6.952 6.9 0 3.81 3.113 6.9 6.953 6.9zM69.72 53.81c3.84 0 6.952-3.09 6.952-6.9 0-3.81-3.113-6.9-6.952-6.9-3.84 0-6.952 3.09-6.952 6.9 0 3.81 3.112 6.9 6.952 6.9zM7.784 66.585c2.72 0 4.923-2.187 4.923-4.886 0-2.698-2.204-4.886-4.923-4.886S2.861 59.002 2.861 61.7c0 2.699 2.204 4.886 4.923 4.886zM49.263 87.844c2.719 0 4.923-2.187 4.923-4.885 0-2.699-2.204-4.886-4.923-4.886-2.72 0-4.923 2.187-4.923 4.886 0 2.698 2.204 4.885 4.923 4.885zM88.913 69.028c2.72 0 4.923-2.188 4.923-4.886s-2.204-4.886-4.923-4.886-4.923 2.188-4.923 4.886 2.204 4.886 4.923 4.886zM65.097 36.643c2.719 0 4.923-2.187 4.923-4.886 0-2.698-2.204-4.885-4.923-4.885-2.72 0-4.923 2.187-4.923 4.885 0 2.699 2.204 4.886 4.923 4.886zM52.423 10.927c2.719 0 4.923-2.187 4.923-4.886 0-2.698-2.204-4.885-4.923-4.885S47.5 3.343 47.5 6.04c0 2.699 2.204 4.886 4.923 4.886zM18.926 15.912c1.985 0 3.593-1.596 3.593-3.566 0-1.969-1.608-3.565-3.593-3.565-1.984 0-3.592 1.596-3.592 3.566 0 1.969 1.608 3.565 3.592 3.565zM31.368 29.315c1.984 0 3.592-1.597 3.592-3.566 0-1.969-1.608-3.565-3.592-3.565s-3.593 1.596-3.593 3.565c0 1.97 1.609 3.566 3.593 3.566zM4.756 40.274c1.985 0 3.593-1.596 3.593-3.565 0-1.969-1.608-3.565-3.593-3.565-1.984 0-3.592 1.596-3.592 3.565 0 1.97 1.608 3.565 3.593 3.565zM38.419 48.032c1.984 0 3.592-1.596 3.592-3.565 0-1.97-1.608-3.565-3.592-3.565s-3.593 1.596-3.593 3.565c0 1.969 1.609 3.565 3.593 3.565zM33.163 71.075c1.984 0 3.592-1.597 3.592-3.566 0-1.969-1.608-3.565-3.592-3.565S29.57 65.54 29.57 67.51c0 1.97 1.609 3.566 3.593 3.566zM80.43 33.64c1.984 0 3.593-1.597 3.593-3.566 0-1.97-1.609-3.566-3.593-3.566s-3.592 1.597-3.592 3.566c0 1.969 1.608 3.565 3.592 3.565zM82.194 47.702c1.984 0 3.592-1.596 3.592-3.565 0-1.97-1.608-3.566-3.592-3.566s-3.592 1.597-3.592 3.566c0 1.969 1.608 3.565 3.592 3.565zM35.094 27.004l24.947 3.73M66.727 36.511l1.164 3.73M55.549 57.705l28.44 6.437M54.918 53.149l8.316-3.73M43.709 50.937l-3.027-3.004M48.432 62.92l.831 15.153M30.835 64.44l-8.05-12.644M10.479 57.408l4.756-5.612M7.783 38.855l4.424 3.037M51.524 11.224l-2.428 37.403M26.145 45.061l8.714-.594M73.877 41.265l4.723-7.99M76.871 45.523l1.597-.429M83.125 47.735l4.058 11.521M28.773 22.943l-7.584-7.956" />
  </g>
  <defs>
    <clipPath id="prefix__clip0_1335_3130">
      <path fill="#fff" d="M0 0h95v89H0z" />
    </clipPath>
  </defs>
</svg>