<svg width="96" height="98" fill="none" xmlns="http://www.w3.org/2000/svg"><path d="M57.267 11.893l4.623 4.713-4.847 4.757M94.43 29.442c0-5.476-3.411-10.098-8.214-11.983 2.334-1.571 3.86-4.22 3.86-7.226 0-4.802-3.904-8.662-8.662-8.662-4.757 0-8.662 3.904-8.662 8.662 0 3.052 1.571 5.744 3.995 7.315-4.713 1.93-8.034 6.508-8.034 11.894M27.287 95.551c0-5.475-3.41-10.098-8.213-11.983 2.334-1.57 3.86-4.219 3.86-7.226 0-4.802-3.905-8.662-8.662-8.662-4.758 0-8.662 3.905-8.662 8.662 0 3.052 1.57 5.745 3.994 7.316-4.713 1.93-8.034 6.507-8.034 11.893M44.387 28.275v5.969M61.397 34.738l-4.22 4.219M65.84 49.548h-5.924" stroke="#fff" stroke-width=".7" stroke-miterlimit="10" stroke-linecap="round"/><path d="M18.94 49.414S2.02 47.933 2.02 32.494c0-15.44 15.842-15.843 15.842-15.843h40.573M72.616 50.042s16.875 1.481 16.875 16.875S73.648 82.76 73.648 82.76H33.121M54.8 49.1c0-5.117-4.174-9.29-9.29-9.29-5.117 0-9.291 4.173-9.291 9.29 0 3.68 2.154 6.777 5.206 8.303v3.096a4.425 4.425 0 004.443 4.444 4.425 4.425 0 004.443-4.444v-3.456A9.2 9.2 0 0054.8 49.1zM29.846 34.154l4.174 4.22M25.357 49.548h5.97" stroke="#fff" stroke-width=".7" stroke-miterlimit="10" stroke-linecap="round"/></svg>