<svg viewBox="0 0 24 24">
  <path fill="currentColor"
    d="M19.828 8.623c0 1.558-.38 3.116-1.015 4.55-1.879 4.154-5.788 6.602-10.434 6.602-2.183 0-4.34-.618-6.168-1.755.304.024.634.05.939.05 1.828 0 3.58-.594 5-1.682-1.7-.025-3.223-1.138-3.756-2.72a3.96 3.96 0 001.828-.074c-1.879-.373-3.275-1.98-3.224-3.834v-.049c.558.297 1.167.47 1.827.495-1.142-.742-1.802-1.954-1.802-3.265 0-.692.178-1.384.533-1.978 2.056 2.448 5.077 3.932 8.301 4.105a3.55 3.55 0 01-.101-.89c0-2.176 1.802-3.932 4.036-3.932 1.092 0 2.158.445 2.92 1.236.9-.17 1.766-.488 2.563-.94a3.951 3.951 0 01-1.777 2.152 7.42 7.42 0 002.31-.618 7.717 7.717 0 01-2.005 2.028c.025.173.025.346.025.519z">
  </path>
</svg>