<svg width="56" height="56" fill="currentColor" xmlns="http://www.w3.org/2000/svg"><path d="M22.506 16.205c-.595.053-1.05.543-1.033 1.12v14.578c0 .542.385 1.032.928 1.12.262.052.542 0 .77-.14l12.407-7.298c.35-.193.56-.578.56-.98s-.21-.77-.56-.98l-12.407-7.297a1.136 1.136 0 00-.665-.158v.035z"/><path d="M23.152 18.323l10.728 6.3-10.728 6.317V18.323z"/><path d="M47.793 44.415H8.156c-3.658 0-6.65-2.975-6.65-6.65V10.22c0-3.657 2.975-6.65 6.65-6.65h39.637c3.658 0 6.65 2.975 6.65 6.65v27.545c0 3.657-2.975 6.65-6.65 6.65zM8.156 5.163a5.071 5.071 0 00-5.058 5.057v27.545a5.071 5.071 0 005.058 5.057h39.637a5.071 5.071 0 005.058-5.057V10.22a5.071 5.071 0 00-5.058-5.057H8.156zM39.742 49.28H13.895a.784.784 0 01-.788-.788c0-.437.35-.787.788-.787h25.847c.438 0 .788.35.788.788 0 .437-.35.787-.788.787z"/></svg>