<svg width="96" height="88" viewBox="0 0 96 88" fill="none" xmlns="http://www.w3.org/2000/svg">
<path d="M48.3038 15.4099H13.0312V46.0528H48.3038V15.4099Z" stroke="white" stroke-width="0.7" stroke-miterlimit="10" stroke-linecap="round"/>
<path d="M68.546 55.7368H33.2734V86.3797H68.546V55.7368Z" stroke="white" stroke-width="0.7" stroke-miterlimit="10" stroke-linecap="round"/>
<path d="M59.4785 55.7369V32.9756H94.7511V63.6538H59.4785V55.7369Z" stroke="white" stroke-width="0.7" stroke-miterlimit="10" stroke-linecap="round"/>
<path d="M51.2664 8.19975L46.4824 6.14982L48.5888 1.23706" stroke="white" stroke-width="0.7" stroke-miterlimit="10" stroke-linecap="round"/>
<path d="M74.1511 24.7053C74.2582 23.8924 74.3296 23.0442 74.3296 22.1959C74.3296 12.0877 66.0469 3.88794 55.8365 3.88794C52.8376 3.88794 49.9815 4.59481 47.4824 5.86718" stroke="white" stroke-width="0.7" stroke-miterlimit="10" stroke-linecap="round"/>
<path d="M16.0312 70.8992L18.9587 75.1758L14.4961 78.18" stroke="white" stroke-width="0.7" stroke-miterlimit="10" stroke-linecap="round"/>
<path d="M5.64165 44.7803C5.10613 45.4165 4.60632 46.088 4.1422 46.7949C-1.32005 55.348 1.21472 66.658 9.85436 72.0655C12.3891 73.656 15.1738 74.5749 17.9942 74.8224" stroke="white" stroke-width="0.7" stroke-miterlimit="10" stroke-linecap="round"/>
</svg>
