<?xml version="1.0" encoding="utf-8"?>
<!-- Generator: Adobe Illustrator 26.5.0, SVG Export Plug-In . SVG Version: 6.00 Build 0)  -->
<svg version="1.1" id="Layer_1" xmlns="http://www.w3.org/2000/svg" xmlns:xlink="http://www.w3.org/1999/xlink" x="0px" y="0px"
	 viewBox="0 0 377.5 365" style="enable-background:new 0 0 377.5 365;" xml:space="preserve">
<style type="text/css">
	.st0{clip-path:url(#SVGID_00000005986042903072096080000012403282005072219804_);}
	.st1{fill:none;stroke:#C6C6C6;stroke-width:0.6604;stroke-miterlimit:10;}
	.st2{fill:none;stroke:#C6C6C6;stroke-width:0.6231;stroke-miterlimit:10;}
	.st3{fill:#EDEDED;}
	.st4{fill:none;stroke:#000000;stroke-miterlimit:10;}
	.st5{fill:none;stroke:#000000;stroke-miterlimit:10;stroke-dasharray:2.9674,2.9674,2.9674,2.9674;}
	.st6{fill:none;stroke:#000000;stroke-miterlimit:10;stroke-dasharray:2.9674,2.9674,2.9674,2.9674,2.9674,2.9674;}
	.st7{stroke:#EDEDED;stroke-width:2;stroke-miterlimit:10;}
	.st8{fill:none;stroke:#000000;stroke-miterlimit:10;stroke-dasharray:2.9592,2.9592,2.9592,2.9592,2.9592,2.9592;}
	.st9{fill:none;stroke:#000000;stroke-width:0.5;stroke-miterlimit:10;}
	.st10{fill:none;stroke:#000000;stroke-miterlimit:10;stroke-dasharray:2.8212,2.8212,2.8212,2.8212,2.8212,2.8212;}
	
		.st11{fill:none;stroke:#000000;stroke-width:0.9404;stroke-miterlimit:10;stroke-dasharray:2.8212,2.8212,2.8212,2.8212,2.8212,2.8212;}
	.st12{fill:none;stroke:#000000;stroke-miterlimit:10;stroke-dasharray:4.8948,4.8948,4.8948,4.8948,4.8948,4.8948;}
	.st13{opacity:0.5;}
	.st14{clip-path:url(#SVGID_00000178885880815530798090000012433163112374423992_);}
	.st15{fill:none;stroke:#000000;stroke-width:0.544;stroke-miterlimit:10;}
	.st16{fill:none;stroke:#000000;stroke-width:0.5467;stroke-miterlimit:10;}
	.st17{clip-path:url(#SVGID_00000087400301716003350240000002792602759420182433_);}
	.st18{fill:none;stroke:#000000;stroke-width:1.0063;stroke-miterlimit:10;}
	.st19{fill:none;stroke:#000000;stroke-miterlimit:10;stroke-dasharray:3,3,3,3,3,3;}
	.st20{fill:#EDEDED;stroke:#B2B2B2;stroke-width:0.9621;stroke-miterlimit:10;}
	.st21{fill:#B2B2B2;stroke:#EDEDED;stroke-width:2;stroke-miterlimit:10;}
	.st22{fill:#EDEDED;stroke:#000000;stroke-width:0.9621;stroke-miterlimit:10;}
	.st23{fill:none;stroke:#000000;stroke-width:1.0063;stroke-miterlimit:10;stroke-dasharray:3,3,3,3,3,3;}
	.st24{fill:#E30613;}
	.st25{fill:#FFFFFF;}
	.st26{fill:none;stroke:#000000;stroke-miterlimit:10;stroke-dasharray:2.958,2.958,2.958,2.958;}
	.st27{fill:none;stroke:#000000;stroke-miterlimit:10;stroke-dasharray:2.958,2.958,2.958,2.958,2.958,2.958;}
	.st28{fill:#EDEDED;stroke:#000000;stroke-miterlimit:10;}
	.st29{stroke:#000000;stroke-miterlimit:10;}
	.st30{fill:#EDEDED;stroke:#EDEDED;stroke-width:6.6444;stroke-miterlimit:10;}
	.st31{fill:none;stroke:#000000;stroke-miterlimit:10;stroke-dasharray:2.8686,2.8686,2.8686,2.8686,2.8686,2.8686;}
	
		.st32{fill:none;stroke:#000000;stroke-width:0.8791;stroke-miterlimit:10;stroke-dasharray:2.6373,2.6373,2.6373,2.6373,2.6373,2.6373;}
	
		.st33{fill:none;stroke:#000000;stroke-width:0.9913;stroke-miterlimit:10;stroke-dasharray:2.8435,2.8435,2.8435,2.8435,2.8435,2.8435;}
	.st34{clip-path:url(#SVGID_00000084528908900083515620000007185943762258127490_);}
	.st35{fill:#009640;}
	.st36{fill:none;stroke:#000000;stroke-width:0.9987;stroke-miterlimit:10;stroke-dasharray:4.726,4.726,4.726,4.726,4.726,4.726;}
	.st37{fill:none;stroke:#000000;stroke-miterlimit:10;stroke-dasharray:4.7837,4.7837,4.7837,4.7837,4.7837,4.7837;}
	.st38{fill:none;stroke:#000000;stroke-width:1.2451;stroke-miterlimit:10;}
	.st39{fill:none;stroke:#000000;stroke-width:0.6408;stroke-miterlimit:10;}
	.st40{fill:none;stroke:#000000;stroke-width:0.5917;stroke-miterlimit:10;}
	.st41{clip-path:url(#SVGID_00000065774180902876755350000011455922832471729284_);}
	.st42{fill:none;stroke:#000000;stroke-miterlimit:10;stroke-dasharray:4.1209,4.1209,4.1209,4.1209,4.1209,4.1209;}
	.st43{stroke:#FFFFFF;stroke-width:2.7473;stroke-miterlimit:10;}
	.st44{clip-path:url(#SVGID_00000168830658726439775580000002027659475127121596_);}
	.st45{stroke:#FFFFFF;stroke-width:4.988;stroke-miterlimit:10;}
	.st46{fill:none;stroke:#000000;stroke-width:0.9428;stroke-miterlimit:10;}
	.st47{stroke:#FFFFFF;stroke-width:2;stroke-miterlimit:10;}
	
		.st48{fill:none;stroke:#000000;stroke-width:0.7902;stroke-miterlimit:10;stroke-dasharray:2.3707,2.3707,2.3707,2.3707,2.3707,2.3707;}
</style>
<g>
	<line class="st38" x1="195.2" y1="82.2" x2="195.2" y2="153"/>
	<line class="st38" x1="143.6" y1="96" x2="179" y2="157.3"/>
	<line class="st38" x1="105.9" y1="133.8" x2="167.2" y2="169.1"/>
	<line class="st38" x1="92.1" y1="185.3" x2="162.8" y2="185.3"/>
	<line class="st38" x1="105.9" y1="236.9" x2="167.2" y2="201.5"/>
	<line class="st38" x1="143.6" y1="274.6" x2="179" y2="213.3"/>
	<line class="st38" x1="195.2" y1="288.4" x2="195.2" y2="217.7"/>
	<line class="st38" x1="246.7" y1="274.6" x2="211.4" y2="213.3"/>
	<line class="st38" x1="284.5" y1="236.9" x2="223.2" y2="201.5"/>
	<line class="st38" x1="298.3" y1="185.3" x2="227.5" y2="185.3"/>
	<line class="st38" x1="284.5" y1="133.8" x2="223.2" y2="169.1"/>
	<line class="st38" x1="246.7" y1="96" x2="211.4" y2="157.3"/>
	<circle cx="195.2" cy="185.3" r="6.1"/>
</g>
<g>
	<path d="M196.5,55.8l4.5,0.2c1.1,0,2,0.4,2.5,1.1c0.4,0.5,0.7,1.3,0.6,2.1c-0.1,2-1.2,3.1-3.6,3l-2.9-0.1l-0.2,4.5l-1.3,0
		L196.5,55.8z M197.6,61l2.8,0.1c1.5,0.1,2.3-0.7,2.3-1.9c0-1.3-0.7-2-2.1-2l-2.9-0.1L197.6,61z"/>
	<path d="M206.6,60.6L206.6,60.6c0.6-0.7,1.4-1.2,2.4-1.1c0.2,0,0.3,0.1,0.5,0.1l-0.1,1.2l0,0c-0.2-0.1-0.3-0.1-0.5-0.1
		c-1.2-0.1-2.3,0.7-2.5,2.1L206,67l-1.2-0.1l0.7-7.7l1.2,0.1L206.6,60.6z"/>
	<path d="M209.6,63.4c0.3-2.2,2-3.8,4.3-3.5c2.3,0.3,3.4,2.3,3.1,4.6c-0.3,2.2-2,3.8-4.3,3.5C210.4,67.7,209.2,65.7,209.6,63.4z
		 M215.7,64.4c0.2-1.7-0.4-3.2-2-3.4s-2.7,1-2.9,2.7c-0.2,1.7,0.4,3.1,2,3.4S215.5,66,215.7,64.4z"/>
	<path d="M219,61l1.2,0.3l-0.2,1.1l0,0c0.7-0.6,1.6-1,2.7-0.7c1.9,0.4,2.9,2.2,2.4,4.7c-0.5,2.4-2.1,3.7-4.2,3.3
		c-1-0.2-1.7-0.7-2.1-1.6l0,0l-0.7,3.3l-1.2-0.3L219,61z M223.9,66c0.4-1.7-0.1-3.1-1.5-3.4c-1.7-0.4-2.7,0.8-3.1,2.5
		c-0.4,1.6,0,3.1,1.7,3.5C222.5,68.9,223.5,67.8,223.9,66z"/>
	<path d="M225.9,66.5c0.6-2.2,2.5-3.5,4.7-2.9c2.2,0.6,3.1,2.8,2.4,4.9c-0.6,2.2-2.5,3.5-4.7,2.9C226.2,70.8,225.3,68.6,225.9,66.5z
		 M231.9,68.2c0.5-1.6,0.1-3.2-1.5-3.6s-2.8,0.6-3.3,2.2c-0.5,1.6,0,3.2,1.5,3.6S231.4,69.9,231.9,68.2z"/>
	<path d="M233.4,70.1l1.2,0.4c-0.3,1.3,0.4,2,1.5,2.4c1.2,0.4,1.9,0.1,2.1-0.6c0.3-0.8-0.2-1.2-1.4-2c-1.3-0.8-2.5-1.6-1.9-3.2
		c0.4-1.2,1.6-1.7,3.3-1.1c1.8,0.7,2.4,1.8,2,3.3L239,69c0.2-1-0.1-1.6-1.2-2c-1-0.4-1.6-0.1-1.8,0.5c-0.3,0.8,0.4,1.2,1.5,1.9
		c1.4,0.8,2.5,1.6,1.9,3.3c-0.5,1.5-2,1.8-3.7,1.2C233.7,73.1,232.9,71.8,233.4,70.1z"/>
	<path d="M242.5,68l1.1,0.5l-2.9,7.1l-1.1-0.5L242.5,68z M243.6,65.2l1.1,0.5l-0.6,1.4l-1.1-0.5L243.6,65.2z"/>
	<path d="M244.8,68.9l1,0.5l1-2.2l1.1,0.5l-1,2.2l1.4,0.6l-0.4,0.9l-1.4-0.6l-2,4.6c-0.2,0.5,0,0.8,0.4,1c0.2,0.1,0.5,0.2,0.6,0.2
		l0,0l-0.4,1c-0.3-0.1-0.6-0.2-0.9-0.3c-0.9-0.4-1.4-1.1-0.9-2.1l2.2-4.8l-1-0.5L244.8,68.9z"/>
	<path d="M249.6,71.1l1.1,0.5l-3.4,7l-1.1-0.5L249.6,71.1z M250.9,68.4l1.1,0.5l-0.6,1.3l-1.1-0.5L250.9,68.4z"/>
	<path d="M250.2,75.6c1.1-2,3.2-2.9,5.2-1.8c2,1.1,2.4,3.4,1.3,5.3s-3.2,2.9-5.2,1.8C249.5,79.8,249.1,77.6,250.2,75.6z M255.6,78.6
		c0.8-1.5,0.7-3.1-0.7-3.9c-1.4-0.8-2.8,0-3.7,1.5s-0.7,3.1,0.7,3.9C253.4,80.8,254.8,80,255.6,78.6z"/>
	<path d="M260.4,78L260.4,78c0.9-0.3,1.8-0.3,2.7,0.3c1.4,0.9,1.7,2.1,0.9,3.5l-2.9,4.6l-1-0.6l2.8-4.5c0.5-0.8,0.3-1.7-0.6-2.3
		c-1-0.7-2.3-0.4-2.9,0.7l-2.5,4l-1-0.6l4.1-6.5l1,0.6L260.4,78z"/>
	<path d="M273.5,82.2l1,0.7l-9.8,6l-1-0.7L273.5,82.2z"/>
	<path d="M277.9,85.6l3.3,2.9c0.8,0.7,1.2,1.6,1.2,2.5c0,0.7-0.3,1.4-0.8,2c-1.3,1.5-2.9,1.6-4.7,0.1l-2.2-1.9l-3,3.4l-1-0.9
		L277.9,85.6z M275.5,90.3l2.1,1.9c1.1,1,2.2,0.9,3,0c0.8-1,0.7-2-0.3-2.9l-2.2-1.9L275.5,90.3z"/>
	<path d="M279.5,96.2c1.6-1.6,3.9-1.8,5.5-0.2c1.6,1.6,1.3,3.9-0.3,5.5c-1.6,1.6-3.9,1.9-5.5,0.2C277.7,100.1,277.9,97.8,279.5,96.2
		z M283.9,100.6c1.2-1.2,1.6-2.8,0.4-3.9c-1.2-1.2-2.7-0.8-3.9,0.4c-1.2,1.2-1.6,2.8-0.4,3.9C281.2,102.2,282.7,101.8,283.9,100.6z"
		/>
	<path d="M284.3,103l0.8,0.9c-0.9,1-0.6,1.9,0.2,2.8c0.8,1,1.6,1,2.1,0.5c0.7-0.6,0.4-1.2-0.3-2.4c-0.8-1.4-1.4-2.6-0.2-3.7
		c1-0.8,2.2-0.7,3.4,0.7c1.3,1.4,1.2,2.7,0.2,3.9l-0.8-0.9c0.7-0.8,0.7-1.5-0.1-2.3c-0.7-0.8-1.4-0.8-1.9-0.4
		c-0.6,0.6-0.3,1.2,0.4,2.4c0.8,1.4,1.4,2.6,0,3.8c-1.2,1-2.6,0.6-3.8-0.7C283.1,105.8,283.1,104.2,284.3,103z"/>
	<path d="M293.3,105.5l0.8,0.9l-6,4.8l-0.8-0.9L293.3,105.5z M295.7,103.7l0.8,0.9l-1.2,0.9l-0.8-0.9L295.7,103.7z"/>
	<path d="M294.9,107.5l0.7,0.9l1.9-1.5l0.7,1l-1.9,1.5l0.9,1.2l-0.8,0.6l-0.9-1.2l-4,3c-0.4,0.3-0.4,0.7-0.1,1.1
		c0.1,0.2,0.4,0.4,0.5,0.4l0,0l-0.8,0.6c-0.2-0.2-0.5-0.4-0.7-0.7c-0.6-0.8-0.7-1.6,0.2-2.3l4.2-3.2l-0.7-0.9L294.9,107.5z"/>
	<path d="M298.1,111.7l0.7,1l-6.3,4.5l-0.7-1L298.1,111.7z M300.5,109.9l0.7,1l-1.2,0.9l-0.7-1L300.5,109.9z"/>
	<path d="M296.4,115.9c1.9-1.2,4.2-1,5.4,0.9c1.3,1.9,0.5,4.1-1.4,5.3c-1.9,1.2-4.2,1-5.4-0.9C293.7,119.3,294.5,117.1,296.4,115.9z
		 M299.7,121.1c1.4-0.9,2.1-2.4,1.2-3.7s-2.5-1.4-3.9-0.4c-1.4,0.9-2.1,2.4-1.2,3.7S298.3,122,299.7,121.1z"/>
	<path d="M304.1,123L304.1,123c0.9,0.2,1.7,0.6,2.2,1.6c0.8,1.4,0.5,2.7-0.9,3.5l-4.7,2.6l-0.6-1.1l4.7-2.6c0.9-0.5,1.1-1.3,0.5-2.3
		c-0.6-1.1-1.8-1.4-2.9-0.8l-4.2,2.3l-0.6-1.1l6.8-3.7l0.6,1.1L304.1,123z"/>
	<path d="M308.3,128.6l0.5,1.1l-6.9,3.4l-0.5-1.1L308.3,128.6z M310.9,127.2l0.5,1.1l-1.3,0.7l-0.5-1.1L310.9,127.2z"/>
	<path d="M309.2,132.8L309.2,132.8c0.9,0.2,1.6,0.8,2.1,1.8c0.7,1.5,0.2,2.7-1.2,3.4l-5,2.2l-0.5-1.1l4.9-2.2
		c0.9-0.4,1.2-1.2,0.7-2.2c-0.5-1.1-1.7-1.6-2.8-1.1l-4.3,1.9l-0.5-1.1l7.1-3.1l0.5,1.1L309.2,132.8z"/>
	<path d="M305.2,141.5l0.4,1.1c-0.8,0.4-0.8,1.3-0.4,2.4c0.5,1.3,1.4,1.9,2.6,1.4l1-0.4l0,0c-0.9-0.3-1.5-0.7-1.9-1.7
		c-0.7-1.9,0.3-3.7,2.4-4.5c2.3-0.8,4.1,0.1,4.7,1.8c0.4,1.1,0.2,1.9-0.3,2.6l0,0l0.9-0.3l0.4,1.1l-6.9,2.5c-1.9,0.7-3.3-0.2-4-2.2
		C303.6,143.4,304,142.1,305.2,141.5z M311.4,145.1c1.6-0.6,2.3-1.6,1.8-3.2c-0.5-1.4-1.8-1.7-3.4-1.1c-1.6,0.6-2.4,1.7-1.9,3
		C308.5,145.6,309.9,145.7,311.4,145.1z"/>
	<path d="M320.3,151.9l0.3,1.2l-11.4-1.2l-0.3-1.2L320.3,151.9z"/>
	<path d="M321.7,157.3l0.8,4.4c0.2,1.1,0,2-0.5,2.7c-0.4,0.5-1.1,0.9-1.9,1.1c-1.9,0.4-3.3-0.5-3.7-2.8l-0.6-2.9l-4.4,0.8l-0.3-1.3
		L321.7,157.3z M316.9,159.6l0.5,2.8c0.3,1.5,1.2,2,2.4,1.8c1.3-0.2,1.8-1.1,1.5-2.5l-0.5-2.8L316.9,159.6z"/>
	<path d="M313.3,172.7l1.1-0.1l0,0c-0.8-0.5-1.4-1.1-1.5-2.2c-0.2-1.6,0.6-2.7,2.2-2.9l5.3-0.6l0.1,1.2l-5.3,0.6
		c-1,0.1-1.5,0.8-1.4,1.9c0.1,1.2,1.2,1.9,2.4,1.7l4.7-0.6l0.1,1.2l-7.7,0.9L313.3,172.7z"/>
	<path d="M320.1,176.2L320.1,176.2c0.8,0.4,1.5,1.2,1.5,2.2c0,0.2,0,0.3-0.1,0.5l-1.2,0.1l0,0c0-0.2,0.1-0.3,0-0.5
		c-0.1-1.2-1-2.2-2.5-2.1l-4.3,0.3l-0.1-1.2l7.7-0.5l0.1,1.2L320.1,176.2z"/>
	<path d="M321.6,180.3l0,1.2l-1.1,0l0,0c0.8,0.6,1.3,1.3,1.3,2.5c0,2-1.4,3.3-4,3.4c-2.5,0-4.1-1.2-4.1-3.3c0-1,0.3-1.8,1.1-2.5l0,0
		l-3.4,0.1l0-1.2L321.6,180.3z M317.8,186.1c1.7,0,3-0.8,3-2.2c0-1.7-1.4-2.4-3.1-2.4c-1.7,0-3,0.7-3,2.5
		C314.8,185.4,316.1,186.1,317.8,186.1z"/>
	<path d="M317.9,188.2c2.2,0.1,4,1.6,3.9,3.9c-0.1,2.3-2,3.6-4.3,3.5c-2.2-0.1-4-1.6-3.9-3.9C313.7,189.4,315.6,188.1,317.9,188.2z
		 M317.5,194.4c1.7,0.1,3.1-0.7,3.2-2.3c0.1-1.6-1.2-2.6-2.9-2.7c-1.7-0.1-3.1,0.7-3.2,2.3S315.8,194.3,317.5,194.4z"/>
	<path d="M316,196.3l-0.1,1.2c-1.4,0-1.8,0.9-2,2c-0.1,1.3,0.3,1.8,1.1,1.9c0.9,0.1,1.2-0.5,1.6-1.8c0.5-1.5,1-2.8,2.6-2.6
		c1.3,0.1,2,1.2,1.8,3c-0.2,1.9-1.2,2.7-2.8,2.7l0.1-1.2c1,0,1.5-0.5,1.7-1.6c0.1-1.1-0.3-1.6-0.9-1.7c-0.8-0.1-1.1,0.6-1.5,1.9
		c-0.5,1.5-1,2.8-2.7,2.6c-1.5-0.2-2.2-1.5-2-3.3C313.2,197.3,314.3,196.2,316,196.3z"/>
	<path d="M316.5,203.8c2.2,0.4,3.7,2.2,3.3,4.3c-0.4,2.3-2.4,3.2-4.9,2.7l1.1-5.9c-1.6-0.2-2.9,0.4-3.2,2c-0.2,1.1,0.2,1.9,1.2,2.4
		l-0.2,1.2c-1.6-0.6-2.3-2-2-3.7C312.2,204.4,314.3,203.4,316.5,203.8z M316.9,205.2l-0.8,4.6c1.5,0.2,2.6-0.4,2.8-1.8
		C319.2,206.6,318.2,205.6,316.9,205.2z"/>
	<path d="M320,219.7l-0.3,1.2l-9.3-6.8l0.3-1.2L320,219.7z"/>
	<path d="M312,222.1l-0.4,1.2c-1.8-0.4-3,0.3-3.7,2.2c-0.5,1.4-0.2,2.6,1,3.1c1.4,0.5,2.1-0.6,3.2-2.3c1-1.6,2.1-3,4-2.3
		c1.7,0.6,2.2,2.3,1.4,4.4c-0.9,2.5-2.5,3.1-4.5,2.7l0.4-1.2c1.5,0.3,2.5-0.3,3.1-1.8c0.5-1.4,0.2-2.5-0.8-2.8
		c-1.1-0.4-1.9,0.6-2.7,2c-1.1,1.8-2.2,3.4-4.5,2.6c-1.9-0.7-2.4-2.6-1.6-4.7C307.9,222.3,310,221.5,312,222.1z"/>
	<path d="M309.1,231.1c2.1,0.9,3.1,2.9,2.2,5.1c-0.9,2.1-3.2,2.7-5.2,1.8c-2.1-0.9-3.2-2.9-2.2-5C304.8,230.8,307,230.2,309.1,231.1
		z M306.6,236.8c1.6,0.7,3.1,0.5,3.8-1s-0.2-2.8-1.8-3.5c-1.6-0.7-3.1-0.4-3.8,1.1C304.1,234.8,305,236.1,306.6,236.8z"/>
	<path d="M305.7,238.7c2,1,2.9,3.1,1.9,5.2c-0.8,1.6-2.3,2.2-3.9,1.7l0.6-1.1c1,0.3,1.9,0,2.5-1.1c0.8-1.5-0.1-2.8-1.6-3.6
		c-1.5-0.8-3.1-0.7-3.9,0.8c-0.6,1.1-0.3,2.1,0.7,2.8l-0.6,1.1c-1.6-1-2-2.6-1.1-4.3C301.4,238.1,303.7,237.7,305.7,238.7z"/>
	<path d="M305.1,247.9l-0.6,1l-6.7-3.9l0.6-1L305.1,247.9z M307.7,249.4l-0.6,1l-1.3-0.7l0.6-1L307.7,249.4z"/>
	<path d="M300.6,248.2c1.9,1.2,2.6,3.4,1.5,5.3c-1.2,2-3.4,2-5.6,0.7l3.2-5c-1.4-0.8-2.8-0.7-3.7,0.6c-0.6,0.9-0.6,1.9,0.2,2.7
		l-0.6,1c-1.2-1.2-1.3-2.7-0.4-4.2C296.4,247.1,298.7,247,300.6,248.2z M300.4,249.6l-2.5,3.9c1.3,0.8,2.6,0.6,3.3-0.6
		C302,251.7,301.5,250.5,300.4,249.6z"/>
	<path d="M299.5,257l-0.6,0.9l2,1.4l-0.7,1l-2-1.4l-0.9,1.2l-0.8-0.6l0.9-1.2l-4.1-2.9c-0.4-0.3-0.7-0.2-1,0.2
		c-0.1,0.2-0.2,0.4-0.3,0.6l0,0l-0.9-0.6c0.1-0.3,0.3-0.6,0.5-0.9c0.6-0.8,1.3-1.2,2.2-0.5l4.3,3.1l0.6-0.9L299.5,257z"/>
	<path d="M288.2,260.9L288.2,260.9c-0.2-0.7-0.2-1.8,0.6-2.8c0.9-1.1,2.2-1.6,3.3-0.7c1.4,1.1,0.8,2.5-0.1,4.2
		c-0.5,1-0.9,1.6-0.3,2.1c0.7,0.5,1.5,0.4,2.1-0.5c0.8-1,0.7-1.8-0.1-2.6l0.7-0.9c1.1,1,1.4,2.4,0.1,4c-1,1.3-2.2,1.9-3.7,0.7
		l-2.9-2.3c-0.5-0.4-0.9-0.5-1.2,0.1l0,0l-0.7-0.5c0-0.2,0.1-0.3,0.3-0.6C287,260.6,287.5,260.5,288.2,260.9z M289.6,262l1,0.8
		c0.1-0.5,0.3-1.1,0.6-1.7c0.6-1.1,1-2,0.1-2.7c-0.8-0.6-1.5-0.1-2,0.5C288.4,260.2,288.9,261.5,289.6,262z"/>
	<path d="M293.7,269.4l-0.8,0.9l-8.1-7l0.8-0.9L293.7,269.4z"/>
	<path d="M282.9,263.6c-0.1,0.3-0.2,0.8,0.5,1.3l0.5-0.5l1.1,1l-1,1.1l-1.1-1c-0.8-0.7-0.9-1.6-0.4-2.3L282.9,263.6z"/>
	<path d="M283.3,270.6c1.6,1.6,1.8,3.9,0.2,5.5c-1.7,1.6-3.8,1.2-5.6-0.6l4.3-4.2c-1.2-1.1-2.6-1.3-3.7-0.2c-0.8,0.8-1,1.7-0.4,2.6
		l-0.8,0.8c-0.9-1.4-0.7-3,0.6-4.2C279.5,268.7,281.8,269,283.3,270.6z M282.9,272l-3.3,3.2c1.1,1,2.4,1.2,3.3,0.2
		C283.9,274.4,283.7,273.1,282.9,272z"/>
	<path d="M278.2,279.5L278.2,279.5c0,0.9-0.3,1.8-1.1,2.5c-1.2,1-2.5,1-3.6-0.2l-3.5-4.1l0.9-0.8l3.5,4c0.6,0.8,1.5,0.8,2.3,0.1
		c0.9-0.8,1-2,0.2-3l-3.1-3.6l0.9-0.8l5,5.9l-0.9,0.8L278.2,279.5z"/>
	<path d="M274.2,284.2l-1,0.8L269,282c-0.6-0.4-1.4-1-1.4-1l0,0c0,0,0.4,0.9,0.6,1.6l1.7,4.9l-1,0.8l-2.4-7.8l1.1-0.8L274.2,284.2z"
		/>
	<path d="M267.9,288.9l-1,0.7l-4.4-6.3l1-0.7L267.9,288.9z M269.6,291.3l-1,0.7l-0.9-1.2l1-0.7L269.6,291.3z"/>
	<path d="M263.7,290.2L263.7,290.2c0,0.9-0.3,1.9-1.2,2.4c-0.2,0.1-0.3,0.2-0.5,0.2l-0.6-1l0,0c0.2,0,0.3-0.1,0.5-0.2
		c1-0.7,1.4-2,0.6-3.2l-2.3-3.6l1-0.7l4.2,6.5l-1,0.7L263.7,290.2z"/>
	<path d="M259.6,289.8c1.1,1.9,0.8,4.2-1.2,5.4c-2,1.2-4.1,0.3-5.3-1.7s-0.8-4.2,1.2-5.4C256.3,287,258.5,287.8,259.6,289.8z
		 M254.2,292.9c0.9,1.5,2.3,2.2,3.7,1.4s1.5-2.4,0.6-3.9s-2.3-2.2-3.7-1.4S253.3,291.4,254.2,292.9z"/>
	<path d="M252.1,297.2L252.1,297.2c-0.2,0.9-0.7,1.7-1.7,2.2c-1.4,0.7-2.7,0.4-3.4-1.1l-2.4-4.9l1.1-0.5l2.3,4.8
		c0.4,0.9,1.3,1.1,2.3,0.6c1.1-0.5,1.5-1.7,1-2.9l-2.1-4.3l1.1-0.5l3.4,6.9l-1.1,0.5L252.1,297.2z"/>
	<path d="M246.2,301.2l-1.1,0.4l-0.4-1l0,0c-0.2,0.9-0.7,1.7-1.6,2c-0.9,0.3-1.7,0.2-2.4-0.5l0,0c-0.1,1-0.8,1.8-1.7,2.1
		c-1.3,0.5-2.5,0-3.1-1.4l-2-5l1.1-0.4l2,5c0.3,0.9,1.2,1.2,1.9,0.9c0.9-0.4,1.4-1.5,1-2.6l-1.8-4.5l1.1-0.4l2,5
		c0.3,0.9,1.1,1.2,1.8,0.9c0.9-0.3,1.5-1.5,1.1-2.7l-1.8-4.5l1.1-0.4L246.2,301.2z"/>
	<path d="M234,301.7c0.6,2.1-0.2,4.3-2.3,4.9c-2.2,0.7-3.9-0.7-4.7-3.1l5.7-1.7c-0.5-1.5-1.7-2.4-3.2-1.9c-1.1,0.3-1.6,1.1-1.6,2.1
		l-1.1,0.3c-0.1-1.7,0.8-2.9,2.4-3.4C231.5,298.3,233.4,299.6,234,301.7z M233,302.7l-4.5,1.3c0.5,1.5,1.5,2.1,2.9,1.7
		C232.8,305.4,233.2,304.1,233,302.7z"/>
	<path d="M225.3,307.2L225.3,307.2c-0.4,0.8-1.1,1.5-2.1,1.7c-1.6,0.4-2.7-0.3-3.1-1.8l-1.2-5.3l1.2-0.3l1.2,5.2
		c0.2,1,1,1.4,2.1,1.1c1.2-0.3,1.9-1.3,1.6-2.6l-1.1-4.6l1.2-0.3l1.7,7.5l-1.2,0.3L225.3,307.2z"/>
	<path d="M219.4,309.5l-1.1,0.2l0.4,2.4l-1.2,0.2l-0.4-2.4l-1.5,0.3l-0.2-1l1.5-0.3l-0.9-4.9c-0.1-0.5-0.4-0.7-0.9-0.6
		c-0.2,0-0.5,0.1-0.6,0.2l0,0l-0.2-1c0.3-0.1,0.6-0.2,0.9-0.3c1-0.2,1.7,0.1,1.9,1.2l0.9,5.2l1.1-0.2L219.4,309.5z"/>
	<path d="M208.6,304.5L208.6,304.5c0.4-0.7,1.1-1.4,2.4-1.5c1.5-0.2,2.7,0.4,2.9,1.8c0.2,1.8-1.1,2.4-3,2.9
		c-1.1,0.3-1.8,0.5-1.7,1.3c0.1,0.9,0.8,1.3,1.9,1.1c1.2-0.2,1.8-0.8,1.7-1.9l1.2-0.1c0.1,1.5-0.7,2.7-2.7,3
		c-1.6,0.2-2.9-0.2-3.1-2.1l-0.5-3.6c-0.1-0.6-0.3-0.9-0.9-0.7l0,0l-0.1-0.9c0.1-0.1,0.3-0.2,0.6-0.2
		C207.9,303.4,208.4,303.7,208.6,304.5z M208.8,306.2l0.2,1.3c0.4-0.3,1-0.6,1.7-0.8c1.2-0.4,2.1-0.7,2-1.8c-0.1-1-1-1.1-1.7-1
		C209.3,304.1,208.7,305.3,208.8,306.2z"/>
	<path d="M206.5,314.3l-1.2,0.1l-0.9-10.6l1.2-0.1L206.5,314.3z"/>
	<path d="M200.7,309.4l-2.9,0.1l0.1,3l-1,0l-0.1-3l-2.9,0.1l0-1l2.9-0.1l-0.1-3l1,0l0.1,3l2.9-0.1L200.7,309.4z"/>
	<path d="M188.4,310.7L188.4,310.7c-0.6,0.7-1.4,1.1-2.6,1c-1.6-0.1-2.5-1.1-2.4-2.7l0.4-5.4l1.2,0.1l-0.4,5.3
		c-0.1,1,0.5,1.6,1.6,1.7c1.2,0.1,2.2-0.7,2.3-2l0.3-4.7l1.2,0.1l-0.7,10.7l-1.2-0.1L188.4,310.7z"/>
	<path d="M177.5,302.8l-0.1,1.1l0,0c0.6-0.7,1.4-1.1,2.5-0.9c1.6,0.2,2.5,1.3,2.2,2.9l-0.7,5.3l-1.2-0.2l0.7-5.3
		c0.1-1-0.4-1.7-1.5-1.8c-1.2-0.2-2.1,0.7-2.3,1.9l-0.6,4.7l-1.2-0.2l1-7.7L177.5,302.8z"/>
	<path d="M173.2,310l-1.2-0.3l0.2-1.1l0,0c-0.6,0.6-1.5,1-2.5,0.8c-0.9-0.2-1.5-0.8-1.7-1.8l0,0c-0.7,0.8-1.7,1-2.6,0.8
		c-1.3-0.3-2.1-1.4-1.8-2.9l1.2-5.3l1.2,0.3l-1.1,5.2c-0.2,0.9,0.3,1.6,1.1,1.8c1,0.2,2-0.4,2.3-1.6l1-4.7l1.2,0.3l-1.1,5.2
		c-0.2,0.9,0.2,1.6,1,1.8c0.9,0.2,2.1-0.4,2.4-1.6l1-4.7l1.2,0.3L173.2,310z"/>
	<path d="M158.7,299.5L158.7,299.5c0.6-0.4,1.6-0.8,2.8-0.4c1.4,0.4,2.3,1.4,1.9,2.8c-0.5,1.7-2,1.7-3.9,1.4
		c-1.1-0.2-1.9-0.3-2.1,0.5c-0.3,0.8,0.2,1.5,1.3,1.8c1.2,0.4,2,0,2.3-1.1l1.1,0.3c-0.5,1.4-1.7,2.2-3.7,1.6c-1.6-0.5-2.6-1.4-2-3.2
		l1.1-3.5c0.2-0.6,0.1-1-0.5-1l0,0l0.3-0.8c0.2,0,0.4,0,0.7,0.1C158.5,298.3,158.8,298.7,158.7,299.5z M158.1,301.2l-0.4,1.3
		c0.5-0.1,1.2-0.1,1.9,0c1.2,0.1,2.2,0.2,2.5-0.9c0.3-1-0.4-1.4-1.2-1.7C159.4,299.5,158.4,300.4,158.1,301.2z"/>
	<path d="M152.9,303.5L152.9,303.5c-0.8,0.5-1.7,0.6-2.7,0.2c-1.5-0.6-2.1-1.7-1.6-3.2l1.9-5.1l1.1,0.4l-1.9,5
		c-0.4,0.9,0.1,1.7,1.1,2.1c1.1,0.4,2.3-0.1,2.7-1.3l1.7-4.4l1.1,0.4l-2.7,7.2l-1.1-0.4L152.9,303.5z"/>
	<path d="M142.6,303.7l-1.1-0.5l0.6-1.4l1.1,0.5L142.6,303.7z M143.8,301l-1.1-0.5l3.2-7l1.1,0.5L143.8,301z"/>
	<path d="M140.9,299.8l-1.1-0.6l0.5-1l0,0c-0.8,0.4-1.7,0.5-2.6,0.1c-0.8-0.4-1.3-1.2-1.1-2.2l0,0c-0.8,0.6-1.9,0.6-2.7,0.1
		c-1.2-0.6-1.7-1.9-0.9-3.3l2.5-4.8l1.1,0.6l-2.5,4.7c-0.4,0.8-0.1,1.6,0.5,2c0.9,0.5,2.1,0.1,2.6-1l2.2-4.3l1.1,0.6l-2.5,4.7
		c-0.4,0.8-0.2,1.6,0.5,2c0.8,0.4,2.2,0.2,2.7-0.9l2.2-4.3l1.1,0.6L140.9,299.8z"/>
	<path d="M130.1,293.9l-1-0.7l0.6-0.9l0,0c-0.9,0.4-1.8,0.3-2.8-0.3c-1.7-1.1-2-3-0.6-5.2c1.3-2.1,3.3-2.7,5-1.6
		c0.9,0.6,1.3,1.2,1.4,2.3l0,0l1.8-2.9l1,0.7L130.1,293.9z M127.3,287.5c-0.9,1.5-1,3,0.2,3.8c1.4,0.9,2.8,0.2,3.7-1.2
		s1.1-2.9-0.4-3.9C129.6,285.3,128.3,286,127.3,287.5z"/>
	<path d="M123,281.1L123,281.1c0.7-0.2,1.7-0.2,2.8,0.5c1.2,0.9,1.7,2.1,0.8,3.3c-1.1,1.5-2.5,0.9-4.2,0c-1-0.5-1.7-0.9-2.1-0.2
		c-0.5,0.7-0.3,1.5,0.6,2.1c1,0.7,1.8,0.7,2.6-0.2l0.9,0.7c-0.9,1.2-2.4,1.5-4,0.3c-1.3-1-1.9-2.2-0.9-3.7l2.2-3
		c0.4-0.5,0.5-0.9-0.2-1.1l0,0l0.5-0.7c0.2,0,0.3,0.1,0.6,0.3C123.3,279.8,123.4,280.4,123,281.1z M122,282.5l-0.8,1.1
		c0.5,0,1.2,0.3,1.8,0.6c1.1,0.5,2,0.9,2.7,0c0.6-0.8,0.1-1.5-0.5-2C123.8,281.2,122.5,281.8,122,282.5z"/>
	<path d="M119.3,281.8c-1.4,1.7-3.7,2.2-5.5,0.7c-1.4-1.2-1.7-2.7-0.8-4.2l0.9,0.8c-0.5,0.9-0.4,1.9,0.5,2.6
		c1.3,1.1,2.8,0.6,3.9-0.8c1.1-1.3,1.3-2.9,0-3.9c-1-0.8-2-0.7-2.8,0.1l-0.9-0.8c1.3-1.3,2.9-1.4,4.4-0.1
		C120.8,277.7,120.8,280.1,119.3,281.8z"/>
	<path d="M110.8,279.6l-0.8-0.8l-1.7,1.8l-0.9-0.8l1.7-1.8l-1.1-1l0.7-0.7l1.1,1l3.4-3.7c0.4-0.4,0.3-0.7-0.1-1.1
		c-0.2-0.2-0.4-0.3-0.5-0.4l0,0l0.7-0.8c0.2,0.1,0.5,0.3,0.8,0.6c0.7,0.7,1,1.5,0.2,2.3l-3.6,3.9l0.8,0.8L110.8,279.6z"/>
	<path d="M111,272.7l-0.9-0.9c0.8-1.1,0.5-2-0.3-2.8c-0.9-0.9-1.7-0.9-2.2-0.4c-0.6,0.6-0.4,1.2,0.4,2.4c0.8,1.3,1.6,2.5,0.4,3.7
		c-0.9,0.9-2.2,0.8-3.5-0.5c-1.3-1.4-1.4-2.7-0.4-3.9l0.9,0.9c-0.6,0.8-0.6,1.5,0.2,2.3c0.8,0.8,1.4,0.8,1.9,0.3
		c0.6-0.6,0.2-1.2-0.6-2.4c-0.9-1.3-1.5-2.5-0.3-3.7c1.1-1.1,2.6-0.7,3.8,0.5C112,269.8,112.1,271.4,111,272.7z"/>
	<path d="M95.5,267.9l-0.8-1l10.9-3.7l0.8,1L95.5,267.9z"/>
	<path d="M92,263.6l-2.6-3.6c-0.7-0.9-0.9-1.8-0.6-2.7c0.2-0.7,0.6-1.3,1.2-1.8c1.6-1.1,3.2-0.9,4.6,1l1.7,2.4l3.6-2.6l0.8,1.1
		L92,263.6z M95.4,259.6l-1.6-2.3c-0.9-1.2-1.9-1.4-2.9-0.6c-1,0.7-1.1,1.8-0.3,2.9l1.7,2.3L95.4,259.6z"/>
	<path d="M89.6,252.7L89.6,252.7c-0.9,0-1.9-0.4-2.4-1.2c-0.1-0.2-0.2-0.3-0.2-0.5l1-0.6l0,0c0,0.2,0.1,0.3,0.2,0.5
		c0.6,1,2,1.4,3.2,0.6l3.6-2.3l0.6,1l-6.5,4.1l-0.6-1L89.6,252.7z"/>
	<path d="M90,248.6c-2,1.1-4.2,0.7-5.4-1.3c-1.1-2-0.2-4.1,1.7-5.2c2-1.1,4.2-0.8,5.4,1.2C92.9,245.4,92,247.5,90,248.6z M87,243.2
		c-1.5,0.8-2.3,2.2-1.5,3.7c0.8,1.4,2.4,1.5,3.9,0.7s2.2-2.2,1.4-3.7C90.1,242.4,88.5,242.4,87,243.2z"/>
	<path d="M86,241.3c-2.3,1.1-4.3,0.4-5.1-1.3c-0.5-1-0.3-2,0.1-2.7l0,0l-3.7,1.7l-0.5-1.1l9.6-4.6l0.5,1.1l-0.9,0.4l0,0
		c0.9,0.2,1.6,0.7,2.1,1.7C89.1,238.4,88.2,240.3,86,241.3z M83.5,236c-1.6,0.8-2.4,2.1-1.7,3.5c0.6,1.3,2.1,1.4,3.7,0.7
		c1.6-0.8,2.4-2,1.8-3.3C86.5,235.4,85,235.2,83.5,236z"/>
	<path d="M84,227.4l-1,0.4l0,0c0.9,0.2,1.6,0.7,2,1.7c0.6,1.5,0.1,2.8-1.4,3.4l-5,2l-0.4-1.1l4.9-2c0.9-0.4,1.2-1.2,0.8-2.2
		c-0.5-1.1-1.6-1.5-2.7-1.1l-4.4,1.8l-0.4-1.1l7.2-2.8L84,227.4z"/>
	<path d="M79.6,226.5c-2.1,0.7-4.3-0.1-5-2.3c-0.6-1.7,0.1-3.2,1.5-4l0.4,1.2c-0.9,0.5-1.3,1.4-1,2.5c0.5,1.6,2.1,2,3.7,1.4
		c1.6-0.5,2.6-1.8,2.1-3.3c-0.4-1.2-1.3-1.7-2.5-1.4l-0.4-1.1c1.8-0.4,3.2,0.4,3.8,2.2C83,223.9,81.7,225.8,79.6,226.5z"/>
	<path d="M73.5,220.1l-0.3-1.1l-2.4,0.6l-0.3-1.2l2.4-0.6l-0.4-1.4l1-0.3l0.4,1.4l4.9-1.3c0.5-0.1,0.6-0.5,0.5-0.9
		c-0.1-0.2-0.2-0.5-0.3-0.6l0,0l1-0.3c0.1,0.3,0.3,0.6,0.4,0.9c0.3,1,0.1,1.8-1,2l-5.1,1.4l0.3,1.1L73.5,220.1z"/>
	<path d="M71.5,212.4l-0.2-1.2l1.1-0.2l0,0c-0.8-0.3-1.5-1.1-1.7-2c-0.2-0.9,0.2-1.7,1-2.2l0,0c-1-0.3-1.6-1.2-1.8-2.1
		c-0.2-1.4,0.5-2.5,2-2.7l5.3-0.9l0.2,1.2l-5.3,0.9c-0.9,0.2-1.4,0.9-1.3,1.7c0.2,1,1.2,1.7,2.4,1.5l4.7-0.8l0.2,1.2l-5.3,0.9
		c-0.9,0.2-1.4,0.8-1.3,1.6c0.2,0.9,1.2,1.8,2.4,1.6l4.7-0.8l0.2,1.2L71.5,212.4z"/>
	<path d="M73.4,200.4c-2.2,0.2-4.2-1.1-4.4-3.3c-0.2-2.3,1.5-3.9,3.7-4.1c2.2-0.2,4.2,1,4.4,3.3C77.3,198.6,75.6,200.2,73.4,200.4z
		 M72.8,194.2c-1.7,0.2-3,1.1-2.8,2.8c0.2,1.6,1.6,2.4,3.3,2.2c1.7-0.2,3-1.1,2.8-2.8C75.9,194.7,74.5,194,72.8,194.2z"/>
	<path d="M72.7,192.1c-2.6,0.1-4.1-1.4-4.1-3.3c0-1.1,0.5-1.9,1.2-2.5l0,0l-4,0.1l0-1.2l10.7-0.3l0,1.2l-0.9,0l0,0
		c0.8,0.6,1.2,1.3,1.2,2.4C76.7,190.7,75.2,192,72.7,192.1z M72.5,186.2c-1.8,0-3,0.9-3,2.5c0,1.5,1.4,2.2,3.1,2.1
		c1.7,0,3-0.8,3-2.3C75.6,186.8,74.3,186.1,72.5,186.2z"/>
	<path d="M72.5,183.8c-2.2-0.1-4-1.6-3.9-3.8c0.1-2.3,1.9-3.5,4.5-3.4l-0.2,6c1.6,0,2.8-0.8,2.9-2.4c0-1.1-0.5-1.9-1.5-2.2l0-1.2
		c1.6,0.4,2.5,1.7,2.5,3.4C76.6,182.5,74.7,183.8,72.5,183.8z M71.9,182.5l0.2-4.6c-1.5,0-2.5,0.8-2.6,2.2
		C69.5,181.4,70.5,182.2,71.9,182.5z"/>
	<path d="M66.1,174.7l0.1-1.2l10.6,0.9l-0.1,1.2L66.1,174.7z"/>
	<path d="M67.2,165.3l0.2-1.2l10,5.7l-0.2,1.2L67.2,165.3z"/>
	<path d="M68.1,159.9l1.7-7.4l1.2,0.3l-1.4,6l3.3,0.8l1.3-5.5l1.1,0.3l-1.3,5.5l3.7,0.8l1.4-6.2l1.2,0.3l-1.7,7.5L68.1,159.9z"/>
	<path d="M77.4,150.3l-4.3,1.4l0.4-1.3l3.2-0.9l0,0l-2.1-2.6l0.4-1.3l2.7,3.5l4.9-1.7l-0.4,1.4l-3.8,1.2l0,0l2.5,3.1l-0.4,1.3
		L77.4,150.3z"/>
	<path d="M75.6,143.8l0.4-1.1l1,0.4l0,0c-0.5-0.8-0.7-1.7-0.3-2.8c0.7-1.8,2.6-2.6,5-1.7c2.3,0.9,3.4,2.6,2.6,4.6
		c-0.4,1-0.9,1.6-1.9,1.9l0,0l3.2,1.2l-0.4,1.1L75.6,143.8z M81.3,139.8c-1.6-0.6-3.1-0.4-3.6,1c-0.6,1.6,0.4,2.8,2,3.4
		s3.1,0.4,3.7-1.2C83.8,141.5,82.9,140.4,81.3,139.8z"/>
	<path d="M82,137.8c-2-0.9-3.1-3-2.2-5c1-2.1,3.1-2.5,5.4-1.4l-2.5,5.4c1.5,0.6,2.9,0.3,3.5-1.1c0.5-1,0.3-1.9-0.6-2.6l0.5-1.1
		c1.4,1,1.7,2.5,1,4.1C86.3,138.2,84.1,138.7,82,137.8z M82,136.4l1.9-4.2c-1.4-0.6-2.6-0.2-3.2,1C80.1,134.5,80.8,135.7,82,136.4z"
		/>
	<path d="M83.9,127.9L83.9,127.9c-0.4-0.8-0.6-1.8-0.1-2.7c0.1-0.2,0.2-0.3,0.3-0.4l1,0.5l0,0c-0.1,0.1-0.2,0.2-0.3,0.4
		c-0.6,1.1-0.2,2.4,1,3.1l3.8,2l-0.6,1.1l-6.8-3.6l0.6-1.1L83.9,127.9z"/>
	<path d="M82.1,122.2l0.6-1.1l1.3,0.7l-0.6,1.1L82.1,122.2z M84.7,123.7l0.6-1.1l6.7,3.8l-0.6,1.1L84.7,123.7z"/>
	<path d="M89.2,123.4c-1.9-1.2-2.7-3.4-1.5-5.3c1.2-2,3.4-2.1,5.6-0.7l-3.2,5.1c1.4,0.8,2.8,0.7,3.7-0.6c0.6-0.9,0.5-1.9-0.2-2.7
		l0.6-1c1.2,1.2,1.4,2.7,0.4,4.2C93.4,124.4,91.1,124.6,89.2,123.4z M89.4,122l2.5-3.9c-1.3-0.8-2.6-0.6-3.3,0.6
		C87.8,119.9,88.3,121.1,89.4,122z"/>
	<path d="M92.1,113.6L92.1,113.6c-0.3-0.9-0.2-1.8,0.5-2.7c0.9-1.3,2.2-1.6,3.5-0.7l4.4,3.2l-0.7,1l-4.3-3.1
		c-0.8-0.6-1.7-0.4-2.3,0.5c-0.7,1-0.5,2.2,0.5,3l3.9,2.8l-0.7,1l-6.3-4.5l0.7-1L92.1,113.6z"/>
	<path d="M98.2,110.2c-1.7-1.4-2.2-3.7-0.8-5.5c1.2-1.4,2.7-1.7,4.2-0.8l-0.8,0.9c-0.9-0.5-1.9-0.4-2.6,0.5c-1,1.3-0.5,2.8,0.8,3.9
		c1.3,1.1,2.9,1.3,3.9,0c0.8-1,0.7-2-0.1-2.8l0.8-0.9c1.3,1.3,1.4,2.9,0.2,4.4C102.2,111.6,99.9,111.6,98.2,110.2z"/>
	<path d="M103.2,104.1c-1.6-1.5-2-3.8-0.5-5.4c1.6-1.7,3.7-1.4,5.6,0.4l-4.1,4.4c1.2,1,2.7,1.2,3.7,0.1c0.8-0.8,0.9-1.7,0.3-2.6
		l0.8-0.9c1,1.4,0.8,2.9-0.4,4.2C107.1,105.9,104.8,105.7,103.2,104.1z M103.6,102.8l3.2-3.4c-1.2-1-2.4-1.1-3.4,0
		C102.4,100.4,102.7,101.7,103.6,102.8z"/>
	<path d="M108.8,88.8l0.9-0.8l4.1,10.7l-0.9,0.8L108.8,88.8z"/>
	<path d="M113,85.2l6-4.6l0.7,0.9l-4.9,3.8l2.1,2.7l4.5-3.5l0.7,0.9l-4.5,3.5l2.3,3l5-3.9l0.8,1l-6.1,4.7L113,85.2z"/>
	<path d="M123.9,85.4c-1.2-1.9-1.1-4.2,0.8-5.5c1.5-1,3.1-0.8,4.2,0.4l-1,0.7c-0.7-0.8-1.7-0.9-2.7-0.2c-1.4,0.9-1.3,2.5-0.4,3.9
		c0.9,1.4,2.4,2.1,3.8,1.1c1-0.7,1.3-1.7,0.7-2.8l1-0.7c0.9,1.6,0.5,3.2-1.1,4.3C127.4,88,125.2,87.3,123.9,85.4z"/>
	<path d="M130.4,81.1c-1.1-1.9-0.8-4.2,1.2-5.4c2-1.2,4.1-0.3,5.3,1.6c1.1,1.9,0.8,4.2-1.2,5.4C133.7,83.9,131.5,83,130.4,81.1z
		 M135.8,77.9c-0.9-1.5-2.3-2.2-3.7-1.4c-1.4,0.8-1.5,2.4-0.6,3.9c0.9,1.5,2.3,2.2,3.7,1.4C136.6,81,136.7,79.4,135.8,77.9z"/>
	<path d="M138.2,78.2l1.1-0.6c0.7,1.1,1.7,1.1,2.7,0.6c1.1-0.6,1.4-1.3,1-1.9c-0.4-0.8-1-0.7-2.4-0.3c-1.5,0.4-2.9,0.7-3.6-0.8
		c-0.6-1.1-0.1-2.3,1.5-3.1c1.7-0.9,3-0.5,3.8,0.8l-1.1,0.6c-0.6-0.9-1.3-1-2.3-0.5c-1,0.5-1.2,1.1-0.9,1.7c0.4,0.7,1.1,0.6,2.4,0.2
		c1.5-0.4,2.8-0.7,3.6,0.9c0.7,1.4-0.1,2.7-1.7,3.5C140.6,80,139.1,79.7,138.2,78.2z"/>
	<path d="M146.8,79.4l-0.4-1l0.1,0c0.2,0,0.4,0,0.8-0.2c0.5-0.2,0.7-0.5,0.7-1.3l0-0.8l-5.7-5.7l1.2-0.5l3.6,3.7
		c0.5,0.5,1.1,1.2,1.1,1.2l0,0c0,0-0.1-0.9-0.1-1.6l-0.3-5.1l1.2-0.5l0.2,9c0.1,1.7-0.4,2.3-1.2,2.6
		C147.4,79.3,147.2,79.4,146.8,79.4z"/>
	<path d="M151.2,72.2l1.2-0.4c0.6,1.2,1.6,1.3,2.7,0.9c1.2-0.4,1.5-1.1,1.3-1.8c-0.3-0.8-0.9-0.8-2.4-0.6c-1.5,0.2-2.9,0.4-3.5-1.2
		c-0.4-1.2,0.2-2.3,1.9-2.9c1.8-0.6,3-0.1,3.7,1.3l-1.2,0.4c-0.5-0.9-1.1-1.2-2.2-0.8c-1,0.4-1.3,1-1.1,1.6c0.3,0.8,1,0.7,2.4,0.5
		c1.6-0.2,2.9-0.3,3.5,1.3c0.5,1.5-0.4,2.6-2.1,3.2C153.3,74.3,151.9,73.8,151.2,72.2z"/>
	<path d="M156.2,64.9l1.1-0.3l-0.7-2.3l1.2-0.4l0.7,2.3l1.4-0.4l0.3,0.9l-1.4,0.4l1.5,4.8c0.2,0.5,0.5,0.6,1,0.5
		c0.2-0.1,0.5-0.2,0.6-0.3l0,0l0.3,1c-0.3,0.1-0.6,0.3-0.9,0.4c-0.9,0.3-1.7,0.1-2.1-0.9l-1.5-5.1l-1.1,0.3L156.2,64.9z"/>
	<path d="M161.8,67.2c-0.5-2.2,0.4-4.3,2.6-4.8c2.2-0.6,3.9,0.9,4.5,3.4l-5.8,1.5c0.5,1.5,1.6,2.5,3.1,2.1c1.1-0.3,1.7-1,1.7-2.1
		l1.1-0.3c0.1,1.7-0.9,2.9-2.6,3.3C164.1,70.8,162.3,69.4,161.8,67.2z M162.9,66.3l4.5-1.1c-0.4-1.5-1.4-2.2-2.8-1.9
		C163.2,63.7,162.7,64.9,162.9,66.3z"/>
	<path d="M169.4,61.3l1.2-0.2l0.2,1.1l0,0c0.4-0.8,1.1-1.5,2-1.6c0.9-0.2,1.7,0.2,2.2,1l0,0c0.3-0.9,1.2-1.6,2.1-1.7
		c1.4-0.2,2.5,0.5,2.7,2.1l0.9,5.4l-1.2,0.2l-0.9-5.3c-0.2-0.9-0.9-1.4-1.6-1.3c-1,0.2-1.7,1.2-1.5,2.4l0.8,4.7l-1.2,0.2l-0.9-5.3
		c-0.2-0.9-0.8-1.4-1.6-1.3c-0.9,0.2-1.8,1.2-1.6,2.4l0.8,4.7l-1.2,0.2L169.4,61.3z"/>
	<path d="M187.4,56.1l1.3-0.1l-3.5,11L184,67L187.4,56.1z"/>
</g>
<g>
	<path d="M349.3,189.1l-0.2,4.4c-0.1,1.1-0.5,2-1.1,2.5c-0.5,0.4-1.3,0.7-2.1,0.6c-2-0.1-3.1-1.3-3-3.6l0.1-2.9l-4.5-0.2l0.1-1.3
		L349.3,189.1z M344.1,190.2L344,193c-0.1,1.5,0.7,2.3,1.9,2.3c1.3,0.1,2-0.7,2.1-2.1l0.1-2.9L344.1,190.2z"/>
	<path d="M348.8,198.3l-0.1,1.2l-10.6-0.9l0.1-1.2L348.8,198.3z"/>
	<path d="M338.4,205L338.4,205c-0.5-0.5-1.1-1.4-0.9-2.7c0.2-1.5,1-2.5,2.5-2.3c1.8,0.2,2,1.7,2.1,3.6c0,1.1,0,1.9,0.9,2
		c0.9,0.1,1.4-0.5,1.6-1.6c0.2-1.2-0.3-1.9-1.5-2.1l0.1-1.2c1.5,0.2,2.5,1.3,2.2,3.4c-0.2,1.6-1,2.8-2.8,2.5l-3.6-0.5
		c-0.6-0.1-1,0-0.9,0.7l0,0l-0.9-0.1c0-0.2-0.1-0.4,0-0.7C337.2,205.4,337.6,205,338.4,205z M340.1,205.2l1.3,0.2
		c-0.2-0.4-0.3-1.2-0.3-1.8c-0.1-1.2-0.2-2.2-1.3-2.4c-1-0.1-1.3,0.6-1.4,1.4C338.2,204.2,339.2,205.1,340.1,205.2z"/>
	<path d="M344.6,208.2l-0.2,1.1l2.4,0.4l-0.2,1.2l-2.4-0.4L344,212l-1-0.2l0.2-1.5l-5-0.8c-0.5-0.1-0.8,0.2-0.8,0.6
		c0,0.2,0,0.5,0,0.7l0,0l-1-0.2c0-0.3,0-0.6,0.1-1c0.2-1,0.7-1.6,1.8-1.4l5.2,0.9l0.2-1.1L344.6,208.2z"/>
	<path d="M343.9,212.7l-0.2,1l1.2,0.2c1.3,0.3,1.6,1.1,1.4,2.4c0,0.2-0.1,0.4-0.1,0.6l-1-0.2c0.1-0.2,0.1-0.3,0.1-0.4
		c0.1-0.8,0-1.1-0.6-1.2l-1.2-0.2l-0.3,1.4l-1-0.2l0.3-1.4l-6.6-1.3l0.2-1.2l6.6,1.3l0.2-1L343.9,212.7z"/>
	<path d="M339.3,216.1c2.2,0.5,3.6,2.3,3.1,4.6c-0.5,2.3-2.6,3.2-4.8,2.7c-2.2-0.5-3.6-2.3-3.1-4.6
		C335,216.6,337.1,215.6,339.3,216.1z M337.8,222.2c1.7,0.4,3.2-0.1,3.6-1.7s-0.7-2.7-2.4-3.1c-1.7-0.4-3.2,0.1-3.5,1.7
		C335.1,220.7,336.2,221.8,337.8,222.2z"/>
	<path d="M339.3,226.5L339.3,226.5c0.6,0.7,1,1.6,0.7,2.6c-0.1,0.2-0.1,0.3-0.2,0.4l-1.1-0.3l0,0c0.1-0.2,0.2-0.3,0.2-0.5
		c0.3-1.1-0.2-2.4-1.6-2.8l-4.1-1.2l0.3-1.2l7.4,2.1l-0.3,1.2L339.3,226.5z"/>
	<path d="M339.4,230.9L339,232l-1-0.4l0,0c0.5,0.7,0.8,1.7,0.5,2.6c-0.3,0.9-1,1.4-2,1.4l0,0c0.7,0.8,0.8,1.8,0.5,2.7
		c-0.5,1.3-1.6,1.9-3.1,1.4l-5.1-1.8l0.4-1.1l5.1,1.8c0.9,0.3,1.7-0.1,1.9-0.8c0.3-0.9-0.2-2.1-1.3-2.5l-4.5-1.6l0.4-1.1l5.1,1.8
		c0.9,0.3,1.6,0,1.9-0.7c0.3-0.9-0.2-2.2-1.3-2.6l-4.5-1.6l0.4-1.1L339.4,230.9z"/>
	<path d="M330.6,239.8l-0.5,1.1c-1.3-0.4-2,0.3-2.5,1.4c-0.5,1.2-0.2,1.9,0.5,2.1c0.8,0.3,1.2-0.1,2.1-1.3c0.9-1.3,1.7-2.4,3.3-1.7
		c1.2,0.5,1.6,1.7,0.9,3.4c-0.8,1.8-2,2.3-3.4,1.8l0.5-1.1c1,0.3,1.6,0,2.1-1.1c0.4-1,0.2-1.6-0.4-1.9c-0.8-0.3-1.2,0.3-2,1.4
		c-0.9,1.3-1.7,2.4-3.4,1.7c-1.4-0.6-1.7-2.1-1-3.7C327.6,240,329,239.3,330.6,239.8z"/>
	<path d="M329.1,250.3l-1.3,2.6l2.7,1.4l-0.5,0.9l-2.7-1.4l-1.3,2.6l-0.9-0.4l1.3-2.6l-2.7-1.4l0.5-0.9l2.7,1.4l1.3-2.6L329.1,250.3
		z"/>
	<path d="M324.5,261.7L324.5,261.7c0.3,0.9,0.3,1.8-0.3,2.7c-0.8,1.4-2.1,1.8-3.5,0.9l-4.6-2.8l0.6-1l4.5,2.8
		c0.9,0.5,1.7,0.3,2.2-0.7c0.6-1,0.4-2.3-0.7-2.9l-4.1-2.5l0.6-1l6.6,4l-0.6,1L324.5,261.7z"/>
	<path d="M318.7,265.6c1.8,1.3,2.5,3.5,1.3,5.3c-1.3,1.9-3.5,1.9-5.6,0.5l3.4-4.9c-1.3-0.8-2.8-0.8-3.7,0.5
		c-0.6,0.9-0.6,1.8,0.1,2.7l-0.7,1c-1.2-1.2-1.3-2.8-0.3-4.2C314.6,264.4,316.9,264.3,318.7,265.6z M318.5,267l-2.6,3.8
		c1.3,0.8,2.5,0.7,3.3-0.5C320.1,269.2,319.6,267.9,318.5,267z"/>
	<path d="M317.5,274.2l-0.8,1l-4.6-1.9c-0.6-0.3-1.6-0.7-1.6-0.7l0,0c0,0,0.7,0.8,1,1.3l3,4l-0.8,1l-4.6-2c-0.6-0.3-1.5-0.7-1.5-0.7
		l0,0c0,0,0.7,0.8,1,1.4l2.9,4.1l-0.8,1l-4.5-6.8l0.8-1l4.5,1.9c0.6,0.3,1.5,0.7,1.5,0.7l0,0c0,0-0.6-0.8-1-1.3l-2.9-3.9l0.8-1
		L317.5,274.2z"/>
	<path d="M308.8,285.1l-0.8,0.8l1.8,1.6l-0.8,0.9l-1.8-1.6l-1,1.1l-0.7-0.7l1-1.1l-3.7-3.4c-0.4-0.4-0.7-0.3-1.1,0.1
		c-0.2,0.2-0.3,0.4-0.4,0.5l0,0l-0.8-0.7c0.1-0.3,0.3-0.5,0.6-0.8c0.7-0.7,1.4-1,2.3-0.3l3.9,3.5l0.8-0.8L308.8,285.1z"/>
	<path d="M302.8,285.9c1.6,1.6,1.9,3.9,0.3,5.5c-1.6,1.7-3.8,1.3-5.6-0.5l4.2-4.3c-1.2-1-2.6-1.3-3.7-0.2c-0.8,0.8-0.9,1.7-0.4,2.6
		l-0.8,0.8c-0.9-1.4-0.8-2.9,0.5-4.2C298.9,284.1,301.2,284.4,302.8,285.9z M302.4,287.3l-3.3,3.3c1.2,1,2.4,1.1,3.4,0.1
		C303.5,289.7,303.2,288.4,302.4,287.3z"/>
	<path d="M297.2,291.7c1.5,1.7,1.7,4,0,5.5c-1.3,1.2-2.9,1.3-4.3,0.2l0.9-0.8c0.8,0.7,1.8,0.6,2.7-0.2c1.2-1.1,0.9-2.7-0.2-3.9
		c-1.1-1.3-2.7-1.7-3.9-0.6c-0.9,0.8-1,1.9-0.3,2.8l-0.9,0.8c-1.1-1.5-1-3.1,0.5-4.4C293.4,289.6,295.6,290,297.2,291.7z"/>
	<path d="M291.9,300.2L291.9,300.2c0,0.9-0.3,1.8-1.2,2.5c-1.2,1-2.6,1-3.6-0.3l-3.4-4.2l0.9-0.8l3.4,4.1c0.6,0.8,1.5,0.8,2.3,0.1
		c0.9-0.8,1.1-2,0.3-3l-3-3.7l0.9-0.8l6.8,8.3l-0.9,0.8L291.9,300.2z"/>
	<path d="M285.6,305.2L285.6,305.2c0,0.9-0.4,1.8-1.3,2.4c-1.3,1-2.6,0.8-3.6-0.5l-3.2-4.4l1-0.7l3.2,4.3c0.6,0.8,1.5,0.9,2.3,0.2
		c1-0.7,1.2-2,0.4-3l-2.8-3.8l1-0.7l4.6,6.2l-1,0.7L285.6,305.2z"/>
	<path d="M278.8,306.7c1.2,1.9,1,4.2-0.9,5.4c-1.9,1.3-4.1,0.5-5.3-1.4c-1.2-1.9-1-4.2,0.9-5.4C275.4,304,277.6,304.8,278.8,306.7z
		 M273.6,310.1c0.9,1.4,2.4,2.1,3.8,1.2s1.3-2.5,0.4-3.9c-0.9-1.4-2.4-2.1-3.8-1.2C272.6,307,272.6,308.6,273.6,310.1z"/>
	<path d="M274.9,317.2l-1,0.6l-5.5-9.2l1-0.6L274.9,317.2z"/>
	<path d="M269.3,312.7c1.1,2,0.7,4.3-1.3,5.4c-2,1.1-4.1,0.2-5.2-1.8s-0.7-4.2,1.3-5.4C266.1,309.8,268.2,310.7,269.3,312.7z
		 M263.8,315.7c0.8,1.5,2.2,2.3,3.6,1.5c1.4-0.8,1.5-2.4,0.7-3.9s-2.2-2.3-3.7-1.5C263.1,312.6,263,314.2,263.8,315.7z"/>
	<path d="M259.9,312.9l-1,0.5c-0.5-0.7-1.3-0.7-2.4-0.1c-1.3,0.6-1.7,1.5-1.1,2.7l0.5,1l0,0c0.2-0.9,0.5-1.6,1.5-2.1
		c1.8-0.9,3.7,0,4.7,2c1,2.2,0.3,4.1-1.3,4.9c-1,0.5-1.8,0.4-2.6,0l0,0l0.4,0.9l-1.1,0.5l-3.2-6.6c-0.9-1.8-0.1-3.3,1.8-4.2
		C257.8,311.5,259.2,311.8,259.9,312.9z M256.9,319.4c0.7,1.5,1.8,2.2,3.3,1.4c1.3-0.6,1.5-2,0.8-3.5c-0.7-1.5-1.9-2.2-3.2-1.6
		C256.2,316.6,256.2,318,256.9,319.4z"/>
	<path d="M255.7,323.9l-1.1,0.5l-3.1-7.1l1.1-0.5L255.7,323.9z M256.9,326.6l-1.1,0.5l-0.6-1.4l1.1-0.5L256.9,326.6z"/>
	<path d="M251.9,321.3c0.8,2.1,0.1,4.3-1.9,5.1c-2.2,0.8-4-0.4-4.9-2.8l5.6-2.2c-0.7-1.4-1.9-2.2-3.3-1.7c-1,0.4-1.5,1.2-1.4,2.3
		l-1.1,0.4c-0.3-1.7,0.5-3,2.2-3.6C249.2,318,251.1,319.2,251.9,321.3z M251,322.4l-4.3,1.7c0.6,1.4,1.7,2,3,1.5
		C251,325,251.3,323.7,251,322.4z"/>
	<path d="M244.1,322.9l-1.2,0.4c-0.6-1.2-1.5-1.3-2.6-0.9c-1.2,0.4-1.5,1.1-1.3,1.8c0.3,0.8,0.9,0.8,2.4,0.7
		c1.5-0.2,2.9-0.3,3.5,1.3c0.4,1.2-0.3,2.3-2,2.9c-1.8,0.6-3,0-3.6-1.3l1.2-0.4c0.4,0.9,1.1,1.2,2.2,0.8c1.1-0.3,1.3-1,1.1-1.5
		c-0.3-0.8-1-0.7-2.4-0.6c-1.6,0.2-2.9,0.3-3.5-1.4c-0.5-1.5,0.5-2.6,2.2-3.2C242,320.7,243.4,321.3,244.1,322.9z"/>
	<path d="M233.1,334.7l-1.2,0.3l1.4-11.4l1.2-0.3L233.1,334.7z"/>
	<path d="M227.2,330.7c0.6,3.1-0.8,5.8-4,6.4c-2.5,0.5-4.2-0.7-4.8-2.6l1.3-0.2c0.5,1.3,1.7,2,3.4,1.7c2.3-0.4,3.3-2.5,2.8-5
		c-0.5-2.6-2.2-4-4.4-3.6c-2,0.4-2.7,1.9-2.5,3.5l-1.3,0.2c-0.2-1,0.1-2.3,0.7-3.2c0.6-0.9,1.6-1.4,2.9-1.7
		C224.2,325.6,226.6,327.5,227.2,330.7z"/>
	<path d="M216.6,331.1c0.3,2.2-0.9,4.2-3.2,4.5c-2.3,0.3-3.9-1.4-4.2-3.6c-0.3-2.2,0.9-4.2,3.2-4.5
		C214.7,327.2,216.3,328.9,216.6,331.1z M210.4,331.9c0.2,1.7,1.2,2.9,2.8,2.7c1.6-0.2,2.3-1.6,2.1-3.3c-0.2-1.7-1.2-2.9-2.8-2.7
		C210.9,328.7,210.2,330.2,210.4,331.9z"/>
	<path d="M206.9,335L206.9,335c-0.5,0.8-1.3,1.3-2.4,1.4c-1.6,0.1-2.7-0.7-2.8-2.3l-0.3-5.4l1.2-0.1l0.3,5.3c0.1,1,0.8,1.5,1.8,1.5
		c1.2-0.1,2.1-1,2-2.3l-0.3-4.7l1.2-0.1l0.5,7.7L207,336L206.9,335z"/>
	<path d="M200.7,336.4l-1.1,0l0.1,2.4l-1.2,0l-0.1-2.4l-1.5,0l0-1l1.5,0l-0.1-5c0-0.5-0.3-0.7-0.8-0.7c-0.2,0-0.5,0.1-0.6,0.1l0,0
		l0-1c0.3-0.1,0.6-0.1,1-0.1c1,0,1.7,0.4,1.7,1.5l0.1,5.3l1.1,0L200.7,336.4z"/>
	<path d="M196,332.6c0,2.2-1.5,4-3.7,4c-2.3,0-3.5-1.9-3.5-4.4l6,0.1c-0.1-1.6-0.9-2.8-2.4-2.8c-1.1,0-1.9,0.5-2.2,1.5l-1.2,0
		c0.4-1.7,1.6-2.6,3.4-2.5C194.7,328.6,196,330.4,196,332.6z M194.7,333.3l-4.6-0.1c0,1.5,0.8,2.5,2.2,2.5
		C193.7,335.7,194.5,334.7,194.7,333.3z"/>
	<path d="M186.1,335.2L186.1,335.2c-0.6,0.7-1.4,1.1-2.6,1c-1.6-0.1-2.5-1.1-2.4-2.7l0.4-5.4l1.2,0.1l-0.4,5.3
		c-0.1,1,0.5,1.6,1.6,1.7c1.2,0.1,2.2-0.7,2.3-2l0.3-4.7l1.2,0.1l-0.6,7.7l-1.2-0.1L186.1,335.2z"/>
	<path d="M179.8,335.7l-1.1-0.1l-0.3,2.4l-1.2-0.1l0.3-2.4l-1.5-0.2l0.1-1l1.5,0.2l0.6-5c0.1-0.5-0.2-0.7-0.7-0.8
		c-0.2,0-0.5,0-0.7,0l0,0l0.1-1c0.3,0,0.6,0,1,0c1,0.1,1.6,0.6,1.5,1.7l-0.6,5.3l1.1,0.1L179.8,335.7z"/>
	<path d="M175.9,326.2c-0.3,0.1-0.7,0.3-0.8,1.1l0.7,0.1l-0.2,1.5l-1.4-0.2l0.2-1.5c0.2-1.1,0.8-1.6,1.7-1.7L175.9,326.2z"/>
	<path d="M170.3,330.6c-0.5,2.5-2.2,3.7-4.1,3.3c-1.1-0.2-1.8-0.9-2.1-1.7l0,0l-0.8,4l-1.2-0.2l2.1-10.5l1.2,0.2l-0.2,0.9l0,0
		c0.7-0.6,1.5-0.9,2.6-0.7C169.8,326.3,170.8,328.1,170.3,330.6z M164.5,329.4c-0.3,1.8,0.3,3.2,1.8,3.5c1.4,0.3,2.4-0.9,2.8-2.6
		c0.3-1.7-0.1-3.1-1.6-3.4C165.8,326.6,164.9,327.7,164.5,329.4z"/>
	<path d="M157.8,325L157.8,325c0.6-0.5,1.5-0.9,2.8-0.6c1.4,0.4,2.4,1.3,2,2.7c-0.4,1.8-1.9,1.8-3.9,1.6c-1.1-0.1-1.9-0.2-2.1,0.6
		c-0.2,0.8,0.3,1.5,1.3,1.7c1.2,0.3,2-0.1,2.3-1.2l1.1,0.3c-0.4,1.4-1.6,2.3-3.6,1.8c-1.6-0.4-2.6-1.3-2.2-3.1l0.9-3.6
		c0.2-0.6,0.1-1-0.6-1l0,0l0.2-0.9c0.2,0,0.4,0,0.7,0C157.6,323.7,157.9,324.2,157.8,325z M157.4,326.7L157,328
		c0.5-0.1,1.2-0.2,1.8-0.1c1.2,0.1,2.2,0.1,2.5-1c0.3-1-0.5-1.4-1.2-1.6C158.6,324.8,157.6,325.8,157.4,326.7z"/>
	<path d="M153.8,330.8l-1.1-0.3l-0.7,2.3l-1.2-0.3l0.7-2.3l-1.4-0.4l0.3-0.9l1.4,0.4l1.4-4.8c0.2-0.5-0.1-0.8-0.5-0.9
		c-0.2-0.1-0.5-0.1-0.6-0.1l0,0l0.3-1c0.3,0,0.6,0.1,1,0.2c0.9,0.3,1.5,0.9,1.2,1.9l-1.5,5.1l1.1,0.3L153.8,330.8z"/>
	<path d="M146.4,321.4L146.4,321.4c0.6-0.4,1.6-0.7,2.8-0.3c1.4,0.5,2.2,1.5,1.8,2.9c-0.6,1.7-2.1,1.6-4,1.3
		c-1.1-0.2-1.8-0.3-2.1,0.4c-0.3,0.8,0.2,1.5,1.2,1.9c1.2,0.4,2,0.1,2.4-1l1.1,0.4c-0.5,1.4-1.8,2.1-3.8,1.5
		c-1.6-0.5-2.5-1.5-1.9-3.2l1.2-3.5c0.2-0.6,0.2-1-0.5-1l0,0l0.3-0.8c0.2,0,0.4,0,0.7,0.1C146.3,320.2,146.6,320.6,146.4,321.4z
		 M145.8,323.1l-0.4,1.2c0.5-0.1,1.2-0.1,1.9,0c1.2,0.2,2.2,0.3,2.6-0.8c0.3-1-0.4-1.4-1.1-1.7C147.2,321.4,146.1,322.2,145.8,323.1
		z"/>
	<path d="M140,323.6l-2.7-1.1l-1.2,2.7l-0.9-0.4l1.2-2.7l-2.7-1.1l0.4-0.9l2.7,1.1l1.2-2.7l0.9,0.4l-1.2,2.7l2.7,1.1L140,323.6z"/>
	<path d="M130.8,314.7L130.8,314.7l0.5-0.9l1.1,0.6l-4.9,9.5l-1.1-0.6l1.9-3.6l0,0c-0.9,0.4-1.8,0.5-2.8,0c-1.7-0.9-2.2-2.8-1.1-5.1
		c1.1-2.2,3-3,4.8-2.1C130.2,313,130.7,313.6,130.8,314.7z M125.5,315.1c-0.8,1.5-0.8,3,0.5,3.7c1.5,0.8,2.8-0.1,3.6-1.6
		c0.8-1.5,0.7-3.1-0.8-3.8C127.5,312.7,126.3,313.6,125.5,315.1z"/>
	<path d="M121,308.1l-0.5,0.9l0,0c0.9-0.4,1.7-0.5,2.6,0.1c1.4,0.8,1.8,2.1,0.9,3.5l-2.7,4.6l-1-0.6l2.7-4.6
		c0.5-0.9,0.2-1.7-0.7-2.2c-1.1-0.6-2.2-0.2-2.8,0.8l-2.4,4.1l-1-0.6l3.9-6.7L121,308.1z"/>
	<path d="M117.7,309.1l-1-0.7c0.6-1.2,0.1-2-0.9-2.7c-1.1-0.7-1.8-0.5-2.2,0.1c-0.5,0.7-0.1,1.2,0.9,2.3c1.1,1.1,2.1,2.1,1.1,3.5
		c-0.7,1.1-2,1.2-3.5,0.2c-1.6-1.1-1.9-2.3-1.2-3.7l1,0.7c-0.5,0.9-0.2,1.6,0.7,2.2c0.9,0.6,1.6,0.4,1.9-0.1c0.5-0.7-0.1-1.2-1-2.2
		c-1.1-1.1-2-2.1-1-3.6c0.9-1.3,2.4-1.3,3.8-0.3C118.1,306.1,118.6,307.6,117.7,309.1z"/>
	<path d="M106.6,311.5l-1-0.7l0.9-1.2l1,0.7L106.6,311.5z M108.3,309.1l-1-0.7l4.5-6.3l1,0.7L108.3,309.1z"/>
	<path d="M105.5,305.8L105.5,305.8c-0.9,0.2-1.8,0.1-2.7-0.6c-1.3-1-1.5-2.3-0.6-3.6l3.3-4.3l1,0.7l-3.2,4.2
		c-0.6,0.8-0.4,1.6,0.4,2.3c1,0.7,2.2,0.6,3-0.4l2.9-3.8l1,0.7l-4.7,6.1l-1-0.7L105.5,305.8z"/>
	<path d="M102.3,299.7c-1.5,1.7-3.8,2.1-5.4,0.7c-1.8-1.5-1.5-3.7,0.1-5.6l4.5,3.9c1-1.3,1.1-2.7-0.1-3.7c-0.9-0.7-1.8-0.8-2.7-0.2
		l-0.9-0.8c1.4-1,2.9-1,4.2,0.2C103.8,295.7,103.7,298,102.3,299.7z M100.9,299.3l-3.5-3c-0.9,1.2-1,2.4,0.1,3.4
		C98.5,300.6,99.8,300.3,100.9,299.3z"/>
	<path d="M97.1,293.5l-0.9-0.9c0.8-1.1,0.4-2-0.4-2.8c-0.9-0.9-1.7-0.8-2.2-0.3c-0.6,0.6-0.3,1.2,0.5,2.4c0.9,1.3,1.7,2.4,0.5,3.7
		c-0.9,0.9-2.2,0.9-3.5-0.4c-1.4-1.3-1.4-2.6-0.5-3.8l0.9,0.9c-0.6,0.8-0.5,1.5,0.3,2.3c0.8,0.8,1.5,0.7,1.9,0.3
		c0.6-0.6,0.1-1.2-0.6-2.4c-0.9-1.3-1.6-2.4-0.4-3.7c1.1-1.1,2.5-0.8,3.8,0.4C98.1,290.6,98.2,292.1,97.1,293.5z"/>
	<path d="M92,288.6l-0.9-0.9c0.9-1,0.5-2-0.3-2.8c-0.9-0.9-1.6-0.9-2.2-0.4c-0.6,0.6-0.4,1.2,0.4,2.4c0.8,1.3,1.5,2.5,0.3,3.7
		c-0.9,0.9-2.2,0.8-3.5-0.5c-1.3-1.4-1.3-2.7-0.3-3.9l0.9,0.9c-0.7,0.8-0.6,1.5,0.2,2.3c0.8,0.8,1.4,0.8,1.9,0.4
		c0.6-0.6,0.2-1.2-0.5-2.4c-0.8-1.3-1.5-2.5-0.2-3.7c1.1-1.1,2.6-0.7,3.8,0.6C93,285.7,93.1,287.3,92,288.6z"/>
	<path d="M85.5,281.6l-0.8-0.9c0.9-1,0.6-1.9-0.1-2.8c-0.8-1-1.6-1-2.1-0.6c-0.7,0.6-0.5,1.2,0.2,2.4c0.7,1.4,1.4,2.6,0.1,3.7
		c-1,0.8-2.3,0.6-3.4-0.8c-1.2-1.5-1.1-2.8-0.1-3.9l0.8,0.9c-0.7,0.7-0.7,1.5,0.1,2.3c0.7,0.8,1.4,0.9,1.8,0.5
		c0.6-0.5,0.3-1.2-0.4-2.4c-0.8-1.4-1.3-2.6,0-3.8c1.2-1,2.6-0.5,3.8,0.8C86.7,278.9,86.7,280.4,85.5,281.6z"/>
	<path d="M79.7,276.8c-1.8,1.4-4.1,1.3-5.5-0.5c-1.4-1.8-0.7-3.9,1.3-5.5l3.6,4.8c1.2-1,1.6-2.4,0.7-3.7c-0.7-0.9-1.6-1.2-2.6-0.8
		l-0.7-0.9c1.5-0.7,3-0.3,4.1,1.1C82.1,273.3,81.5,275.5,79.7,276.8z M78.4,276.2l-2.8-3.7c-1.2,1-1.5,2.2-0.6,3.3
		C75.9,276.9,77.2,276.9,78.4,276.2z"/>
	<path d="M71.8,270.5L71.8,270.5c-0.9,0-1.9-0.3-2.5-1.1c-0.1-0.2-0.2-0.3-0.2-0.5l1-0.7l0,0c0.1,0.2,0.1,0.3,0.2,0.5
		c0.7,1,2,1.3,3.2,0.5l3.5-2.4l0.7,1l-6.4,4.4l-0.7-1L71.8,270.5z"/>
	<path d="M68.9,268.5l-0.7-1.1l3.3-4c0.5-0.6,1.1-1.3,1.1-1.3l0,0c0,0-1,0.3-1.6,0.4l-5,1.2l-0.7-1.1l8-1.8l0.7,1.1L68.9,268.5z"/>
	<path d="M62.2,263.3l-0.6-1l1.3-0.8l0.6,1L62.2,263.3z M64.8,261.8l-0.6-1l6.7-3.9l0.6,1L64.8,261.8z"/>
	<path d="M66.8,257.7c-2,1.1-4.3,0.6-5.3-1.4c-0.9-1.6-0.5-3.2,0.8-4.2l0.6,1.1c-0.8,0.7-1.1,1.6-0.5,2.6c0.8,1.5,2.4,1.6,3.9,0.8
		c1.5-0.8,2.3-2.2,1.5-3.6c-0.6-1.1-1.6-1.4-2.7-1l-0.6-1.1c1.7-0.7,3.2-0.2,4.1,1.5C69.7,254.5,68.8,256.6,66.8,257.7z"/>
	<path d="M63.2,250.8c-2,0.9-4.3,0.4-5.2-1.6c-1-2.1,0.1-4,2.4-5.1l2.5,5.4c1.4-0.7,2.1-2,1.4-3.4c-0.5-1-1.3-1.5-2.3-1.3l-0.5-1.1
		c1.7-0.4,3,0.3,3.8,1.9C66.3,247.8,65.2,249.8,63.2,250.8z M62.1,249.9l-2-4.2c-1.4,0.7-1.9,1.8-1.3,3.1
		C59.4,250.1,60.7,250.3,62.1,249.9z"/>
	<path d="M61.1,243.1l-0.5-1.1c1.2-0.7,1.2-1.6,0.8-2.7c-0.5-1.2-1.2-1.5-1.9-1.2c-0.8,0.3-0.8,1-0.5,2.4c0.3,1.5,0.5,2.9-1.1,3.5
		c-1.2,0.5-2.3-0.1-3-1.8c-0.7-1.8-0.2-3,1.1-3.7l0.5,1.1c-0.9,0.5-1.1,1.2-0.7,2.2c0.4,1,1,1.3,1.6,1c0.8-0.3,0.6-1.1,0.4-2.4
		c-0.3-1.6-0.5-2.9,1.2-3.6c1.4-0.6,2.7,0.3,3.3,1.9C63.1,240.8,62.6,242.3,61.1,243.1z"/>
	<path d="M48.5,232.9l-0.4-1.2l11.5,0.6l0.4,1.2L48.5,232.9z"/>
	<path d="M46.9,227.7l-1.9-7.3l1.1-0.3l1.6,6l3.3-0.8l-1.4-5.5l1.1-0.3l1.4,5.5l3.6-0.9l-1.6-6.2l1.2-0.3l1.9,7.5L46.9,227.7z"/>
	<path d="M51.4,217.8c-2.2,0.4-4.3-0.6-4.7-2.9c-0.4-1.8,0.4-3.2,2-3.8l0.2,1.2c-1,0.4-1.5,1.2-1.2,2.4c0.3,1.6,1.8,2.2,3.5,1.8
		s2.8-1.4,2.5-3c-0.2-1.2-1.1-1.8-2.3-1.7l-0.2-1.2c1.8-0.2,3.1,0.8,3.5,2.7C55.1,215.6,53.6,217.3,51.4,217.8z"/>
	<path d="M49.9,210.1c-2.2,0.3-4.2-0.8-4.6-3.1c-0.3-2.3,1.3-3.9,3.5-4.3s4.2,0.8,4.5,3.1C53.7,208.1,52.1,209.8,49.9,210.1z
		 M49,203.9c-1.7,0.2-2.9,1.3-2.7,2.9s1.7,2.3,3.4,2s2.9-1.3,2.7-2.9S50.7,203.7,49,203.9z"/>
	<path d="M50.1,201.8l-0.1-1.2c1.3-0.3,1.6-1.2,1.5-2.4c-0.1-1.3-0.7-1.7-1.4-1.7c-0.9,0.1-1,0.7-1.2,2.1c-0.2,1.5-0.4,2.9-2,3.1
		c-1.3,0.1-2.2-0.8-2.4-2.6c-0.2-1.9,0.7-2.9,2.1-3.2l0.1,1.2c-1,0.2-1.4,0.8-1.3,1.9c0.1,1.1,0.6,1.5,1.2,1.4
		c0.8-0.1,0.9-0.8,1.1-2.2c0.2-1.6,0.4-2.9,2.2-3.1c1.5-0.1,2.5,1.1,2.6,2.8C52.7,200.3,51.8,201.5,50.1,201.8z"/>
	<path d="M54.4,194.2l-1.1,0l0-0.1c0.1-0.2,0.1-0.4,0.1-0.8c0-0.5-0.2-0.8-1-1.1l-0.8-0.3l-7.4,3.3l-0.1-1.3l4.7-2
		c0.6-0.3,1.5-0.6,1.5-0.6l0,0c0,0-0.9-0.2-1.5-0.4l-4.9-1.6L44,188l8.5,3c1.6,0.6,2,1.1,2,2.1C54.5,193.6,54.5,193.9,54.4,194.2z"
		/>
	<path d="M49.2,187.5l0-1.2c1.3-0.1,1.7-1,1.8-2.2c0-1.3-0.5-1.8-1.2-1.8c-0.9,0-1.1,0.6-1.4,2c-0.3,1.5-0.7,2.9-2.4,2.8
		c-1.3,0-2.1-1-2.1-2.8c0-1.9,1-2.8,2.5-3l0,1.2c-1,0.1-1.5,0.6-1.5,1.8c0,1.1,0.5,1.6,1.1,1.6c0.8,0,1-0.7,1.3-2.1
		c0.3-1.5,0.7-2.8,2.5-2.8c1.6,0,2.3,1.3,2.3,3.1C51.9,186.3,50.9,187.4,49.2,187.5z"/>
	<path d="M44.1,180.3l0.1-1.1l-2.4-0.1l0.1-1.2l2.4,0.1l0.1-1.5l1,0l-0.1,1.5l5,0.2c0.5,0,0.7-0.3,0.8-0.7c0-0.2,0-0.5-0.1-0.6l0,0
		l1,0c0,0.3,0.1,0.6,0.1,1c0,1-0.5,1.7-1.6,1.6l-5.3-0.2l-0.1,1.1L44.1,180.3z"/>
	<path d="M48.1,175.9c-2.2-0.2-3.9-1.8-3.7-4c0.2-2.3,2.1-3.4,4.6-3.2l-0.5,6c1.6,0,2.8-0.7,3-2.2c0.1-1.1-0.4-1.9-1.4-2.3l0.1-1.2
		c1.6,0.5,2.5,1.8,2.3,3.5C52.3,174.9,50.4,176.1,48.1,175.9z M47.6,174.6l0.4-4.6c-1.5-0.1-2.5,0.6-2.7,2
		C45.2,173.4,46.2,174.3,47.6,174.6z"/>
	<path d="M45.1,166.8l0.2-1.2l1.1,0.2l0,0c-0.7-0.6-1.1-1.5-0.9-2.4c0.1-0.9,0.7-1.6,1.7-1.8l0,0c-0.8-0.6-1.1-1.6-1-2.5
		c0.2-1.4,1.2-2.2,2.8-1.9l5.4,0.8l-0.2,1.2l-5.3-0.8c-0.9-0.1-1.6,0.4-1.7,1.2c-0.2,1,0.6,2,1.8,2.2l4.8,0.7l-0.2,1.2l-5.3-0.8
		c-0.9-0.1-1.6,0.3-1.7,1.1c-0.1,0.9,0.5,2.1,1.7,2.3l4.8,0.7l-0.2,1.2L45.1,166.8z"/>
	<path d="M45.6,148.2l0.3-1.2l9.4,6.6l-0.3,1.2L45.6,148.2z"/>
	<path d="M46.9,142.9l0.4-1.3l9,2.8l1.6-5.4l1.2,0.4l-2,6.6L46.9,142.9z"/>
	<path d="M60.2,133.7L60.2,133.7c0.4,0.7,0.7,1.6,0.3,2.9c-0.5,1.4-1.6,2.2-2.9,1.7c-1.7-0.6-1.6-2.1-1.2-4c0.2-1.1,0.4-1.8-0.4-2.1
		c-0.8-0.3-1.5,0.1-1.9,1.2c-0.4,1.2-0.1,2,0.9,2.4l-0.4,1.1c-1.4-0.6-2.1-1.9-1.4-3.8c0.6-1.5,1.6-2.5,3.3-1.8l3.4,1.3
		c0.6,0.2,1,0.2,1.1-0.5l0,0l0.8,0.3c0,0.2,0,0.4-0.1,0.7C61.4,133.6,60.9,133.8,60.2,133.7z M58.5,133l-1.2-0.5
		c0.1,0.5,0,1.2-0.1,1.9c-0.2,1.2-0.3,2.2,0.7,2.6c1,0.4,1.5-0.3,1.7-1.1C60.2,134.4,59.3,133.3,58.5,133z"/>
	<path d="M64.1,127l-1-0.4l0,0c0.5,0.8,0.7,1.6,0.2,2.6c-0.6,1.5-1.9,2-3.4,1.4l-4.9-2.1l0.5-1.1l4.9,2.1c0.9,0.4,1.7,0,2.1-1
		c0.5-1.1-0.1-2.2-1.2-2.7l-4.4-1.9l0.5-1.1l7.1,3.1L64.1,127z"/>
	<path d="M59.7,120.4L59.7,120.4c-0.4-0.8-0.5-1.7,0-2.8c0.7-1.4,1.9-1.9,3.4-1.2l4.9,2.4l-0.5,1.1l-4.8-2.4
		c-0.9-0.4-1.7-0.1-2.2,0.9c-0.5,1.1-0.2,2.3,1,2.8l4.3,2.1l-0.5,1.1l-6.9-3.4l0.5-1.1L59.7,120.4z"/>
	<path d="M65.1,116.1c-2-1.1-2.8-3.2-1.7-5.3c0.9-1.6,2.4-2.1,4-1.6l-0.6,1.1c-1-0.4-1.9,0-2.5,1c-0.8,1.4,0,2.8,1.4,3.7
		s3.1,0.8,3.9-0.7c0.6-1.1,0.4-2.1-0.6-2.8l0.6-1c1.5,1.1,1.9,2.6,0.9,4.3C69.4,116.8,67.1,117.2,65.1,116.1z"/>
	<path d="M67.4,106.3L67.4,106.3c-0.3-0.9-0.3-1.8,0.3-2.7c0.9-1.4,2.1-1.7,3.5-0.9l4.6,2.9l-0.6,1l-4.5-2.9
		c-0.8-0.5-1.7-0.3-2.3,0.6c-0.7,1-0.4,2.3,0.7,2.9l4,2.6l-0.6,1l-9-5.7l0.7-1L67.4,106.3z"/>
	<path d="M75.7,101.4l0.7-1c1.2,0.7,2,0.2,2.7-0.8c0.8-1,0.6-1.8,0-2.2c-0.7-0.5-1.2-0.2-2.3,0.8c-1.2,1-2.2,1.9-3.6,0.9
		c-1-0.8-1.1-2.1-0.1-3.5c1.1-1.5,2.4-1.8,3.7-1l-0.7,1c-0.9-0.5-1.6-0.3-2.3,0.6c-0.7,0.9-0.5,1.5,0,1.9c0.7,0.5,1.2,0,2.3-0.9
		c1.2-1.1,2.2-1.9,3.7-0.9c1.3,0.9,1.1,2.4,0.1,3.8C78.7,102,77.2,102.4,75.7,101.4z"/>
	<path d="M75.8,92.6l0.7-0.9l-1.9-1.5l0.8-0.9l1.9,1.5l0.9-1.2l0.8,0.6L78,91.4l3.9,3.1c0.4,0.3,0.7,0.2,1-0.2
		c0.1-0.2,0.3-0.4,0.3-0.6l0,0l0.8,0.7c-0.1,0.3-0.3,0.5-0.5,0.8c-0.6,0.8-1.4,1.1-2.2,0.4l-4.1-3.3l-0.7,0.9L75.8,92.6z"/>
	<path d="M80.9,88.4L80.9,88.4c-0.2-0.9-0.2-1.9,0.5-2.7c0.1-0.2,0.2-0.2,0.4-0.3l0.9,0.8l0,0c-0.2,0.1-0.3,0.2-0.4,0.4
		c-0.8,0.9-0.8,2.3,0.3,3.2l3.3,2.8L85,93.5l-5.9-5l0.8-0.9L80.9,88.4z"/>
	<path d="M90.5,85.7L90.5,85.7c0.1,0.8,0,1.8-0.9,2.7c-1,1.1-2.3,1.4-3.4,0.5c-1.3-1.2-0.6-2.5,0.5-4.2c0.6-0.9,1.1-1.5,0.5-2.1
		C86.5,82,85.7,82.2,85,83c-0.9,0.9-0.9,1.7-0.1,2.6l-0.8,0.9c-1.1-1-1.2-2.5,0.2-4c1.1-1.2,2.4-1.7,3.7-0.4l2.7,2.5
		c0.5,0.4,0.8,0.6,1.2,0l0,0l0.6,0.6c-0.1,0.1-0.1,0.3-0.4,0.6C91.7,86.1,91.1,86.2,90.5,85.7z M89.2,84.5l-1-0.9
		c-0.1,0.5-0.4,1.1-0.8,1.7c-0.7,1-1.2,1.9-0.3,2.7c0.8,0.7,1.5,0.3,2-0.3C90.2,86.4,89.8,85.1,89.2,84.5z"/>
	<path d="M87.3,79.4l0.8-0.8l-1.7-1.7l0.9-0.9l1.7,1.7l1.1-1.1l0.7,0.7l-1.1,1.1l3.5,3.6c0.4,0.4,0.7,0.3,1.1,0
		c0.2-0.2,0.3-0.4,0.4-0.5l0,0l0.7,0.7c-0.2,0.2-0.4,0.5-0.6,0.8c-0.7,0.7-1.5,0.9-2.3,0.1l-3.7-3.8L88,80.1L87.3,79.4z"/>
	<path d="M93.3,78.9c-1.5-1.7-1.7-4,0-5.5c1.7-1.6,3.8-1.1,5.6,0.8l-4.4,4c1.1,1.1,2.6,1.4,3.7,0.4c0.8-0.8,1-1.7,0.5-2.6l0.9-0.8
		c0.9,1.5,0.6,3-0.7,4.2C97,81,94.8,80.6,93.3,78.9z M93.8,77.6l3.4-3.1c-1.1-1.1-2.3-1.2-3.3-0.3C92.8,75.1,93,76.4,93.8,77.6z"/>
	<path d="M102.1,76.7L103,76c0.6,0.6,1.5,0.3,2.4-0.4c1.1-0.9,1.3-1.9,0.5-2.9l-0.7-0.8l0,0c0,0.9-0.2,1.7-1,2.4
		c-1.5,1.3-3.6,0.9-5-0.8c-1.5-1.9-1.2-3.9,0.1-5c0.9-0.7,1.7-0.8,2.6-0.6l0,0l-0.6-0.8l0.9-0.8l4.6,5.7c1.3,1.6,0.8,3.2-0.7,4.5
		C104.5,77.5,103.1,77.6,102.1,76.7z M103.5,69.6c-1.1-1.3-2.3-1.7-3.6-0.6c-1.1,0.9-1,2.3,0.1,3.6c1.1,1.3,2.4,1.7,3.5,0.8
		C104.9,72.2,104.6,70.9,103.5,69.6z"/>
	<path d="M109.6,73.2l-0.6-0.9l0,0c0.2,0,0.4-0.1,0.8-0.4c0.4-0.3,0.6-0.7,0.4-1.4l-0.2-0.8l-6.9-4.3l1.1-0.8l4.3,2.8
		c0.6,0.4,1.3,0.9,1.3,0.9l0,0c0,0-0.3-0.9-0.5-1.5l-1.4-4.9l1-0.8l2.3,8.7c0.4,1.7,0.2,2.3-0.6,2.8C110.2,73,109.9,73.1,109.6,73.2
		z"/>
	<path d="M113.3,54.7l1.1-0.7l2.2,11.3l-1.1,0.7L113.3,54.7z"/>
	<path d="M129.4,56.2L129.4,56.2c-0.2,1.3-0.9,2.4-2.2,3c-2.6,1.4-5.5,0.4-7-2.5c-1.5-2.8-1.1-5.8,1.9-7.4c2.2-1.2,4.2-0.7,5.5,1
		l-1.2,0.7c-0.9-1.1-2.2-1.4-3.7-0.6c-2.3,1.2-2.4,3.5-1.2,5.7c1.2,2.3,3.4,3.1,5.3,2.1c1.9-1,2.1-2.8,1.3-4.4l-0.1-0.2l-2.8,1.5
		l-0.6-1l4-2.2l2.7,5l-0.8,0.4L129.4,56.2z"/>
	<path d="M130.9,49.9L130.9,49.9c0.1-0.9,0.6-1.8,1.5-2.2c0.2-0.1,0.3-0.1,0.5-0.1l0.5,1.1l0,0c-0.2,0-0.3,0.1-0.5,0.2
		c-1.1,0.5-1.6,1.8-1,3.1l1.8,3.9l-1.1,0.5l-3.3-7l1.1-0.5L130.9,49.9z"/>
	<path d="M134.9,50.8c-0.9-2.1-0.2-4.3,1.9-5.2c2.1-0.9,4.1,0.2,5,2.3s0.3,4.3-1.9,5.2C137.8,54,135.8,52.9,134.9,50.8z M140.7,48.4
		c-0.7-1.6-2-2.5-3.5-1.9s-1.8,2.2-1.1,3.8c0.7,1.6,2,2.5,3.5,1.8C141.1,51.6,141.3,50,140.7,48.4z"/>
	<path d="M140.9,44.1l1.2-0.4l2.8,4.1c0.4,0.5,0.9,1.4,0.9,1.4l0,0c0,0-0.1-1-0.2-1.7l-0.3-5l1.2-0.4l2.7,4.1
		c0.4,0.5,0.9,1.4,0.9,1.4l0,0c0,0-0.1-1-0.1-1.7l-0.2-5l1.2-0.4l0.1,8.1l-1.2,0.4l-2.7-4c-0.4-0.5-0.9-1.4-0.9-1.4l0,0
		c0,0,0.1,1,0.2,1.7l0.3,4.8l-1.2,0.4L140.9,44.1z"/>
	<path d="M152,40.4l1.1-0.3l-0.7-2.3l1.2-0.3l0.7,2.3l1.4-0.4l0.3,0.9l-1.4,0.4l1.4,4.8c0.1,0.5,0.5,0.6,0.9,0.5
		c0.2-0.1,0.5-0.2,0.6-0.3l0,0l0.3,1c-0.3,0.1-0.6,0.3-0.9,0.4c-0.9,0.3-1.7,0.1-2-1l-1.4-5.1l-1.1,0.3L152,40.4z"/>
	<path d="M158.5,39.7L158.5,39.7c0.4-0.8,1-1.5,2.1-1.7c1.6-0.4,2.7,0.3,3.1,1.8L165,45l-1.2,0.3l-1.2-5.2c-0.2-1-1-1.4-2.1-1.1
		c-1.2,0.3-1.9,1.3-1.6,2.6l1.1,4.6l-1.2,0.3l-2.5-10.4l1.2-0.3L158.5,39.7z"/>
	<path d="M167.8,41.9l1.2-0.2c0.4,1.3,1.3,1.5,2.5,1.3c1.3-0.2,1.7-0.8,1.6-1.5c-0.1-0.9-0.8-1-2.2-1c-1.6-0.1-2.9-0.1-3.2-1.8
		c-0.2-1.3,0.6-2.3,2.4-2.5c1.9-0.3,3,0.4,3.4,1.9l-1.2,0.2c-0.3-1-0.9-1.3-2-1.1c-1.1,0.2-1.5,0.7-1.4,1.3c0.1,0.8,0.9,0.9,2.3,0.9
		c1.6,0.1,2.9,0.2,3.2,1.9c0.3,1.5-0.9,2.5-2.6,2.8C169.5,44.4,168.2,43.6,167.8,41.9z"/>
	<path d="M174,35.6l1.1-0.1l-0.3-2.4l1.2-0.2l0.3,2.4l1.5-0.2l0.1,1l-1.5,0.2l0.6,5c0.1,0.5,0.4,0.7,0.9,0.6c0.2,0,0.5-0.1,0.6-0.2
		l0,0l0.1,1c-0.3,0.1-0.6,0.2-1,0.2c-1,0.1-1.7-0.2-1.9-1.3l-0.7-5.2l-1.1,0.1L174,35.6z"/>
	<path d="M180.6,36.1L180.6,36.1c0.4-0.8,1.2-1.5,2.2-1.6c0.2,0,0.3,0,0.5,0l0.1,1.2l0,0c-0.2,0-0.3,0-0.5,0c-1.2,0.1-2.1,1.1-2,2.5
		l0.4,4.3l-1.2,0.1l-0.7-7.7l1.2-0.1L180.6,36.1z"/>
	<path d="M189.3,40.9L189.3,40.9c-0.4,0.6-1.2,1.3-2.5,1.4c-1.5,0.1-2.6-0.6-2.7-2c-0.1-1.8,1.3-2.3,3.2-2.7
		c1.1-0.2,1.8-0.4,1.8-1.2c0-0.9-0.7-1.3-1.8-1.3c-1.3,0.1-1.9,0.6-1.8,1.8l-1.2,0.1c0-1.5,0.9-2.7,2.9-2.8c1.6-0.1,2.9,0.5,3,2.3
		l0.2,3.7c0,0.6,0.2,1,0.9,0.8l0,0l0,0.9c-0.1,0.1-0.3,0.1-0.7,0.2C189.9,42,189.5,41.7,189.3,40.9z M189.3,39.1l-0.1-1.3
		c-0.4,0.3-1.1,0.5-1.7,0.7c-1.2,0.3-2.2,0.5-2.1,1.7c0.1,1,0.9,1.2,1.7,1.2C188.7,41.2,189.3,40,189.3,39.1z"/>
	<path d="M191.4,34.2l1.1,0l0-2.4l1.2,0l0,2.4l1.5,0l0,1l-1.5,0l0.1,5c0,0.5,0.3,0.7,0.8,0.7c0.2,0,0.5-0.1,0.6-0.1l0,0l0,1
		c-0.3,0.1-0.6,0.1-1,0.1c-1,0-1.7-0.4-1.7-1.5l-0.1-5.3l-1.1,0L191.4,34.2z"/>
	<path d="M196.1,38c0.1-2.2,1.6-4,3.8-4c2.3,0.1,3.5,1.9,3.4,4.5l-6-0.2c0,1.6,0.9,2.8,2.4,2.8c1.1,0,1.9-0.5,2.2-1.5l1.2,0
		c-0.4,1.6-1.6,2.6-3.4,2.5C197.3,42.1,196,40.2,196.1,38z M197.4,37.4l4.6,0.1c0-1.5-0.8-2.5-2.2-2.5
		C198.4,34.9,197.6,36,197.4,37.4z"/>
	<path d="M204,42.5l1.1,0.1c0,0.9,0.8,1.3,2,1.4c1.4,0.1,2.3-0.5,2.4-1.8l0.1-1.1l0,0c-0.6,0.7-1.3,1.1-2.4,1c-2-0.2-3.2-1.9-3-4.1
		c0.2-2.4,1.8-3.7,3.6-3.5c1.1,0.1,1.8,0.6,2.3,1.4l0,0l0.1-1l1.2,0.1l-0.6,7.3c-0.2,2-1.6,2.9-3.6,2.7
		C205.1,44.8,204,43.9,204,42.5z M209.9,38.4c0.1-1.7-0.5-2.8-2.1-2.9c-1.4-0.1-2.3,0.9-2.4,2.6c-0.1,1.7,0.5,2.8,2,3
		C209.1,41.3,209.8,40.1,209.9,38.4z"/>
	<path d="M211.8,45.2l0.1-1.1l0.1,0c0.2,0.1,0.4,0.2,0.8,0.3c0.5,0.1,0.9-0.1,1.3-0.8l0.4-0.7l-2-7.8l1.3,0.2l1.1,5
		c0.1,0.7,0.3,1.6,0.3,1.6l0,0c0,0,0.4-0.8,0.7-1.4l2.4-4.5l1.3,0.2l-4.4,7.8c-0.8,1.5-1.5,1.7-2.4,1.6
		C212.4,45.5,212.1,45.4,211.8,45.2z"/>
	<path d="M227.3,34.5l1.2,0.2l-6.3,9.6l-1.2-0.2L227.3,34.5z"/>
	<path d="M232.6,35.7l4.4,1.2c1.1,0.3,1.8,0.8,2.2,1.6c0.3,0.5,0.4,1.2,0.2,1.9c-0.3,1.1-1.1,1.7-2.3,1.7l0,0
		c1.1,0.6,1.8,1.7,1.4,3.1c-0.2,0.8-0.7,1.4-1.3,1.8c-0.7,0.5-1.7,0.6-2.8,0.3l-4.6-1.3L232.6,35.7z M234.6,46.1
		c0.7,0.2,1.3,0.2,1.8-0.1c0.4-0.2,0.7-0.6,0.8-1.1c0.4-1.3-0.4-2.2-1.6-2.5l-3.2-0.9l-1,3.6L234.6,46.1z M235.6,41.3
		c1.3,0.3,2.2-0.1,2.5-1.1c0.3-1-0.2-1.8-1.4-2.1l-3.1-0.9l-0.9,3.3L235.6,41.3z"/>
	<path d="M243.4,50.2l0.3-1l0,0c-0.8,0.5-1.5,0.8-2.6,0.4c-1.5-0.5-2.2-1.7-1.6-3.3l1.7-5.1l1.1,0.4l-1.7,5
		c-0.3,0.9,0.1,1.7,1.1,2.1c1.2,0.4,2.2-0.2,2.6-1.4l1.5-4.5l1.1,0.4l-2.5,7.3L243.4,50.2z"/>
	<path d="M246.4,48.6l1.2,0.5c-0.3,1.3,0.3,2,1.4,2.4c1.2,0.5,1.9,0.2,2.1-0.5c0.3-0.8-0.1-1.2-1.4-2c-1.3-0.9-2.4-1.7-1.8-3.2
		c0.5-1.2,1.7-1.6,3.4-0.9c1.8,0.7,2.3,1.9,1.9,3.4l-1.2-0.5c0.3-1-0.1-1.6-1.1-2c-1-0.4-1.6-0.1-1.9,0.4c-0.3,0.8,0.3,1.2,1.5,2
		c1.3,0.9,2.4,1.7,1.7,3.3c-0.6,1.4-2.1,1.7-3.7,1C246.6,51.6,245.8,50.2,246.4,48.6z"/>
	<path d="M255.6,46.7l1.1,0.5l-3.1,7.1l-1.1-0.5L255.6,46.7z M256.7,44l1.1,0.5l-0.6,1.4l-1.1-0.5L256.7,44z"/>
	<path d="M259,49.4L259,49.4c0.8-0.4,1.7-0.5,2.8,0c1.5,0.7,2,1.9,1.3,3.4l-2.4,4.9l-1.1-0.5l2.3-4.8c0.4-0.9,0.1-1.7-0.9-2.2
		c-1.1-0.5-2.3-0.1-2.8,1l-2.1,4.3l-1.1-0.5l3.4-6.9l1.1,0.5L259,49.4z"/>
	<path d="M263.4,54.7c1.1-2,3.3-2.8,5.2-1.8c2,1.1,2.2,3.3,1,5.5l-5.2-2.9c-0.7,1.4-0.5,2.9,0.8,3.6c1,0.5,1.9,0.4,2.6-0.3l1,0.6
		c-1.1,1.3-2.6,1.5-4.2,0.7C262.6,58.9,262.3,56.7,263.4,54.7z M264.8,54.8l4.1,2.3c0.7-1.4,0.4-2.6-0.8-3.3
		C266.9,53.1,265.7,53.6,264.8,54.8z"/>
	<path d="M269.7,59.7l1.1,0.7c-0.6,1.2,0,2,1,2.6c1.1,0.7,1.8,0.5,2.2-0.1c0.5-0.7,0.1-1.2-1-2.2c-1.1-1.1-2.1-2.1-1.2-3.5
		c0.7-1.1,2-1.3,3.5-0.3c1.6,1,1.9,2.3,1.3,3.7l-1.1-0.7c0.4-0.9,0.2-1.6-0.8-2.2c-0.9-0.6-1.6-0.4-1.9,0.1
		c-0.4,0.7,0.1,1.2,1.1,2.2c1.2,1.1,2.1,2.1,1.1,3.6c-0.8,1.3-2.3,1.3-3.8,0.4C269.3,62.7,268.8,61.3,269.7,59.7z"/>
	<path d="M275.7,63.5l1,0.7c-0.6,1.2-0.1,2,0.8,2.7c1,0.7,1.8,0.6,2.2,0c0.5-0.7,0.1-1.2-0.9-2.3c-1.1-1.1-2-2.2-1-3.5
		c0.7-1.1,2-1.2,3.5-0.2c1.6,1.1,1.8,2.4,1.1,3.7l-1-0.7c0.5-0.9,0.3-1.6-0.7-2.2c-0.9-0.6-1.6-0.5-1.9,0c-0.5,0.7,0,1.2,1,2.2
		c1.1,1.1,2,2.2,1,3.6c-0.9,1.3-2.4,1.2-3.8,0.2C275.2,66.5,274.8,65,275.7,63.5z"/>
	<path d="M287.2,65.3l0.9,0.8l-0.7,0.9l0,0c0.8-0.3,1.8-0.2,2.6,0.5c0.7,0.6,1,1.4,0.7,2.3l0,0c0.9-0.4,2-0.2,2.7,0.4
		c1.1,0.9,1.3,2.2,0.2,3.4l-3.4,4.2l-0.9-0.8l3.4-4.1c0.6-0.7,0.5-1.6-0.1-2.1c-0.8-0.6-2-0.5-2.8,0.4l-3.1,3.7l-0.9-0.8l3.4-4.1
		c0.6-0.7,0.6-1.5-0.1-2c-0.7-0.6-2.1-0.6-2.9,0.3l-3.1,3.7l-0.9-0.8L287.2,65.3z"/>
	<path d="M293.6,75.6c1.5-1.6,3.8-2,5.5-0.4c1.7,1.6,1.5,3.9-0.1,5.5s-3.8,2-5.5,0.4C291.8,79.6,292,77.3,293.6,75.6z M298.1,79.9
		c1.2-1.2,1.5-2.8,0.3-3.9s-2.7-0.7-3.9,0.5s-1.5,2.8-0.3,3.9S296.9,81.2,298.1,79.9z"/>
	<path d="M299.6,81.4c1.9-1.8,4-1.7,5.3-0.3c0.7,0.8,0.9,1.8,0.7,2.6l0,0l2.9-2.8l0.8,0.9l-7.8,7.3l-0.8-0.9l0.7-0.6l0,0
		c-0.9,0.1-1.7-0.1-2.5-0.9C297.5,85.1,297.8,83.1,299.6,81.4z M303.6,85.7c1.3-1.2,1.6-2.7,0.5-3.9c-1-1.1-2.5-0.7-3.7,0.5
		c-1.3,1.2-1.7,2.6-0.7,3.7C300.9,87.2,302.4,86.9,303.6,85.7z"/>
	<path d="M305.3,87.4c1.7-1.4,4-1.5,5.5,0.2c1.5,1.8,0.9,3.9-1,5.5l-3.9-4.6c-1.1,1.1-1.5,2.5-0.5,3.7c0.7,0.9,1.6,1.1,2.6,0.6
		l0.8,0.9c-1.5,0.8-3,0.5-4.1-0.8C303.1,91.1,303.6,88.9,305.3,87.4z M306.6,88l3,3.5c1.1-1.1,1.3-2.3,0.4-3.3
		C309.1,87.1,307.8,87.2,306.6,88z"/>
	<path d="M316.1,89.7l0.7,1l-8.4,6.6l-0.7-1L316.1,89.7z"/>
	<path d="M321.7,97.2l0.7,1l-11.2,2.7l-0.7-1L321.7,97.2z"/>
	<path d="M324.7,101.7l2.3,3.8c0.6,1,0.7,1.9,0.5,2.7c-0.2,0.7-0.7,1.3-1.4,1.7c-1.7,1-3.3,0.7-4.5-1.3l-1.5-2.5l-3.8,2.3l-0.7-1.1
		L324.7,101.7z M321.1,105.5l1.5,2.4c0.8,1.3,1.8,1.5,2.9,0.9c1.1-0.7,1.3-1.7,0.5-2.9l-1.5-2.5L321.1,105.5z"/>
	<path d="M326.3,112.7L326.3,112.7c0.9,0.1,1.8,0.5,2.3,1.4c0.1,0.2,0.1,0.3,0.2,0.5l-1,0.6l0,0c0-0.2-0.1-0.3-0.2-0.5
		c-0.6-1-1.9-1.5-3.1-0.8l-3.8,2.1l-0.6-1.1l6.8-3.7l0.6,1.1L326.3,112.7z"/>
	<path d="M325.6,116.8c2-1,4.3-0.5,5.3,1.5c1,2.1,0,4.1-2,5.1c-2,1-4.3,0.5-5.3-1.5C322.6,119.9,323.6,117.8,325.6,116.8z
		 M328.4,122.3c1.5-0.8,2.4-2.1,1.6-3.6c-0.7-1.5-2.3-1.6-3.9-0.9s-2.4,2.1-1.6,3.6C325.3,122.9,326.9,123.1,328.4,122.3z"/>
	<path d="M333,123.1l0.5,1.1l-1,0.4l0,0c1,0.2,1.7,0.8,2.1,1.8c0.8,1.8-0.1,3.6-2.4,4.6c-2.3,1-4.2,0.4-5.1-1.5
		c-0.4-1-0.4-1.8,0.1-2.7l0,0l-3.1,1.3l-0.5-1.1L333,123.1z M331.7,130c1.6-0.7,2.5-1.9,1.9-3.2c-0.7-1.6-2.2-1.7-3.8-1.1
		s-2.5,1.8-1.8,3.4C328.6,130.5,330.1,130.7,331.7,130z"/>
	<path d="M332.5,131.9c2.1-0.8,4.3,0,5.1,2.1c0.8,2.2-0.5,4.1-2.6,4.9c-2.1,0.8-4.3,0.1-5.1-2.1
		C329.2,134.6,330.4,132.6,332.5,131.9z M334.6,137.7c1.6-0.6,2.6-1.8,2-3.4s-2.1-1.9-3.7-1.3c-1.6,0.6-2.6,1.8-2,3.4
		C331.5,138,333,138.3,334.6,137.7z"/>
	<path d="M334,140.1l0.4,1.2c-1.2,0.5-1.3,1.5-1,2.6c0.4,1.2,1,1.6,1.7,1.4c0.8-0.2,0.9-0.9,0.8-2.3c-0.1-1.6-0.2-2.9,1.4-3.4
		c1.2-0.4,2.3,0.3,2.8,2.1c0.6,1.8-0.1,3-1.4,3.6l-0.4-1.2c0.9-0.4,1.2-1.1,0.9-2.2c-0.3-1.1-0.9-1.3-1.5-1.2
		c-0.8,0.2-0.7,1-0.6,2.4c0.1,1.6,0.2,2.9-1.5,3.4c-1.5,0.4-2.6-0.5-3.1-2.2C331.8,142.1,332.4,140.7,334,140.1z"/>
	<path d="M341.2,146l0.3,1.2l-7.5,2l-0.3-1.2L341.2,146z M344,145.3l0.3,1.2l-1.4,0.4l-0.3-1.2L344,145.3z"/>
	<path d="M341.8,148.4l0.3,1.1l2.4-0.6l0.3,1.2l-2.4,0.6l0.3,1.5l-1,0.2l-0.3-1.5l-4.9,1.2c-0.5,0.1-0.6,0.4-0.5,0.9
		c0.1,0.2,0.2,0.5,0.2,0.6l0,0l-1,0.2c-0.1-0.3-0.2-0.6-0.3-0.9c-0.2-1,0-1.8,1.1-2l5.1-1.2l-0.3-1.1L341.8,148.4z"/>
	<path d="M343,153.5l0.2,1.2l-7.6,1.6l-0.2-1.2L343,153.5z M345.9,152.9l0.2,1.2l-1.5,0.3l-0.2-1.2L345.9,152.9z"/>
	<path d="M339.7,156.7c2.2-0.4,4.2,0.7,4.6,3c0.4,2.3-1.2,4-3.4,4.3c-2.2,0.4-4.2-0.7-4.6-3C336,158.8,337.5,157.1,339.7,156.7z
		 M340.8,162.9c1.7-0.3,2.9-1.3,2.6-3c-0.3-1.6-1.8-2.2-3.4-1.9c-1.7,0.3-2.9,1.3-2.6,3C337.6,162.6,339.1,163.2,340.8,162.9z"/>
	<path d="M344.1,166.2L344.1,166.2c0.8,0.5,1.3,1.2,1.5,2.3c0.2,1.6-0.6,2.7-2.2,2.9l-5.4,0.6l-0.1-1.2l5.3-0.6
		c1-0.1,1.5-0.8,1.4-1.9c-0.1-1.2-1.1-2-2.4-1.9l-4.7,0.5l-0.1-1.2l7.7-0.9l0.1,1.2L344.1,166.2z"/>
	<path d="M349.1,180.6l0.1,1.3l-10.9-3.5l-0.1-1.3L349.1,180.6z"/>
</g>
</svg>
