<?xml version="1.0" encoding="UTF-8"?><svg id="Layer_1" xmlns="http://www.w3.org/2000/svg" viewBox="0 0 377.51 364.99"><defs><style>.cls-1,.cls-2{fill:#1d1d1b;}.cls-2{font-family:MyriadPro-Regular, 'Myriad Pro';font-size:14.94px;}.cls-3{fill:none;stroke:#1d1d1b;stroke-miterlimit:10;stroke-width:1.25px;}</style></defs><g><line class="cls-3" x1="195.18" y1="82.23" x2="195.18" y2="152.97"/><line class="cls-3" x1="143.63" y1="96.04" x2="179.01" y2="157.3"/><line class="cls-3" x1="105.9" y1="133.77" x2="167.16" y2="169.14"/><line class="cls-3" x1="92.09" y1="185.32" x2="162.83" y2="185.32"/><line class="cls-3" x1="105.9" y1="236.86" x2="167.16" y2="201.49"/><line class="cls-3" x1="143.63" y1="274.6" x2="179.01" y2="213.33"/><line class="cls-3" x1="195.18" y1="288.41" x2="195.18" y2="217.67"/><line class="cls-3" x1="246.72" y1="274.6" x2="211.35" y2="213.33"/><line class="cls-3" x1="284.46" y1="236.86" x2="223.19" y2="201.49"/><line class="cls-3" x1="298.27" y1="185.32" x2="227.53" y2="185.32"/><line class="cls-3" x1="284.46" y1="133.77" x2="223.19" y2="169.14"/><line class="cls-3" x1="246.72" y1="96.04" x2="211.35" y2="157.3"/><circle class="cls-1" cx="195.18" cy="185.32" r="6.06"/></g><text class="cls-2" transform="translate(195.08 66.46) rotate(1.84)"><tspan x="0" y="0">P</tspan></text><text class="cls-2" transform="translate(202.69 66.73) rotate(4.74)"><tspan x="0" y="0">r</tspan></text><text class="cls-2" transform="translate(207.27 67.06) rotate(7.74)"><tspan x="0" y="0">o</tspan></text><text class="cls-2" transform="translate(215.23 68.13) rotate(11.7)"><tspan x="0" y="0">p</tspan></text><text class="cls-2" transform="translate(223.35 69.81) rotate(15.65)"><tspan x="0" y="0">o</tspan></text><text class="cls-2" transform="translate(231.11 72.01) rotate(19.02)"><tspan x="0" y="0">s</tspan></text><text class="cls-2" transform="translate(236.6 73.93) rotate(21.26)"><tspan x="0" y="0">i</tspan></text><text class="cls-2" transform="translate(239.77 75.15) rotate(23.26)"><tspan x="0" y="0">t</tspan></text><text class="cls-2" transform="translate(244.25 77.09) rotate(25.27)"><tspan x="0" y="0">i</tspan></text><text class="cls-2" transform="translate(247.31 78.47) rotate(28.03)"><tspan x="0" y="0">o</tspan></text><text class="cls-2" transform="translate(254.4 82.23) rotate(31.93)"><tspan x="0" y="0">n</tspan></text><text class="cls-2" transform="translate(261.31 86.61) rotate(34.63)"><tspan x="0" y="0"> </tspan></text><text class="cls-2" transform="translate(263.86 88.34) rotate(36.59)"><tspan x="0" y="0">/</tspan></text><text class="cls-2" transform="translate(267.88 91.35) rotate(38.53)"><tspan x="0" y="0"> </tspan></text><text class="cls-2" transform="translate(270.31 93.21) rotate(41.15)"><tspan x="0" y="0">P</tspan></text><text class="cls-2" transform="translate(275.9 98.07) rotate(44.75)"><tspan x="0" y="0">o</tspan></text><text class="cls-2" transform="translate(281.61 103.77) rotate(48.07)"><tspan x="0" y="0">s</tspan></text><text class="cls-2" transform="translate(285.47 108.1) rotate(50.28)"><tspan x="0" y="0">i</tspan></text><text class="cls-2" transform="translate(287.67 110.72) rotate(52.27)"><tspan x="0" y="0">t</tspan></text><text class="cls-2" transform="translate(290.63 114.57) rotate(54.25)"><tspan x="0" y="0">i</tspan></text><text class="cls-2" transform="translate(292.65 117.27) rotate(57)"><tspan x="0" y="0">o</tspan></text><text class="cls-2" transform="translate(297.03 124.01) rotate(60.9)"><tspan x="0" y="0">n</tspan></text><text class="cls-2" transform="translate(300.95 131.16) rotate(63.68)"><tspan x="0" y="0">i</tspan></text><text class="cls-2" transform="translate(302.5 134.15) rotate(66.48)"><tspan x="0" y="0">n</tspan></text><text class="cls-2" transform="translate(305.75 141.61) rotate(70.44)"><tspan x="0" y="0">g</tspan></text><text class="cls-2" transform="translate(308.44 149.35) rotate(73.17)"><tspan x="0" y="0"> </tspan></text><text class="cls-2" transform="translate(309.36 152.31) rotate(75.15)"><tspan x="0" y="0">/</tspan></text><text class="cls-2" transform="translate(310.63 157.17) rotate(77.11)"><tspan x="0" y="0"> </tspan></text><text class="cls-2" transform="translate(311.37 160.15) rotate(79.76)"><tspan x="0" y="0">P</tspan></text><text class="cls-2" transform="translate(312.73 167.59) rotate(83.48)"><tspan x="0" y="0">u</tspan></text><text class="cls-2" transform="translate(313.61 175.63) rotate(86.55)"><tspan x="0" y="0">r</tspan></text><text class="cls-2" transform="translate(313.9 180.4) rotate(89.07)"><tspan x="0" y="0">p</tspan></text><text class="cls-2" transform="translate(313.99 188.74) rotate(93.57)"><tspan x="0" y="0">o</tspan></text><text class="cls-2" transform="translate(313.46 196.77) rotate(96.88)"><tspan x="0" y="0">s</tspan></text><text class="cls-2" transform="translate(312.79 202.52) rotate(100.06)"><tspan x="0" y="0">e</tspan></text><text class="cls-2" transform="translate(311.46 209.77) rotate(102.58)"><tspan x="0" y="0"> </tspan></text><text class="cls-2" transform="translate(310.81 212.77) rotate(104.55)"><tspan x="0" y="0">/</tspan></text><text class="cls-2" transform="translate(309.53 217.64) rotate(106.52)"><tspan x="0" y="0"> </tspan></text><text class="cls-2" transform="translate(308.71 220.58) rotate(109.03)"><tspan x="0" y="0">S</tspan></text><text class="cls-2" transform="translate(306.35 227.48) rotate(112.77)"><tspan x="0" y="0">o</tspan></text><text class="cls-2" transform="translate(303.22 234.89) rotate(116.3)"><tspan x="0" y="0">c</tspan></text><text class="cls-2" transform="translate(300.27 240.78) rotate(118.72)"><tspan x="0" y="0">i</tspan></text><text class="cls-2" transform="translate(298.7 243.76) rotate(121.31)"><tspan x="0" y="0">e</tspan></text><text class="cls-2" transform="translate(294.85 250.02) rotate(124.24)"><tspan x="0" y="0">t</tspan></text><text class="cls-2" transform="translate(292.16 254.04) rotate(127.1)"><tspan x="0" y="0">a</tspan></text><text class="cls-2" transform="translate(287.86 259.66) rotate(129.62)"><tspan x="0" y="0">l</tspan></text><text class="cls-2" transform="translate(285.74 262.21) rotate(131.1)"><tspan x="0" y="0">,</tspan></text><text class="cls-2" transform="translate(283.76 264.49) rotate(132.57)"><tspan x="0" y="0"> </tspan></text><text class="cls-2" transform="translate(281.72 266.78) rotate(135.04)"><tspan x="0" y="0">E</tspan></text><text class="cls-2" transform="translate(276.64 271.88) rotate(138.71)"><tspan x="0" y="0">n</tspan></text><text class="cls-2" transform="translate(270.68 277.11) rotate(142.26)"><tspan x="0" y="0">v</tspan></text><text class="cls-2" transform="translate(265.07 281.41) rotate(144.76)"><tspan x="0" y="0">i</tspan></text><text class="cls-2" transform="translate(262.3 283.38) rotate(146.73)"><tspan x="0" y="0">r</tspan></text><text class="cls-2" transform="translate(258.47 285.95) rotate(149.75)"><tspan x="0" y="0">o</tspan></text><text class="cls-2" transform="translate(251.53 290) rotate(153.66)"><tspan x="0" y="0">n</tspan></text><text class="cls-2" transform="translate(244.35 293.67) rotate(158.58)"><tspan x="0" y="0">m</tspan></text><text class="cls-2" transform="translate(232.91 298.06) rotate(163.32)"><tspan x="0" y="0">e</tspan></text><text class="cls-2" transform="translate(225.91 300.17) rotate(167.07)"><tspan x="0" y="0">n</tspan></text><text class="cls-2" transform="translate(218 301.95) rotate(170.19)"><tspan x="0" y="0">t</tspan></text><text class="cls-2" transform="translate(213.26 302.8) rotate(173.06)"><tspan x="0" y="0">a</tspan></text><text class="cls-2" transform="translate(206.22 303.62) rotate(175.58)"><tspan x="0" y="0">l</tspan></text><text class="cls-2" transform="translate(202.78 303.88) rotate(177.14)"><tspan x="0" y="0"> </tspan></text><text class="cls-2" transform="translate(199.73 304.04) rotate(179.07)"><tspan x="0" y="0">+</tspan></text><text class="cls-2" transform="translate(190.98 304.05) rotate(-177.26)"><tspan x="0" y="0"> </tspan></text><text class="cls-2" transform="translate(187.93 303.99) rotate(-174.22)"><tspan x="0" y="0">H</tspan></text><text class="cls-2" transform="translate(178.43 303.01) rotate(-169.98)"><tspan x="0" y="0">u</tspan></text><text class="cls-2" transform="translate(170.51 301.71) rotate(-165.07)"><tspan x="0" y="0">m</tspan></text><text class="cls-2" transform="translate(158.71 298.47) rotate(-160.4)"><tspan x="0" y="0">a</tspan></text><text class="cls-2" transform="translate(152.06 296.12) rotate(-156.71)"><tspan x="0" y="0">n</tspan></text><text class="cls-2" transform="translate(144.57 292.84) rotate(-153.99)"><tspan x="0" y="0"> </tspan></text><text class="cls-2" transform="translate(141.8 291.49) rotate(-152.4)"><tspan x="0" y="0">I</tspan></text><text class="cls-2" transform="translate(138.59 289.98) rotate(-148.54)"><tspan x="0" y="0">m</tspan></text><text class="cls-2" transform="translate(128.17 283.51) rotate(-143.6)"><tspan x="0" y="0">p</tspan></text><text class="cls-2" transform="translate(121.48 278.56) rotate(-139.91)"><tspan x="0" y="0">a</tspan></text><text class="cls-2" transform="translate(116.09 274.02) rotate(-136.65)"><tspan x="0" y="0">c</tspan></text><text class="cls-2" transform="translate(111.18 269.35) rotate(-133.83)"><tspan x="0" y="0">t</tspan></text><text class="cls-2" transform="translate(107.83 265.89) rotate(-131.28)"><tspan x="0" y="0">s</tspan></text><text class="cls-2" transform="translate(104 261.49) rotate(-129.15)"><tspan x="0" y="0"> </tspan></text><text class="cls-2" transform="translate(102.04 259.11) rotate(-127.2)"><tspan x="0" y="0">/</tspan></text><text class="cls-2" transform="translate(99.01 255.09) rotate(-125.25)"><tspan x="0" y="0"> </tspan></text><text class="cls-2" transform="translate(97.21 252.64) rotate(-122.63)"><tspan x="0" y="0">P</tspan></text><text class="cls-2" transform="translate(93.15 246.24) rotate(-119.72)"><tspan x="0" y="0">r</tspan></text><text class="cls-2" transform="translate(90.82 242.26) rotate(-116.69)"><tspan x="0" y="0">o</tspan></text><text class="cls-2" transform="translate(87.21 235.11) rotate(-112.75)"><tspan x="0" y="0">d</tspan></text><text class="cls-2" transform="translate(84.01 227.49) rotate(-108.78)"><tspan x="0" y="0">u</tspan></text><text class="cls-2" transform="translate(81.43 219.83) rotate(-105.23)"><tspan x="0" y="0">c</tspan></text><text class="cls-2" transform="translate(79.68 213.32) rotate(-102.38)"><tspan x="0" y="0">t</tspan></text><text class="cls-2" transform="translate(78.65 208.57) rotate(-100.45)"><tspan x="0" y="0"> </tspan></text><text class="cls-2" transform="translate(77.95 205.64) rotate(-96.76)"><tspan x="0" y="0">m</tspan></text><text class="cls-2" transform="translate(76.59 193.48) rotate(-91.93)"><tspan x="0" y="0">o</tspan></text><text class="cls-2" transform="translate(76.31 185.46) rotate(-88.07)"><tspan x="0" y="0">d</tspan></text><text class="cls-2" transform="translate(76.6 177.18) rotate(-84.34)"><tspan x="0" y="0">e</tspan></text><text class="cls-2" transform="translate(77.37 169.85) rotate(-81.74)"><tspan x="0" y="0">l</tspan></text><text class="cls-2" transform="translate(77.87 166.44) rotate(-80.16)"><tspan x="0" y="0"> </tspan></text><text class="cls-2" transform="translate(78.37 163.41) rotate(-78.2)"><tspan x="0" y="0">/</tspan></text><text class="cls-2" transform="translate(79.42 158.48) rotate(-76.23)"><tspan x="0" y="0"> </tspan></text><text class="cls-2" transform="translate(80.1 155.49) rotate(-73.72)"><tspan x="0" y="0">E</tspan></text><text class="cls-2" transform="translate(82.12 148.58) rotate(-70.33)"><tspan x="0" y="0">x</tspan></text><text class="cls-2" transform="translate(84.36 142.23) rotate(-66.68)"><tspan x="0" y="0">p</tspan></text><text class="cls-2" transform="translate(87.68 134.57) rotate(-62.88)"><tspan x="0" y="0">e</tspan></text><text class="cls-2" transform="translate(91.05 128.05) rotate(-59.96)"><tspan x="0" y="0">r</tspan></text><text class="cls-2" transform="translate(93.49 123.85) rotate(-57.95)"><tspan x="0" y="0">i</tspan></text><text class="cls-2" transform="translate(95.25 120.95) rotate(-55.36)"><tspan x="0" y="0">e</tspan></text><text class="cls-2" transform="translate(99.4 114.91) rotate(-51.64)"><tspan x="0" y="0">n</tspan></text><text class="cls-2" transform="translate(104.45 108.56) rotate(-48.14)"><tspan x="0" y="0">c</tspan></text><text class="cls-2" transform="translate(108.75 103.74) rotate(-44.85)"><tspan x="0" y="0">e</tspan></text><text class="cls-2" transform="translate(114 98.57) rotate(-42.35)"><tspan x="0" y="0"> </tspan></text><text class="cls-2" transform="translate(116.26 96.49) rotate(-40.41)"><tspan x="0" y="0">/</tspan></text><text class="cls-2" transform="translate(120.11 93.23) rotate(-38.46)"><tspan x="0" y="0"> </tspan></text><text class="cls-2" transform="translate(122.48 91.29) rotate(-35.99)"><tspan x="0" y="0">E</tspan></text><text class="cls-2" transform="translate(128.26 87.1) rotate(-32.71)"><tspan x="0" y="0">c</tspan></text><text class="cls-2" transform="translate(133.68 83.58) rotate(-29.23)"><tspan x="0" y="0">o</tspan></text><text class="cls-2" transform="translate(140.71 79.68) rotate(-25.89)"><tspan x="0" y="0">s</tspan></text><text class="cls-2" transform="translate(145.9 77.14) rotate(-22.82)"><tspan x="0" y="0">y</tspan></text><text class="cls-2" transform="translate(152.19 74.5) rotate(-19.78)"><tspan x="0" y="0">s</tspan></text><text class="cls-2" transform="translate(157.64 72.55) rotate(-17.2)"><tspan x="0" y="0">t</tspan></text><text class="cls-2" transform="translate(162.15 71.11) rotate(-14.28)"><tspan x="0" y="0">e</tspan></text><text class="cls-2" transform="translate(169.17 69.21) rotate(-9.55)"><tspan x="0" y="0">m</tspan></text><text class="cls-2" transform="translate(181.32 67.31) rotate(-5.87)"><tspan x="0" y="0"> </tspan></text><text class="cls-2" transform="translate(184.38 66.98) rotate(-3.92)"><tspan x="0" y="0">/</tspan></text><text class="cls-2" transform="translate(189.41 66.65) rotate(-1.98)"><tspan x="0" y="0"> </tspan></text><text class="cls-2" transform="translate(338.63 185.3) rotate(90.93)"><tspan x="0" y="0"> </tspan></text><text class="cls-2" transform="translate(338.64 188.39) rotate(92.77)"><tspan x="0" y="0">P</tspan></text><text class="cls-2" transform="translate(338.22 196.13) rotate(94.96)"><tspan x="0" y="0">l</tspan></text><text class="cls-2" transform="translate(337.96 199.56) rotate(97.06)"><tspan x="0" y="0">a</tspan></text><text class="cls-2" transform="translate(337.07 206.55) rotate(99.43)"><tspan x="0" y="0">t</tspan></text><text class="cls-2" transform="translate(336.28 211.35) rotate(101.26)"><tspan x="0" y="0">f</tspan></text><text class="cls-2" transform="translate(335.53 215.35) rotate(103.67)"><tspan x="0" y="0">o</tspan></text><text class="cls-2" transform="translate(333.58 223.2) rotate(106.26)"><tspan x="0" y="0">r</tspan></text><text class="cls-2" transform="translate(332.36 227.82) rotate(109.7)"><tspan x="0" y="0">m</tspan></text><text class="cls-2" transform="translate(328.12 239.36) rotate(113.33)"><tspan x="0" y="0">s</tspan></text><text class="cls-2" transform="translate(325.79 244.72) rotate(115.13)"><tspan x="0" y="0"> </tspan></text><text class="cls-2" transform="translate(324.54 247.51) rotate(117.5)"><tspan x="0" y="0">+</tspan></text><text class="cls-2" transform="translate(320.43 255.29) rotate(119.88)"><tspan x="0" y="0"> </tspan></text><text class="cls-2" transform="translate(318.97 257.98) rotate(122.43)"><tspan x="0" y="0">N</tspan></text><text class="cls-2" transform="translate(313.76 266.13) rotate(125.82)"><tspan x="0" y="0">e</tspan></text><text class="cls-2" transform="translate(309.52 272.1) rotate(129.43)"><tspan x="0" y="0">w</tspan></text><text class="cls-2" transform="translate(302.54 280.45) rotate(132.19)"><tspan x="0" y="0"> </tspan></text><text class="cls-2" transform="translate(300.92 282.31) rotate(134.02)"><tspan x="0" y="0">T</tspan></text><text class="cls-2" transform="translate(296.58 286.83) rotate(136.52)"><tspan x="0" y="0">e</tspan></text><text class="cls-2" transform="translate(291.26 291.87) rotate(139.27)"><tspan x="0" y="0">c</tspan></text><text class="cls-2" transform="translate(286.29 296.18) rotate(142.2)"><tspan x="0" y="0">h</tspan></text><text class="cls-2" transform="translate(279.86 301.18) rotate(145.44)"><tspan x="0" y="0">n</tspan></text><text class="cls-2" transform="translate(273.15 305.8) rotate(148.67)"><tspan x="0" y="0">o</tspan></text><text class="cls-2" transform="translate(266.21 309.97) rotate(150.98)"><tspan x="0" y="0">l</tspan></text><text class="cls-2" transform="translate(263.22 311.69) rotate(153.29)"><tspan x="0" y="0">o</tspan></text><text class="cls-2" transform="translate(256.04 315.3) rotate(156.55)"><tspan x="0" y="0">g</tspan></text><text class="cls-2" transform="translate(248.54 318.51) rotate(158.85)"><tspan x="0" y="0">i</tspan></text><text class="cls-2" transform="translate(245.37 319.78) rotate(161.03)"><tspan x="0" y="0">e</tspan></text><text class="cls-2" transform="translate(238.4 322.16) rotate(163.68)"><tspan x="0" y="0">s</tspan></text><text class="cls-2" transform="translate(232.8 323.78) rotate(165.47)"><tspan x="0" y="0"> </tspan></text><text class="cls-2" transform="translate(229.83 324.56) rotate(167.1)"><tspan x="0" y="0">/</tspan></text><text class="cls-2" transform="translate(224.9 325.68) rotate(168.74)"><tspan x="0" y="0"> </tspan></text><text class="cls-2" transform="translate(221.89 326.34) rotate(171.08)"><tspan x="0" y="0">C</tspan></text><text class="cls-2" transform="translate(213.64 327.63) rotate(174.31)"><tspan x="0" y="0">o</tspan></text><text class="cls-2" transform="translate(205.61 328.44) rotate(177.53)"><tspan x="0" y="0">n</tspan></text><text class="cls-2" transform="translate(197.54 328.79) rotate(-179.07)"><tspan x="0" y="0">t</tspan></text><text class="cls-2" transform="translate(192.77 328.78) rotate(-177.59)"><tspan x="0" y="0">e</tspan></text><text class="cls-2" transform="translate(185.43 328.49) rotate(-174.52)"><tspan x="0" y="0">n</tspan></text><text class="cls-2" transform="translate(177.34 327.68) rotate(-171.94)"><tspan x="0" y="0">t</tspan></text><text class="cls-2" transform="translate(172.56 326.99) rotate(-170.38)"><tspan x="0" y="0">,</tspan></text><text class="cls-2" transform="translate(169.58 326.48) rotate(-169.15)"><tspan x="0" y="0"> </tspan></text><text class="cls-2" transform="translate(166.54 325.98) rotate(-166.55)"><tspan x="0" y="0">D</tspan></text><text class="cls-2" transform="translate(157.03 323.67) rotate(-163.17)"><tspan x="0" y="0">a</tspan></text><text class="cls-2" transform="translate(150.32 321.62) rotate(-160.8)"><tspan x="0" y="0">t</tspan></text><text class="cls-2" transform="translate(145.73 320.05) rotate(-158.39)"><tspan x="0" y="0">a</tspan></text><text class="cls-2" transform="translate(139.14 317.4) rotate(-156.35)"><tspan x="0" y="0"> </tspan></text><text class="cls-2" transform="translate(136.31 316.23) rotate(-153.97)"><tspan x="0" y="0">+</tspan></text><text class="cls-2" transform="translate(128.42 312.31) rotate(-151.59)"><tspan x="0" y="0"> </tspan></text><text class="cls-2" transform="translate(125.71 310.91) rotate(-149.3)"><tspan x="0" y="0">b</tspan></text><text class="cls-2" transform="translate(118.53 306.65) rotate(-146.02)"><tspan x="0" y="0">u</tspan></text><text class="cls-2" transform="translate(111.82 302.09) rotate(-143.25)"><tspan x="0" y="0">s</tspan></text><text class="cls-2" transform="translate(107.15 298.58) rotate(-141.41)"><tspan x="0" y="0">i</tspan></text><text class="cls-2" transform="translate(104.47 296.51) rotate(-139.11)"><tspan x="0" y="0">n</tspan></text><text class="cls-2" transform="translate(98.31 291.17) rotate(-136.04)"><tspan x="0" y="0">e</tspan></text><text class="cls-2" transform="translate(93.01 286.04) rotate(-133.42)"><tspan x="0" y="0">s</tspan></text><text class="cls-2" transform="translate(89.02 281.82) rotate(-131.11)"><tspan x="0" y="0">s</tspan></text><text class="cls-2" transform="translate(85.19 277.41) rotate(-129.34)"><tspan x="0" y="0"> </tspan></text><text class="cls-2" transform="translate(83.22 275.06) rotate(-127.28)"><tspan x="0" y="0">S</tspan></text><text class="cls-2" transform="translate(78.78 269.23) rotate(-124.34)"><tspan x="0" y="0">e</tspan></text><text class="cls-2" transform="translate(74.64 263.13) rotate(-121.92)"><tspan x="0" y="0">r</tspan></text><text class="cls-2" transform="translate(71.89 258.76) rotate(-119.4)"><tspan x="0" y="0">v</tspan></text><text class="cls-2" transform="translate(68.44 252.56) rotate(-117.3)"><tspan x="0" y="0">i</tspan></text><text class="cls-2" transform="translate(66.85 249.55) rotate(-115.29)"><tspan x="0" y="0">c</tspan></text><text class="cls-2" transform="translate(64.07 243.7) rotate(-112.53)"><tspan x="0" y="0">e</tspan></text><text class="cls-2" transform="translate(61.27 236.9) rotate(-109.89)"><tspan x="0" y="0">s</tspan></text><text class="cls-2" transform="translate(59.29 231.39) rotate(-108.09)"><tspan x="0" y="0"> </tspan></text><text class="cls-2" transform="translate(58.33 228.48) rotate(-106.46)"><tspan x="0" y="0">/</tspan></text><text class="cls-2" transform="translate(56.9 223.61) rotate(-104.81)"><tspan x="0" y="0"> </tspan></text><text class="cls-2" transform="translate(56.08 220.64) rotate(-102.73)"><tspan x="0" y="0">E</tspan></text><text class="cls-2" transform="translate(54.51 213.67) rotate(-99.99)"><tspan x="0" y="0">c</tspan></text><text class="cls-2" transform="translate(53.36 207.29) rotate(-97.1)"><tspan x="0" y="0">o</tspan></text><text class="cls-2" transform="translate(52.38 199.28) rotate(-94.34)"><tspan x="0" y="0">s</tspan></text><text class="cls-2" transform="translate(51.93 193.49) rotate(-91.83)"><tspan x="0" y="0">y</tspan></text><text class="cls-2" transform="translate(51.7 186.65) rotate(-89.07)"><tspan x="0" y="0">s</tspan></text><text class="cls-2" transform="translate(51.79 180.84) rotate(-87.27)"><tspan x="0" y="0">t</tspan></text><text class="cls-2" transform="translate(51.99 176.08) rotate(-84.88)"><tspan x="0" y="0">e</tspan></text><text class="cls-2" transform="translate(52.55 168.79) rotate(-80.97)"><tspan x="0" y="0">m</tspan></text><text class="cls-2" transform="translate(54.6 156.65) rotate(-77.9)"><tspan x="0" y="0"> </tspan></text><text class="cls-2" transform="translate(55.24 153.6) rotate(-76.25)"><tspan x="0" y="0">/</tspan></text><text class="cls-2" transform="translate(56.45 148.7) rotate(-74.61)"><tspan x="0" y="0"> </tspan></text><text class="cls-2" transform="translate(57.23 145.74) rotate(-72.6)"><tspan x="0" y="0">L</tspan></text><text class="cls-2" transform="translate(59.3 139.12) rotate(-69.78)"><tspan x="0" y="0">a</tspan></text><text class="cls-2" transform="translate(61.72 132.49) rotate(-66.73)"><tspan x="0" y="0">u</tspan></text><text class="cls-2" transform="translate(64.91 125.06) rotate(-63.48)"><tspan x="0" y="0">n</tspan></text><text class="cls-2" transform="translate(68.56 117.78) rotate(-60.53)"><tspan x="0" y="0">c</tspan></text><text class="cls-2" transform="translate(71.78 112.03) rotate(-57.58)"><tspan x="0" y="0">h</tspan></text><text class="cls-2" transform="translate(76.21 105.16) rotate(-55.34)"><tspan x="0" y="0"> </tspan></text><text class="cls-2" transform="translate(77.95 102.59) rotate(-53.56)"><tspan x="0" y="0">s</tspan></text><text class="cls-2" transform="translate(81.41 97.92) rotate(-51.44)"><tspan x="0" y="0">t</tspan></text><text class="cls-2" transform="translate(84.43 94.12) rotate(-49.53)"><tspan x="0" y="0">r</tspan></text><text class="cls-2" transform="translate(87.47 90.53) rotate(-47.2)"><tspan x="0" y="0">a</tspan></text><text class="cls-2" transform="translate(92.27 85.37) rotate(-44.85)"><tspan x="0" y="0">t</tspan></text><text class="cls-2" transform="translate(95.62 82) rotate(-42.46)"><tspan x="0" y="0">e</tspan></text><text class="cls-2" transform="translate(101.02 77.03) rotate(-39.37)"><tspan x="0" y="0">g</tspan></text><text class="cls-2" transform="translate(107.39 71.82) rotate(-36.36)"><tspan x="0" y="0">y</tspan></text><text class="cls-2" transform="translate(113.01 67.73) rotate(-34.36)"><tspan x="0" y="0"> </tspan></text><text class="cls-2" transform="translate(115.53 65.98) rotate(-32.75)"><tspan x="0" y="0">/</tspan></text><text class="cls-2" transform="translate(119.79 63.26) rotate(-31.12)"><tspan x="0" y="0"> </tspan></text><text class="cls-2" transform="translate(122.38 61.61) rotate(-28.6)"><tspan x="0" y="0">G</tspan></text><text class="cls-2" transform="translate(130.77 57.1) rotate(-25.74)"><tspan x="0" y="0">r</tspan></text><text class="cls-2" transform="translate(134.9 55.06) rotate(-23.22)"><tspan x="0" y="0">o</tspan></text><text class="cls-2" transform="translate(142.17 51.88) rotate(-19.47)"><tspan x="0" y="0">w</tspan></text><text class="cls-2" transform="translate(152.42 48.34) rotate(-16.32)"><tspan x="0" y="0">t</tspan></text><text class="cls-2" transform="translate(157.05 46.94) rotate(-13.7)"><tspan x="0" y="0">h</tspan></text><text class="cls-2" transform="translate(165.02 45.05) rotate(-11.44)"><tspan x="0" y="0"> </tspan></text><text class="cls-2" transform="translate(168.03 44.42) rotate(-9.66)"><tspan x="0" y="0">s</tspan></text><text class="cls-2" transform="translate(173.79 43.45) rotate(-7.52)"><tspan x="0" y="0">t</tspan></text><text class="cls-2" transform="translate(178.59 42.81) rotate(-5.6)"><tspan x="0" y="0">r</tspan></text><text class="cls-2" transform="translate(183.29 42.32) rotate(-3.26)"><tspan x="0" y="0">a</tspan></text><text class="cls-2" transform="translate(190.33 41.94) rotate(-.93)"><tspan x="0" y="0">t</tspan></text><text class="cls-2" transform="translate(195.05 41.83) rotate(1.42)"><tspan x="0" y="0">e</tspan></text><text class="cls-2" transform="translate(202.39 42) rotate(4.49)"><tspan x="0" y="0">g</tspan></text><text class="cls-2" transform="translate(210.6 42.66) rotate(7.5)"><tspan x="0" y="0">y</tspan></text><text class="cls-2" transform="translate(217.49 43.6) rotate(9.51)"><tspan x="0" y="0"> </tspan></text><text class="cls-2" transform="translate(220.53 44.09) rotate(11.14)"><tspan x="0" y="0">/</tspan></text><text class="cls-2" transform="translate(225.48 45.08) rotate(12.77)"><tspan x="0" y="0"> </tspan></text><text class="cls-2" transform="translate(228.48 45.71) rotate(15)"><tspan x="0" y="0">B</tspan></text><text class="cls-2" transform="translate(236.18 47.77) rotate(18.23)"><tspan x="0" y="0">u</tspan></text><text class="cls-2" transform="translate(243.86 50.32) rotate(21.03)"><tspan x="0" y="0">s</tspan></text><text class="cls-2" transform="translate(249.3 52.43) rotate(22.88)"><tspan x="0" y="0">i</tspan></text><text class="cls-2" transform="translate(252.46 53.71) rotate(25.21)"><tspan x="0" y="0">n</tspan></text><text class="cls-2" transform="translate(259.82 57.19) rotate(28.32)"><tspan x="0" y="0">e</tspan></text><text class="cls-2" transform="translate(266.3 60.69) rotate(30.95)"><tspan x="0" y="0">s</tspan></text><text class="cls-2" transform="translate(271.28 63.68) rotate(33.27)"><tspan x="0" y="0">s</tspan></text><text class="cls-2" transform="translate(276.17 66.91) rotate(35.05)"><tspan x="0" y="0"> </tspan></text><text class="cls-2" transform="translate(278.7 68.53) rotate(38.1)"><tspan x="0" y="0">m</tspan></text><text class="cls-2" transform="translate(288.34 76.18) rotate(42.14)"><tspan x="0" y="0">o</tspan></text><text class="cls-2" transform="translate(294.31 81.56) rotate(45.37)"><tspan x="0" y="0">d</tspan></text><text class="cls-2" transform="translate(300.13 87.47) rotate(48.48)"><tspan x="0" y="0">e</tspan></text><text class="cls-2" transform="translate(305 93.03) rotate(50.63)"><tspan x="0" y="0">l</tspan></text><text class="cls-2" transform="translate(307.19 95.71) rotate(51.93)"><tspan x="0" y="0"> </tspan></text><text class="cls-2" transform="translate(309.11 98.13) rotate(53.55)"><tspan x="0" y="0">/</tspan></text><text class="cls-2" transform="translate(312.12 102.22) rotate(55.18)"><tspan x="0" y="0"> </tspan></text><text class="cls-2" transform="translate(313.9 104.71) rotate(57.36)"><tspan x="0" y="0">P</tspan></text><text class="cls-2" transform="translate(317.97 111.11) rotate(59.78)"><tspan x="0" y="0">r</tspan></text><text class="cls-2" transform="translate(320.34 115.09) rotate(62.29)"><tspan x="0" y="0">o</tspan></text><text class="cls-2" transform="translate(324.1 122.22) rotate(65.58)"><tspan x="0" y="0">p</tspan></text><text class="cls-2" transform="translate(327.55 129.82) rotate(68.88)"><tspan x="0" y="0">o</tspan></text><text class="cls-2" transform="translate(330.44 137.37) rotate(71.67)"><tspan x="0" y="0">s</tspan></text><text class="cls-2" transform="translate(332.25 142.92) rotate(73.53)"><tspan x="0" y="0">i</tspan></text><text class="cls-2" transform="translate(333.24 146.2) rotate(75.2)"><tspan x="0" y="0">t</tspan></text><text class="cls-2" transform="translate(334.47 150.9) rotate(76.87)"><tspan x="0" y="0">i</tspan></text><text class="cls-2" transform="translate(335.29 154.19) rotate(79.18)"><tspan x="0" y="0">o</tspan></text><text class="cls-2" transform="translate(336.81 162.1) rotate(82.42)"><tspan x="0" y="0">n</tspan></text><text class="cls-2" transform="translate(337.84 170.24) rotate(84.66)"><tspan x="0" y="0"> </tspan></text><text class="cls-2" transform="translate(338.14 173.32) rotate(86.28)"><tspan x="0" y="0">/</tspan></text><text class="cls-2" transform="translate(338.46 178.36) rotate(87.89)"><tspan x="0" y="0"> </tspan></text></svg>