<svg version="1.1" id="prefix__Layer_1" xmlns="http://www.w3.org/2000/svg" x="0" y="0" viewBox="0 0 377.5 365" xml:space="preserve"><style>.prefix__st38{fill:none;stroke:#000;stroke-width:1.2451;stroke-miterlimit:10}</style><path class="prefix__st38" d="M195.2 82.2V153M143.6 96l35.4 61.3M105.9 133.8l61.3 35.3M92.1 185.3h70.7M105.9 236.9l61.3-35.4M143.6 274.6l35.4-61.3M195.2 288.4v-70.7M246.7 274.6l-35.3-61.3M284.5 236.9l-61.3-35.4M298.3 185.3h-70.8M284.5 133.8l-61.3 35.3M246.7 96l-35.3 61.3"/><circle cx="195.2" cy="185.3" r="6.1"/><g><path d="M196.5 55.8l4.5.2c1.1 0 2 .4 2.5 1.1.4.5.7 1.3.6 2.1-.1 2-1.2 3.1-3.6 3l-2.9-.1-.2 4.5h-1.3l.4-10.8zm1.1 5.2l2.8.1c1.5.1 2.3-.7 2.3-1.9 0-1.3-.7-2-2.1-2l-2.9-.1-.1 3.9zM206.6 60.6c.6-.7 1.4-1.2 2.4-1.1.2 0 .3.1.5.1l-.1 1.2c-.2-.1-.3-.1-.5-.1-1.2-.1-2.3.7-2.5 2.1L206 67l-1.2-.1.7-7.7 1.2.1-.1 1.3zM209.6 63.4c.3-2.2 2-3.8 4.3-3.5 2.3.3 3.4 2.3 3.1 4.6-.3 2.2-2 3.8-4.3 3.5-2.3-.3-3.5-2.3-3.1-4.6zm6.1 1c.2-1.7-.4-3.2-2-3.4s-2.7 1-2.9 2.7c-.2 1.7.4 3.1 2 3.4s2.7-1.1 2.9-2.7zM219 61l1.2.3-.2 1.1c.7-.6 1.6-1 2.7-.7 1.9.4 2.9 2.2 2.4 4.7-.5 2.4-2.1 3.7-4.2 3.3-1-.2-1.7-.7-2.1-1.6l-.7 3.3-1.2-.3L219 61zm4.9 5c.4-1.7-.1-3.1-1.5-3.4-1.7-.4-2.7.8-3.1 2.5-.4 1.6 0 3.1 1.7 3.5 1.5.3 2.5-.8 2.9-2.6zM225.9 66.5c.6-2.2 2.5-3.5 4.7-2.9 2.2.6 3.1 2.8 2.4 4.9-.6 2.2-2.5 3.5-4.7 2.9-2.1-.6-3-2.8-2.4-4.9zm6 1.7c.5-1.6.1-3.2-1.5-3.6s-2.8.6-3.3 2.2 0 3.2 1.5 3.6 2.8-.5 3.3-2.2zM233.4 70.1l1.2.4c-.3 1.3.4 2 1.5 2.4 1.2.4 1.9.1 2.1-.6.3-.8-.2-1.2-1.4-2-1.3-.8-2.5-1.6-1.9-3.2.4-1.2 1.6-1.7 3.3-1.1 1.8.7 2.4 1.8 2 3.3L239 69c.2-1-.1-1.6-1.2-2-1-.4-1.6-.1-1.8.5-.3.8.4 1.2 1.5 1.9 1.4.8 2.5 1.6 1.9 3.3-.5 1.5-2 1.8-3.7 1.2-2-.8-2.8-2.1-2.3-3.8zM242.5 68l1.1.5-2.9 7.1-1.1-.5 2.9-7.1zm1.1-2.8l1.1.5-.6 1.4-1.1-.5.6-1.4zM244.8 68.9l1 .5 1-2.2 1.1.5-1 2.2 1.4.6-.4.9-1.4-.6-2 4.6c-.2.5 0 .8.4 1 .2.1.5.2.6.2l-.4 1-.9-.3c-.9-.4-1.4-1.1-.9-2.1l2.2-4.8-1-.5.3-1zM249.6 71.1l1.1.5-3.4 7-1.1-.5 3.4-7zm1.3-2.7l1.1.5-.6 1.3-1.1-.5.6-1.3zM250.2 75.6c1.1-2 3.2-2.9 5.2-1.8 2 1.1 2.4 3.4 1.3 5.3s-3.2 2.9-5.2 1.8c-2-1.1-2.4-3.3-1.3-5.3zm5.4 3c.8-1.5.7-3.1-.7-3.9-1.4-.8-2.8 0-3.7 1.5s-.7 3.1.7 3.9c1.5.7 2.9-.1 3.7-1.5zM260.4 78c.9-.3 1.8-.3 2.7.3 1.4.9 1.7 2.1.9 3.5l-2.9 4.6-1-.6 2.8-4.5c.5-.8.3-1.7-.6-2.3-1-.7-2.3-.4-2.9.7l-2.5 4-1-.6 4.1-6.5 1 .6-.6.8zM273.5 82.2l1 .7-9.8 6-1-.7 9.8-6zM277.9 85.6l3.3 2.9c.8.7 1.2 1.6 1.2 2.5 0 .7-.3 1.4-.8 2-1.3 1.5-2.9 1.6-4.7.1l-2.2-1.9-3 3.4-1-.9 7.2-8.1zm-2.4 4.7l2.1 1.9c1.1 1 2.2.9 3 0 .8-1 .7-2-.3-2.9l-2.2-1.9-2.6 2.9zM279.5 96.2c1.6-1.6 3.9-1.8 5.5-.2s1.3 3.9-.3 5.5-3.9 1.9-5.5.2c-1.5-1.6-1.3-3.9.3-5.5zm4.4 4.4c1.2-1.2 1.6-2.8.4-3.9-1.2-1.2-2.7-.8-3.9.4-1.2 1.2-1.6 2.8-.4 3.9 1.2 1.2 2.7.8 3.9-.4zM284.3 103l.8.9c-.9 1-.6 1.9.2 2.8.8 1 1.6 1 2.1.5.7-.6.4-1.2-.3-2.4-.8-1.4-1.4-2.6-.2-3.7 1-.8 2.2-.7 3.4.7 1.3 1.4 1.2 2.7.2 3.9l-.8-.9c.7-.8.7-1.5-.1-2.3-.7-.8-1.4-.8-1.9-.4-.6.6-.3 1.2.4 2.4.8 1.4 1.4 2.6 0 3.8-1.2 1-2.6.6-3.8-.7-1.2-1.8-1.2-3.4 0-4.6zM293.3 105.5l.8.9-6 4.8-.8-.9 6-4.8zm2.4-1.8l.8.9-1.2.9-.8-.9 1.2-.9zM294.9 107.5l.7.9 1.9-1.5.7 1-1.9 1.5.9 1.2-.8.6-.9-1.2-4 3c-.4.3-.4.7-.1 1.1.1.2.4.4.5.4l-.8.6c-.2-.2-.5-.4-.7-.7-.6-.8-.7-1.6.2-2.3l4.2-3.2-.7-.9.8-.5zM298.1 111.7l.7 1-6.3 4.5-.7-1 6.3-4.5zm2.4-1.8l.7 1-1.2.9-.7-1 1.2-.9zM296.4 115.9c1.9-1.2 4.2-1 5.4.9 1.3 1.9.5 4.1-1.4 5.3-1.9 1.2-4.2 1-5.4-.9-1.3-1.9-.5-4.1 1.4-5.3zm3.3 5.2c1.4-.9 2.1-2.4 1.2-3.7s-2.5-1.4-3.9-.4c-1.4.9-2.1 2.4-1.2 3.7s2.5 1.3 3.9.4zM304.1 123c.9.2 1.7.6 2.2 1.6.8 1.4.5 2.7-.9 3.5l-4.7 2.6-.6-1.1 4.7-2.6c.9-.5 1.1-1.3.5-2.3-.6-1.1-1.8-1.4-2.9-.8l-4.2 2.3-.6-1.1 6.8-3.7.6 1.1-.9.5zM308.3 128.6l.5 1.1-6.9 3.4-.5-1.1 6.9-3.4zm2.6-1.4l.5 1.1-1.3.7-.5-1.1 1.3-.7zM309.2 132.8c.9.2 1.6.8 2.1 1.8.7 1.5.2 2.7-1.2 3.4l-5 2.2-.5-1.1 4.9-2.2c.9-.4 1.2-1.2.7-2.2-.5-1.1-1.7-1.6-2.8-1.1l-4.3 1.9-.5-1.1 7.1-3.1.5 1.1-1 .4zM305.2 141.5l.4 1.1c-.8.4-.8 1.3-.4 2.4.5 1.3 1.4 1.9 2.6 1.4l1-.4c-.9-.3-1.5-.7-1.9-1.7-.7-1.9.3-3.7 2.4-4.5 2.3-.8 4.1.1 4.7 1.8.4 1.1.2 1.9-.3 2.6l.9-.3.4 1.1-6.9 2.5c-1.9.7-3.3-.2-4-2.2-.5-1.9-.1-3.2 1.1-3.8zm6.2 3.6c1.6-.6 2.3-1.6 1.8-3.2-.5-1.4-1.8-1.7-3.4-1.1-1.6.6-2.4 1.7-1.9 3 .6 1.8 2 1.9 3.5 1.3zM320.3 151.9l.3 1.2-11.4-1.2-.3-1.2 11.4 1.2zM321.7 157.3l.8 4.4c.2 1.1 0 2-.5 2.7-.4.5-1.1.9-1.9 1.1-1.9.4-3.3-.5-3.7-2.8l-.6-2.9-4.4.8-.3-1.3 10.6-2zm-4.8 2.3l.5 2.8c.3 1.5 1.2 2 2.4 1.8 1.3-.2 1.8-1.1 1.5-2.5l-.5-2.8-3.9.7zM313.3 172.7l1.1-.1c-.8-.5-1.4-1.1-1.5-2.2-.2-1.6.6-2.7 2.2-2.9l5.3-.6.1 1.2-5.3.6c-1 .1-1.5.8-1.4 1.9.1 1.2 1.2 1.9 2.4 1.7l4.7-.6.1 1.2-7.7.9v-1.1zM320.1 176.2c.8.4 1.5 1.2 1.5 2.2 0 .2 0 .3-.1.5l-1.2.1c0-.2.1-.3 0-.5-.1-1.2-1-2.2-2.5-2.1l-4.3.3-.1-1.2 7.7-.5.1 1.2h-1.1zM321.6 180.3v1.2h-1.1c.8.6 1.3 1.3 1.3 2.5 0 2-1.4 3.3-4 3.4-2.5 0-4.1-1.2-4.1-3.3 0-1 .3-1.8 1.1-2.5l-3.4.1v-1.2l10.2-.2zm-3.8 5.8c1.7 0 3-.8 3-2.2 0-1.7-1.4-2.4-3.1-2.4-1.7 0-3 .7-3 2.5.1 1.4 1.4 2.1 3.1 2.1zM317.9 188.2c2.2.1 4 1.6 3.9 3.9-.1 2.3-2 3.6-4.3 3.5-2.2-.1-4-1.6-3.9-3.9.1-2.3 2-3.6 4.3-3.5zm-.4 6.2c1.7.1 3.1-.7 3.2-2.3.1-1.6-1.2-2.6-2.9-2.7-1.7-.1-3.1.7-3.2 2.3s1.2 2.6 2.9 2.7zM316 196.3l-.1 1.2c-1.4 0-1.8.9-2 2-.1 1.3.3 1.8 1.1 1.9.9.1 1.2-.5 1.6-1.8.5-1.5 1-2.8 2.6-2.6 1.3.1 2 1.2 1.8 3-.2 1.9-1.2 2.7-2.8 2.7l.1-1.2c1 0 1.5-.5 1.7-1.6.1-1.1-.3-1.6-.9-1.7-.8-.1-1.1.6-1.5 1.9-.5 1.5-1 2.8-2.7 2.6-1.5-.2-2.2-1.5-2-3.3.3-2.1 1.4-3.2 3.1-3.1zM316.5 203.8c2.2.4 3.7 2.2 3.3 4.3-.4 2.3-2.4 3.2-4.9 2.7l1.1-5.9c-1.6-.2-2.9.4-3.2 2-.2 1.1.2 1.9 1.2 2.4l-.2 1.2c-1.6-.6-2.3-2-2-3.7.4-2.4 2.5-3.4 4.7-3zm.4 1.4l-.8 4.6c1.5.2 2.6-.4 2.8-1.8.3-1.4-.7-2.4-2-2.8zM320 219.7l-.3 1.2-9.3-6.8.3-1.2 9.3 6.8zM312 222.1l-.4 1.2c-1.8-.4-3 .3-3.7 2.2-.5 1.4-.2 2.6 1 3.1 1.4.5 2.1-.6 3.2-2.3 1-1.6 2.1-3 4-2.3 1.7.6 2.2 2.3 1.4 4.4-.9 2.5-2.5 3.1-4.5 2.7l.4-1.2c1.5.3 2.5-.3 3.1-1.8.5-1.4.2-2.5-.8-2.8-1.1-.4-1.9.6-2.7 2-1.1 1.8-2.2 3.4-4.5 2.6-1.9-.7-2.4-2.6-1.6-4.7 1-2.9 3.1-3.7 5.1-3.1zM309.1 231.1c2.1.9 3.1 2.9 2.2 5.1-.9 2.1-3.2 2.7-5.2 1.8-2.1-.9-3.2-2.9-2.2-5 .9-2.2 3.1-2.8 5.2-1.9zm-2.5 5.7c1.6.7 3.1.5 3.8-1s-.2-2.8-1.8-3.5c-1.6-.7-3.1-.4-3.8 1.1-.7 1.4.2 2.7 1.8 3.4zM305.7 238.7c2 1 2.9 3.1 1.9 5.2-.8 1.6-2.3 2.2-3.9 1.7l.6-1.1c1 .3 1.9 0 2.5-1.1.8-1.5-.1-2.8-1.6-3.6-1.5-.8-3.1-.7-3.9.8-.6 1.1-.3 2.1.7 2.8l-.6 1.1c-1.6-1-2-2.6-1.1-4.3 1.1-2.1 3.4-2.5 5.4-1.5zM305.1 247.9l-.6 1-6.7-3.9.6-1 6.7 3.9zm2.6 1.5l-.6 1-1.3-.7.6-1 1.3.7zM300.6 248.2c1.9 1.2 2.6 3.4 1.5 5.3-1.2 2-3.4 2-5.6.7l3.2-5c-1.4-.8-2.8-.7-3.7.6-.6.9-.6 1.9.2 2.7l-.6 1c-1.2-1.2-1.3-2.7-.4-4.2 1.2-2.2 3.5-2.3 5.4-1.1zm-.2 1.4l-2.5 3.9c1.3.8 2.6.6 3.3-.6.8-1.2.3-2.4-.8-3.3zM299.5 257l-.6.9 2 1.4-.7 1-2-1.4-.9 1.2-.8-.6.9-1.2-4.1-2.9c-.4-.3-.7-.2-1 .2l-.3.6-.9-.6c.1-.3.3-.6.5-.9.6-.8 1.3-1.2 2.2-.5l4.3 3.1.6-.9.8.6zM288.2 260.9c-.2-.7-.2-1.8.6-2.8.9-1.1 2.2-1.6 3.3-.7 1.4 1.1.8 2.5-.1 4.2-.5 1-.9 1.6-.3 2.1.7.5 1.5.4 2.1-.5.8-1 .7-1.8-.1-2.6l.7-.9c1.1 1 1.4 2.4.1 4-1 1.3-2.2 1.9-3.7.7l-2.9-2.3c-.5-.4-.9-.5-1.2.1l-.7-.5c0-.2.1-.3.3-.6.7-.5 1.2-.6 1.9-.2zm1.4 1.1l1 .8c.1-.5.3-1.1.6-1.7.6-1.1 1-2 .1-2.7-.8-.6-1.5-.1-2 .5-.9 1.3-.4 2.6.3 3.1zM293.7 269.4l-.8.9-8.1-7 .8-.9 8.1 7zM282.9 263.6c-.1.3-.2.8.5 1.3l.5-.5 1.1 1-1 1.1-1.1-1c-.8-.7-.9-1.6-.4-2.3l.4.4zM283.3 270.6c1.6 1.6 1.8 3.9.2 5.5-1.7 1.6-3.8 1.2-5.6-.6l4.3-4.2c-1.2-1.1-2.6-1.3-3.7-.2-.8.8-1 1.7-.4 2.6l-.8.8c-.9-1.4-.7-3 .6-4.2 1.6-1.6 3.9-1.3 5.4.3zm-.4 1.4l-3.3 3.2c1.1 1 2.4 1.2 3.3.2 1-1 .8-2.3 0-3.4zM278.2 279.5c0 .9-.3 1.8-1.1 2.5-1.2 1-2.5 1-3.6-.2l-3.5-4.1.9-.8 3.5 4c.6.8 1.5.8 2.3.1.9-.8 1-2 .2-3l-3.1-3.6.9-.8 5 5.9-.9.8-.6-.8zM274.2 284.2l-1 .8-4.2-3c-.6-.4-1.4-1-1.4-1s.4.9.6 1.6l1.7 4.9-1 .8-2.4-7.8 1.1-.8 6.6 4.5zM267.9 288.9l-1 .7-4.4-6.3 1-.7 4.4 6.3zm1.7 2.4l-1 .7-.9-1.2 1-.7.9 1.2zM263.7 290.2c0 .9-.3 1.9-1.2 2.4-.2.1-.3.2-.5.2l-.6-1c.2 0 .3-.1.5-.2 1-.7 1.4-2 .6-3.2l-2.3-3.6 1-.7 4.2 6.5-1 .7-.7-1.1zM259.6 289.8c1.1 1.9.8 4.2-1.2 5.4-2 1.2-4.1.3-5.3-1.7s-.8-4.2 1.2-5.4c2-1.1 4.2-.3 5.3 1.7zm-5.4 3.1c.9 1.5 2.3 2.2 3.7 1.4s1.5-2.4.6-3.9-2.3-2.2-3.7-1.4-1.5 2.4-.6 3.9zM252.1 297.2c-.2.9-.7 1.7-1.7 2.2-1.4.7-2.7.4-3.4-1.1l-2.4-4.9 1.1-.5 2.3 4.8c.4.9 1.3 1.1 2.3.6 1.1-.5 1.5-1.7 1-2.9l-2.1-4.3 1.1-.5 3.4 6.9-1.1.5-.5-.8zM246.2 301.2l-1.1.4-.4-1c-.2.9-.7 1.7-1.6 2-.9.3-1.7.2-2.4-.5-.1 1-.8 1.8-1.7 2.1-1.3.5-2.5 0-3.1-1.4l-2-5 1.1-.4 2 5c.3.9 1.2 1.2 1.9.9.9-.4 1.4-1.5 1-2.6l-1.8-4.5 1.1-.4 2 5c.3.9 1.1 1.2 1.8.9.9-.3 1.5-1.5 1.1-2.7l-1.8-4.5 1.1-.4 2.8 7.1zM234 301.7c.6 2.1-.2 4.3-2.3 4.9-2.2.7-3.9-.7-4.7-3.1l5.7-1.7c-.5-1.5-1.7-2.4-3.2-1.9-1.1.3-1.6 1.1-1.6 2.1l-1.1.3c-.1-1.7.8-2.9 2.4-3.4 2.3-.6 4.2.7 4.8 2.8zm-1 1l-4.5 1.3c.5 1.5 1.5 2.1 2.9 1.7 1.4-.3 1.8-1.6 1.6-3zM225.3 307.2c-.4.8-1.1 1.5-2.1 1.7-1.6.4-2.7-.3-3.1-1.8l-1.2-5.3 1.2-.3 1.2 5.2c.2 1 1 1.4 2.1 1.1 1.2-.3 1.9-1.3 1.6-2.6l-1.1-4.6 1.2-.3 1.7 7.5-1.2.3-.3-.9zM219.4 309.5l-1.1.2.4 2.4-1.2.2-.4-2.4-1.5.3-.2-1 1.5-.3-.9-4.9c-.1-.5-.4-.7-.9-.6-.2 0-.5.1-.6.2l-.2-1 .9-.3c1-.2 1.7.1 1.9 1.2l.9 5.2 1.1-.2.3 1zM208.6 304.5c.4-.7 1.1-1.4 2.4-1.5 1.5-.2 2.7.4 2.9 1.8.2 1.8-1.1 2.4-3 2.9-1.1.3-1.8.5-1.7 1.3.1.9.8 1.3 1.9 1.1 1.2-.2 1.8-.8 1.7-1.9l1.2-.1c.1 1.5-.7 2.7-2.7 3-1.6.2-2.9-.2-3.1-2.1l-.5-3.6c-.1-.6-.3-.9-.9-.7l-.1-.9c.1-.1.3-.2.6-.2.6-.2 1.1.1 1.3.9zm.2 1.7l.2 1.3c.4-.3 1-.6 1.7-.8 1.2-.4 2.1-.7 2-1.8-.1-1-1-1.1-1.7-1-1.7.2-2.3 1.4-2.2 2.3zM206.5 314.3l-1.2.1-.9-10.6 1.2-.1.9 10.6zM200.7 309.4l-2.9.1.1 3h-1l-.1-3-2.9.1v-1l2.9-.1-.1-3h1l.1 3 2.9-.1v1zM188.4 310.7c-.6.7-1.4 1.1-2.6 1-1.6-.1-2.5-1.1-2.4-2.7l.4-5.4 1.2.1-.4 5.3c-.1 1 .5 1.6 1.6 1.7 1.2.1 2.2-.7 2.3-2l.3-4.7 1.2.1-.7 10.7-1.2-.1.3-4zM177.5 302.8l-.1 1.1c.6-.7 1.4-1.1 2.5-.9 1.6.2 2.5 1.3 2.2 2.9l-.7 5.3-1.2-.2.7-5.3c.1-1-.4-1.7-1.5-1.8-1.2-.2-2.1.7-2.3 1.9l-.6 4.7-1.2-.2 1-7.7 1.2.2zM173.2 310l-1.2-.3.2-1.1c-.6.6-1.5 1-2.5.8-.9-.2-1.5-.8-1.7-1.8-.7.8-1.7 1-2.6.8-1.3-.3-2.1-1.4-1.8-2.9l1.2-5.3 1.2.3-1.1 5.2c-.2.9.3 1.6 1.1 1.8 1 .2 2-.4 2.3-1.6l1-4.7 1.2.3-1.1 5.2c-.2.9.2 1.6 1 1.8.9.2 2.1-.4 2.4-1.6l1-4.7 1.2.3-1.8 7.5zM158.7 299.5c.6-.4 1.6-.8 2.8-.4 1.4.4 2.3 1.4 1.9 2.8-.5 1.7-2 1.7-3.9 1.4-1.1-.2-1.9-.3-2.1.5-.3.8.2 1.5 1.3 1.8 1.2.4 2 0 2.3-1.1l1.1.3c-.5 1.4-1.7 2.2-3.7 1.6-1.6-.5-2.6-1.4-2-3.2l1.1-3.5c.2-.6.1-1-.5-1l.3-.8c.2 0 .4 0 .7.1.5.3.8.7.7 1.5zm-.6 1.7l-.4 1.3c.5-.1 1.2-.1 1.9 0 1.2.1 2.2.2 2.5-.9.3-1-.4-1.4-1.2-1.7-1.5-.4-2.5.5-2.8 1.3zM152.9 303.5c-.8.5-1.7.6-2.7.2-1.5-.6-2.1-1.7-1.6-3.2l1.9-5.1 1.1.4-1.9 5c-.4.9.1 1.7 1.1 2.1 1.1.4 2.3-.1 2.7-1.3l1.7-4.4 1.1.4-2.7 7.2-1.1-.4.4-.9zM142.6 303.7l-1.1-.5.6-1.4 1.1.5-.6 1.4zm1.2-2.7l-1.1-.5 3.2-7 1.1.5-3.2 7zM140.9 299.8l-1.1-.6.5-1c-.8.4-1.7.5-2.6.1-.8-.4-1.3-1.2-1.1-2.2-.8.6-1.9.6-2.7.1-1.2-.6-1.7-1.9-.9-3.3l2.5-4.8 1.1.6-2.5 4.7c-.4.8-.1 1.6.5 2 .9.5 2.1.1 2.6-1l2.2-4.3 1.1.6-2.5 4.7c-.4.8-.2 1.6.5 2 .8.4 2.2.2 2.7-.9l2.2-4.3 1.1.6-3.6 7zM130.1 293.9l-1-.7.6-.9c-.9.4-1.8.3-2.8-.3-1.7-1.1-2-3-.6-5.2 1.3-2.1 3.3-2.7 5-1.6.9.6 1.3 1.2 1.4 2.3l1.8-2.9 1 .7-5.4 8.6zm-2.8-6.4c-.9 1.5-1 3 .2 3.8 1.4.9 2.8.2 3.7-1.2s1.1-2.9-.4-3.9c-1.2-.9-2.5-.2-3.5 1.3zM123 281.1c.7-.2 1.7-.2 2.8.5 1.2.9 1.7 2.1.8 3.3-1.1 1.5-2.5.9-4.2 0-1-.5-1.7-.9-2.1-.2-.5.7-.3 1.5.6 2.1 1 .7 1.8.7 2.6-.2l.9.7c-.9 1.2-2.4 1.5-4 .3-1.3-1-1.9-2.2-.9-3.7l2.2-3c.4-.5.5-.9-.2-1.1l.5-.7c.2 0 .3.1.6.3.7.4.8 1 .4 1.7zm-1 1.4l-.8 1.1c.5 0 1.2.3 1.8.6 1.1.5 2 .9 2.7 0 .6-.8.1-1.5-.5-2-1.4-1-2.7-.4-3.2.3zM119.3 281.8c-1.4 1.7-3.7 2.2-5.5.7-1.4-1.2-1.7-2.7-.8-4.2l.9.8c-.5.9-.4 1.9.5 2.6 1.3 1.1 2.8.6 3.9-.8 1.1-1.3 1.3-2.9 0-3.9-1-.8-2-.7-2.8.1l-.9-.8c1.3-1.3 2.9-1.4 4.4-.1 1.8 1.5 1.8 3.9.3 5.6zM110.8 279.6l-.8-.8-1.7 1.8-.9-.8 1.7-1.8-1.1-1 .7-.7 1.1 1 3.4-3.7c.4-.4.3-.7-.1-1.1-.2-.2-.4-.3-.5-.4l.7-.8c.2.1.5.3.8.6.7.7 1 1.5.2 2.3l-3.6 3.9.8.8-.7.7zM111 272.7l-.9-.9c.8-1.1.5-2-.3-2.8-.9-.9-1.7-.9-2.2-.4-.6.6-.4 1.2.4 2.4.8 1.3 1.6 2.5.4 3.7-.9.9-2.2.8-3.5-.5-1.3-1.4-1.4-2.7-.4-3.9l.9.9c-.6.8-.6 1.5.2 2.3.8.8 1.4.8 1.9.3.6-.6.2-1.2-.6-2.4-.9-1.3-1.5-2.5-.3-3.7 1.1-1.1 2.6-.7 3.8.5 1.6 1.6 1.7 3.2.6 4.5zM95.5 267.9l-.8-1 10.9-3.7.8 1-10.9 3.7zM92 263.6l-2.6-3.6c-.7-.9-.9-1.8-.6-2.7.2-.7.6-1.3 1.2-1.8 1.6-1.1 3.2-.9 4.6 1l1.7 2.4 3.6-2.6.8 1.1-8.7 6.2zm3.4-4l-1.6-2.3c-.9-1.2-1.9-1.4-2.9-.6-1 .7-1.1 1.8-.3 2.9l1.7 2.3 3.1-2.3zM89.6 252.7c-.9 0-1.9-.4-2.4-1.2-.1-.2-.2-.3-.2-.5l1-.6c0 .2.1.3.2.5.6 1 2 1.4 3.2.6l3.6-2.3.6 1-6.5 4.1-.6-1 1.1-.6zM90 248.6c-2 1.1-4.2.7-5.4-1.3-1.1-2-.2-4.1 1.7-5.2 2-1.1 4.2-.8 5.4 1.2 1.2 2.1.3 4.2-1.7 5.3zm-3-5.4c-1.5.8-2.3 2.2-1.5 3.7.8 1.4 2.4 1.5 3.9.7s2.2-2.2 1.4-3.7c-.7-1.5-2.3-1.5-3.8-.7zM86 241.3c-2.3 1.1-4.3.4-5.1-1.3-.5-1-.3-2 .1-2.7l-3.7 1.7-.5-1.1 9.6-4.6.5 1.1-.9.4c.9.2 1.6.7 2.1 1.7 1 1.9.1 3.8-2.1 4.8zm-2.5-5.3c-1.6.8-2.4 2.1-1.7 3.5.6 1.3 2.1 1.4 3.7.7 1.6-.8 2.4-2 1.8-3.3-.8-1.5-2.3-1.7-3.8-.9zM84 227.4l-1 .4c.9.2 1.6.7 2 1.7.6 1.5.1 2.8-1.4 3.4l-5 2-.4-1.1 4.9-2c.9-.4 1.2-1.2.8-2.2-.5-1.1-1.6-1.5-2.7-1.1l-4.4 1.8-.4-1.1 7.2-2.8.4 1zM79.6 226.5c-2.1.7-4.3-.1-5-2.3-.6-1.7.1-3.2 1.5-4l.4 1.2c-.9.5-1.3 1.4-1 2.5.5 1.6 2.1 2 3.7 1.4 1.6-.5 2.6-1.8 2.1-3.3-.4-1.2-1.3-1.7-2.5-1.4l-.4-1.1c1.8-.4 3.2.4 3.8 2.2.8 2.2-.5 4.1-2.6 4.8zM73.5 220.1l-.3-1.1-2.4.6-.3-1.2 2.4-.6-.4-1.4 1-.3.4 1.4 4.9-1.3c.5-.1.6-.5.5-.9-.1-.2-.2-.5-.3-.6l1-.3c.1.3.3.6.4.9.3 1 .1 1.8-1 2l-5.1 1.4.3 1.1-1.1.3zM71.5 212.4l-.2-1.2 1.1-.2c-.8-.3-1.5-1.1-1.7-2-.2-.9.2-1.7 1-2.2-1-.3-1.6-1.2-1.8-2.1-.2-1.4.5-2.5 2-2.7l5.3-.9.2 1.2-5.3.9c-.9.2-1.4.9-1.3 1.7.2 1 1.2 1.7 2.4 1.5l4.7-.8.2 1.2-5.3.9c-.9.2-1.4.8-1.3 1.6.2.9 1.2 1.8 2.4 1.6l4.7-.8.2 1.2-7.3 1.1zM73.4 200.4c-2.2.2-4.2-1.1-4.4-3.3-.2-2.3 1.5-3.9 3.7-4.1 2.2-.2 4.2 1 4.4 3.3.2 2.3-1.5 3.9-3.7 4.1zm-.6-6.2c-1.7.2-3 1.1-2.8 2.8.2 1.6 1.6 2.4 3.3 2.2 1.7-.2 3-1.1 2.8-2.8-.2-1.7-1.6-2.4-3.3-2.2zM72.7 192.1c-2.6.1-4.1-1.4-4.1-3.3 0-1.1.5-1.9 1.2-2.5l-4 .1v-1.2l10.7-.3v1.2h-.9c.8.6 1.2 1.3 1.2 2.4-.1 2.2-1.6 3.5-4.1 3.6zm-.2-5.9c-1.8 0-3 .9-3 2.5 0 1.5 1.4 2.2 3.1 2.1 1.7 0 3-.8 3-2.3 0-1.7-1.3-2.4-3.1-2.3zM72.5 183.8c-2.2-.1-4-1.6-3.9-3.8.1-2.3 1.9-3.5 4.5-3.4l-.2 6c1.6 0 2.8-.8 2.9-2.4 0-1.1-.5-1.9-1.5-2.2v-1.2c1.6.4 2.5 1.7 2.5 3.4-.2 2.3-2.1 3.6-4.3 3.6zm-.6-1.3l.2-4.6c-1.5 0-2.5.8-2.6 2.2 0 1.3 1 2.1 2.4 2.4zM66.1 174.7l.1-1.2 10.6.9-.1 1.2-10.6-.9zM67.2 165.3l.2-1.2 10 5.7-.2 1.2-10-5.7zM68.1 159.9l1.7-7.4 1.2.3-1.4 6 3.3.8 1.3-5.5 1.1.3-1.3 5.5 3.7.8 1.4-6.2 1.2.3-1.7 7.5-10.5-2.4zM77.4 150.3l-4.3 1.4.4-1.3 3.2-.9-2.1-2.6.4-1.3 2.7 3.5 4.9-1.7-.4 1.4-3.8 1.2 2.5 3.1-.4 1.3-3.1-4.1zM75.6 143.8l.4-1.1 1 .4c-.5-.8-.7-1.7-.3-2.8.7-1.8 2.6-2.6 5-1.7 2.3.9 3.4 2.6 2.6 4.6-.4 1-.9 1.6-1.9 1.9l3.2 1.2-.4 1.1-9.6-3.6zm5.7-4c-1.6-.6-3.1-.4-3.6 1-.6 1.6.4 2.8 2 3.4s3.1.4 3.7-1.2c.4-1.5-.5-2.6-2.1-3.2zM82 137.8c-2-.9-3.1-3-2.2-5 1-2.1 3.1-2.5 5.4-1.4l-2.5 5.4c1.5.6 2.9.3 3.5-1.1.5-1 .3-1.9-.6-2.6l.5-1.1c1.4 1 1.7 2.5 1 4.1-.8 2.1-3 2.6-5.1 1.7zm0-1.4l1.9-4.2c-1.4-.6-2.6-.2-3.2 1-.6 1.3.1 2.5 1.3 3.2zM83.9 127.9c-.4-.8-.6-1.8-.1-2.7.1-.2.2-.3.3-.4l1 .5c-.1.1-.2.2-.3.4-.6 1.1-.2 2.4 1 3.1l3.8 2-.6 1.1-6.8-3.6.6-1.1 1.1.7zM82.1 122.2l.6-1.1 1.3.7-.6 1.1-1.3-.7zm2.6 1.5l.6-1.1 6.7 3.8-.6 1.1-6.7-3.8zM89.2 123.4c-1.9-1.2-2.7-3.4-1.5-5.3 1.2-2 3.4-2.1 5.6-.7l-3.2 5.1c1.4.8 2.8.7 3.7-.6.6-.9.5-1.9-.2-2.7l.6-1c1.2 1.2 1.4 2.7.4 4.2-1.2 2-3.5 2.2-5.4 1zm.2-1.4l2.5-3.9c-1.3-.8-2.6-.6-3.3.6-.8 1.2-.3 2.4.8 3.3zM92.1 113.6c-.3-.9-.2-1.8.5-2.7.9-1.3 2.2-1.6 3.5-.7l4.4 3.2-.7 1-4.3-3.1c-.8-.6-1.7-.4-2.3.5-.7 1-.5 2.2.5 3l3.9 2.8-.7 1-6.3-4.5.7-1 .8.5zM98.2 110.2c-1.7-1.4-2.2-3.7-.8-5.5 1.2-1.4 2.7-1.7 4.2-.8l-.8.9c-.9-.5-1.9-.4-2.6.5-1 1.3-.5 2.8.8 3.9s2.9 1.3 3.9 0c.8-1 .7-2-.1-2.8l.8-.9c1.3 1.3 1.4 2.9.2 4.4-1.6 1.7-3.9 1.7-5.6.3zM103.2 104.1c-1.6-1.5-2-3.8-.5-5.4 1.6-1.7 3.7-1.4 5.6.4l-4.1 4.4c1.2 1 2.7 1.2 3.7.1.8-.8.9-1.7.3-2.6l.8-.9c1 1.4.8 2.9-.4 4.2-1.5 1.6-3.8 1.4-5.4-.2zm.4-1.3l3.2-3.4c-1.2-1-2.4-1.1-3.4 0-1 1-.7 2.3.2 3.4zM108.8 88.8l.9-.8 4.1 10.7-.9.8-4.1-10.7zM113 85.2l6-4.6.7.9-4.9 3.8 2.1 2.7 4.5-3.5.7.9-4.5 3.5 2.3 3 5-3.9.8 1-6.1 4.7-6.6-8.5zM123.9 85.4c-1.2-1.9-1.1-4.2.8-5.5 1.5-1 3.1-.8 4.2.4l-1 .7c-.7-.8-1.7-.9-2.7-.2-1.4.9-1.3 2.5-.4 3.9s2.4 2.1 3.8 1.1c1-.7 1.3-1.7.7-2.8l1-.7c.9 1.6.5 3.2-1.1 4.3-1.8 1.4-4 .7-5.3-1.2zM130.4 81.1c-1.1-1.9-.8-4.2 1.2-5.4 2-1.2 4.1-.3 5.3 1.6 1.1 1.9.8 4.2-1.2 5.4-2 1.2-4.2.3-5.3-1.6zm5.4-3.2c-.9-1.5-2.3-2.2-3.7-1.4-1.4.8-1.5 2.4-.6 3.9s2.3 2.2 3.7 1.4c1.4-.8 1.5-2.4.6-3.9zM138.2 78.2l1.1-.6c.7 1.1 1.7 1.1 2.7.6 1.1-.6 1.4-1.3 1-1.9-.4-.8-1-.7-2.4-.3-1.5.4-2.9.7-3.6-.8-.6-1.1-.1-2.3 1.5-3.1 1.7-.9 3-.5 3.8.8l-1.1.6c-.6-.9-1.3-1-2.3-.5-1 .5-1.2 1.1-.9 1.7.4.7 1.1.6 2.4.2 1.5-.4 2.8-.7 3.6.9.7 1.4-.1 2.7-1.7 3.5-1.7.7-3.2.4-4.1-1.1zM146.8 79.4l-.4-1h.1c.2 0 .4 0 .8-.2.5-.2.7-.5.7-1.3v-.8l-5.7-5.7 1.2-.5 3.6 3.7c.5.5 1.1 1.2 1.1 1.2s-.1-.9-.1-1.6l-.3-5.1 1.2-.5.2 9c.1 1.7-.4 2.3-1.2 2.6-.6.1-.8.2-1.2.2zM151.2 72.2l1.2-.4c.6 1.2 1.6 1.3 2.7.9 1.2-.4 1.5-1.1 1.3-1.8-.3-.8-.9-.8-2.4-.6-1.5.2-2.9.4-3.5-1.2-.4-1.2.2-2.3 1.9-2.9 1.8-.6 3-.1 3.7 1.3l-1.2.4c-.5-.9-1.1-1.2-2.2-.8-1 .4-1.3 1-1.1 1.6.3.8 1 .7 2.4.5 1.6-.2 2.9-.3 3.5 1.3.5 1.5-.4 2.6-2.1 3.2-2.1.6-3.5.1-4.2-1.5zM156.2 64.9l1.1-.3-.7-2.3 1.2-.4.7 2.3 1.4-.4.3.9-1.4.4 1.5 4.8c.2.5.5.6 1 .5.2-.1.5-.2.6-.3l.3 1c-.3.1-.6.3-.9.4-.9.3-1.7.1-2.1-.9l-1.5-5.1-1.1.3-.4-.9zM161.8 67.2c-.5-2.2.4-4.3 2.6-4.8 2.2-.6 3.9.9 4.5 3.4l-5.8 1.5c.5 1.5 1.6 2.5 3.1 2.1 1.1-.3 1.7-1 1.7-2.1l1.1-.3c.1 1.7-.9 2.9-2.6 3.3-2.3.5-4.1-.9-4.6-3.1zm1.1-.9l4.5-1.1c-.4-1.5-1.4-2.2-2.8-1.9-1.4.4-1.9 1.6-1.7 3zM169.4 61.3l1.2-.2.2 1.1c.4-.8 1.1-1.5 2-1.6.9-.2 1.7.2 2.2 1 .3-.9 1.2-1.6 2.1-1.7 1.4-.2 2.5.5 2.7 2.1l.9 5.4-1.2.2-.9-5.3c-.2-.9-.9-1.4-1.6-1.3-1 .2-1.7 1.2-1.5 2.4l.8 4.7-1.2.2-.9-5.3c-.2-.9-.8-1.4-1.6-1.3-.9.2-1.8 1.2-1.6 2.4l.8 4.7-1.2.2-1.2-7.7zM187.4 56.1l1.3-.1-3.5 11H184l3.4-10.9z"/></g><g><path d="M349.3 189.1l-.2 4.4c-.1 1.1-.5 2-1.1 2.5-.5.4-1.3.7-2.1.6-2-.1-3.1-1.3-3-3.6l.1-2.9-4.5-.2.1-1.3 10.7.5zm-5.2 1.1l-.1 2.8c-.1 1.5.7 2.3 1.9 2.3 1.3.1 2-.7 2.1-2.1l.1-2.9-4-.1zM348.8 198.3l-.1 1.2-10.6-.9.1-1.2 10.6.9zM338.4 205c-.5-.5-1.1-1.4-.9-2.7.2-1.5 1-2.5 2.5-2.3 1.8.2 2 1.7 2.1 3.6 0 1.1 0 1.9.9 2 .9.1 1.4-.5 1.6-1.6.2-1.2-.3-1.9-1.5-2.1l.1-1.2c1.5.2 2.5 1.3 2.2 3.4-.2 1.6-1 2.8-2.8 2.5l-3.6-.5c-.6-.1-1 0-.9.7l-.9-.1c0-.2-.1-.4 0-.7 0-.6.4-1 1.2-1zm1.7.2l1.3.2c-.2-.4-.3-1.2-.3-1.8-.1-1.2-.2-2.2-1.3-2.4-1-.1-1.3.6-1.4 1.4-.2 1.6.8 2.5 1.7 2.6zM344.6 208.2l-.2 1.1 2.4.4-.2 1.2-2.4-.4-.2 1.5-1-.2.2-1.5-5-.8c-.5-.1-.8.2-.8.6v.7l-1-.2c0-.3 0-.6.1-1 .2-1 .7-1.6 1.8-1.4l5.2.9.2-1.1.9.2zM343.9 212.7l-.2 1 1.2.2c1.3.3 1.6 1.1 1.4 2.4 0 .2-.1.4-.1.6l-1-.2c.1-.2.1-.3.1-.4.1-.8 0-1.1-.6-1.2l-1.2-.2-.3 1.4-1-.2.3-1.4-6.6-1.3.2-1.2 6.6 1.3.2-1 1 .2zM339.3 216.1c2.2.5 3.6 2.3 3.1 4.6s-2.6 3.2-4.8 2.7c-2.2-.5-3.6-2.3-3.1-4.6.5-2.2 2.6-3.2 4.8-2.7zm-1.5 6.1c1.7.4 3.2-.1 3.6-1.7s-.7-2.7-2.4-3.1c-1.7-.4-3.2.1-3.5 1.7-.4 1.6.7 2.7 2.3 3.1zM339.3 226.5c.6.7 1 1.6.7 2.6-.1.2-.1.3-.2.4l-1.1-.3c.1-.2.2-.3.2-.5.3-1.1-.2-2.4-1.6-2.8l-4.1-1.2.3-1.2 7.4 2.1-.3 1.2-1.3-.3zM339.4 230.9l-.4 1.1-1-.4c.5.7.8 1.7.5 2.6-.3.9-1 1.4-2 1.4.7.8.8 1.8.5 2.7-.5 1.3-1.6 1.9-3.1 1.4l-5.1-1.8.4-1.1 5.1 1.8c.9.3 1.7-.1 1.9-.8.3-.9-.2-2.1-1.3-2.5l-4.5-1.6.4-1.1 5.1 1.8c.9.3 1.6 0 1.9-.7.3-.9-.2-2.2-1.3-2.6l-4.5-1.6.4-1.1 7 2.5zM330.6 239.8l-.5 1.1c-1.3-.4-2 .3-2.5 1.4-.5 1.2-.2 1.9.5 2.1.8.3 1.2-.1 2.1-1.3.9-1.3 1.7-2.4 3.3-1.7 1.2.5 1.6 1.7.9 3.4-.8 1.8-2 2.3-3.4 1.8l.5-1.1c1 .3 1.6 0 2.1-1.1.4-1 .2-1.6-.4-1.9-.8-.3-1.2.3-2 1.4-.9 1.3-1.7 2.4-3.4 1.7-1.4-.6-1.7-2.1-1-3.7.8-1.9 2.2-2.6 3.8-2.1zM329.1 250.3l-1.3 2.6 2.7 1.4-.5.9-2.7-1.4-1.3 2.6-.9-.4 1.3-2.6-2.7-1.4.5-.9 2.7 1.4 1.3-2.6.9.4zM324.5 261.7c.3.9.3 1.8-.3 2.7-.8 1.4-2.1 1.8-3.5.9l-4.6-2.8.6-1 4.5 2.8c.9.5 1.7.3 2.2-.7.6-1 .4-2.3-.7-2.9l-4.1-2.5.6-1 6.6 4-.6 1-.7-.5zM318.7 265.6c1.8 1.3 2.5 3.5 1.3 5.3-1.3 1.9-3.5 1.9-5.6.5l3.4-4.9c-1.3-.8-2.8-.8-3.7.5-.6.9-.6 1.8.1 2.7l-.7 1c-1.2-1.2-1.3-2.8-.3-4.2 1.4-2.1 3.7-2.2 5.5-.9zm-.2 1.4l-2.6 3.8c1.3.8 2.5.7 3.3-.5.9-1.1.4-2.4-.7-3.3zM317.5 274.2l-.8 1-4.6-1.9c-.6-.3-1.6-.7-1.6-.7s.7.8 1 1.3l3 4-.8 1-4.6-2c-.6-.3-1.5-.7-1.5-.7s.7.8 1 1.4l2.9 4.1-.8 1-4.5-6.8.8-1 4.5 1.9c.6.3 1.5.7 1.5.7s-.6-.8-1-1.3l-2.9-3.9.8-1 7.6 2.9zM308.8 285.1l-.8.8 1.8 1.6-.8.9-1.8-1.6-1 1.1-.7-.7 1-1.1-3.7-3.4c-.4-.4-.7-.3-1.1.1-.2.2-.3.4-.4.5l-.8-.7c.1-.3.3-.5.6-.8.7-.7 1.4-1 2.3-.3l3.9 3.5.8-.8.7.9zM302.8 285.9c1.6 1.6 1.9 3.9.3 5.5-1.6 1.7-3.8 1.3-5.6-.5l4.2-4.3c-1.2-1-2.6-1.3-3.7-.2-.8.8-.9 1.7-.4 2.6l-.8.8c-.9-1.4-.8-2.9.5-4.2 1.6-1.5 3.9-1.2 5.5.3zm-.4 1.4l-3.3 3.3c1.2 1 2.4 1.1 3.4.1s.7-2.3-.1-3.4zM297.2 291.7c1.5 1.7 1.7 4 0 5.5-1.3 1.2-2.9 1.3-4.3.2l.9-.8c.8.7 1.8.6 2.7-.2 1.2-1.1.9-2.7-.2-3.9-1.1-1.3-2.7-1.7-3.9-.6-.9.8-1 1.9-.3 2.8l-.9.8c-1.1-1.5-1-3.1.5-4.4 1.7-1.5 3.9-1.1 5.5.6zM291.9 300.2c0 .9-.3 1.8-1.2 2.5-1.2 1-2.6 1-3.6-.3l-3.4-4.2.9-.8 3.4 4.1c.6.8 1.5.8 2.3.1.9-.8 1.1-2 .3-3l-3-3.7.9-.8 6.8 8.3-.9.8-2.5-3zM285.6 305.2c0 .9-.4 1.8-1.3 2.4-1.3 1-2.6.8-3.6-.5l-3.2-4.4 1-.7 3.2 4.3c.6.8 1.5.9 2.3.2 1-.7 1.2-2 .4-3l-2.8-3.8 1-.7 4.6 6.2-1 .7-.6-.7zM278.8 306.7c1.2 1.9 1 4.2-.9 5.4-1.9 1.3-4.1.5-5.3-1.4-1.2-1.9-1-4.2.9-5.4 1.9-1.3 4.1-.5 5.3 1.4zm-5.2 3.4c.9 1.4 2.4 2.1 3.8 1.2s1.3-2.5.4-3.9-2.4-2.1-3.8-1.2c-1.4.8-1.4 2.4-.4 3.9zM274.9 317.2l-1 .6-5.5-9.2 1-.6 5.5 9.2zM269.3 312.7c1.1 2 .7 4.3-1.3 5.4-2 1.1-4.1.2-5.2-1.8s-.7-4.2 1.3-5.4c2-1.1 4.1-.2 5.2 1.8zm-5.5 3c.8 1.5 2.2 2.3 3.6 1.5 1.4-.8 1.5-2.4.7-3.9s-2.2-2.3-3.7-1.5c-1.3.8-1.4 2.4-.6 3.9zM259.9 312.9l-1 .5c-.5-.7-1.3-.7-2.4-.1-1.3.6-1.7 1.5-1.1 2.7l.5 1c.2-.9.5-1.6 1.5-2.1 1.8-.9 3.7 0 4.7 2 1 2.2.3 4.1-1.3 4.9-1 .5-1.8.4-2.6 0l.4.9-1.1.5-3.2-6.6c-.9-1.8-.1-3.3 1.8-4.2 1.7-.9 3.1-.6 3.8.5zm-3 6.5c.7 1.5 1.8 2.2 3.3 1.4 1.3-.6 1.5-2 .8-3.5s-1.9-2.2-3.2-1.6c-1.6.9-1.6 2.3-.9 3.7zM255.7 323.9l-1.1.5-3.1-7.1 1.1-.5 3.1 7.1zm1.2 2.7l-1.1.5-.6-1.4 1.1-.5.6 1.4zM251.9 321.3c.8 2.1.1 4.3-1.9 5.1-2.2.8-4-.4-4.9-2.8l5.6-2.2c-.7-1.4-1.9-2.2-3.3-1.7-1 .4-1.5 1.2-1.4 2.3l-1.1.4c-.3-1.7.5-3 2.2-3.6 2.1-.8 4 .4 4.8 2.5zm-.9 1.1l-4.3 1.7c.6 1.4 1.7 2 3 1.5 1.3-.6 1.6-1.9 1.3-3.2zM244.1 322.9l-1.2.4c-.6-1.2-1.5-1.3-2.6-.9-1.2.4-1.5 1.1-1.3 1.8.3.8.9.8 2.4.7 1.5-.2 2.9-.3 3.5 1.3.4 1.2-.3 2.3-2 2.9-1.8.6-3 0-3.6-1.3l1.2-.4c.4.9 1.1 1.2 2.2.8 1.1-.3 1.3-1 1.1-1.5-.3-.8-1-.7-2.4-.6-1.6.2-2.9.3-3.5-1.4-.5-1.5.5-2.6 2.2-3.2 1.9-.8 3.3-.2 4 1.4zM233.1 334.7l-1.2.3 1.4-11.4 1.2-.3-1.4 11.4zM227.2 330.7c.6 3.1-.8 5.8-4 6.4-2.5.5-4.2-.7-4.8-2.6l1.3-.2c.5 1.3 1.7 2 3.4 1.7 2.3-.4 3.3-2.5 2.8-5-.5-2.6-2.2-4-4.4-3.6-2 .4-2.7 1.9-2.5 3.5l-1.3.2c-.2-1 .1-2.3.7-3.2.6-.9 1.6-1.4 2.9-1.7 2.9-.6 5.3 1.3 5.9 4.5zM216.6 331.1c.3 2.2-.9 4.2-3.2 4.5-2.3.3-3.9-1.4-4.2-3.6-.3-2.2.9-4.2 3.2-4.5 2.3-.3 3.9 1.4 4.2 3.6zm-6.2.8c.2 1.7 1.2 2.9 2.8 2.7 1.6-.2 2.3-1.6 2.1-3.3-.2-1.7-1.2-2.9-2.8-2.7-1.6.1-2.3 1.6-2.1 3.3zM206.9 335c-.5.8-1.3 1.3-2.4 1.4-1.6.1-2.7-.7-2.8-2.3l-.3-5.4 1.2-.1.3 5.3c.1 1 .8 1.5 1.8 1.5 1.2-.1 2.1-1 2-2.3l-.3-4.7 1.2-.1.5 7.7H207l-.1-1zM200.7 336.4h-1.1l.1 2.4h-1.2l-.1-2.4h-1.5v-1h1.5l-.1-5c0-.5-.3-.7-.8-.7-.2 0-.5.1-.6.1v-1c.3-.1.6-.1 1-.1 1 0 1.7.4 1.7 1.5l.1 5.3h1.1l-.1.9zM196 332.6c0 2.2-1.5 4-3.7 4-2.3 0-3.5-1.9-3.5-4.4l6 .1c-.1-1.6-.9-2.8-2.4-2.8-1.1 0-1.9.5-2.2 1.5H189c.4-1.7 1.6-2.6 3.4-2.5 2.3.1 3.6 1.9 3.6 4.1zm-1.3.7l-4.6-.1c0 1.5.8 2.5 2.2 2.5 1.4 0 2.2-1 2.4-2.4zM186.1 335.2c-.6.7-1.4 1.1-2.6 1-1.6-.1-2.5-1.1-2.4-2.7l.4-5.4 1.2.1-.4 5.3c-.1 1 .5 1.6 1.6 1.7 1.2.1 2.2-.7 2.3-2l.3-4.7 1.2.1-.6 7.7-1.2-.1.2-1zM179.8 335.7l-1.1-.1-.3 2.4-1.2-.1.3-2.4-1.5-.2.1-1 1.5.2.6-5c.1-.5-.2-.7-.7-.8h-.7l.1-1h1c1 .1 1.6.6 1.5 1.7l-.6 5.3 1.1.1-.1.9zM175.9 326.2c-.3.1-.7.3-.8 1.1l.7.1-.2 1.5-1.4-.2.2-1.5c.2-1.1.8-1.6 1.7-1.7l-.2.7zM170.3 330.6c-.5 2.5-2.2 3.7-4.1 3.3-1.1-.2-1.8-.9-2.1-1.7l-.8 4-1.2-.2 2.1-10.5 1.2.2-.2.9c.7-.6 1.5-.9 2.6-.7 2 .4 3 2.2 2.5 4.7zm-5.8-1.2c-.3 1.8.3 3.2 1.8 3.5 1.4.3 2.4-.9 2.8-2.6.3-1.7-.1-3.1-1.6-3.4-1.7-.3-2.6.8-3 2.5zM157.8 325c.6-.5 1.5-.9 2.8-.6 1.4.4 2.4 1.3 2 2.7-.4 1.8-1.9 1.8-3.9 1.6-1.1-.1-1.9-.2-2.1.6-.2.8.3 1.5 1.3 1.7 1.2.3 2-.1 2.3-1.2l1.1.3c-.4 1.4-1.6 2.3-3.6 1.8-1.6-.4-2.6-1.3-2.2-3.1l.9-3.6c.2-.6.1-1-.6-1l.2-.9h.7c.9.4 1.2.9 1.1 1.7zm-.4 1.7l-.4 1.3c.5-.1 1.2-.2 1.8-.1 1.2.1 2.2.1 2.5-1 .3-1-.5-1.4-1.2-1.6-1.5-.5-2.5.5-2.7 1.4zM153.8 330.8l-1.1-.3-.7 2.3-1.2-.3.7-2.3-1.4-.4.3-.9 1.4.4 1.4-4.8c.2-.5-.1-.8-.5-.9-.2-.1-.5-.1-.6-.1l.3-1c.3 0 .6.1 1 .2.9.3 1.5.9 1.2 1.9l-1.5 5.1 1.1.3-.4.8zM146.4 321.4c.6-.4 1.6-.7 2.8-.3 1.4.5 2.2 1.5 1.8 2.9-.6 1.7-2.1 1.6-4 1.3-1.1-.2-1.8-.3-2.1.4-.3.8.2 1.5 1.2 1.9 1.2.4 2 .1 2.4-1l1.1.4c-.5 1.4-1.8 2.1-3.8 1.5-1.6-.5-2.5-1.5-1.9-3.2l1.2-3.5c.2-.6.2-1-.5-1l.3-.8c.2 0 .4 0 .7.1.7.1 1 .5.8 1.3zm-.6 1.7l-.4 1.2c.5-.1 1.2-.1 1.9 0 1.2.2 2.2.3 2.6-.8.3-1-.4-1.4-1.1-1.7-1.6-.4-2.7.4-3 1.3zM140 323.6l-2.7-1.1-1.2 2.7-.9-.4 1.2-2.7-2.7-1.1.4-.9 2.7 1.1 1.2-2.7.9.4-1.2 2.7 2.7 1.1-.4.9zM130.8 314.7l.5-.9 1.1.6-4.9 9.5-1.1-.6 1.9-3.6c-.9.4-1.8.5-2.8 0-1.7-.9-2.2-2.8-1.1-5.1 1.1-2.2 3-3 4.8-2.1 1 .5 1.5 1.1 1.6 2.2zm-5.3.4c-.8 1.5-.8 3 .5 3.7 1.5.8 2.8-.1 3.6-1.6.8-1.5.7-3.1-.8-3.8-1.3-.7-2.5.2-3.3 1.7zM121 308.1l-.5.9c.9-.4 1.7-.5 2.6.1 1.4.8 1.8 2.1.9 3.5l-2.7 4.6-1-.6 2.7-4.6c.5-.9.2-1.7-.7-2.2-1.1-.6-2.2-.2-2.8.8l-2.4 4.1-1-.6 3.9-6.7 1 .7zM117.7 309.1l-1-.7c.6-1.2.1-2-.9-2.7-1.1-.7-1.8-.5-2.2.1-.5.7-.1 1.2.9 2.3 1.1 1.1 2.1 2.1 1.1 3.5-.7 1.1-2 1.2-3.5.2-1.6-1.1-1.9-2.3-1.2-3.7l1 .7c-.5.9-.2 1.6.7 2.2.9.6 1.6.4 1.9-.1.5-.7-.1-1.2-1-2.2-1.1-1.1-2-2.1-1-3.6.9-1.3 2.4-1.3 3.8-.3 1.8 1.3 2.3 2.8 1.4 4.3zM106.6 311.5l-1-.7.9-1.2 1 .7-.9 1.2zm1.7-2.4l-1-.7 4.5-6.3 1 .7-4.5 6.3zM105.5 305.8c-.9.2-1.8.1-2.7-.6-1.3-1-1.5-2.3-.6-3.6l3.3-4.3 1 .7-3.2 4.2c-.6.8-.4 1.6.4 2.3 1 .7 2.2.6 3-.4l2.9-3.8 1 .7-4.7 6.1-1-.7.6-.6zM102.3 299.7c-1.5 1.7-3.8 2.1-5.4.7-1.8-1.5-1.5-3.7.1-5.6l4.5 3.9c1-1.3 1.1-2.7-.1-3.7-.9-.7-1.8-.8-2.7-.2l-.9-.8c1.4-1 2.9-1 4.2.2 1.8 1.5 1.7 3.8.3 5.5zm-1.4-.4l-3.5-3c-.9 1.2-1 2.4.1 3.4 1 .9 2.3.6 3.4-.4zM97.1 293.5l-.9-.9c.8-1.1.4-2-.4-2.8-.9-.9-1.7-.8-2.2-.3-.6.6-.3 1.2.5 2.4.9 1.3 1.7 2.4.5 3.7-.9.9-2.2.9-3.5-.4-1.4-1.3-1.4-2.6-.5-3.8l.9.9c-.6.8-.5 1.5.3 2.3.8.8 1.5.7 1.9.3.6-.6.1-1.2-.6-2.4-.9-1.3-1.6-2.4-.4-3.7 1.1-1.1 2.5-.8 3.8.4 1.6 1.4 1.7 2.9.6 4.3zM92 288.6l-.9-.9c.9-1 .5-2-.3-2.8-.9-.9-1.6-.9-2.2-.4-.6.6-.4 1.2.4 2.4.8 1.3 1.5 2.5.3 3.7-.9.9-2.2.8-3.5-.5-1.3-1.4-1.3-2.7-.3-3.9l.9.9c-.7.8-.6 1.5.2 2.3.8.8 1.4.8 1.9.4.6-.6.2-1.2-.5-2.4-.8-1.3-1.5-2.5-.2-3.7 1.1-1.1 2.6-.7 3.8.6 1.4 1.4 1.5 3 .4 4.3zM85.5 281.6l-.8-.9c.9-1 .6-1.9-.1-2.8-.8-1-1.6-1-2.1-.6-.7.6-.5 1.2.2 2.4.7 1.4 1.4 2.6.1 3.7-1 .8-2.3.6-3.4-.8-1.2-1.5-1.1-2.8-.1-3.9l.8.9c-.7.7-.7 1.5.1 2.3.7.8 1.4.9 1.8.5.6-.5.3-1.2-.4-2.4-.8-1.4-1.3-2.6 0-3.8 1.2-1 2.6-.5 3.8.8 1.3 1.9 1.3 3.4.1 4.6zM79.7 276.8c-1.8 1.4-4.1 1.3-5.5-.5-1.4-1.8-.7-3.9 1.3-5.5l3.6 4.8c1.2-1 1.6-2.4.7-3.7-.7-.9-1.6-1.2-2.6-.8l-.7-.9c1.5-.7 3-.3 4.1 1.1 1.5 2 .9 4.2-.9 5.5zm-1.3-.6l-2.8-3.7c-1.2 1-1.5 2.2-.6 3.3.9 1.1 2.2 1.1 3.4.4zM71.8 270.5c-.9 0-1.9-.3-2.5-1.1-.1-.2-.2-.3-.2-.5l1-.7c.1.2.1.3.2.5.7 1 2 1.3 3.2.5l3.5-2.4.7 1-6.4 4.4-.7-1 1.2-.7zM68.9 268.5l-.7-1.1 3.3-4c.5-.6 1.1-1.3 1.1-1.3s-1 .3-1.6.4l-5 1.2-.7-1.1 8-1.8.7 1.1-5.1 6.6zM62.2 263.3l-.6-1 1.3-.8.6 1-1.3.8zm2.6-1.5l-.6-1 6.7-3.9.6 1-6.7 3.9zM66.8 257.7c-2 1.1-4.3.6-5.3-1.4-.9-1.6-.5-3.2.8-4.2l.6 1.1c-.8.7-1.1 1.6-.5 2.6.8 1.5 2.4 1.6 3.9.8s2.3-2.2 1.5-3.6c-.6-1.1-1.6-1.4-2.7-1l-.6-1.1c1.7-.7 3.2-.2 4.1 1.5 1.1 2.1.2 4.2-1.8 5.3zM63.2 250.8c-2 .9-4.3.4-5.2-1.6-1-2.1.1-4 2.4-5.1l2.5 5.4c1.4-.7 2.1-2 1.4-3.4-.5-1-1.3-1.5-2.3-1.3l-.5-1.1c1.7-.4 3 .3 3.8 1.9 1 2.2-.1 4.2-2.1 5.2zm-1.1-.9l-2-4.2c-1.4.7-1.9 1.8-1.3 3.1.6 1.3 1.9 1.5 3.3 1.1zM61.1 243.1l-.5-1.1c1.2-.7 1.2-1.6.8-2.7-.5-1.2-1.2-1.5-1.9-1.2-.8.3-.8 1-.5 2.4.3 1.5.5 2.9-1.1 3.5-1.2.5-2.3-.1-3-1.8-.7-1.8-.2-3 1.1-3.7l.5 1.1c-.9.5-1.1 1.2-.7 2.2.4 1 1 1.3 1.6 1 .8-.3.6-1.1.4-2.4-.3-1.6-.5-2.9 1.2-3.6 1.4-.6 2.7.3 3.3 1.9.8 2.1.3 3.6-1.2 4.4zM48.5 232.9l-.4-1.2 11.5.6.4 1.2-11.5-.6zM46.9 227.7l-1.9-7.3 1.1-.3 1.6 6 3.3-.8-1.4-5.5 1.1-.3 1.4 5.5 3.6-.9-1.6-6.2 1.2-.3 1.9 7.5-10.3 2.6zM51.4 217.8c-2.2.4-4.3-.6-4.7-2.9-.4-1.8.4-3.2 2-3.8l.2 1.2c-1 .4-1.5 1.2-1.2 2.4.3 1.6 1.8 2.2 3.5 1.8s2.8-1.4 2.5-3c-.2-1.2-1.1-1.8-2.3-1.7l-.2-1.2c1.8-.2 3.1.8 3.5 2.7.4 2.3-1.1 4-3.3 4.5zM49.9 210.1c-2.2.3-4.2-.8-4.6-3.1-.3-2.3 1.3-3.9 3.5-4.3s4.2.8 4.5 3.1c.4 2.3-1.2 4-3.4 4.3zm-.9-6.2c-1.7.2-2.9 1.3-2.7 2.9s1.7 2.3 3.4 2 2.9-1.3 2.7-2.9-1.7-2.2-3.4-2zM50.1 201.8l-.1-1.2c1.3-.3 1.6-1.2 1.5-2.4-.1-1.3-.7-1.7-1.4-1.7-.9.1-1 .7-1.2 2.1-.2 1.5-.4 2.9-2 3.1-1.3.1-2.2-.8-2.4-2.6-.2-1.9.7-2.9 2.1-3.2l.1 1.2c-1 .2-1.4.8-1.3 1.9.1 1.1.6 1.5 1.2 1.4.8-.1.9-.8 1.1-2.2.2-1.6.4-2.9 2.2-3.1 1.5-.1 2.5 1.1 2.6 2.8.2 2.4-.7 3.6-2.4 3.9zM54.4 194.2h-1.1v-.1c.1-.2.1-.4.1-.8 0-.5-.2-.8-1-1.1l-.8-.3-7.4 3.3-.1-1.3 4.7-2c.6-.3 1.5-.6 1.5-.6s-.9-.2-1.5-.4l-4.9-1.6.1-1.3 8.5 3c1.6.6 2 1.1 2 2.1 0 .5 0 .8-.1 1.1zM49.2 187.5v-1.2c1.3-.1 1.7-1 1.8-2.2 0-1.3-.5-1.8-1.2-1.8-.9 0-1.1.6-1.4 2-.3 1.5-.7 2.9-2.4 2.8-1.3 0-2.1-1-2.1-2.8 0-1.9 1-2.8 2.5-3v1.2c-1 .1-1.5.6-1.5 1.8 0 1.1.5 1.6 1.1 1.6.8 0 1-.7 1.3-2.1.3-1.5.7-2.8 2.5-2.8 1.6 0 2.3 1.3 2.3 3.1-.2 2.2-1.2 3.3-2.9 3.4zM44.1 180.3l.1-1.1-2.4-.1.1-1.2 2.4.1.1-1.5h1l-.1 1.5 5 .2c.5 0 .7-.3.8-.7 0-.2 0-.5-.1-.6h1c0 .3.1.6.1 1 0 1-.5 1.7-1.6 1.6l-5.3-.2-.1 1.1-1-.1zM48.1 175.9c-2.2-.2-3.9-1.8-3.7-4 .2-2.3 2.1-3.4 4.6-3.2l-.5 6c1.6 0 2.8-.7 3-2.2.1-1.1-.4-1.9-1.4-2.3l.1-1.2c1.6.5 2.5 1.8 2.3 3.5-.2 2.4-2.1 3.6-4.4 3.4zm-.5-1.3l.4-4.6c-1.5-.1-2.5.6-2.7 2-.1 1.4.9 2.3 2.3 2.6zM45.1 166.8l.2-1.2 1.1.2c-.7-.6-1.1-1.5-.9-2.4.1-.9.7-1.6 1.7-1.8-.8-.6-1.1-1.6-1-2.5.2-1.4 1.2-2.2 2.8-1.9l5.4.8-.2 1.2-5.3-.8c-.9-.1-1.6.4-1.7 1.2-.2 1 .6 2 1.8 2.2l4.8.7-.2 1.2-5.3-.8c-.9-.1-1.6.3-1.7 1.1-.1.9.5 2.1 1.7 2.3l4.8.7-.2 1.2-7.8-1.4zM45.6 148.2l.3-1.2 9.4 6.6-.3 1.2-9.4-6.6zM46.9 142.9l.4-1.3 9 2.8 1.6-5.4 1.2.4-2 6.6-10.2-3.1zM60.2 133.7c.4.7.7 1.6.3 2.9-.5 1.4-1.6 2.2-2.9 1.7-1.7-.6-1.6-2.1-1.2-4 .2-1.1.4-1.8-.4-2.1-.8-.3-1.5.1-1.9 1.2-.4 1.2-.1 2 .9 2.4l-.4 1.1c-1.4-.6-2.1-1.9-1.4-3.8.6-1.5 1.6-2.5 3.3-1.8l3.4 1.3c.6.2 1 .2 1.1-.5l.8.3c0 .2 0 .4-.1.7-.3.5-.8.7-1.5.6zm-1.7-.7l-1.2-.5c.1.5 0 1.2-.1 1.9-.2 1.2-.3 2.2.7 2.6 1 .4 1.5-.3 1.7-1.1.6-1.5-.3-2.6-1.1-2.9zM64.1 127l-1-.4c.5.8.7 1.6.2 2.6-.6 1.5-1.9 2-3.4 1.4l-4.9-2.1.5-1.1 4.9 2.1c.9.4 1.7 0 2.1-1 .5-1.1-.1-2.2-1.2-2.7l-4.4-1.9.5-1.1 7.1 3.1-.4 1.1zM59.7 120.4c-.4-.8-.5-1.7 0-2.8.7-1.4 1.9-1.9 3.4-1.2l4.9 2.4-.5 1.1-4.8-2.4c-.9-.4-1.7-.1-2.2.9-.5 1.1-.2 2.3 1 2.8l4.3 2.1-.5 1.1-6.9-3.4.5-1.1.8.5zM65.1 116.1c-2-1.1-2.8-3.2-1.7-5.3.9-1.6 2.4-2.1 4-1.6l-.6 1.1c-1-.4-1.9 0-2.5 1-.8 1.4 0 2.8 1.4 3.7s3.1.8 3.9-.7c.6-1.1.4-2.1-.6-2.8l.6-1c1.5 1.1 1.9 2.6.9 4.3-1.1 2-3.4 2.4-5.4 1.3zM67.4 106.3c-.3-.9-.3-1.8.3-2.7.9-1.4 2.1-1.7 3.5-.9l4.6 2.9-.6 1-4.5-2.9c-.8-.5-1.7-.3-2.3.6-.7 1-.4 2.3.7 2.9l4 2.6-.6 1-9-5.7.7-1 3.2 2.2zM75.7 101.4l.7-1c1.2.7 2 .2 2.7-.8.8-1 .6-1.8 0-2.2-.7-.5-1.2-.2-2.3.8-1.2 1-2.2 1.9-3.6.9-1-.8-1.1-2.1-.1-3.5 1.1-1.5 2.4-1.8 3.7-1l-.7 1c-.9-.5-1.6-.3-2.3.6-.7.9-.5 1.5 0 1.9.7.5 1.2 0 2.3-.9 1.2-1.1 2.2-1.9 3.7-.9 1.3.9 1.1 2.4.1 3.8-1.2 1.9-2.7 2.3-4.2 1.3zM75.8 92.6l.7-.9-1.9-1.5.8-.9 1.9 1.5.9-1.2.8.6-1 1.2 3.9 3.1c.4.3.7.2 1-.2.1-.2.3-.4.3-.6l.8.7c-.1.3-.3.5-.5.8-.6.8-1.4 1.1-2.2.4l-4.1-3.3-.7.9-.7-.6zM80.9 88.4c-.2-.9-.2-1.9.5-2.7.1-.2.2-.2.4-.3l.9.8c-.2.1-.3.2-.4.4-.8.9-.8 2.3.3 3.2l3.3 2.8-.9.9-5.9-5 .8-.9 1 .8zM90.5 85.7c.1.8 0 1.8-.9 2.7-1 1.1-2.3 1.4-3.4.5-1.3-1.2-.6-2.5.5-4.2.6-.9 1.1-1.5.5-2.1-.7-.6-1.5-.4-2.2.4-.9.9-.9 1.7-.1 2.6l-.8.9c-1.1-1-1.2-2.5.2-4 1.1-1.2 2.4-1.7 3.7-.4l2.7 2.5c.5.4.8.6 1.2 0l.6.6c-.1.1-.1.3-.4.6-.4.3-1 .4-1.6-.1zm-1.3-1.2l-1-.9c-.1.5-.4 1.1-.8 1.7-.7 1-1.2 1.9-.3 2.7.8.7 1.5.3 2-.3 1.1-1.3.7-2.6.1-3.2zM87.3 79.4l.8-.8-1.7-1.7.9-.9 1.7 1.7 1.1-1.1.7.7-1.1 1.1 3.5 3.6c.4.4.7.3 1.1 0 .2-.2.3-.4.4-.5l.7.7c-.2.2-.4.5-.6.8-.7.7-1.5.9-2.3.1l-3.7-3.8-.8.8-.7-.7zM93.3 78.9c-1.5-1.7-1.7-4 0-5.5 1.7-1.6 3.8-1.1 5.6.8l-4.4 4c1.1 1.1 2.6 1.4 3.7.4.8-.8 1-1.7.5-2.6l.9-.8c.9 1.5.6 3-.7 4.2-1.9 1.6-4.1 1.2-5.6-.5zm.5-1.3l3.4-3.1c-1.1-1.1-2.3-1.2-3.3-.3-1.1.9-.9 2.2-.1 3.4zM102.1 76.7l.9-.7c.6.6 1.5.3 2.4-.4 1.1-.9 1.3-1.9.5-2.9l-.7-.8c0 .9-.2 1.7-1 2.4-1.5 1.3-3.6.9-5-.8-1.5-1.9-1.2-3.9.1-5 .9-.7 1.7-.8 2.6-.6l-.6-.8.9-.8 4.6 5.7c1.3 1.6.8 3.2-.7 4.5-1.6 1-3 1.1-4 .2zm1.4-7.1c-1.1-1.3-2.3-1.7-3.6-.6-1.1.9-1 2.3.1 3.6 1.1 1.3 2.4 1.7 3.5.8 1.4-1.2 1.1-2.5 0-3.8zM109.6 73.2l-.6-.9c.2 0 .4-.1.8-.4.4-.3.6-.7.4-1.4l-.2-.8-6.9-4.3 1.1-.8 4.3 2.8c.6.4 1.3.9 1.3.9l-.5-1.5-1.4-4.9 1-.8 2.3 8.7c.4 1.7.2 2.3-.6 2.8-.4.4-.7.5-1 .6zM113.3 54.7l1.1-.7 2.2 11.3-1.1.7-2.2-11.3zM129.4 56.2c-.2 1.3-.9 2.4-2.2 3-2.6 1.4-5.5.4-7-2.5-1.5-2.8-1.1-5.8 1.9-7.4 2.2-1.2 4.2-.7 5.5 1l-1.2.7c-.9-1.1-2.2-1.4-3.7-.6-2.3 1.2-2.4 3.5-1.2 5.7 1.2 2.3 3.4 3.1 5.3 2.1s2.1-2.8 1.3-4.4l-.1-.2-2.8 1.5-.6-1 4-2.2 2.7 5-.8.4-1.1-1.1zM130.9 49.9c.1-.9.6-1.8 1.5-2.2.2-.1.3-.1.5-.1l.5 1.1c-.2 0-.3.1-.5.2-1.1.5-1.6 1.8-1 3.1l1.8 3.9-1.1.5-3.3-7 1.1-.5.5 1zM134.9 50.8c-.9-2.1-.2-4.3 1.9-5.2 2.1-.9 4.1.2 5 2.3s.3 4.3-1.9 5.2c-2.1.9-4.1-.2-5-2.3zm5.8-2.4c-.7-1.6-2-2.5-3.5-1.9s-1.8 2.2-1.1 3.8c.7 1.6 2 2.5 3.5 1.8 1.5-.5 1.7-2.1 1.1-3.7zM140.9 44.1l1.2-.4 2.8 4.1c.4.5.9 1.4.9 1.4s-.1-1-.2-1.7l-.3-5 1.2-.4 2.7 4.1c.4.5.9 1.4.9 1.4s-.1-1-.1-1.7l-.2-5 1.2-.4.1 8.1-1.2.4-2.7-4c-.4-.5-.9-1.4-.9-1.4s.1 1 .2 1.7l.3 4.8-1.2.4-4.7-6.4zM152 40.4l1.1-.3-.7-2.3 1.2-.3.7 2.3 1.4-.4.3.9-1.4.4 1.4 4.8c.1.5.5.6.9.5.2-.1.5-.2.6-.3l.3 1c-.3.1-.6.3-.9.4-.9.3-1.7.1-2-1l-1.4-5.1-1.1.3-.4-.9zM158.5 39.7c.4-.8 1-1.5 2.1-1.7 1.6-.4 2.7.3 3.1 1.8L165 45l-1.2.3-1.2-5.2c-.2-1-1-1.4-2.1-1.1-1.2.3-1.9 1.3-1.6 2.6l1.1 4.6-1.2.3-2.5-10.4 1.2-.3 1 3.9zM167.8 41.9l1.2-.2c.4 1.3 1.3 1.5 2.5 1.3 1.3-.2 1.7-.8 1.6-1.5-.1-.9-.8-1-2.2-1-1.6-.1-2.9-.1-3.2-1.8-.2-1.3.6-2.3 2.4-2.5 1.9-.3 3 .4 3.4 1.9l-1.2.2c-.3-1-.9-1.3-2-1.1-1.1.2-1.5.7-1.4 1.3.1.8.9.9 2.3.9 1.6.1 2.9.2 3.2 1.9.3 1.5-.9 2.5-2.6 2.8-2.3.3-3.6-.5-4-2.2zM174 35.6l1.1-.1-.3-2.4 1.2-.2.3 2.4 1.5-.2.1 1-1.5.2.6 5c.1.5.4.7.9.6.2 0 .5-.1.6-.2l.1 1c-.3.1-.6.2-1 .2-1 .1-1.7-.2-1.9-1.3l-.7-5.2-1.1.1.1-.9zM180.6 36.1c.4-.8 1.2-1.5 2.2-1.6h.5l.1 1.2h-.5c-1.2.1-2.1 1.1-2 2.5l.4 4.3-1.2.1-.7-7.7 1.2-.1v1.3zM189.3 40.9c-.4.6-1.2 1.3-2.5 1.4-1.5.1-2.6-.6-2.7-2-.1-1.8 1.3-2.3 3.2-2.7 1.1-.2 1.8-.4 1.8-1.2 0-.9-.7-1.3-1.8-1.3-1.3.1-1.9.6-1.8 1.8l-1.2.1c0-1.5.9-2.7 2.9-2.8 1.6-.1 2.9.5 3 2.3l.2 3.7c0 .6.2 1 .9.8v.9c-.1.1-.3.1-.7.2-.7-.1-1.1-.4-1.3-1.2zm0-1.8l-.1-1.3c-.4.3-1.1.5-1.7.7-1.2.3-2.2.5-2.1 1.7.1 1 .9 1.2 1.7 1.2 1.6-.2 2.2-1.4 2.2-2.3zM191.4 34.2h1.1v-2.4h1.2v2.4h1.5v1h-1.5l.1 5c0 .5.3.7.8.7.2 0 .5-.1.6-.1v1c-.3.1-.6.1-1 .1-1 0-1.7-.4-1.7-1.5l-.1-5.3h-1.1l.1-.9zM196.1 38c.1-2.2 1.6-4 3.8-4 2.3.1 3.5 1.9 3.4 4.5l-6-.2c0 1.6.9 2.8 2.4 2.8 1.1 0 1.9-.5 2.2-1.5h1.2c-.4 1.6-1.6 2.6-3.4 2.5-2.4 0-3.7-1.9-3.6-4.1zm1.3-.6l4.6.1c0-1.5-.8-2.5-2.2-2.5-1.4-.1-2.2 1-2.4 2.4zM204 42.5l1.1.1c0 .9.8 1.3 2 1.4 1.4.1 2.3-.5 2.4-1.8l.1-1.1c-.6.7-1.3 1.1-2.4 1-2-.2-3.2-1.9-3-4.1.2-2.4 1.8-3.7 3.6-3.5 1.1.1 1.8.6 2.3 1.4l.1-1 1.2.1-.6 7.3c-.2 2-1.6 2.9-3.6 2.7-2.1-.2-3.2-1.1-3.2-2.5zm5.9-4.1c.1-1.7-.5-2.8-2.1-2.9-1.4-.1-2.3.9-2.4 2.6-.1 1.7.5 2.8 2 3 1.7.2 2.4-1 2.5-2.7zM211.8 45.2l.1-1.1h.1c.2.1.4.2.8.3.5.1.9-.1 1.3-.8l.4-.7-2-7.8 1.3.2 1.1 5c.1.7.3 1.6.3 1.6l.7-1.4 2.4-4.5 1.3.2-4.4 7.8c-.8 1.5-1.5 1.7-2.4 1.6-.4-.1-.7-.2-1-.4zM227.3 34.5l1.2.2-6.3 9.6-1.2-.2 6.3-9.6zM232.6 35.7l4.4 1.2c1.1.3 1.8.8 2.2 1.6.3.5.4 1.2.2 1.9-.3 1.1-1.1 1.7-2.3 1.7 1.1.6 1.8 1.7 1.4 3.1-.2.8-.7 1.4-1.3 1.8-.7.5-1.7.6-2.8.3l-4.6-1.3 2.8-10.3zm2 10.4c.7.2 1.3.2 1.8-.1.4-.2.7-.6.8-1.1.4-1.3-.4-2.2-1.6-2.5l-3.2-.9-1 3.6 3.2 1zm1-4.8c1.3.3 2.2-.1 2.5-1.1.3-1-.2-1.8-1.4-2.1l-3.1-.9-.9 3.3 2.9.8zM243.4 50.2l.3-1c-.8.5-1.5.8-2.6.4-1.5-.5-2.2-1.7-1.6-3.3l1.7-5.1 1.1.4-1.7 5c-.3.9.1 1.7 1.1 2.1 1.2.4 2.2-.2 2.6-1.4l1.5-4.5 1.1.4-2.5 7.3-1-.3zM246.4 48.6l1.2.5c-.3 1.3.3 2 1.4 2.4 1.2.5 1.9.2 2.1-.5.3-.8-.1-1.2-1.4-2-1.3-.9-2.4-1.7-1.8-3.2.5-1.2 1.7-1.6 3.4-.9 1.8.7 2.3 1.9 1.9 3.4l-1.2-.5c.3-1-.1-1.6-1.1-2-1-.4-1.6-.1-1.9.4-.3.8.3 1.2 1.5 2 1.3.9 2.4 1.7 1.7 3.3-.6 1.4-2.1 1.7-3.7 1-1.9-.9-2.7-2.3-2.1-3.9zM255.6 46.7l1.1.5-3.1 7.1-1.1-.5 3.1-7.1zm1.1-2.7l1.1.5-.6 1.4-1.1-.5.6-1.4zM259 49.4c.8-.4 1.7-.5 2.8 0 1.5.7 2 1.9 1.3 3.4l-2.4 4.9-1.1-.5 2.3-4.8c.4-.9.1-1.7-.9-2.2-1.1-.5-2.3-.1-2.8 1l-2.1 4.3-1.1-.5 3.4-6.9 1.1.5-.5.8zM263.4 54.7c1.1-2 3.3-2.8 5.2-1.8 2 1.1 2.2 3.3 1 5.5l-5.2-2.9c-.7 1.4-.5 2.9.8 3.6 1 .5 1.9.4 2.6-.3l1 .6c-1.1 1.3-2.6 1.5-4.2.7-2-1.2-2.3-3.4-1.2-5.4zm1.4.1l4.1 2.3c.7-1.4.4-2.6-.8-3.3-1.2-.7-2.4-.2-3.3 1zM269.7 59.7l1.1.7c-.6 1.2 0 2 1 2.6 1.1.7 1.8.5 2.2-.1.5-.7.1-1.2-1-2.2-1.1-1.1-2.1-2.1-1.2-3.5.7-1.1 2-1.3 3.5-.3 1.6 1 1.9 2.3 1.3 3.7l-1.1-.7c.4-.9.2-1.6-.8-2.2-.9-.6-1.6-.4-1.9.1-.4.7.1 1.2 1.1 2.2 1.2 1.1 2.1 2.1 1.1 3.6-.8 1.3-2.3 1.3-3.8.4-1.9-1.3-2.4-2.7-1.5-4.3zM275.7 63.5l1 .7c-.6 1.2-.1 2 .8 2.7 1 .7 1.8.6 2.2 0 .5-.7.1-1.2-.9-2.3-1.1-1.1-2-2.2-1-3.5.7-1.1 2-1.2 3.5-.2 1.6 1.1 1.8 2.4 1.1 3.7l-1-.7c.5-.9.3-1.6-.7-2.2-.9-.6-1.6-.5-1.9 0-.5.7 0 1.2 1 2.2 1.1 1.1 2 2.2 1 3.6-.9 1.3-2.4 1.2-3.8.2-1.8-1.2-2.2-2.7-1.3-4.2zM287.2 65.3l.9.8-.7.9c.8-.3 1.8-.2 2.6.5.7.6 1 1.4.7 2.3.9-.4 2-.2 2.7.4 1.1.9 1.3 2.2.2 3.4l-3.4 4.2-.9-.8 3.4-4.1c.6-.7.5-1.6-.1-2.1-.8-.6-2-.5-2.8.4l-3.1 3.7-.9-.8 3.4-4.1c.6-.7.6-1.5-.1-2-.7-.6-2.1-.6-2.9.3l-3.1 3.7-.9-.8 5-5.9zM293.6 75.6c1.5-1.6 3.8-2 5.5-.4 1.7 1.6 1.5 3.9-.1 5.5s-3.8 2-5.5.4c-1.7-1.5-1.5-3.8.1-5.5zm4.5 4.3c1.2-1.2 1.5-2.8.3-3.9s-2.7-.7-3.9.5-1.5 2.8-.3 3.9 2.7.8 3.9-.5zM299.6 81.4c1.9-1.8 4-1.7 5.3-.3.7.8.9 1.8.7 2.6l2.9-2.8.8.9-7.8 7.3-.8-.9.7-.6c-.9.1-1.7-.1-2.5-.9-1.4-1.6-1.1-3.6.7-5.3zm4 4.3c1.3-1.2 1.6-2.7.5-3.9-1-1.1-2.5-.7-3.7.5-1.3 1.2-1.7 2.6-.7 3.7 1.2 1.2 2.7.9 3.9-.3zM305.3 87.4c1.7-1.4 4-1.5 5.5.2 1.5 1.8.9 3.9-1 5.5l-3.9-4.6c-1.1 1.1-1.5 2.5-.5 3.7.7.9 1.6 1.1 2.6.6l.8.9c-1.5.8-3 .5-4.1-.8-1.6-1.8-1.1-4 .6-5.5zm1.3.6l3 3.5c1.1-1.1 1.3-2.3.4-3.3-.9-1.1-2.2-1-3.4-.2zM316.1 89.7l.7 1-8.4 6.6-.7-1 8.4-6.6zM321.7 97.2l.7 1-11.2 2.7-.7-1 11.2-2.7zM324.7 101.7l2.3 3.8c.6 1 .7 1.9.5 2.7-.2.7-.7 1.3-1.4 1.7-1.7 1-3.3.7-4.5-1.3l-1.5-2.5-3.8 2.3-.7-1.1 9.1-5.6zm-3.6 3.8l1.5 2.4c.8 1.3 1.8 1.5 2.9.9 1.1-.7 1.3-1.7.5-2.9l-1.5-2.5-3.4 2.1zM326.3 112.7c.9.1 1.8.5 2.3 1.4.1.2.1.3.2.5l-1 .6c0-.2-.1-.3-.2-.5-.6-1-1.9-1.5-3.1-.8l-3.8 2.1-.6-1.1 6.8-3.7.6 1.1-1.2.4zM325.6 116.8c2-1 4.3-.5 5.3 1.5 1 2.1 0 4.1-2 5.1s-4.3.5-5.3-1.5 0-4.1 2-5.1zm2.8 5.5c1.5-.8 2.4-2.1 1.6-3.6-.7-1.5-2.3-1.6-3.9-.9s-2.4 2.1-1.6 3.6c.8 1.5 2.4 1.7 3.9.9zM333 123.1l.5 1.1-1 .4c1 .2 1.7.8 2.1 1.8.8 1.8-.1 3.6-2.4 4.6-2.3 1-4.2.4-5.1-1.5-.4-1-.4-1.8.1-2.7l-3.1 1.3-.5-1.1 9.4-3.9zm-1.3 6.9c1.6-.7 2.5-1.9 1.9-3.2-.7-1.6-2.2-1.7-3.8-1.1s-2.5 1.8-1.8 3.4c.6 1.4 2.1 1.6 3.7.9zM332.5 131.9c2.1-.8 4.3 0 5.1 2.1.8 2.2-.5 4.1-2.6 4.9-2.1.8-4.3.1-5.1-2.1-.7-2.2.5-4.2 2.6-4.9zm2.1 5.8c1.6-.6 2.6-1.8 2-3.4s-2.1-1.9-3.7-1.3c-1.6.6-2.6 1.8-2 3.4.6 1.6 2.1 1.9 3.7 1.3zM334 140.1l.4 1.2c-1.2.5-1.3 1.5-1 2.6.4 1.2 1 1.6 1.7 1.4.8-.2.9-.9.8-2.3-.1-1.6-.2-2.9 1.4-3.4 1.2-.4 2.3.3 2.8 2.1.6 1.8-.1 3-1.4 3.6l-.4-1.2c.9-.4 1.2-1.1.9-2.2-.3-1.1-.9-1.3-1.5-1.2-.8.2-.7 1-.6 2.4.1 1.6.2 2.9-1.5 3.4-1.5.4-2.6-.5-3.1-2.2-.7-2.2-.1-3.6 1.5-4.2zM341.2 146l.3 1.2-7.5 2-.3-1.2 7.5-2zm2.8-.7l.3 1.2-1.4.4-.3-1.2 1.4-.4zM341.8 148.4l.3 1.1 2.4-.6.3 1.2-2.4.6.3 1.5-1 .2-.3-1.5-4.9 1.2c-.5.1-.6.4-.5.9.1.2.2.5.2.6l-1 .2-.3-.9c-.2-1 0-1.8 1.1-2l5.1-1.2-.3-1.1 1-.2zM343 153.5l.2 1.2-7.6 1.6-.2-1.2 7.6-1.6zm2.9-.6l.2 1.2-1.5.3-.2-1.2 1.5-.3zM339.7 156.7c2.2-.4 4.2.7 4.6 3 .4 2.3-1.2 4-3.4 4.3-2.2.4-4.2-.7-4.6-3-.3-2.2 1.2-3.9 3.4-4.3zm1.1 6.2c1.7-.3 2.9-1.3 2.6-3-.3-1.6-1.8-2.2-3.4-1.9-1.7.3-2.9 1.3-2.6 3 .2 1.6 1.7 2.2 3.4 1.9zM344.1 166.2c.8.5 1.3 1.2 1.5 2.3.2 1.6-.6 2.7-2.2 2.9l-5.4.6-.1-1.2 5.3-.6c1-.1 1.5-.8 1.4-1.9-.1-1.2-1.1-2-2.4-1.9l-4.7.5-.1-1.2 7.7-.9.1 1.2-1.1.2zM349.1 180.6l.1 1.3-10.9-3.5-.1-1.3 10.9 3.5z"/></g></svg>