<?xml version="1.0" encoding="UTF-8"?><svg id="Layer_1" xmlns="http://www.w3.org/2000/svg" xmlns:xlink="http://www.w3.org/1999/xlink" viewBox="0 0 560.47 328.85"><defs><style>.cls-1,.cls-2,.cls-3,.cls-4,.cls-5{fill:none;}.cls-6{letter-spacing:-.01em;}.cls-7{letter-spacing:.02em;}.cls-8{stroke-width:4.99px;}.cls-8,.cls-9,.cls-10,.cls-11,.cls-12{fill:#1d1d1b;}.cls-8,.cls-11{stroke:#fff;}.cls-8,.cls-11,.cls-2,.cls-3,.cls-4,.cls-5{stroke-miterlimit:10;}.cls-13{clip-path:url(#clippath);}.cls-14{letter-spacing:0em;}.cls-15{letter-spacing:0em;}.cls-16{letter-spacing:0em;}.cls-17{letter-spacing:-.01em;}.cls-18{letter-spacing:0em;}.cls-10,.cls-12{font-family:MyriadPro-Regular, 'Myriad Pro';}.cls-19{letter-spacing:0em;}.cls-20{letter-spacing:0em;}.cls-11{stroke-width:2.75px;}.cls-21{letter-spacing:-.01em;}.cls-22{letter-spacing:0em;}.cls-23{font-size:9px;}.cls-24{letter-spacing:0em;}.cls-25{letter-spacing:-.02em;}.cls-26{letter-spacing:0em;}.cls-27{letter-spacing:0em;}.cls-28{letter-spacing:0em;}.cls-2,.cls-4,.cls-5{stroke:#1d1d1b;}.cls-29{letter-spacing:0em;}.cls-30{letter-spacing:-.01em;}.cls-31{letter-spacing:-.05em;}.cls-3{stroke:#c6c6c6;stroke-width:.62px;}.cls-4{stroke-dasharray:0 0 0 0 0 0 3 3 3 3 3 3;}.cls-32{letter-spacing:0em;}.cls-12,.cls-33{font-size:12px;}.cls-34{letter-spacing:0em;}.cls-35{letter-spacing:0em;}.cls-36{letter-spacing:0em;}.cls-37{letter-spacing:.01em;}.cls-38{letter-spacing:.01em;}.cls-39{letter-spacing:-.03em;}.cls-5{stroke-width:.5px;}</style><clipPath id="clippath"><polygon class="cls-1" points="63.89 274.54 248.97 50.49 413.15 118.68 63.89 274.54"/></clipPath></defs><text class="cls-12" transform="translate(21.03 303.34)"><tspan class="cls-17" x="0" y="0">C</tspan><tspan x="6.82" y="0">u</tspan><tspan class="cls-14" x="13.43" y="0">r</tspan><tspan class="cls-35" x="17.4" y="0">r</tspan><tspan x="21.2" y="0">e</tspan><tspan class="cls-36" x="27.22" y="0">n</tspan><tspan class="cls-22" x="33.83" y="0">t st</tspan><tspan class="cls-26" x="49.07" y="0">a</tspan><tspan class="cls-19" x="54.8" y="0">t</tspan><tspan x="58.7" y="0">e</tspan></text><text class="cls-12" transform="translate(222.17 31.8)"><tspan class="cls-39" x="0" y="0">F</tspan><tspan x="5.42" y="0">utu</tspan><tspan class="cls-6" x="22.62" y="0">r</tspan><tspan x="26.42" y="0">est</tspan><tspan class="cls-36" x="41.16" y="0">a</tspan><tspan class="cls-15" x="46.9" y="0">t</tspan><tspan x="50.8" y="0">e</tspan></text><text class="cls-12" transform="translate(327.51 68.31)"><tspan x="0" y="0">Oppo</tspan><tspan class="cls-7" x="28.51" y="0">r</tspan><tspan x="32.72" y="0">tuni</tspan><tspan class="cls-29" x="52.78" y="0">t</tspan><tspan x="56.85" y="0">y gap</tspan></text><g><path class="cls-9" d="M231.45,243.99c0,2.78-1.69,4.26-3.75,4.26s-3.63-1.65-3.63-4.1c0-2.57,1.6-4.25,3.75-4.25s3.63,1.69,3.63,4.09Zm-6.27,.13c0,1.73,.94,3.27,2.58,3.27s2.59-1.52,2.59-3.36c0-1.61-.84-3.29-2.58-3.29s-2.59,1.59-2.59,3.37Z"/><path class="cls-9" d="M232.77,244.2c0-.74-.02-1.34-.05-1.9h.95l.05,1h.02c.43-.71,1.12-1.13,2.06-1.13,1.4,0,2.46,1.19,2.46,2.95,0,2.09-1.27,3.12-2.64,3.12-.77,0-1.44-.34-1.79-.91h-.02v3.15h-1.04v-6.28Zm1.04,1.55c0,.16,.02,.3,.05,.43,.19,.73,.83,1.24,1.58,1.24,1.12,0,1.76-.91,1.76-2.24,0-1.16-.61-2.16-1.73-2.16-.72,0-1.39,.52-1.59,1.31-.04,.13-.07,.29-.07,.43v1Z"/><path class="cls-9" d="M240.18,245.4c.02,1.43,.94,2.01,1.99,2.01,.76,0,1.21-.13,1.61-.3l.18,.76c-.37,.17-1.01,.36-1.93,.36-1.79,0-2.85-1.18-2.85-2.93s1.03-3.13,2.72-3.13c1.89,0,2.4,1.67,2.4,2.73,0,.22-.02,.38-.04,.49h-4.08Zm3.09-.76c.01-.67-.28-1.71-1.46-1.71-1.07,0-1.54,.98-1.62,1.71h3.08Z"/><path class="cls-9" d="M245.61,244.12c0-.68-.01-1.27-.05-1.81h.92l.04,1.14h.05c.26-.78,.9-1.27,1.61-1.27,.12,0,.2,.01,.3,.04v1c-.11-.02-.22-.04-.36-.04-.74,0-1.27,.56-1.42,1.36-.02,.14-.05,.31-.05,.49v3.09h-1.04v-3.99Z"/><path class="cls-9" d="M252.69,248.11l-.08-.73h-.04c-.32,.46-.95,.86-1.78,.86-1.17,0-1.77-.83-1.77-1.67,0-1.4,1.25-2.17,3.49-2.16v-.12c0-.48-.13-1.34-1.32-1.34-.54,0-1.1,.17-1.51,.43l-.24-.7c.48-.31,1.17-.52,1.91-.52,1.78,0,2.21,1.21,2.21,2.37v2.17c0,.5,.02,1,.1,1.39h-.96Zm-.16-2.96c-1.15-.02-2.46,.18-2.46,1.31,0,.68,.46,1.01,1,1.01,.76,0,1.24-.48,1.4-.97,.04-.11,.06-.23,.06-.34v-1.01Z"/><path class="cls-9" d="M256.48,240.64v1.67h1.51v.8h-1.51v3.13c0,.72,.2,1.13,.79,1.13,.28,0,.48-.04,.61-.07l.05,.79c-.2,.08-.53,.14-.94,.14-.49,0-.89-.16-1.14-.44-.3-.31-.41-.83-.41-1.51v-3.17h-.9v-.8h.9v-1.39l1.03-.28Z"/><path class="cls-9" d="M260.36,240.68c.01,.36-.25,.65-.67,.65-.37,0-.64-.29-.64-.65s.28-.66,.66-.66,.65,.29,.65,.66Zm-1.17,7.44v-5.8h1.05v5.8h-1.05Z"/><path class="cls-9" d="M267.24,245.16c0,2.15-1.49,3.08-2.89,3.08-1.57,0-2.78-1.15-2.78-2.99,0-1.94,1.27-3.08,2.88-3.08s2.79,1.21,2.79,2.99Zm-4.61,.06c0,1.27,.73,2.23,1.76,2.23s1.76-.95,1.76-2.25c0-.98-.49-2.23-1.74-2.23s-1.79,1.15-1.79,2.25Z"/><path class="cls-9" d="M268.58,243.88c0-.6-.01-1.09-.05-1.57h.94l.06,.96h.02c.29-.55,.96-1.09,1.92-1.09,.8,0,2.05,.48,2.05,2.47v3.47h-1.05v-3.35c0-.94-.35-1.71-1.34-1.71-.7,0-1.24,.49-1.42,1.08-.05,.13-.07,.31-.07,.49v3.49h-1.05v-4.23Z"/><path class="cls-9" d="M278.45,248.11l-.08-.73h-.04c-.32,.46-.95,.86-1.78,.86-1.17,0-1.77-.83-1.77-1.67,0-1.4,1.25-2.17,3.49-2.16v-.12c0-.48-.13-1.34-1.32-1.34-.54,0-1.1,.17-1.51,.43l-.24-.7c.48-.31,1.17-.52,1.91-.52,1.78,0,2.21,1.21,2.21,2.37v2.17c0,.5,.02,1,.1,1.39h-.96Zm-.16-2.96c-1.15-.02-2.46,.18-2.46,1.31,0,.68,.46,1.01,1,1.01,.76,0,1.24-.48,1.4-.97,.04-.11,.06-.23,.06-.34v-1.01Z"/><path class="cls-9" d="M281.02,239.6h1.05v8.52h-1.05v-8.52Z"/><path class="cls-9" d="M287.57,240.68c.01,.36-.25,.65-.67,.65-.37,0-.64-.29-.64-.65s.28-.66,.66-.66,.65,.29,.65,.66Zm-1.17,7.44v-5.8h1.05v5.8h-1.05Z"/><path class="cls-9" d="M289.21,243.88c0-.6-.01-1.09-.05-1.57h.94l.06,.96h.02c.29-.55,.96-1.09,1.92-1.09,.8,0,2.05,.48,2.05,2.47v3.47h-1.05v-3.35c0-.94-.35-1.71-1.34-1.71-.7,0-1.24,.49-1.42,1.08-.05,.13-.07,.31-.07,.49v3.49h-1.05v-4.23Z"/><path class="cls-9" d="M295.97,248.11v-5h-.82v-.8h.82v-.25c0-.8,.28-1.52,.82-2,.46-.38,1.06-.59,1.86-.59,.67,0,1.31,.14,1.74,.38v8.26h-1.04v-7.68c-.18-.1-.46-.16-.86-.16-1.1,0-1.46,.8-1.46,1.74v.29h1.35v.8h-1.35v5h-1.04Z"/><path class="cls-9" d="M307,246.53c0,.6,.01,1.13,.05,1.58h-.94l-.06-.95h-.02c-.28,.47-.89,1.08-1.92,1.08-.91,0-2-.5-2-2.54v-3.39h1.05v3.21c0,1.1,.34,1.85,1.3,1.85,.71,0,1.2-.49,1.39-.96,.06-.16,.1-.35,.1-.54v-3.56h1.05v4.22Z"/><path class="cls-9" d="M309.34,245.4c.02,1.43,.94,2.01,1.99,2.01,.76,0,1.21-.13,1.61-.3l.18,.76c-.37,.17-1.01,.36-1.93,.36-1.79,0-2.85-1.18-2.85-2.93s1.03-3.13,2.72-3.13c1.89,0,2.4,1.67,2.4,2.73,0,.22-.02,.38-.04,.49h-4.08Zm3.09-.76c.01-.67-.28-1.71-1.46-1.71-1.07,0-1.54,.98-1.62,1.71h3.08Z"/><path class="cls-9" d="M314.77,243.88c0-.6-.01-1.09-.05-1.57h.94l.06,.96h.02c.29-.55,.96-1.09,1.92-1.09,.8,0,2.05,.48,2.05,2.47v3.47h-1.05v-3.35c0-.94-.35-1.71-1.34-1.71-.7,0-1.24,.49-1.42,1.08-.05,.13-.07,.31-.07,.49v3.49h-1.05v-4.23Z"/><path class="cls-9" d="M325.56,247.9c-.28,.14-.89,.34-1.67,.34-1.75,0-2.89-1.19-2.89-2.96s1.22-3.08,3.12-3.08c.62,0,1.17,.16,1.46,.3l-.24,.82c-.25-.14-.65-.28-1.22-.28-1.33,0-2.05,.98-2.05,2.19,0,1.34,.86,2.17,2.01,2.17,.6,0,1-.16,1.29-.29l.18,.79Z"/><path class="cls-9" d="M327.32,245.4c.02,1.43,.94,2.01,1.99,2.01,.76,0,1.21-.13,1.61-.3l.18,.76c-.37,.17-1.01,.36-1.93,.36-1.79,0-2.85-1.18-2.85-2.93s1.03-3.13,2.72-3.13c1.89,0,2.4,1.67,2.4,2.73,0,.22-.02,.38-.04,.49h-4.08Zm3.09-.76c.01-.67-.28-1.71-1.46-1.71-1.07,0-1.54,.98-1.62,1.71h3.08Z"/><path class="cls-9" d="M332.6,247.03c.31,.2,.86,.42,1.39,.42,.77,0,1.13-.38,1.13-.86,0-.5-.3-.78-1.08-1.07-1.04-.37-1.54-.95-1.54-1.64,0-.94,.76-1.7,2-1.7,.59,0,1.1,.17,1.43,.36l-.26,.77c-.23-.14-.65-.34-1.19-.34-.62,0-.97,.36-.97,.79,0,.48,.35,.7,1.1,.98,1.01,.38,1.52,.89,1.52,1.75,0,1.02-.79,1.74-2.17,1.74-.64,0-1.22-.16-1.63-.4l.26-.8Z"/><path class="cls-9" d="M337.24,243.27c0-.44,.3-.76,.72-.76s.7,.31,.71,.76c0,.42-.28,.74-.72,.74-.42,0-.71-.32-.71-.74Zm0,4.23c0-.44,.3-.76,.72-.76s.7,.31,.71,.76c0,.42-.28,.74-.72,.74-.42,0-.71-.32-.71-.74Z"/><path class="cls-9" d="M221.33,258.75c-.21,.11-.67,.25-1.25,.25-1.31,0-2.17-.89-2.17-2.22s.92-2.31,2.34-2.31c.47,0,.88,.12,1.1,.23l-.18,.61c-.19-.11-.49-.21-.92-.21-1,0-1.54,.74-1.54,1.65,0,1.01,.65,1.63,1.51,1.63,.45,0,.75-.12,.97-.22l.13,.59Z"/><path class="cls-9" d="M225.9,257.72c0,.45,0,.85,.04,1.19h-.7l-.04-.71h-.02c-.21,.35-.67,.81-1.44,.81-.68,0-1.5-.38-1.5-1.91v-2.55h.79v2.41c0,.83,.25,1.39,.97,1.39,.53,0,.9-.37,1.04-.72,.04-.12,.07-.26,.07-.41v-2.67h.79v3.17Z"/><path class="cls-9" d="M227.1,258.1c.23,.15,.65,.31,1.04,.31,.58,0,.85-.29,.85-.65s-.22-.58-.81-.8c-.78-.28-1.15-.71-1.15-1.23,0-.7,.57-1.28,1.5-1.28,.44,0,.83,.13,1.07,.27l-.2,.58c-.17-.11-.49-.25-.89-.25-.47,0-.73,.27-.73,.59,0,.36,.26,.52,.83,.74,.76,.29,1.14,.67,1.14,1.31,0,.77-.59,1.31-1.63,1.31-.48,0-.92-.12-1.22-.3l.2-.6Z"/><path class="cls-9" d="M231.73,253.3v1.25h1.13v.6h-1.13v2.35c0,.54,.15,.85,.59,.85,.21,0,.36-.03,.46-.05l.04,.59c-.15,.06-.4,.11-.7,.11-.37,0-.67-.12-.86-.33-.23-.23-.31-.62-.31-1.13v-2.38h-.67v-.6h.67v-1.04l.77-.21Z"/><path class="cls-9" d="M237.64,256.7c0,1.61-1.12,2.31-2.17,2.31-1.18,0-2.09-.86-2.09-2.24,0-1.46,.95-2.31,2.16-2.31s2.1,.91,2.1,2.24Zm-3.46,.05c0,.95,.55,1.67,1.32,1.67s1.32-.71,1.32-1.69c0-.74-.37-1.67-1.31-1.67s-1.34,.86-1.34,1.69Z"/><path class="cls-9" d="M238.64,255.73c0-.45,0-.82-.04-1.18h.69l.04,.7h.03c.24-.41,.65-.8,1.37-.8,.59,0,1.04,.36,1.23,.87h.02c.13-.24,.31-.43,.49-.57,.26-.2,.55-.31,.96-.31,.58,0,1.43,.38,1.43,1.89v2.57h-.77v-2.47c0-.84-.31-1.34-.95-1.34-.45,0-.8,.33-.94,.72-.04,.11-.06,.25-.06,.4v2.69h-.77v-2.61c0-.69-.31-1.2-.91-1.2-.5,0-.86,.4-.98,.79-.04,.12-.06,.25-.06,.39v2.63h-.77v-3.18Z"/><path class="cls-9" d="M246.59,256.88c.02,1.07,.7,1.51,1.49,1.51,.57,0,.91-.1,1.21-.23l.14,.57c-.28,.13-.76,.27-1.45,.27-1.34,0-2.14-.88-2.14-2.2s.77-2.35,2.04-2.35c1.42,0,1.8,1.25,1.8,2.05,0,.16-.02,.29-.03,.37h-3.06Zm2.32-.57c0-.5-.21-1.29-1.1-1.29-.8,0-1.15,.74-1.21,1.29h2.31Z"/><path class="cls-9" d="M250.66,255.91c0-.51,0-.95-.04-1.36h.69l.03,.86h.04c.2-.59,.68-.95,1.21-.95,.09,0,.15,0,.22,.03v.75c-.08-.02-.16-.03-.27-.03-.56,0-.96,.42-1.06,1.02-.02,.11-.04,.23-.04,.37v2.32h-.78v-3Z"/><path class="cls-9" d="M255.59,258.91v-3.75h-.61v-.6h.61v-.21c0-.61,.13-1.17,.5-1.52,.3-.29,.69-.4,1.06-.4,.28,0,.52,.06,.67,.13l-.11,.61c-.12-.05-.28-.1-.5-.1-.68,0-.85,.59-.85,1.26v.23h1.05v.6h-1.05v3.75h-.78Z"/><path class="cls-9" d="M258.46,256.88c.02,1.07,.7,1.51,1.49,1.51,.57,0,.91-.1,1.21-.23l.14,.57c-.28,.13-.76,.27-1.45,.27-1.34,0-2.14-.88-2.14-2.2s.77-2.35,2.04-2.35c1.42,0,1.8,1.25,1.8,2.05,0,.16-.02,.29-.03,.37h-3.06Zm2.32-.57c0-.5-.21-1.29-1.1-1.29-.8,0-1.15,.74-1.21,1.29h2.31Z"/><path class="cls-9" d="M262.97,256.88c.02,1.07,.7,1.51,1.49,1.51,.57,0,.91-.1,1.21-.23l.14,.57c-.28,.13-.76,.27-1.45,.27-1.34,0-2.14-.88-2.14-2.2s.77-2.35,2.04-2.35c1.42,0,1.8,1.25,1.8,2.05,0,.16-.02,.29-.03,.37h-3.06Zm2.32-.57c0-.5-.21-1.29-1.1-1.29-.8,0-1.15,.74-1.21,1.29h2.31Z"/><path class="cls-9" d="M270.8,252.52v5.27c0,.39,0,.83,.04,1.13h-.71l-.04-.76h-.02c-.24,.49-.77,.86-1.49,.86-1.05,0-1.86-.89-1.86-2.21,0-1.45,.89-2.34,1.95-2.34,.67,0,1.12,.32,1.31,.67h.02v-2.6h.79Zm-.79,3.81c0-.1,0-.23-.04-.33-.12-.5-.55-.92-1.14-.92-.82,0-1.3,.72-1.3,1.68,0,.88,.43,1.61,1.29,1.61,.53,0,1.02-.35,1.16-.95,.03-.11,.04-.22,.04-.34v-.76Z"/><path class="cls-9" d="M272.08,258.91c.02-.3,.04-.74,.04-1.13v-5.27h.78v2.74h.02c.28-.49,.78-.8,1.49-.8,1.08,0,1.84,.9,1.84,2.22,0,1.56-.98,2.33-1.95,2.33-.63,0-1.13-.24-1.46-.82h-.03l-.04,.72h-.68Zm.82-1.75c0,.1,.02,.2,.04,.29,.15,.55,.61,.93,1.19,.93,.83,0,1.32-.68,1.32-1.67,0-.87-.45-1.62-1.3-1.62-.54,0-1.04,.37-1.21,.97-.02,.09-.04,.2-.04,.32v.78Z"/><path class="cls-9" d="M279.65,258.91l-.06-.55h-.03c-.24,.34-.71,.65-1.33,.65-.88,0-1.33-.62-1.33-1.25,0-1.05,.94-1.63,2.62-1.62v-.09c0-.36-.1-1.01-.99-1.01-.41,0-.83,.13-1.13,.32l-.18-.52c.36-.23,.88-.39,1.43-.39,1.33,0,1.66,.91,1.66,1.78v1.63c0,.38,.02,.75,.07,1.04h-.72Zm-.12-2.22c-.86-.02-1.85,.14-1.85,.98,0,.51,.34,.76,.75,.76,.57,0,.93-.36,1.05-.73,.03-.08,.04-.17,.04-.25v-.76Z"/><path class="cls-9" d="M284.68,258.75c-.21,.11-.67,.25-1.25,.25-1.31,0-2.17-.89-2.17-2.22s.92-2.31,2.34-2.31c.47,0,.88,.12,1.1,.23l-.18,.61c-.19-.11-.49-.21-.92-.21-1,0-1.54,.74-1.54,1.65,0,1.01,.65,1.63,1.51,1.63,.45,0,.75-.12,.97-.22l.13,.59Z"/><path class="cls-9" d="M286.39,256.55h.02c.11-.15,.26-.34,.39-.5l1.28-1.5h.95l-1.68,1.79,1.92,2.57h-.96l-1.5-2.09-.41,.45v1.64h-.78v-6.39h.78v4.03Z"/><path class="cls-9" d="M289.44,260.02c.2-.53,.44-1.49,.54-2.15l.88-.09c-.21,.77-.6,1.76-.86,2.19l-.57,.05Z"/><path class="cls-9" d="M297.48,252.52v5.27c0,.39,0,.83,.04,1.13h-.71l-.04-.76h-.02c-.24,.49-.77,.86-1.49,.86-1.05,0-1.86-.89-1.86-2.21,0-1.45,.89-2.34,1.95-2.34,.67,0,1.12,.32,1.31,.67h.02v-2.6h.79Zm-.79,3.81c0-.1,0-.23-.04-.33-.12-.5-.55-.92-1.14-.92-.82,0-1.3,.72-1.3,1.68,0,.88,.43,1.61,1.29,1.61,.53,0,1.02-.35,1.16-.95,.03-.11,.04-.22,.04-.34v-.76Z"/><path class="cls-9" d="M301.21,258.91l-.06-.55h-.03c-.24,.34-.71,.65-1.33,.65-.88,0-1.33-.62-1.33-1.25,0-1.05,.94-1.63,2.62-1.62v-.09c0-.36-.1-1.01-.99-1.01-.41,0-.83,.13-1.13,.32l-.18-.52c.36-.23,.88-.39,1.43-.39,1.33,0,1.66,.91,1.66,1.78v1.63c0,.38,.02,.75,.07,1.04h-.72Zm-.12-2.22c-.86-.02-1.85,.14-1.85,.98,0,.51,.34,.76,.75,.76,.57,0,.93-.36,1.05-.73,.03-.08,.04-.17,.04-.25v-.76Z"/><path class="cls-9" d="M304.05,253.3v1.25h1.13v.6h-1.13v2.35c0,.54,.15,.85,.59,.85,.21,0,.36-.03,.46-.05l.04,.59c-.15,.06-.4,.11-.7,.11-.37,0-.67-.12-.86-.33-.23-.23-.31-.62-.31-1.13v-2.38h-.67v-.6h.67v-1.04l.77-.21Z"/><path class="cls-9" d="M308.49,258.91l-.06-.55h-.03c-.24,.34-.71,.65-1.33,.65-.88,0-1.33-.62-1.33-1.25,0-1.05,.94-1.63,2.62-1.62v-.09c0-.36-.1-1.01-.99-1.01-.41,0-.83,.13-1.13,.32l-.18-.52c.36-.23,.88-.39,1.43-.39,1.33,0,1.66,.91,1.66,1.78v1.63c0,.38,.02,.75,.07,1.04h-.72Zm-.12-2.22c-.86-.02-1.85,.14-1.85,.98,0,.51,.34,.76,.75,.76,.57,0,.93-.36,1.05-.73,.03-.08,.04-.17,.04-.25v-.76Z"/><path class="cls-9" d="M309.9,260.02c.2-.53,.44-1.49,.54-2.15l.88-.09c-.21,.77-.6,1.76-.86,2.19l-.57,.05Z"/><path class="cls-9" d="M314.27,258.91v-3.75h-.61v-.6h.61v-.23c0-1.15,.67-1.9,1.9-1.9,.41,0,.88,.13,1.11,.29l-.22,.6c-.19-.14-.53-.25-.92-.25-.84,0-1.08,.58-1.08,1.28v.22h2.53v4.36h-.78v-3.75h-1.75v3.75h-.78Z"/><path class="cls-9" d="M318.89,255.73c0-.45,0-.82-.04-1.18h.7l.04,.72h.02c.22-.41,.72-.82,1.44-.82,.6,0,1.54,.36,1.54,1.85v2.6h-.79v-2.51c0-.7-.26-1.29-1.01-1.29-.52,0-.93,.37-1.06,.81-.04,.1-.05,.23-.05,.37v2.62h-.79v-3.18Z"/><path class="cls-9" d="M326.3,258.91l-.06-.55h-.03c-.24,.34-.71,.65-1.33,.65-.88,0-1.33-.62-1.33-1.25,0-1.05,.94-1.63,2.62-1.62v-.09c0-.36-.1-1.01-.99-1.01-.41,0-.83,.13-1.13,.32l-.18-.52c.36-.23,.88-.39,1.43-.39,1.33,0,1.66,.91,1.66,1.78v1.63c0,.38,.02,.75,.07,1.04h-.72Zm-.12-2.22c-.86-.02-1.85,.14-1.85,.98,0,.51,.34,.76,.75,.76,.57,0,.93-.36,1.05-.73,.03-.08,.04-.17,.04-.25v-.76Z"/><path class="cls-9" d="M328.23,255.73c0-.45,0-.82-.04-1.18h.7l.04,.72h.02c.22-.41,.72-.82,1.44-.82,.6,0,1.54,.36,1.54,1.85v2.6h-.79v-2.51c0-.7-.26-1.29-1.01-1.29-.52,0-.93,.37-1.06,.81-.04,.1-.05,.23-.05,.37v2.62h-.79v-3.18Z"/><path class="cls-9" d="M336.33,258.75c-.21,.11-.67,.25-1.25,.25-1.31,0-2.17-.89-2.17-2.22s.92-2.31,2.34-2.31c.47,0,.88,.12,1.1,.23l-.18,.61c-.19-.11-.49-.21-.92-.21-1,0-1.54,.74-1.54,1.65,0,1.01,.65,1.63,1.51,1.63,.45,0,.75-.12,.97-.22l.13,.59Z"/><path class="cls-9" d="M338.14,253.33c0,.27-.19,.49-.5,.49-.28,0-.48-.22-.48-.49s.21-.5,.5-.5,.49,.22,.49,.5Zm-.88,5.58v-4.36h.79v4.36h-.79Z"/><path class="cls-9" d="M341.77,258.91l-.06-.55h-.03c-.24,.34-.71,.65-1.33,.65-.88,0-1.33-.62-1.33-1.25,0-1.05,.94-1.63,2.62-1.62v-.09c0-.36-.1-1.01-.99-1.01-.41,0-.83,.13-1.13,.32l-.18-.52c.36-.23,.88-.39,1.43-.39,1.33,0,1.66,.91,1.66,1.78v1.63c0,.38,.02,.75,.07,1.04h-.72Zm-.12-2.22c-.86-.02-1.85,.14-1.85,.98,0,.51,.34,.76,.75,.76,.57,0,.93-.36,1.05-.73,.03-.08,.04-.17,.04-.25v-.76Z"/><path class="cls-9" d="M343.7,252.52h.79v6.39h-.79v-6.39Z"/><path class="cls-9" d="M233.13,266.78c0-.56-.02-1.01-.04-1.42h.71l.04,.75h.02c.32-.53,.84-.85,1.55-.85,1.05,0,1.85,.89,1.85,2.21,0,1.57-.95,2.34-1.98,2.34-.58,0-1.08-.25-1.34-.68h-.02v2.37h-.78v-4.72Zm.78,1.16c0,.12,.02,.23,.04,.32,.14,.55,.62,.93,1.19,.93,.84,0,1.32-.68,1.32-1.68,0-.87-.46-1.62-1.3-1.62-.54,0-1.04,.39-1.2,.98-.03,.1-.05,.22-.05,.32v.75Z"/><path class="cls-9" d="M238.7,267.68c.02,1.07,.7,1.51,1.49,1.51,.57,0,.91-.1,1.21-.23l.14,.57c-.28,.13-.76,.27-1.45,.27-1.34,0-2.14-.88-2.14-2.2s.77-2.35,2.04-2.35c1.42,0,1.8,1.25,1.8,2.05,0,.16-.02,.29-.03,.37h-3.06Zm2.32-.57c0-.5-.21-1.29-1.1-1.29-.8,0-1.15,.74-1.21,1.29h2.31Z"/><path class="cls-9" d="M242.76,266.71c0-.51,0-.95-.04-1.36h.69l.03,.86h.04c.2-.59,.68-.95,1.21-.95,.09,0,.15,0,.22,.03v.75c-.08-.02-.16-.03-.27-.03-.56,0-.96,.42-1.06,1.02-.02,.11-.04,.23-.04,.37v2.32h-.78v-3Z"/><path class="cls-9" d="M246.06,269.71v-3.75h-.61v-.6h.61v-.21c0-.61,.13-1.17,.5-1.52,.3-.29,.69-.4,1.06-.4,.28,0,.52,.06,.67,.13l-.11,.61c-.12-.05-.28-.1-.5-.1-.68,0-.85,.59-.85,1.26v.23h1.05v.6h-1.05v3.75h-.78Z"/><path class="cls-9" d="M252.43,267.5c0,1.61-1.12,2.31-2.17,2.31-1.18,0-2.09-.86-2.09-2.24,0-1.46,.96-2.31,2.16-2.31s2.1,.91,2.1,2.24Zm-3.46,.05c0,.95,.55,1.67,1.32,1.67s1.32-.71,1.32-1.69c0-.74-.37-1.67-1.31-1.67s-1.34,.86-1.34,1.69Z"/><path class="cls-9" d="M253.43,266.71c0-.51,0-.95-.04-1.36h.69l.03,.86h.04c.2-.59,.68-.95,1.21-.95,.09,0,.15,0,.22,.03v.75c-.08-.02-.16-.03-.27-.03-.56,0-.96,.42-1.06,1.02-.02,.11-.04,.23-.04,.37v2.32h-.78v-3Z"/><path class="cls-9" d="M256.41,266.53c0-.45,0-.82-.04-1.18h.69l.04,.7h.03c.24-.41,.65-.8,1.37-.8,.59,0,1.04,.36,1.23,.87h.02c.13-.24,.31-.43,.49-.57,.26-.2,.55-.31,.96-.31,.58,0,1.43,.38,1.43,1.89v2.57h-.77v-2.47c0-.84-.31-1.34-.95-1.34-.45,0-.8,.33-.94,.72-.04,.11-.06,.25-.06,.4v2.69h-.77v-2.61c0-.69-.31-1.2-.91-1.2-.5,0-.86,.4-.98,.79-.04,.12-.06,.25-.06,.39v2.63h-.77v-3.18Z"/><path class="cls-9" d="M266.33,269.71l-.06-.55h-.03c-.24,.34-.71,.65-1.33,.65-.88,0-1.33-.62-1.33-1.25,0-1.05,.94-1.63,2.62-1.62v-.09c0-.36-.1-1.01-.99-1.01-.41,0-.83,.13-1.13,.32l-.18-.52c.36-.23,.88-.39,1.43-.39,1.33,0,1.66,.91,1.66,1.78v1.63c0,.38,.02,.75,.07,1.04h-.72Zm-.12-2.22c-.86-.02-1.85,.14-1.85,.98,0,.51,.34,.76,.75,.76,.57,0,.93-.36,1.05-.73,.03-.08,.04-.17,.04-.25v-.76Z"/><path class="cls-9" d="M268.25,266.53c0-.45,0-.82-.04-1.18h.7l.04,.72h.02c.22-.41,.72-.82,1.44-.82,.6,0,1.54,.36,1.54,1.85v2.6h-.79v-2.51c0-.7-.26-1.29-1.01-1.29-.52,0-.93,.37-1.06,.81-.04,.1-.05,.23-.05,.37v2.62h-.79v-3.18Z"/><path class="cls-9" d="M276.35,269.55c-.21,.11-.67,.25-1.25,.25-1.31,0-2.17-.89-2.17-2.22s.92-2.31,2.34-2.31c.47,0,.88,.12,1.1,.23l-.18,.61c-.19-.11-.49-.21-.92-.21-1,0-1.54,.74-1.54,1.65,0,1.01,.65,1.63,1.51,1.63,.45,0,.75-.12,.97-.22l.13,.59Z"/><path class="cls-9" d="M277.67,267.68c.02,1.07,.7,1.51,1.49,1.51,.57,0,.91-.1,1.21-.23l.14,.57c-.28,.13-.76,.27-1.45,.27-1.34,0-2.14-.88-2.14-2.2s.77-2.35,2.04-2.35c1.42,0,1.8,1.25,1.8,2.05,0,.16-.02,.29-.03,.37h-3.06Zm2.32-.57c0-.5-.21-1.29-1.1-1.29-.8,0-1.15,.74-1.21,1.29h2.31Z"/><path class="cls-9" d="M281.11,270.82c.2-.53,.44-1.49,.54-2.15l.88-.09c-.21,.77-.6,1.76-.86,2.19l-.57,.05Z"/><path class="cls-9" d="M288.5,269.55c-.21,.11-.67,.25-1.25,.25-1.31,0-2.17-.89-2.17-2.22s.92-2.31,2.34-2.31c.47,0,.88,.12,1.1,.23l-.18,.61c-.19-.11-.49-.21-.92-.21-1,0-1.54,.74-1.54,1.65,0,1.01,.65,1.63,1.51,1.63,.45,0,.75-.12,.97-.22l.13,.59Z"/><path class="cls-9" d="M293.32,267.5c0,1.61-1.12,2.31-2.17,2.31-1.18,0-2.09-.86-2.09-2.24,0-1.46,.96-2.31,2.16-2.31s2.1,.91,2.1,2.24Zm-3.46,.05c0,.95,.55,1.67,1.32,1.67s1.32-.71,1.32-1.69c0-.74-.37-1.67-1.31-1.67s-1.34,.86-1.34,1.69Z"/><path class="cls-9" d="M294.32,266.53c0-.45,0-.82-.04-1.18h.69l.04,.7h.03c.24-.41,.65-.8,1.37-.8,.59,0,1.04,.36,1.23,.87h.02c.13-.24,.31-.43,.49-.57,.26-.2,.55-.31,.96-.31,.58,0,1.43,.38,1.43,1.89v2.57h-.77v-2.47c0-.84-.31-1.34-.95-1.34-.45,0-.8,.33-.94,.72-.04,.11-.06,.25-.06,.4v2.69h-.77v-2.61c0-.69-.31-1.2-.91-1.2-.5,0-.86,.4-.98,.79-.04,.12-.06,.25-.06,.39v2.63h-.77v-3.18Z"/><path class="cls-9" d="M301.82,266.78c0-.56-.02-1.01-.04-1.42h.71l.04,.75h.02c.32-.53,.84-.85,1.55-.85,1.05,0,1.85,.89,1.85,2.21,0,1.57-.95,2.34-1.98,2.34-.58,0-1.08-.25-1.34-.68h-.02v2.37h-.78v-4.72Zm.78,1.16c0,.12,.02,.23,.04,.32,.14,.55,.62,.93,1.19,.93,.84,0,1.32-.68,1.32-1.68,0-.87-.46-1.62-1.3-1.62-.54,0-1.04,.39-1.2,.98-.03,.1-.05,.22-.05,.32v.75Z"/><path class="cls-9" d="M307.39,267.68c.02,1.07,.7,1.51,1.49,1.51,.57,0,.91-.1,1.21-.23l.14,.57c-.28,.13-.76,.27-1.45,.27-1.34,0-2.14-.88-2.14-2.2s.77-2.35,2.04-2.35c1.42,0,1.8,1.25,1.8,2.05,0,.16-.02,.29-.03,.37h-3.06Zm2.32-.57c0-.5-.21-1.29-1.1-1.29-.8,0-1.15,.74-1.21,1.29h2.31Z"/><path class="cls-9" d="M312.41,264.1v1.25h1.13v.6h-1.13v2.35c0,.54,.15,.85,.59,.85,.21,0,.36-.03,.46-.05l.04,.59c-.15,.06-.4,.11-.7,.11-.37,0-.67-.12-.86-.33-.23-.23-.31-.62-.31-1.13v-2.38h-.67v-.6h.67v-1.04l.77-.21Z"/><path class="cls-9" d="M315.31,264.13c0,.27-.19,.49-.5,.49-.28,0-.48-.22-.48-.49s.21-.5,.5-.5,.49,.22,.49,.5Zm-.88,5.58v-4.36h.79v4.36h-.79Z"/><path class="cls-9" d="M317.49,264.1v1.25h1.13v.6h-1.13v2.35c0,.54,.15,.85,.59,.85,.21,0,.36-.03,.46-.05l.04,.59c-.15,.06-.4,.11-.7,.11-.37,0-.67-.12-.86-.33-.23-.23-.31-.62-.31-1.13v-2.38h-.67v-.6h.67v-1.04l.77-.21Z"/><path class="cls-9" d="M323.4,267.5c0,1.61-1.12,2.31-2.17,2.31-1.18,0-2.09-.86-2.09-2.24,0-1.46,.95-2.31,2.16-2.31s2.1,.91,2.1,2.24Zm-3.46,.05c0,.95,.55,1.67,1.32,1.67s1.32-.71,1.32-1.69c0-.74-.37-1.67-1.31-1.67s-1.34,.86-1.34,1.69Z"/><path class="cls-9" d="M324.4,266.71c0-.51,0-.95-.04-1.36h.69l.03,.86h.04c.2-.59,.68-.95,1.21-.95,.09,0,.15,0,.22,.03v.75c-.08-.02-.16-.03-.27-.03-.56,0-.95,.42-1.06,1.02-.02,.11-.04,.23-.04,.37v2.32h-.78v-3Z"/><path class="cls-9" d="M327.24,268.9c.23,.15,.65,.31,1.04,.31,.58,0,.85-.29,.85-.65s-.22-.58-.81-.8c-.78-.28-1.15-.71-1.15-1.23,0-.7,.57-1.28,1.5-1.28,.44,0,.83,.13,1.07,.27l-.2,.58c-.17-.11-.49-.25-.89-.25-.47,0-.73,.27-.73,.59,0,.36,.26,.52,.83,.74,.76,.29,1.14,.67,1.14,1.31,0,.77-.59,1.31-1.63,1.31-.48,0-.92-.12-1.22-.3l.2-.6Z"/></g><g><path class="cls-9" d="M73.79,43.99h4.35v.88h-3.31v2.69h3.06v.86h-3.06v3.66h-1.04v-8.08Z"/><path class="cls-9" d="M84.04,50.49c0,.6,.01,1.13,.05,1.58h-.94l-.06-.95h-.02c-.28,.47-.89,1.08-1.92,1.08-.91,0-2-.5-2-2.54v-3.39h1.05v3.21c0,1.1,.34,1.85,1.3,1.85,.71,0,1.2-.49,1.39-.96,.06-.16,.1-.35,.1-.54v-3.56h1.05v4.22Z"/><path class="cls-9" d="M87.06,44.6v1.67h1.51v.8h-1.51v3.13c0,.72,.2,1.13,.79,1.13,.28,0,.48-.04,.61-.07l.05,.79c-.2,.08-.53,.14-.94,.14-.49,0-.89-.16-1.14-.44-.3-.31-.41-.83-.41-1.51v-3.17h-.9v-.8h.9v-1.39l1.03-.28Z"/><path class="cls-9" d="M94.62,50.49c0,.6,.01,1.13,.05,1.58h-.94l-.06-.95h-.02c-.28,.47-.89,1.08-1.92,1.08-.91,0-2-.5-2-2.54v-3.39h1.05v3.21c0,1.1,.34,1.85,1.3,1.85,.71,0,1.2-.49,1.39-.96,.06-.16,.1-.35,.1-.54v-3.56h1.05v4.22Z"/><path class="cls-9" d="M96.38,48.08c0-.68-.01-1.27-.05-1.81h.92l.04,1.14h.05c.26-.78,.9-1.27,1.61-1.27,.12,0,.2,.01,.3,.04v1c-.11-.02-.22-.04-.36-.04-.74,0-1.27,.56-1.42,1.36-.02,.14-.05,.31-.05,.49v3.09h-1.04v-3.99Z"/><path class="cls-9" d="M100.77,49.36c.02,1.43,.94,2.01,1.99,2.01,.76,0,1.21-.13,1.61-.3l.18,.76c-.37,.17-1.01,.36-1.93,.36-1.79,0-2.85-1.18-2.85-2.93s1.03-3.13,2.72-3.13c1.89,0,2.4,1.67,2.4,2.73,0,.22-.02,.38-.04,.49h-4.08Zm3.09-.76c.01-.67-.28-1.71-1.46-1.71-1.07,0-1.54,.98-1.62,1.71h3.08Z"/><path class="cls-9" d="M106.05,50.99c.31,.2,.86,.42,1.39,.42,.77,0,1.13-.38,1.13-.86,0-.5-.3-.78-1.08-1.07-1.04-.37-1.54-.95-1.54-1.64,0-.94,.76-1.7,2-1.7,.59,0,1.1,.17,1.43,.36l-.26,.77c-.23-.14-.65-.34-1.19-.34-.62,0-.97,.36-.97,.79,0,.48,.35,.7,1.1,.98,1.01,.38,1.52,.89,1.52,1.75,0,1.02-.79,1.74-2.17,1.74-.64,0-1.22-.16-1.63-.4l.26-.8Z"/><path class="cls-9" d="M112.21,44.6v1.67h1.51v.8h-1.51v3.13c0,.72,.2,1.13,.79,1.13,.28,0,.48-.04,.61-.07l.05,.79c-.2,.08-.53,.14-.94,.14-.49,0-.89-.16-1.14-.44-.3-.31-.41-.83-.41-1.51v-3.17h-.9v-.8h.9v-1.39l1.03-.28Z"/><path class="cls-9" d="M118.13,52.07l-.08-.73h-.04c-.32,.46-.95,.86-1.78,.86-1.17,0-1.77-.83-1.77-1.67,0-1.4,1.25-2.17,3.49-2.16v-.12c0-.48-.13-1.34-1.32-1.34-.54,0-1.1,.17-1.51,.43l-.24-.7c.48-.31,1.17-.52,1.91-.52,1.78,0,2.21,1.21,2.21,2.37v2.17c0,.5,.02,1,.1,1.39h-.96Zm-.16-2.96c-1.15-.02-2.46,.18-2.46,1.31,0,.68,.46,1.01,1,1.01,.76,0,1.24-.48,1.4-.97,.04-.11,.06-.23,.06-.34v-1.01Z"/><path class="cls-9" d="M121.92,44.6v1.67h1.51v.8h-1.51v3.13c0,.72,.2,1.13,.79,1.13,.28,0,.48-.04,.61-.07l.05,.79c-.2,.08-.53,.14-.94,.14-.49,0-.89-.16-1.14-.44-.3-.31-.41-.83-.41-1.51v-3.17h-.9v-.8h.9v-1.39l1.03-.28Z"/><path class="cls-9" d="M125.14,49.36c.02,1.43,.94,2.01,1.99,2.01,.76,0,1.21-.13,1.61-.3l.18,.76c-.37,.17-1.01,.36-1.93,.36-1.79,0-2.85-1.18-2.85-2.93s1.03-3.13,2.72-3.13c1.89,0,2.4,1.67,2.4,2.73,0,.22-.02,.38-.04,.49h-4.08Zm3.09-.76c.01-.67-.28-1.71-1.46-1.71-1.07,0-1.54,.98-1.62,1.71h3.08Z"/><path class="cls-9" d="M134.28,44.63c.01,.36-.25,.65-.67,.65-.37,0-.64-.29-.64-.65s.28-.66,.66-.66,.65,.29,.65,.66Zm-1.17,7.44v-5.8h1.05v5.8h-1.05Z"/><path class="cls-9" d="M135.91,47.84c0-.6-.01-1.09-.05-1.57h.94l.06,.96h.02c.29-.55,.96-1.09,1.92-1.09,.8,0,2.05,.48,2.05,2.47v3.47h-1.05v-3.35c0-.94-.35-1.71-1.34-1.71-.7,0-1.24,.49-1.42,1.08-.05,.13-.07,.31-.07,.49v3.49h-1.05v-4.23Z"/><path class="cls-9" d="M142.68,52.07v-5h-.82v-.8h.82v-.25c0-.8,.28-1.52,.82-2,.46-.38,1.06-.59,1.86-.59,.67,0,1.31,.14,1.74,.38v8.26h-1.04v-7.68c-.18-.1-.46-.16-.86-.16-1.1,0-1.46,.8-1.46,1.74v.29h1.35v.8h-1.35v5h-1.04Z"/><path class="cls-9" d="M153.71,50.49c0,.6,.01,1.13,.05,1.58h-.94l-.06-.95h-.02c-.28,.47-.89,1.08-1.92,1.08-.91,0-2-.5-2-2.54v-3.39h1.05v3.21c0,1.1,.34,1.85,1.3,1.85,.71,0,1.2-.49,1.39-.96,.06-.16,.1-.35,.1-.54v-3.56h1.05v4.22Z"/><path class="cls-9" d="M156.05,49.36c.02,1.43,.94,2.01,1.99,2.01,.76,0,1.21-.13,1.61-.3l.18,.76c-.37,.17-1.01,.36-1.93,.36-1.79,0-2.85-1.18-2.85-2.93s1.03-3.13,2.72-3.13c1.89,0,2.4,1.67,2.4,2.73,0,.22-.02,.38-.04,.49h-4.08Zm3.09-.76c.01-.67-.28-1.71-1.46-1.71-1.07,0-1.54,.98-1.62,1.71h3.08Z"/><path class="cls-9" d="M161.48,47.84c0-.6-.01-1.09-.05-1.57h.94l.06,.96h.02c.29-.55,.96-1.09,1.92-1.09,.8,0,2.05,.48,2.05,2.47v3.47h-1.05v-3.35c0-.94-.35-1.71-1.34-1.71-.7,0-1.24,.49-1.42,1.08-.05,.13-.07,.31-.07,.49v3.49h-1.05v-4.23Z"/><path class="cls-9" d="M172.27,51.86c-.28,.14-.89,.34-1.67,.34-1.75,0-2.89-1.19-2.89-2.96s1.22-3.08,3.12-3.08c.62,0,1.17,.16,1.46,.3l-.24,.82c-.25-.14-.65-.28-1.22-.28-1.33,0-2.05,.98-2.05,2.19,0,1.34,.86,2.17,2.01,2.17,.6,0,1-.16,1.29-.29l.18,.79Z"/><path class="cls-9" d="M174.03,49.36c.02,1.43,.94,2.01,1.99,2.01,.76,0,1.21-.13,1.61-.3l.18,.76c-.37,.17-1.01,.36-1.93,.36-1.79,0-2.85-1.18-2.85-2.93s1.03-3.13,2.72-3.13c1.89,0,2.4,1.67,2.4,2.73,0,.22-.02,.38-.04,.49h-4.08Zm3.09-.76c.01-.67-.28-1.71-1.46-1.71-1.07,0-1.54,.98-1.62,1.71h3.08Z"/><path class="cls-9" d="M179.31,50.99c.31,.2,.86,.42,1.39,.42,.77,0,1.13-.38,1.13-.86,0-.5-.3-.78-1.08-1.07-1.04-.37-1.54-.95-1.54-1.64,0-.94,.76-1.7,2-1.7,.59,0,1.1,.17,1.43,.36l-.26,.77c-.23-.14-.65-.34-1.19-.34-.62,0-.97,.36-.97,.79,0,.48,.35,.7,1.1,.98,1.01,.38,1.52,.89,1.52,1.75,0,1.02-.79,1.74-2.17,1.74-.64,0-1.22-.16-1.63-.4l.26-.8Z"/><path class="cls-9" d="M183.95,47.23c0-.44,.3-.76,.72-.76s.7,.31,.71,.76c0,.42-.28,.74-.72,.74-.42,0-.71-.32-.71-.74Zm0,4.23c0-.44,.3-.76,.72-.76s.7,.31,.71,.76c0,.42-.28,.74-.72,.74-.42,0-.71-.32-.71-.74Z"/><path class="cls-9" d="M72.9,59.69c0-.45,0-.82-.04-1.18h.7l.04,.72h.02c.22-.41,.72-.82,1.44-.82,.6,0,1.54,.36,1.54,1.85v2.6h-.79v-2.51c0-.7-.26-1.29-1.01-1.29-.52,0-.93,.37-1.06,.81-.04,.1-.05,.23-.05,.37v2.62h-.79v-3.18Z"/><path class="cls-9" d="M78.33,60.84c.02,1.07,.7,1.51,1.49,1.51,.57,0,.91-.1,1.21-.23l.14,.57c-.28,.13-.76,.27-1.45,.27-1.34,0-2.14-.88-2.14-2.2s.77-2.35,2.04-2.35c1.42,0,1.8,1.25,1.8,2.05,0,.16-.02,.29-.03,.37h-3.06Zm2.32-.57c0-.5-.21-1.29-1.1-1.29-.8,0-1.15,.74-1.21,1.29h2.31Z"/><path class="cls-9" d="M82.72,58.51l.58,2.21c.13,.49,.24,.94,.32,1.39h.03c.1-.44,.24-.91,.39-1.38l.71-2.22h.67l.67,2.18c.16,.52,.29,.98,.39,1.42h.03c.07-.44,.19-.9,.33-1.41l.62-2.19h.78l-1.4,4.36h-.72l-.67-2.08c-.15-.49-.28-.92-.39-1.43h-.02c-.11,.52-.24,.97-.4,1.44l-.7,2.07h-.72l-1.31-4.36h.81Z"/><path class="cls-9" d="M94.04,62.71c-.21,.11-.67,.25-1.25,.25-1.31,0-2.17-.89-2.17-2.22s.92-2.31,2.34-2.31c.47,0,.88,.12,1.1,.23l-.18,.61c-.19-.11-.49-.21-.92-.21-1,0-1.54,.74-1.54,1.65,0,1.01,.65,1.63,1.51,1.63,.45,0,.75-.12,.97-.22l.13,.59Z"/><path class="cls-9" d="M98.86,60.66c0,1.61-1.12,2.31-2.17,2.31-1.18,0-2.09-.86-2.09-2.24,0-1.46,.96-2.31,2.16-2.31s2.1,.91,2.1,2.24Zm-3.46,.05c0,.95,.55,1.67,1.32,1.67s1.32-.71,1.32-1.69c0-.74-.37-1.67-1.31-1.67s-1.34,.86-1.34,1.69Z"/><path class="cls-9" d="M99.85,59.69c0-.45,0-.82-.04-1.18h.7l.04,.72h.02c.22-.41,.72-.82,1.44-.82,.6,0,1.54,.36,1.54,1.85v2.6h-.79v-2.51c0-.7-.26-1.29-1.01-1.29-.52,0-.93,.37-1.06,.81-.04,.1-.05,.23-.05,.37v2.62h-.79v-3.18Z"/><path class="cls-9" d="M107.95,62.71c-.21,.11-.67,.25-1.25,.25-1.31,0-2.17-.89-2.17-2.22s.92-2.31,2.34-2.31c.47,0,.88,.12,1.1,.23l-.18,.61c-.19-.11-.49-.21-.92-.21-1,0-1.54,.74-1.54,1.65,0,1.01,.65,1.63,1.51,1.63,.45,0,.75-.12,.97-.22l.13,.59Z"/><path class="cls-9" d="M109.27,60.84c.02,1.07,.7,1.51,1.49,1.51,.57,0,.91-.1,1.21-.23l.14,.57c-.28,.13-.76,.27-1.45,.27-1.34,0-2.14-.88-2.14-2.2s.77-2.35,2.04-2.35c1.42,0,1.8,1.25,1.8,2.05,0,.16-.02,.29-.03,.37h-3.06Zm2.32-.57c0-.5-.21-1.29-1.1-1.29-.8,0-1.15,.74-1.21,1.29h2.31Z"/><path class="cls-9" d="M113.34,59.94c0-.56-.02-1.01-.04-1.42h.71l.04,.75h.02c.32-.53,.84-.85,1.55-.85,1.05,0,1.85,.89,1.85,2.21,0,1.57-.95,2.34-1.98,2.34-.58,0-1.08-.25-1.34-.68h-.02v2.37h-.78v-4.72Zm.78,1.16c0,.12,.02,.23,.04,.32,.14,.55,.62,.93,1.19,.93,.84,0,1.32-.68,1.32-1.68,0-.87-.46-1.62-1.3-1.62-.54,0-1.04,.39-1.2,.98-.03,.1-.05,.22-.05,.32v.75Z"/><path class="cls-9" d="M119.41,57.26v1.25h1.13v.6h-1.13v2.35c0,.54,.15,.85,.59,.85,.21,0,.36-.03,.46-.05l.04,.59c-.15,.06-.4,.11-.7,.11-.37,0-.67-.12-.86-.33-.23-.23-.31-.62-.31-1.13v-2.38h-.67v-.6h.67v-1.04l.77-.21Z"/><path class="cls-9" d="M121.33,62.06c.23,.15,.65,.31,1.04,.31,.58,0,.85-.29,.85-.65s-.22-.58-.81-.8c-.78-.28-1.15-.71-1.15-1.23,0-.7,.57-1.28,1.5-1.28,.44,0,.83,.13,1.07,.27l-.2,.58c-.17-.11-.49-.25-.89-.25-.47,0-.73,.27-.73,.59,0,.36,.26,.52,.83,.74,.76,.29,1.14,.67,1.14,1.31,0,.77-.59,1.31-1.63,1.31-.48,0-.92-.12-1.22-.3l.2-.6Z"/><path class="cls-9" d="M124.39,63.98c.2-.53,.44-1.49,.54-2.15l.88-.09c-.21,.77-.6,1.76-.86,2.19l-.57,.05Z"/><path class="cls-9" d="M128.67,56.48h.79v6.39h-.79v-6.39Z"/><path class="cls-9" d="M133.21,62.87l-.06-.55h-.03c-.24,.34-.71,.65-1.33,.65-.88,0-1.33-.62-1.33-1.25,0-1.05,.94-1.63,2.62-1.62v-.09c0-.36-.1-1.01-.99-1.01-.41,0-.83,.13-1.13,.32l-.18-.52c.36-.23,.88-.39,1.43-.39,1.33,0,1.66,.91,1.66,1.78v1.63c0,.38,.02,.75,.07,1.04h-.72Zm-.12-2.22c-.86-.02-1.85,.14-1.85,.98,0,.51,.34,.76,.75,.76,.57,0,.93-.36,1.05-.73,.03-.08,.04-.17,.04-.25v-.76Z"/><path class="cls-9" d="M136.05,57.26v1.25h1.13v.6h-1.13v2.35c0,.54,.15,.85,.59,.85,.21,0,.36-.03,.46-.05l.04,.59c-.15,.06-.4,.11-.7,.11-.37,0-.67-.12-.86-.33-.23-.23-.31-.62-.31-1.13v-2.38h-.67v-.6h.67v-1.04l.77-.21Z"/><path class="cls-9" d="M138.46,60.84c.02,1.07,.7,1.51,1.49,1.51,.57,0,.91-.1,1.21-.23l.14,.57c-.28,.13-.76,.27-1.45,.27-1.34,0-2.14-.88-2.14-2.2s.77-2.35,2.04-2.35c1.42,0,1.8,1.25,1.8,2.05,0,.16-.02,.29-.03,.37h-3.06Zm2.32-.57c0-.5-.21-1.29-1.1-1.29-.8,0-1.15,.74-1.21,1.29h2.31Z"/><path class="cls-9" d="M142.53,59.87c0-.51,0-.95-.04-1.36h.69l.03,.86h.04c.2-.59,.68-.95,1.21-.95,.09,0,.15,0,.22,.03v.75c-.08-.02-.16-.03-.27-.03-.56,0-.96,.42-1.06,1.02-.02,.11-.04,.23-.04,.37v2.32h-.78v-3Z"/><path class="cls-9" d="M147.84,62.87l-.06-.55h-.03c-.24,.34-.71,.65-1.33,.65-.88,0-1.33-.62-1.33-1.25,0-1.05,.94-1.63,2.62-1.62v-.09c0-.36-.1-1.01-.99-1.01-.41,0-.83,.13-1.13,.32l-.18-.52c.36-.23,.88-.39,1.43-.39,1.33,0,1.66,.91,1.66,1.78v1.63c0,.38,.02,.75,.07,1.04h-.72Zm-.12-2.22c-.86-.02-1.85,.14-1.85,.98,0,.51,.34,.76,.75,.76,.57,0,.93-.36,1.05-.73,.03-.08,.04-.17,.04-.25v-.76Z"/><path class="cls-9" d="M149.77,56.48h.79v6.39h-.79v-6.39Z"/><path class="cls-9" d="M154.75,57.26v1.25h1.13v.6h-1.13v2.35c0,.54,.15,.85,.59,.85,.21,0,.36-.03,.46-.05l.04,.59c-.15,.06-.4,.11-.7,.11-.37,0-.67-.12-.86-.33-.23-.23-.31-.62-.31-1.13v-2.38h-.67v-.6h.67v-1.04l.77-.21Z"/><path class="cls-9" d="M156.78,56.48h.79v2.72h.02c.13-.22,.32-.42,.57-.56,.23-.13,.51-.23,.81-.23,.58,0,1.52,.36,1.52,1.86v2.59h-.79v-2.5c0-.7-.26-1.3-1.01-1.3-.51,0-.92,.36-1.06,.79-.05,.11-.05,.23-.05,.38v2.63h-.79v-6.39Z"/><path class="cls-9" d="M162.66,57.29c0,.27-.19,.49-.5,.49-.28,0-.48-.22-.48-.49s.21-.5,.5-.5,.49,.22,.49,.5Zm-.88,5.58v-4.36h.79v4.36h-.79Z"/><path class="cls-9" d="M163.88,59.69c0-.45,0-.82-.04-1.18h.7l.04,.72h.02c.22-.41,.72-.82,1.44-.82,.6,0,1.54,.36,1.54,1.85v2.6h-.79v-2.51c0-.7-.26-1.29-1.01-1.29-.52,0-.93,.37-1.06,.81-.04,.1-.05,.23-.05,.37v2.62h-.79v-3.18Z"/><path class="cls-9" d="M169.66,60.51h.02c.11-.15,.26-.34,.39-.5l1.28-1.5h.95l-1.68,1.79,1.92,2.57h-.96l-1.5-2.09-.41,.45v1.64h-.78v-6.39h.78v4.03Z"/><path class="cls-9" d="M174.13,57.29c0,.27-.19,.49-.5,.49-.28,0-.48-.22-.48-.49s.21-.5,.5-.5,.49,.22,.49,.5Zm-.88,5.58v-4.36h.79v4.36h-.79Z"/><path class="cls-9" d="M175.35,59.69c0-.45,0-.82-.04-1.18h.7l.04,.72h.02c.22-.41,.72-.82,1.44-.82,.6,0,1.54,.36,1.54,1.85v2.6h-.79v-2.51c0-.7-.26-1.29-1.01-1.29-.52,0-.93,.37-1.06,.81-.04,.1-.05,.23-.05,.37v2.62h-.79v-3.18Z"/><path class="cls-9" d="M184.1,58.51c-.02,.32-.04,.67-.04,1.2v2.53c0,1-.2,1.61-.62,1.99-.42,.4-1.04,.52-1.58,.52s-1.1-.13-1.45-.36l.2-.6c.29,.18,.74,.34,1.28,.34,.81,0,1.4-.42,1.4-1.52v-.49h-.02c-.24,.4-.71,.73-1.39,.73-1.08,0-1.85-.92-1.85-2.12,0-1.48,.96-2.31,1.96-2.31,.76,0,1.17,.4,1.36,.76h.02l.04-.66h.69Zm-.82,1.72c0-.14,0-.25-.04-.36-.14-.46-.53-.84-1.11-.84-.76,0-1.3,.64-1.3,1.65,0,.85,.43,1.57,1.29,1.57,.49,0,.93-.31,1.1-.81,.04-.13,.06-.29,.06-.42v-.78Z"/><path class="cls-9" d="M184.73,63.98c.2-.53,.44-1.49,.54-2.15l.88-.09c-.21,.77-.6,1.76-.86,2.19l-.57,.05Z"/><path class="cls-9" d="M67.38,70.74c0-.56-.02-1.01-.04-1.42h.71l.04,.75h.02c.32-.53,.84-.85,1.55-.85,1.05,0,1.85,.89,1.85,2.21,0,1.57-.95,2.34-1.98,2.34-.58,0-1.08-.25-1.34-.68h-.02v2.37h-.78v-4.72Zm.78,1.16c0,.12,.02,.23,.04,.32,.14,.55,.62,.93,1.19,.93,.84,0,1.32-.68,1.32-1.68,0-.87-.46-1.62-1.3-1.62-.54,0-1.04,.39-1.2,.98-.03,.1-.05,.22-.05,.32v.75Z"/><path class="cls-9" d="M74.91,73.67l-.06-.55h-.03c-.24,.34-.71,.65-1.33,.65-.88,0-1.33-.62-1.33-1.25,0-1.05,.94-1.63,2.62-1.62v-.09c0-.36-.1-1.01-.99-1.01-.41,0-.83,.13-1.13,.32l-.18-.52c.36-.23,.88-.39,1.43-.39,1.33,0,1.66,.91,1.66,1.78v1.63c0,.38,.02,.75,.07,1.04h-.72Zm-.12-2.22c-.86-.02-1.85,.14-1.85,.98,0,.51,.34,.76,.75,.76,.57,0,.93-.36,1.05-.73,.03-.08,.04-.17,.04-.25v-.76Z"/><path class="cls-9" d="M76.84,70.67c0-.51,0-.95-.04-1.36h.69l.03,.86h.04c.2-.59,.68-.95,1.21-.95,.09,0,.15,0,.22,.03v.75c-.08-.02-.16-.03-.27-.03-.56,0-.95,.42-1.06,1.02-.02,.11-.04,.23-.04,.37v2.32h-.78v-3Z"/><path class="cls-9" d="M82.15,73.67l-.06-.55h-.03c-.24,.34-.71,.65-1.33,.65-.88,0-1.33-.62-1.33-1.25,0-1.05,.94-1.63,2.62-1.62v-.09c0-.36-.1-1.01-.99-1.01-.41,0-.83,.13-1.13,.32l-.18-.52c.36-.23,.88-.39,1.43-.39,1.33,0,1.66,.91,1.66,1.78v1.63c0,.38,.02,.75,.07,1.04h-.72Zm-.12-2.22c-.86-.02-1.85,.14-1.85,.98,0,.51,.34,.76,.75,.76,.57,0,.93-.36,1.05-.73,.03-.08,.04-.17,.04-.25v-.76Z"/><path class="cls-9" d="M84.07,67.28h.79v6.39h-.79v-6.39Z"/><path class="cls-9" d="M86.2,67.28h.79v6.39h-.79v-6.39Z"/><path class="cls-9" d="M88.76,71.64c.02,1.07,.7,1.51,1.49,1.51,.57,0,.91-.1,1.21-.23l.14,.57c-.28,.13-.76,.27-1.45,.27-1.34,0-2.14-.88-2.14-2.2s.77-2.35,2.04-2.35c1.42,0,1.8,1.25,1.8,2.05,0,.16-.02,.29-.03,.37h-3.06Zm2.32-.57c0-.5-.21-1.29-1.1-1.29-.8,0-1.15,.74-1.21,1.29h2.31Z"/><path class="cls-9" d="M92.83,67.28h.79v6.39h-.79v-6.39Z"/><path class="cls-9" d="M96.75,72.86c.23,.15,.65,.31,1.04,.31,.58,0,.85-.29,.85-.65s-.22-.58-.81-.8c-.78-.28-1.15-.71-1.15-1.23,0-.7,.57-1.28,1.5-1.28,.44,0,.83,.13,1.07,.27l-.2,.58c-.17-.11-.49-.25-.89-.25-.47,0-.73,.27-.73,.59,0,.36,.26,.52,.83,.74,.76,.29,1.14,.67,1.14,1.31,0,.77-.59,1.31-1.63,1.31-.48,0-.92-.12-1.22-.3l.2-.6Z"/><path class="cls-9" d="M100.87,71.64c.02,1.07,.7,1.51,1.49,1.51,.57,0,.91-.1,1.21-.23l.14,.57c-.28,.13-.76,.27-1.45,.27-1.34,0-2.14-.88-2.14-2.2s.77-2.35,2.04-2.35c1.42,0,1.8,1.25,1.8,2.05,0,.16-.02,.29-.03,.37h-3.06Zm2.32-.57c0-.5-.21-1.29-1.1-1.29-.8,0-1.15,.74-1.21,1.29h2.31Z"/><path class="cls-9" d="M108.04,73.51c-.21,.11-.67,.25-1.25,.25-1.31,0-2.17-.89-2.17-2.22s.92-2.31,2.34-2.31c.47,0,.88,.12,1.1,.23l-.18,.61c-.19-.11-.49-.21-.92-.21-1,0-1.54,.74-1.54,1.65,0,1.01,.65,1.63,1.51,1.63,.45,0,.75-.12,.97-.22l.13,.59Z"/><path class="cls-9" d="M110.04,68.06v1.25h1.13v.6h-1.13v2.35c0,.54,.15,.85,.59,.85,.21,0,.36-.03,.46-.05l.04,.59c-.15,.06-.4,.11-.7,.11-.37,0-.67-.12-.86-.33-.23-.23-.31-.62-.31-1.13v-2.38h-.67v-.6h.67v-1.04l.77-.21Z"/><path class="cls-9" d="M115.95,71.46c0,1.61-1.12,2.31-2.17,2.31-1.18,0-2.09-.86-2.09-2.24,0-1.46,.96-2.31,2.16-2.31s2.1,.91,2.1,2.24Zm-3.46,.05c0,.95,.55,1.67,1.32,1.67s1.32-.71,1.32-1.69c0-.74-.37-1.67-1.31-1.67s-1.34,.86-1.34,1.69Z"/><path class="cls-9" d="M116.95,70.67c0-.51,0-.95-.04-1.36h.69l.03,.86h.04c.2-.59,.68-.95,1.21-.95,.09,0,.15,0,.22,.03v.75c-.08-.02-.16-.03-.27-.03-.56,0-.96,.42-1.06,1.02-.02,.11-.04,.23-.04,.37v2.32h-.78v-3Z"/><path class="cls-9" d="M119.78,72.86c.23,.15,.65,.31,1.04,.31,.58,0,.85-.29,.85-.65s-.22-.58-.81-.8c-.78-.28-1.15-.71-1.15-1.23,0-.7,.57-1.28,1.5-1.28,.44,0,.83,.13,1.07,.27l-.2,.58c-.17-.11-.49-.25-.89-.25-.47,0-.73,.27-.73,.59,0,.36,.26,.52,.83,.74,.76,.29,1.14,.67,1.14,1.31,0,.77-.59,1.31-1.63,1.31-.48,0-.92-.12-1.22-.3l.2-.6Z"/><path class="cls-9" d="M122.84,74.78c.2-.53,.44-1.49,.54-2.15l.88-.09c-.21,.77-.6,1.76-.86,2.19l-.57,.05Z"/><path class="cls-9" d="M127.21,73.67v-3.75h-.61v-.6h.61v-.21c0-.61,.13-1.17,.5-1.52,.3-.29,.69-.4,1.06-.4,.28,0,.52,.06,.67,.13l-.11,.61c-.12-.05-.28-.1-.5-.1-.68,0-.85,.59-.85,1.26v.23h1.05v.6h-1.05v3.75h-.78Z"/><path class="cls-9" d="M133.4,72.48c0,.45,0,.85,.04,1.19h-.7l-.04-.71h-.02c-.21,.35-.67,.81-1.44,.81-.68,0-1.5-.38-1.5-1.91v-2.55h.79v2.41c0,.83,.25,1.39,.97,1.39,.53,0,.9-.37,1.04-.72,.04-.12,.07-.26,.07-.41v-2.67h.79v3.17Z"/><path class="cls-9" d="M135.67,68.06v1.25h1.13v.6h-1.13v2.35c0,.54,.15,.85,.59,.85,.21,0,.36-.03,.46-.05l.04,.59c-.15,.06-.4,.11-.7,.11-.37,0-.67-.12-.86-.33-.23-.23-.31-.62-.31-1.13v-2.38h-.67v-.6h.67v-1.04l.77-.21Z"/><path class="cls-9" d="M141.34,72.48c0,.45,0,.85,.04,1.19h-.7l-.04-.71h-.02c-.21,.35-.67,.81-1.44,.81-.68,0-1.5-.38-1.5-1.91v-2.55h.79v2.41c0,.83,.25,1.39,.97,1.39,.53,0,.9-.37,1.04-.72,.04-.12,.07-.26,.07-.41v-2.67h.79v3.17Z"/><path class="cls-9" d="M142.65,70.67c0-.51,0-.95-.04-1.36h.69l.03,.86h.04c.2-.59,.68-.95,1.21-.95,.09,0,.15,0,.22,.03v.75c-.08-.02-.16-.03-.27-.03-.56,0-.96,.42-1.06,1.02-.02,.11-.04,.23-.04,.37v2.32h-.78v-3Z"/><path class="cls-9" d="M145.95,71.64c.02,1.07,.7,1.51,1.49,1.51,.57,0,.91-.1,1.21-.23l.14,.57c-.28,.13-.76,.27-1.45,.27-1.34,0-2.14-.88-2.14-2.2s.77-2.35,2.04-2.35c1.42,0,1.8,1.25,1.8,2.05,0,.16-.02,.29-.03,.37h-3.06Zm2.32-.57c0-.5-.21-1.29-1.1-1.29-.8,0-1.15,.74-1.21,1.29h2.31Z"/><path class="cls-9" d="M155.03,73.51c-.21,.11-.67,.25-1.25,.25-1.31,0-2.17-.89-2.17-2.22s.92-2.31,2.34-2.31c.47,0,.88,.12,1.1,.23l-.18,.61c-.19-.11-.49-.21-.92-.21-1,0-1.54,.74-1.54,1.65,0,1.01,.65,1.63,1.51,1.63,.45,0,.75-.12,.97-.22l.13,.59Z"/><path class="cls-9" d="M159.6,72.48c0,.45,0,.85,.04,1.19h-.7l-.04-.71h-.02c-.21,.35-.67,.81-1.44,.81-.68,0-1.5-.38-1.5-1.91v-2.55h.79v2.41c0,.83,.25,1.39,.97,1.39,.53,0,.9-.37,1.04-.72,.04-.12,.07-.26,.07-.41v-2.67h.79v3.17Z"/><path class="cls-9" d="M160.81,72.86c.23,.15,.65,.31,1.04,.31,.58,0,.85-.29,.85-.65s-.22-.58-.81-.8c-.78-.28-1.15-.71-1.15-1.23,0-.7,.57-1.28,1.5-1.28,.44,0,.83,.13,1.07,.27l-.2,.58c-.17-.11-.49-.25-.89-.25-.47,0-.73,.27-.73,.59,0,.36,.26,.52,.83,.74,.76,.29,1.14,.67,1.14,1.31,0,.77-.59,1.31-1.63,1.31-.48,0-.92-.12-1.22-.3l.2-.6Z"/><path class="cls-9" d="M165.43,68.06v1.25h1.13v.6h-1.13v2.35c0,.54,.15,.85,.59,.85,.21,0,.36-.03,.46-.05l.04,.59c-.15,.06-.4,.11-.7,.11-.37,0-.67-.12-.86-.33-.23-.23-.31-.62-.31-1.13v-2.38h-.67v-.6h.67v-1.04l.77-.21Z"/><path class="cls-9" d="M171.35,71.46c0,1.61-1.12,2.31-2.17,2.31-1.18,0-2.09-.86-2.09-2.24,0-1.46,.96-2.31,2.16-2.31s2.1,.91,2.1,2.24Zm-3.46,.05c0,.95,.55,1.67,1.32,1.67s1.32-.71,1.32-1.69c0-.74-.37-1.67-1.31-1.67s-1.34,.86-1.34,1.69Z"/><path class="cls-9" d="M172.34,70.49c0-.45,0-.82-.04-1.18h.69l.04,.7h.03c.24-.41,.65-.8,1.37-.8,.59,0,1.04,.36,1.23,.87h.02c.13-.24,.31-.43,.49-.57,.26-.2,.55-.31,.96-.31,.58,0,1.43,.38,1.43,1.89v2.57h-.77v-2.47c0-.84-.31-1.34-.95-1.34-.45,0-.8,.33-.94,.72-.04,.11-.06,.25-.06,.4v2.69h-.77v-2.61c0-.69-.31-1.2-.91-1.2-.5,0-.86,.4-.98,.79-.04,.12-.06,.25-.06,.39v2.63h-.77v-3.18Z"/><path class="cls-9" d="M180.29,71.64c.02,1.07,.7,1.51,1.49,1.51,.57,0,.91-.1,1.21-.23l.14,.57c-.28,.13-.76,.27-1.45,.27-1.34,0-2.14-.88-2.14-2.2s.77-2.35,2.04-2.35c1.42,0,1.8,1.25,1.8,2.05,0,.16-.02,.29-.03,.37h-3.06Zm2.32-.57c0-.5-.21-1.29-1.1-1.29-.8,0-1.15,.74-1.21,1.29h2.31Z"/><path class="cls-9" d="M184.36,70.67c0-.51,0-.95-.04-1.36h.69l.03,.86h.04c.2-.59,.68-.95,1.21-.95,.09,0,.15,0,.22,.03v.75c-.08-.02-.16-.03-.27-.03-.56,0-.95,.42-1.06,1.02-.02,.11-.04,.23-.04,.37v2.32h-.78v-3Z"/><path class="cls-9" d="M187.19,72.86c.23,.15,.65,.31,1.04,.31,.58,0,.85-.29,.85-.65s-.22-.58-.81-.8c-.78-.28-1.15-.71-1.15-1.23,0-.7,.57-1.28,1.5-1.28,.44,0,.83,.13,1.07,.27l-.2,.58c-.17-.11-.49-.25-.89-.25-.47,0-.73,.27-.73,.59,0,.36,.26,.52,.83,.74,.76,.29,1.14,.67,1.14,1.31,0,.77-.59,1.31-1.63,1.31-.48,0-.92-.12-1.22-.3l.2-.6Z"/><path class="cls-9" d="M190.25,74.78c.2-.53,.44-1.49,.54-2.15l.88-.09c-.21,.77-.6,1.76-.86,2.19l-.57,.05Z"/><path class="cls-9" d="M99.24,81.29c0-.45,0-.82-.04-1.18h.7l.04,.72h.02c.22-.41,.72-.82,1.44-.82,.6,0,1.54,.36,1.54,1.85v2.6h-.79v-2.51c0-.7-.26-1.29-1.01-1.29-.52,0-.93,.37-1.06,.81-.04,.1-.05,.23-.05,.37v2.62h-.79v-3.18Z"/><path class="cls-9" d="M104.67,82.44c.02,1.07,.7,1.51,1.49,1.51,.57,0,.91-.1,1.21-.23l.14,.57c-.28,.13-.76,.27-1.45,.27-1.34,0-2.14-.88-2.14-2.2s.77-2.35,2.04-2.35c1.42,0,1.8,1.25,1.8,2.05,0,.16-.02,.29-.03,.37h-3.06Zm2.32-.57c0-.5-.21-1.29-1.1-1.29-.8,0-1.15,.74-1.21,1.29h2.31Z"/><path class="cls-9" d="M109.06,80.11l.58,2.21c.13,.49,.24,.94,.32,1.39h.03c.1-.44,.24-.91,.39-1.38l.71-2.22h.67l.67,2.18c.16,.52,.29,.98,.39,1.42h.03c.07-.44,.19-.9,.33-1.41l.62-2.19h.78l-1.4,4.36h-.72l-.67-2.08c-.15-.49-.28-.92-.39-1.43h-.02c-.11,.52-.24,.97-.4,1.44l-.7,2.07h-.72l-1.31-4.36h.81Z"/><path class="cls-9" d="M117.24,84.47c.02-.3,.04-.74,.04-1.13v-5.27h.78v2.74h.02c.28-.49,.78-.8,1.49-.8,1.08,0,1.84,.9,1.84,2.22,0,1.56-.98,2.33-1.95,2.33-.63,0-1.13-.24-1.46-.82h-.03l-.04,.72h-.68Zm.82-1.75c0,.1,.02,.2,.04,.29,.15,.55,.61,.93,1.19,.93,.83,0,1.32-.68,1.32-1.67,0-.87-.45-1.62-1.3-1.62-.54,0-1.04,.37-1.21,.97-.02,.09-.04,.2-.04,.32v.78Z"/><path class="cls-9" d="M122.84,82.44c.02,1.07,.7,1.51,1.49,1.51,.57,0,.91-.1,1.21-.23l.14,.57c-.28,.13-.76,.27-1.45,.27-1.34,0-2.14-.88-2.14-2.2s.77-2.35,2.04-2.35c1.42,0,1.8,1.25,1.8,2.05,0,.16-.02,.29-.03,.37h-3.06Zm2.32-.57c0-.5-.21-1.29-1.1-1.29-.8,0-1.15,.74-1.21,1.29h2.31Z"/><path class="cls-9" d="M126.9,78.08h.79v2.72h.02c.13-.22,.32-.42,.57-.56,.23-.13,.51-.23,.81-.23,.58,0,1.52,.36,1.52,1.86v2.59h-.79v-2.5c0-.7-.26-1.3-1.01-1.3-.51,0-.92,.36-1.06,.79-.05,.11-.05,.23-.05,.38v2.63h-.79v-6.39Z"/><path class="cls-9" d="M134.31,84.47l-.06-.55h-.03c-.24,.34-.71,.65-1.33,.65-.88,0-1.33-.62-1.33-1.25,0-1.05,.94-1.63,2.62-1.62v-.09c0-.36-.1-1.01-.99-1.01-.41,0-.83,.13-1.13,.32l-.18-.52c.36-.23,.88-.39,1.43-.39,1.33,0,1.66,.91,1.66,1.78v1.63c0,.38,.02,.75,.07,1.04h-.72Zm-.12-2.22c-.86-.02-1.85,.14-1.85,.98,0,.51,.34,.76,.75,.76,.57,0,.93-.36,1.05-.73,.03-.08,.04-.17,.04-.25v-.76Z"/><path class="cls-9" d="M136.47,80.11l.86,2.45c.14,.4,.26,.76,.35,1.12h.03c.1-.36,.23-.72,.37-1.12l.85-2.45h.83l-1.71,4.36h-.76l-1.66-4.36h.85Z"/><path class="cls-9" d="M141.37,78.89c0,.27-.19,.49-.5,.49-.28,0-.48-.22-.48-.49s.21-.5,.5-.5,.49,.22,.49,.5Zm-.88,5.58v-4.36h.79v4.36h-.79Z"/><path class="cls-9" d="M146.54,82.26c0,1.61-1.12,2.31-2.17,2.31-1.18,0-2.09-.86-2.09-2.24,0-1.46,.96-2.31,2.16-2.31s2.1,.91,2.1,2.24Zm-3.46,.05c0,.95,.55,1.67,1.32,1.67s1.32-.71,1.32-1.69c0-.74-.37-1.67-1.31-1.67s-1.34,.86-1.34,1.69Z"/><path class="cls-9" d="M151.19,83.28c0,.45,0,.85,.04,1.19h-.7l-.04-.71h-.02c-.21,.35-.67,.81-1.44,.81-.68,0-1.5-.38-1.5-1.91v-2.55h.79v2.41c0,.83,.25,1.39,.97,1.39,.53,0,.9-.37,1.04-.72,.04-.12,.07-.26,.07-.41v-2.67h.79v3.17Z"/><path class="cls-9" d="M152.5,81.47c0-.51,0-.95-.04-1.36h.69l.03,.86h.04c.2-.59,.68-.95,1.21-.95,.09,0,.15,0,.22,.03v.75c-.08-.02-.16-.03-.27-.03-.56,0-.96,.42-1.06,1.02-.02,.11-.04,.23-.04,.37v2.32h-.78v-3Z"/><path class="cls-9" d="M155.33,83.66c.23,.15,.65,.31,1.04,.31,.58,0,.85-.29,.85-.65s-.22-.58-.81-.8c-.78-.28-1.15-.71-1.15-1.23,0-.7,.57-1.28,1.5-1.28,.44,0,.83,.13,1.07,.27l-.2,.58c-.17-.11-.49-.25-.89-.25-.47,0-.73,.27-.73,.59,0,.36,.26,.52,.83,.74,.76,.29,1.14,.67,1.14,1.31,0,.77-.59,1.31-1.63,1.31-.48,0-.92-.12-1.22-.3l.2-.6Z"/><path class="cls-9" d="M158.39,85.58c.2-.53,.44-1.49,.54-2.15l.88-.09c-.21,.77-.6,1.76-.86,2.19l-.57,.05Z"/><path class="cls-9" d="M95,89.69c0,.27-.19,.49-.5,.49-.28,0-.48-.22-.48-.49s.21-.5,.5-.5,.49,.22,.49,.5Zm-.88,5.58v-4.36h.79v4.36h-.79Z"/><path class="cls-9" d="M96.23,92.09c0-.45,0-.82-.04-1.18h.7l.04,.72h.02c.22-.41,.72-.82,1.44-.82,.6,0,1.54,.36,1.54,1.85v2.6h-.79v-2.51c0-.7-.26-1.29-1.01-1.29-.52,0-.93,.37-1.06,.81-.04,.1-.05,.23-.05,.37v2.62h-.79v-3.18Z"/><path class="cls-9" d="M101.41,90.91l.86,2.45c.14,.4,.26,.76,.35,1.12h.03c.1-.36,.23-.72,.37-1.12l.85-2.45h.83l-1.71,4.36h-.76l-1.66-4.36h.85Z"/><path class="cls-9" d="M105.78,93.24c.02,1.07,.7,1.51,1.49,1.51,.57,0,.91-.1,1.21-.23l.14,.57c-.28,.13-.76,.27-1.45,.27-1.34,0-2.14-.88-2.14-2.2s.77-2.35,2.04-2.35c1.42,0,1.8,1.25,1.8,2.05,0,.16-.02,.29-.03,.37h-3.06Zm2.32-.57c0-.5-.21-1.29-1.1-1.29-.8,0-1.15,.74-1.21,1.29h2.31Z"/><path class="cls-9" d="M109.85,92.09c0-.45,0-.82-.04-1.18h.7l.04,.72h.02c.22-.41,.72-.82,1.44-.82,.6,0,1.54,.36,1.54,1.85v2.6h-.79v-2.51c0-.7-.26-1.29-1.01-1.29-.52,0-.93,.37-1.06,.81-.04,.1-.05,.23-.05,.37v2.62h-.79v-3.18Z"/><path class="cls-9" d="M115.76,89.66v1.25h1.13v.6h-1.13v2.35c0,.54,.15,.85,.59,.85,.21,0,.36-.03,.46-.05l.04,.59c-.15,.06-.4,.11-.7,.11-.37,0-.67-.12-.86-.33-.23-.23-.31-.62-.31-1.13v-2.38h-.67v-.6h.67v-1.04l.77-.21Z"/><path class="cls-9" d="M120.2,95.27l-.06-.55h-.03c-.24,.34-.71,.65-1.33,.65-.88,0-1.33-.62-1.33-1.25,0-1.05,.94-1.63,2.62-1.62v-.09c0-.36-.1-1.01-.99-1.01-.41,0-.83,.13-1.13,.32l-.18-.52c.36-.23,.88-.39,1.43-.39,1.33,0,1.66,.91,1.66,1.78v1.63c0,.38,.02,.75,.07,1.04h-.72Zm-.12-2.22c-.86-.02-1.85,.13-1.85,.98,0,.51,.34,.76,.75,.76,.57,0,.93-.36,1.05-.73,.03-.08,.04-.17,.04-.25v-.76Z"/><path class="cls-9" d="M122.09,95.27c.02-.3,.04-.74,.04-1.13v-5.27h.78v2.74h.02c.28-.49,.78-.8,1.49-.8,1.08,0,1.84,.9,1.84,2.22,0,1.56-.98,2.33-1.95,2.33-.63,0-1.13-.24-1.46-.82h-.03l-.04,.72h-.68Zm.82-1.75c0,.1,.02,.2,.04,.29,.15,.55,.61,.93,1.19,.93,.83,0,1.32-.68,1.32-1.67,0-.87-.45-1.62-1.3-1.62-.54,0-1.04,.37-1.21,.97-.02,.09-.04,.2-.04,.32v.78Z"/><path class="cls-9" d="M127.25,88.88h.79v6.39h-.79v-6.39Z"/><path class="cls-9" d="M129.81,93.24c.02,1.07,.7,1.51,1.49,1.51,.57,0,.91-.1,1.21-.23l.14,.57c-.28,.13-.76,.27-1.45,.27-1.34,0-2.14-.88-2.14-2.2s.77-2.35,2.04-2.35c1.42,0,1.8,1.25,1.8,2.05,0,.16-.02,.29-.03,.37h-3.06Zm2.32-.57c0-.5-.21-1.29-1.1-1.29-.8,0-1.15,.74-1.21,1.29h2.31Z"/><path class="cls-9" d="M135.79,92.09c0-.45,0-.82-.04-1.18h.69l.04,.7h.03c.24-.41,.65-.8,1.37-.8,.59,0,1.04,.36,1.23,.87h.02c.13-.24,.31-.43,.49-.57,.26-.2,.55-.31,.96-.31,.58,0,1.43,.38,1.43,1.89v2.57h-.77v-2.47c0-.84-.31-1.34-.95-1.34-.45,0-.8,.33-.94,.72-.04,.11-.06,.25-.06,.4v2.69h-.77v-2.61c0-.69-.31-1.2-.91-1.2-.5,0-.86,.4-.98,.79-.04,.12-.06,.25-.06,.39v2.63h-.77v-3.18Z"/><path class="cls-9" d="M145.71,95.27l-.06-.55h-.03c-.24,.34-.71,.65-1.33,.65-.88,0-1.33-.62-1.33-1.25,0-1.05,.94-1.63,2.62-1.62v-.09c0-.36-.1-1.01-.99-1.01-.41,0-.83,.13-1.13,.32l-.18-.52c.36-.23,.88-.39,1.43-.39,1.33,0,1.66,.91,1.66,1.78v1.63c0,.38,.02,.75,.07,1.04h-.72Zm-.12-2.22c-.86-.02-1.85,.13-1.85,.98,0,.51,.34,.76,.75,.76,.57,0,.93-.36,1.05-.73,.03-.08,.04-.17,.04-.25v-.76Z"/><path class="cls-9" d="M147.63,92.27c0-.51,0-.95-.04-1.36h.69l.03,.86h.04c.2-.59,.68-.95,1.21-.95,.09,0,.15,0,.22,.03v.75c-.08-.02-.16-.03-.27-.03-.56,0-.95,.42-1.06,1.02-.02,.11-.04,.23-.04,.37v2.32h-.78v-3Z"/><path class="cls-9" d="M151.4,92.91h.02c.11-.15,.26-.34,.39-.5l1.28-1.5h.95l-1.68,1.79,1.92,2.57h-.96l-1.5-2.09-.41,.45v1.64h-.78v-6.39h.78v4.03Z"/><path class="cls-9" d="M155.27,93.24c.02,1.07,.7,1.51,1.49,1.51,.57,0,.91-.1,1.21-.23l.14,.57c-.28,.13-.76,.27-1.45,.27-1.34,0-2.14-.88-2.14-2.2s.77-2.35,2.04-2.35c1.42,0,1.8,1.25,1.8,2.05,0,.16-.02,.29-.03,.37h-3.06Zm2.32-.57c0-.5-.21-1.29-1.1-1.29-.8,0-1.15,.74-1.21,1.29h2.31Z"/><path class="cls-9" d="M160.3,89.66v1.25h1.13v.6h-1.13v2.35c0,.54,.15,.85,.59,.85,.21,0,.36-.03,.46-.05l.04,.59c-.15,.06-.4,.11-.7,.11-.37,0-.67-.12-.86-.33-.23-.23-.31-.62-.31-1.13v-2.38h-.67v-.6h.67v-1.04l.77-.21Z"/><path class="cls-9" d="M162.21,94.46c.23,.15,.65,.31,1.04,.31,.58,0,.85-.29,.85-.65s-.22-.58-.81-.8c-.78-.28-1.15-.71-1.15-1.23,0-.7,.57-1.28,1.5-1.28,.44,0,.83,.13,1.07,.27l-.2,.58c-.17-.11-.49-.25-.89-.25-.47,0-.73,.27-.73,.59,0,.36,.26,.52,.83,.74,.76,.29,1.14,.67,1.14,1.31,0,.77-.59,1.31-1.63,1.31-.48,0-.92-.12-1.22-.3l.2-.6Z"/></g><text class="cls-10" transform="translate(426.56 105.4)"><tspan class="cls-33"><tspan class="cls-25" x="0" y="0">P</tspan><tspan class="cls-6" x="6.19" y="0">r</tspan><tspan x="10" y="0">edi</tspan><tspan class="cls-38" x="25.58" y="0">c</tspan><tspan x="31.11" y="0">table influen</tspan><tspan class="cls-15" x="94.11" y="0">c</tspan><tspan x="99.42" y="0">es:</tspan></tspan><tspan class="cls-23"><tspan class="cls-31" x="7.74" y="10.8">T</tspan><tspan class="cls-34" x="11.81" y="10.8">r</tspan><tspan x="14.66" y="10.8">end</tspan><tspan class="cls-21" x="29.24" y="10.8">s</tspan><tspan x="32.71" y="10.8">, </tspan><tspan class="cls-20" x="36.48" y="10.8">e</tspan><tspan class="cls-37" x="40.96" y="10.8">x</tspan><tspan x="45.25" y="10.8">t</tspan><tspan class="cls-32" x="48.23" y="10.8">r</tspan><tspan x="51.12" y="10.8">apol</tspan><tspan class="cls-28" x="67.65" y="10.8">a</tspan><tspan class="cls-16" x="71.95" y="10.8">t</tspan><tspan x="74.88" y="10.8">ed d</tspan><tspan class="cls-28" x="91.44" y="10.8">a</tspan><tspan x="95.75" y="10.8">ta, </tspan></tspan><tspan class="cls-23"><tspan x="11.94" y="21.6">eme</tspan><tspan class="cls-27" x="28.46" y="21.6">r</tspan><tspan class="cls-16" x="31.33" y="21.6">g</tspan><tspan x="36.31" y="21.6">ing </tspan><tspan class="cls-16" x="50.35" y="21.6">t</tspan><tspan x="53.27" y="21.6">echnolo</tspan><tspan class="cls-16" x="83.81" y="21.6">g</tspan><tspan x="88.79" y="21.6">ie</tspan><tspan class="cls-30" x="95.4" y="21.6">s</tspan><tspan x="98.87" y="21.6">, </tspan></tspan><tspan class="cls-23"><tspan class="cls-16" x="16.24" y="32.4">c</tspan><tspan x="20.22" y="32.4">ompeti</tspan><tspan class="cls-18" x="47.38" y="32.4">t</tspan><tspan x="50.3" y="32.4">or st</tspan><tspan class="cls-32" x="66.64" y="32.4">r</tspan><tspan class="cls-24" x="69.54" y="32.4">a</tspan><tspan class="cls-18" x="73.84" y="32.4">t</tspan><tspan x="76.76" y="32.4">e</tspan><tspan class="cls-16" x="81.27" y="32.4">g</tspan><tspan x="86.25" y="32.4">ies</tspan></tspan></text><line class="cls-2" x1="53.04" y1="22.68" x2="53.04" y2="282.32"/><g><line class="cls-2" x1="53.04" y1="282.32" x2="419.55" y2="118.52"/><polygon class="cls-9" points="418.19 123.61 417.27 123.22 419.2 118.68 414.53 117.09 414.86 116.14 420.54 118.08 418.19 123.61"/></g><g><line class="cls-5" x1="142.64" y1="264.1" x2="142.64" y2="247.76"/><polygon class="cls-9" points="144.69 249.42 144.32 249.76 142.64 247.95 140.96 249.76 140.6 249.42 142.64 247.22 144.69 249.42"/></g><g><line class="cls-5" x1="187.25" y1="247.74" x2="187.25" y2="228.09"/><polygon class="cls-9" points="189.3 229.74 188.93 230.09 187.25 228.28 185.58 230.09 185.21 229.74 187.25 227.55 189.3 229.74"/></g><g><line class="cls-5" x1="232.07" y1="228.92" x2="232.07" y2="209.26"/><polygon class="cls-9" points="234.12 210.92 233.75 211.26 232.07 209.46 230.39 211.26 230.03 210.92 232.07 208.72 234.12 210.92"/></g><g><line class="cls-5" x1="277.27" y1="209.72" x2="277.27" y2="190.06"/><polygon class="cls-9" points="279.31 191.72 278.94 192.06 277.27 190.26 275.59 192.06 275.22 191.72 277.27 189.52 279.31 191.72"/></g><g><line class="cls-5" x1="136.99" y1="175.46" x2="136.99" y2="159.12"/><polygon class="cls-9" points="139.04 173.8 138.67 173.46 137 175.27 135.32 173.46 134.95 173.8 137 176 139.04 173.8"/></g><g><line class="cls-5" x1="96.71" y1="224.4" x2="96.71" y2="208.06"/><polygon class="cls-9" points="98.76 222.74 98.39 222.4 96.71 224.21 95.03 222.4 94.67 222.74 96.71 224.94 98.76 222.74"/></g><g><line class="cls-5" x1="178.61" y1="125.54" x2="178.61" y2="105.88"/><polygon class="cls-9" points="180.66 123.88 180.29 123.54 178.61 125.34 176.94 123.54 176.57 123.88 178.61 126.08 180.66 123.88"/></g><g><line class="cls-5" x1="212.34" y1="83.59" x2="212.34" y2="63.94"/><polygon class="cls-9" points="214.39 81.93 214.02 81.59 212.34 83.4 210.66 81.59 210.3 81.93 212.34 84.13 214.39 81.93"/></g><g><line class="cls-5" x1="322.46" y1="190.89" x2="322.46" y2="171.24"/><polygon class="cls-9" points="324.5 172.9 324.14 173.24 322.46 171.43 320.78 173.24 320.41 172.9 322.46 170.7 324.5 172.9"/></g><line class="cls-4" x1="53.86" y1="283" x2="248.26" y2="49.04"/><g><line class="cls-2" x1="421.11" y1="284.33" x2="53.69" y2="284.33"/><polygon class="cls-9" points="417.79 280.24 417.11 280.97 420.72 284.33 417.11 287.69 417.79 288.42 422.19 284.33 417.79 280.24"/></g><circle class="cls-11" cx="52.89" cy="283.29" r="7.08"/><g class="cls-13"><g><line class="cls-3" x1="432.14" y1="67.37" x2="178.36" y2="374.65"/><line class="cls-3" x1="428.44" y1="64.32" x2="174.67" y2="371.6"/><line class="cls-3" x1="424.75" y1="61.27" x2="170.97" y2="368.55"/><line class="cls-3" x1="421.05" y1="58.22" x2="167.28" y2="365.5"/><line class="cls-3" x1="445.69" y1="80.93" x2="191.92" y2="388.21"/><line class="cls-3" x1="442" y1="77.88" x2="188.22" y2="385.15"/><line class="cls-3" x1="438.3" y1="74.82" x2="184.53" y2="382.1"/><line class="cls-3" x1="434.61" y1="71.77" x2="180.83" y2="379.05"/><line class="cls-3" x1="417.36" y1="55.17" x2="163.59" y2="362.45"/><line class="cls-3" x1="413.66" y1="52.12" x2="159.89" y2="359.4"/><line class="cls-3" x1="409.97" y1="49.07" x2="156.2" y2="356.35"/><line class="cls-3" x1="406.27" y1="46.02" x2="152.5" y2="353.29"/><line class="cls-3" x1="402.58" y1="42.96" x2="148.81" y2="350.24"/><line class="cls-3" x1="398.89" y1="39.91" x2="145.11" y2="347.19"/><line class="cls-3" x1="395.19" y1="36.86" x2="141.42" y2="344.14"/><line class="cls-3" x1="391.5" y1="33.81" x2="137.72" y2="341.09"/><line class="cls-3" x1="387.8" y1="30.76" x2="134.03" y2="338.04"/><line class="cls-3" x1="384.11" y1="27.71" x2="130.33" y2="334.99"/><line class="cls-3" x1="380.41" y1="24.66" x2="126.64" y2="331.93"/><line class="cls-3" x1="376.72" y1="21.61" x2="122.95" y2="328.88"/><line class="cls-3" x1="373.02" y1="18.55" x2="119.25" y2="325.83"/><line class="cls-3" x1="369.33" y1="15.5" x2="115.56" y2="322.78"/><line class="cls-3" x1="365.63" y1="12.45" x2="111.86" y2="319.73"/><line class="cls-3" x1="361.94" y1="9.4" x2="108.17" y2="316.68"/><line class="cls-3" x1="358.25" y1="6.35" x2="104.47" y2="313.63"/><line class="cls-3" x1="354.55" y1="3.3" x2="100.78" y2="310.58"/><line class="cls-3" x1="350.86" y1=".25" x2="97.08" y2="307.52"/><line class="cls-3" x1="347.16" y1="-2.8" x2="93.39" y2="304.47"/><line class="cls-3" x1="343.47" y1="-5.86" x2="89.69" y2="301.42"/><line class="cls-3" x1="339.77" y1="-8.91" x2="86" y2="298.37"/><line class="cls-3" x1="336.08" y1="-11.96" x2="82.3" y2="295.32"/><line class="cls-3" x1="332.38" y1="-15.01" x2="78.61" y2="292.27"/><line class="cls-3" x1="328.69" y1="-18.06" x2="74.92" y2="289.22"/><line class="cls-3" x1="324.99" y1="-21.11" x2="71.22" y2="286.17"/><line class="cls-3" x1="321.3" y1="-24.16" x2="67.53" y2="283.11"/><line class="cls-3" x1="317.6" y1="-27.21" x2="63.83" y2="280.06"/><line class="cls-3" x1="313.91" y1="-30.27" x2="60.14" y2="277.01"/><line class="cls-3" x1="310.22" y1="-33.32" x2="56.44" y2="273.96"/><line class="cls-3" x1="306.52" y1="-36.37" x2="52.75" y2="270.91"/><line class="cls-3" x1="302.83" y1="-39.42" x2="49.05" y2="267.86"/><line class="cls-3" x1="299.13" y1="-42.47" x2="45.36" y2="264.81"/></g></g><circle class="cls-8" cx="247.56" cy="48.33" r="12.85"/><line class="cls-5" x1="313.78" y1="92.58" x2="343.5" y2="73.28"/></svg>