<?xml version="1.0" encoding="utf-8"?>
<!-- Generator: Adobe Illustrator 26.5.0, SVG Export Plug-In . SVG Version: 6.00 Build 0)  -->
<svg version="1.1" id="Layer_1" xmlns="http://www.w3.org/2000/svg" xmlns:xlink="http://www.w3.org/1999/xlink" x="0px" y="0px"
	 viewBox="0 0 560.5 328.8" style="enable-background:new 0 0 560.5 328.8;" xml:space="preserve">
<style type="text/css">
	.st0{enable-background:new    ;}
	.st1{fill:none;}
	.st2{fill:none;stroke:#000000;stroke-miterlimit:10;}
	.st3{fill:none;stroke:#000000;stroke-width:0.5;stroke-miterlimit:10;}
	.st4{fill:none;stroke:#000000;stroke-miterlimit:10;stroke-dasharray:3,3,3,3,3,3;}
	.st5{stroke:#FFFFFF;stroke-width:2.7473;stroke-miterlimit:10;}
	.st6{clip-path:url(#SVGID_00000077299486331159993010000010279852231346495911_);}
	.st7{fill:none;stroke:#C6C6C6;stroke-width:0.6231;stroke-miterlimit:10;}
	.st8{stroke:#FFFFFF;stroke-width:4.988;stroke-miterlimit:10;}
</style>
<g class="st0">
	<path d="M20.4,299c0-2.5,1.5-4.5,4.1-4.5c2,0,3.2,1.2,3.4,2.7h-1.1c-0.2-1.1-1.1-1.8-2.4-1.8c-1.9,0-2.9,1.5-2.9,3.5
		c0,2.1,1.2,3.5,3,3.5c1.6,0,2.4-1.1,2.5-2.4H28c0,0.9-0.4,1.8-1,2.4c-0.6,0.6-1.5,0.9-2.6,0.9C22,303.5,20.4,301.6,20.4,299z"/>
	<path d="M33,303.3v-0.9h0c-0.4,0.6-1,1-1.9,1c-1.3,0-2.1-0.8-2.1-2.1v-4.3h1v4.3c0,0.8,0.5,1.3,1.4,1.3c1,0,1.6-0.7,1.6-1.7v-3.8h1
		v6.2H33z"/>
	<path d="M36.3,298.2L36.3,298.2c0.4-0.6,1-1.1,1.9-1.1c0.2,0,0.3,0,0.4,0.1v0.9h0c-0.1,0-0.2-0.1-0.4-0.1c-1,0-1.8,0.7-1.8,1.9v3.4
		h-1v-6.2h1V298.2z"/>
	<path d="M40.4,298.2L40.4,298.2c0.4-0.6,1-1.1,1.9-1.1c0.2,0,0.3,0,0.4,0.1v0.9h0c-0.1,0-0.2-0.1-0.4-0.1c-1,0-1.8,0.7-1.8,1.9v3.4
		h-1v-6.2h1V298.2z"/>
	<path d="M43,300.2c0-1.8,1.2-3.3,2.9-3.3c1.9,0,2.9,1.4,2.9,3.5H44c0.1,1.3,0.8,2.2,2,2.2c0.9,0,1.5-0.4,1.7-1.3h0.9
		c-0.3,1.3-1.3,2.1-2.7,2.1C44.1,303.5,43,302,43,300.2z M44,299.7h3.7c-0.1-1.2-0.7-2-1.8-2C44.8,297.8,44.1,298.6,44,299.7z"/>
	<path d="M50.7,298L50.7,298c0.5-0.6,1.1-1,2-1c1.3,0,2.1,0.7,2.1,2v4.4h-1v-4.3c0-0.8-0.5-1.3-1.4-1.3c-1,0-1.7,0.7-1.7,1.7v3.8h-1
		v-6.2h1V298z"/>
	<path d="M55.5,297.1h0.9v-2h1v2h1.2v0.8h-1.2v4c0,0.4,0.2,0.6,0.6,0.6c0.2,0,0.4,0,0.5-0.1h0v0.8c-0.2,0-0.5,0.1-0.8,0.1
		c-0.8,0-1.4-0.3-1.4-1.2v-4.2h-0.9V297.1z"/>
	<path d="M61.1,301.3h1c0.1,1.1,0.9,1.4,1.8,1.4c1,0,1.4-0.4,1.4-1c0-0.7-0.5-0.9-1.6-1.1c-1.2-0.3-2.3-0.5-2.3-1.9
		c0-1,0.8-1.7,2.2-1.7c1.5,0,2.3,0.7,2.4,1.9h-1c-0.1-0.8-0.5-1.2-1.5-1.2c-0.9,0-1.2,0.4-1.2,0.9c0,0.7,0.6,0.8,1.7,1
		c1.2,0.3,2.3,0.5,2.3,2c0,1.2-1,1.9-2.4,1.9C62.2,303.5,61.2,302.7,61.1,301.3z"/>
	<path d="M66.8,297.1h0.9v-2h1v2h1.2v0.8h-1.2v4c0,0.4,0.2,0.6,0.6,0.6c0.2,0,0.4,0,0.5-0.1h0v0.8c-0.2,0-0.5,0.1-0.8,0.1
		c-0.8,0-1.4-0.3-1.4-1.2v-4.2h-0.9V297.1z"/>
	<path d="M74.6,302.5L74.6,302.5c-0.4,0.5-1,1-2.1,1c-1.2,0-2.1-0.6-2.1-1.7c0-1.5,1.2-1.8,2.7-2c0.9-0.1,1.5-0.2,1.5-0.9
		c0-0.7-0.5-1.1-1.4-1.1c-1,0-1.5,0.4-1.5,1.4h-0.9c0-1.2,0.8-2.1,2.5-2.1c1.3,0,2.3,0.5,2.3,2v3c0,0.5,0.1,0.8,0.7,0.7h0v0.7
		c-0.1,0-0.3,0.1-0.5,0.1C75.1,303.4,74.7,303.1,74.6,302.5z M74.7,301V300c-0.3,0.2-0.9,0.4-1.4,0.5c-1,0.2-1.8,0.3-1.8,1.3
		c0,0.8,0.6,1,1.3,1C74.1,302.7,74.7,301.8,74.7,301z"/>
	<path d="M76.4,297.1h0.9v-2h1v2h1.2v0.8h-1.2v4c0,0.4,0.2,0.6,0.6,0.6c0.2,0,0.4,0,0.5-0.1h0v0.8c-0.2,0-0.5,0.1-0.8,0.1
		c-0.8,0-1.4-0.3-1.4-1.2v-4.2h-0.9V297.1z"/>
	<path d="M80.1,300.2c0-1.8,1.2-3.3,2.9-3.3c1.9,0,2.9,1.4,2.9,3.5h-4.8c0.1,1.3,0.8,2.2,2,2.2c0.9,0,1.5-0.4,1.7-1.3h0.9
		c-0.3,1.3-1.3,2.1-2.7,2.1C81.2,303.5,80.1,302,80.1,300.2z M81.1,299.7h3.7c-0.1-1.2-0.7-2-1.8-2
		C81.9,297.8,81.3,298.6,81.1,299.7z"/>
</g>
<g class="st0">
	<path d="M221.8,23.2h5.8v0.9h-4.7v2.7h3.9v0.9h-3.9v4h-1.1V23.2z"/>
	<path d="M232.1,31.8v-0.9h0c-0.4,0.6-1,1-1.9,1c-1.3,0-2.1-0.8-2.1-2.1v-4.3h1v4.3c0,0.8,0.5,1.3,1.4,1.3c1,0,1.6-0.7,1.6-1.7v-3.8
		h1v6.2H232.1z"/>
	<path d="M234,25.6h0.9v-2h1v2h1.2v0.8h-1.2v4c0,0.4,0.2,0.6,0.6,0.6c0.2,0,0.4,0,0.5-0.1h0v0.8c-0.2,0-0.5,0.1-0.8,0.1
		c-0.8,0-1.4-0.3-1.4-1.2v-4.2H234V25.6z"/>
	<path d="M242,31.8v-0.9h0c-0.4,0.6-1,1-1.9,1c-1.3,0-2.1-0.8-2.1-2.1v-4.3h1v4.3c0,0.8,0.5,1.3,1.4,1.3c1,0,1.6-0.7,1.6-1.7v-3.8h1
		v6.2H242z"/>
	<path d="M245.3,26.6L245.3,26.6c0.4-0.6,1-1.1,1.9-1.1c0.2,0,0.3,0,0.4,0.1v0.9h0c-0.1,0-0.2-0.1-0.4-0.1c-1,0-1.8,0.7-1.8,1.9v3.4
		h-1v-6.2h1V26.6z"/>
	<path d="M247.8,28.7c0-1.8,1.2-3.3,2.9-3.3c1.9,0,2.9,1.4,2.9,3.5h-4.8c0.1,1.3,0.8,2.2,2,2.2c0.9,0,1.5-0.4,1.7-1.3h0.9
		c-0.3,1.3-1.3,2.1-2.7,2.1C248.9,32,247.8,30.5,247.8,28.7z M248.8,28.2h3.7c-0.1-1.2-0.7-2-1.8-2C249.6,26.2,249,27.1,248.8,28.2z
		"/>
	<path d="M254.2,29.8h1c0.1,1.1,0.9,1.4,1.8,1.4c1,0,1.4-0.4,1.4-1c0-0.7-0.5-0.9-1.6-1.1c-1.2-0.3-2.3-0.5-2.3-1.9
		c0-1,0.8-1.7,2.2-1.7c1.5,0,2.3,0.7,2.4,1.9h-1c-0.1-0.8-0.5-1.2-1.5-1.2c-0.9,0-1.2,0.4-1.2,0.9c0,0.7,0.6,0.8,1.7,1
		c1.2,0.3,2.3,0.5,2.3,2c0,1.2-1,1.9-2.4,1.9C255.2,32,254.3,31.2,254.2,29.8z"/>
	<path d="M259.8,25.6h0.9v-2h1v2h1.2v0.8h-1.2v4c0,0.4,0.2,0.6,0.6,0.6c0.2,0,0.4,0,0.5-0.1h0v0.8c-0.2,0-0.5,0.1-0.8,0.1
		c-0.8,0-1.4-0.3-1.4-1.2v-4.2h-0.9V25.6z"/>
	<path d="M267.7,30.9L267.7,30.9c-0.4,0.5-1,1-2.1,1c-1.2,0-2.1-0.6-2.1-1.7c0-1.5,1.2-1.8,2.7-2c0.9-0.1,1.5-0.2,1.5-0.9
		c0-0.7-0.5-1.1-1.4-1.1c-1,0-1.5,0.4-1.5,1.4h-0.9c0-1.2,0.8-2.1,2.5-2.1c1.3,0,2.3,0.5,2.3,2v3c0,0.5,0.1,0.8,0.7,0.7h0v0.7
		c-0.1,0-0.3,0.1-0.5,0.1C268.1,31.9,267.8,31.6,267.7,30.9z M267.7,29.5v-1.1c-0.3,0.2-0.9,0.4-1.4,0.5c-1,0.2-1.8,0.3-1.8,1.3
		c0,0.8,0.6,1,1.3,1C267.1,31.2,267.7,30.2,267.7,29.5z"/>
	<path d="M269.5,25.6h0.9v-2h1v2h1.2v0.8h-1.2v4c0,0.4,0.2,0.6,0.6,0.6c0.2,0,0.4,0,0.5-0.1h0v0.8c-0.2,0-0.5,0.1-0.8,0.1
		c-0.8,0-1.4-0.3-1.4-1.2v-4.2h-0.9V25.6z"/>
	<path d="M273.1,28.7c0-1.8,1.2-3.3,2.9-3.3c1.9,0,2.9,1.4,2.9,3.5h-4.8c0.1,1.3,0.8,2.2,2,2.2c0.9,0,1.5-0.4,1.7-1.3h0.9
		c-0.3,1.3-1.3,2.1-2.7,2.1C274.2,32,273.1,30.5,273.1,28.7z M274.2,28.2h3.7c-0.1-1.2-0.7-2-1.8-2
		C274.9,26.2,274.3,27.1,274.2,28.2z"/>
</g>
<g class="st0">
	<path d="M328.9,64c0-2.6,1.6-4.5,4.2-4.5s4.2,1.9,4.2,4.5c0,2.6-1.6,4.5-4.2,4.5S328.9,66.6,328.9,64z M336.2,64
		c0-2-1.1-3.5-3.1-3.5S330,62,330,64c0,2,1.1,3.5,3.1,3.5S336.2,66,336.2,64z"/>
	<path d="M338.4,62.1h1V63h0c0.5-0.6,1.1-1,2-1c1.6,0,2.7,1.2,2.7,3.3c0,2-1,3.3-2.7,3.3c-0.8,0-1.4-0.3-2-0.9h0v2.7h-1V62.1z
		 M343.1,65.2c0-1.4-0.6-2.4-1.8-2.4c-1.4,0-2,1.1-2,2.4s0.5,2.4,2,2.4C342.5,67.7,343.1,66.6,343.1,65.2z"/>
	<path d="M345,62.1h1V63h0c0.5-0.6,1.1-1,2-1c1.6,0,2.7,1.2,2.7,3.3c0,2-1,3.3-2.7,3.3c-0.8,0-1.4-0.3-2-0.9h0v2.7h-1V62.1z
		 M349.7,65.2c0-1.4-0.6-2.4-1.8-2.4c-1.4,0-2,1.1-2,2.4s0.5,2.4,2,2.4C349.1,67.7,349.7,66.6,349.7,65.2z"/>
	<path d="M351.3,65.2c0-1.8,1.2-3.3,3-3.3c1.9,0,3,1.5,3,3.3c0,1.8-1.1,3.3-3,3.3C352.5,68.5,351.3,67,351.3,65.2z M356.3,65.2
		c0-1.4-0.7-2.5-2-2.5s-2,1.1-2,2.5c0,1.4,0.7,2.4,2,2.4S356.3,66.6,356.3,65.2z"/>
	<path d="M359.2,63.1L359.2,63.1c0.4-0.6,1-1.1,1.9-1.1c0.2,0,0.3,0,0.4,0.1V63h0c-0.1,0-0.2-0.1-0.4-0.1c-1,0-1.8,0.7-1.8,1.9v3.4
		h-1v-6.2h1V63.1z"/>
	<path d="M362,62.1h0.9v-2h1v2h1.2v0.8h-1.2v4c0,0.4,0.2,0.6,0.6,0.6c0.2,0,0.4,0,0.5-0.1h0v0.8c-0.2,0-0.5,0.1-0.8,0.1
		c-0.8,0-1.4-0.3-1.4-1.2v-4.2H362V62.1z"/>
	<path d="M370,68.3v-0.9h0c-0.4,0.6-1,1-1.9,1c-1.3,0-2.1-0.8-2.1-2.1v-4.3h1v4.3c0,0.8,0.5,1.3,1.4,1.3c1,0,1.6-0.7,1.6-1.7v-3.8h1
		v6.2H370z"/>
	<path d="M373.3,62.9L373.3,62.9c0.5-0.6,1.1-1,2-1c1.3,0,2.1,0.7,2.1,2v4.4h-1V64c0-0.8-0.5-1.3-1.4-1.3c-1,0-1.7,0.7-1.7,1.7v3.8
		h-1v-6.2h1V62.9z"/>
	<path d="M378.6,59.7h1v1.2h-1V59.7z M378.6,62.1h1v6.2h-1V62.1z"/>
	<path d="M380.5,62.1h0.9v-2h1v2h1.2v0.8h-1.2v4c0,0.4,0.2,0.6,0.6,0.6c0.2,0,0.4,0,0.5-0.1h0v0.8c-0.2,0-0.5,0.1-0.8,0.1
		c-0.8,0-1.4-0.3-1.4-1.2v-4.2h-0.9V62.1z"/>
	<path d="M384.5,70.2v-0.9h0c0.1,0.1,0.3,0.1,0.7,0.1c0.4,0,0.7-0.2,0.9-0.8l0.2-0.6l-2.4-6h1.1l1.5,3.9c0.2,0.5,0.4,1.2,0.4,1.2h0
		c0,0,0.2-0.7,0.4-1.2l1.4-3.9h1l-2.7,6.7c-0.5,1.3-1,1.5-1.7,1.5C385,70.4,384.8,70.3,384.5,70.2z"/>
	<path d="M392.2,68.7h0.9c0.1,0.7,0.7,0.9,1.7,0.9c1.1,0,1.8-0.5,1.8-1.6v-0.9h0c-0.5,0.6-0.9,1-1.8,1c-1.6,0-2.7-1.3-2.7-3.1
		c0-1.9,1.2-3.1,2.7-3.1c0.9,0,1.5,0.3,1.9,0.9h0v-0.8h1V68c0,1.6-1.1,2.4-2.7,2.4C393.3,70.4,392.4,69.7,392.2,68.7z M396.7,65
		c0-1.4-0.6-2.2-1.9-2.2c-1.2,0-1.8,0.9-1.8,2.3c0,1.4,0.6,2.2,1.8,2.2C396.2,67.3,396.7,66.3,396.7,65z"/>
	<path d="M402.7,67.5L402.7,67.5c-0.4,0.5-1,1-2.1,1c-1.2,0-2.1-0.6-2.1-1.7c0-1.5,1.2-1.8,2.7-2c0.9-0.1,1.5-0.2,1.5-0.9
		c0-0.7-0.5-1.1-1.4-1.1c-1,0-1.5,0.4-1.5,1.4h-0.9c0-1.2,0.8-2.1,2.5-2.1c1.3,0,2.3,0.5,2.3,2v3c0,0.5,0.1,0.8,0.7,0.7h0v0.7
		c-0.1,0-0.3,0.1-0.5,0.1C403.2,68.4,402.8,68.1,402.7,67.5z M402.7,66V65c-0.3,0.2-0.9,0.4-1.4,0.5c-1,0.2-1.8,0.3-1.8,1.3
		c0,0.8,0.6,1,1.3,1C402.2,67.7,402.7,66.7,402.7,66z"/>
	<path d="M405,62.1h1V63h0c0.5-0.6,1.1-1,2-1c1.6,0,2.7,1.2,2.7,3.3c0,2-1,3.3-2.7,3.3c-0.8,0-1.4-0.3-2-0.9h0v2.7h-1V62.1z
		 M409.7,65.2c0-1.4-0.6-2.4-1.8-2.4c-1.4,0-2,1.1-2,2.4s0.5,2.4,2,2.4C409.1,67.7,409.7,66.6,409.7,65.2z"/>
</g>
<rect x="207.8" y="238.1" class="st1" width="147.1" height="40"/>
<g class="st0">
	<path d="M223.9,244.1c0-2.6,1.6-4.5,4.2-4.5c2.6,0,4.2,1.9,4.2,4.5c0,2.6-1.6,4.5-4.2,4.5C225.5,248.5,223.9,246.6,223.9,244.1z
		 M231.2,244.1c0-2-1.1-3.5-3.1-3.5c-2,0-3.1,1.5-3.1,3.5c0,2,1.1,3.5,3.1,3.5C230.1,247.6,231.2,246.1,231.2,244.1z"/>
	<path d="M233.4,242.2h1v0.9h0c0.5-0.6,1.1-1,2-1c1.6,0,2.7,1.2,2.7,3.3c0,2-1,3.3-2.7,3.3c-0.8,0-1.4-0.3-2-0.9h0v2.7h-1V242.2z
		 M238.1,245.3c0-1.4-0.6-2.4-1.8-2.4c-1.4,0-2,1.1-2,2.4s0.5,2.4,2,2.4C237.5,247.7,238.1,246.7,238.1,245.3z"/>
	<path d="M239.7,245.3c0-1.8,1.2-3.3,2.9-3.3c1.9,0,2.9,1.4,2.9,3.5h-4.8c0.1,1.3,0.8,2.2,2,2.2c0.9,0,1.5-0.4,1.7-1.3h0.9
		c-0.3,1.3-1.3,2.1-2.7,2.1C240.8,248.5,239.7,247.1,239.7,245.3z M240.7,244.8h3.7c-0.1-1.2-0.7-2-1.8-2
		C241.5,242.8,240.8,243.6,240.7,244.8z"/>
	<path d="M247.4,243.2L247.4,243.2c0.4-0.6,1-1.1,1.9-1.1c0.2,0,0.3,0,0.4,0.1v0.9h0c-0.1,0-0.2-0.1-0.4-0.1c-1,0-1.8,0.7-1.8,1.9
		v3.4h-1v-6.2h1V243.2z"/>
	<path d="M254.1,247.5L254.1,247.5c-0.4,0.5-1,1-2.1,1c-1.2,0-2.1-0.6-2.1-1.7c0-1.5,1.2-1.8,2.7-2c0.9-0.1,1.5-0.2,1.5-0.9
		c0-0.7-0.5-1.1-1.4-1.1c-1,0-1.5,0.4-1.5,1.4h-0.9c0-1.2,0.8-2.1,2.5-2.1c1.3,0,2.3,0.5,2.3,2v2.9c0,0.5,0.1,0.8,0.7,0.7h0v0.7
		c-0.1,0-0.3,0.1-0.5,0.1C254.5,248.4,254.2,248.1,254.1,247.5z M254.1,246.1V245c-0.3,0.2-0.9,0.4-1.4,0.5c-1,0.2-1.8,0.3-1.8,1.3
		c0,0.8,0.6,1,1.3,1C253.5,247.7,254.1,246.8,254.1,246.1z"/>
	<path d="M255.9,242.2h0.9v-2h1v2h1.2v0.8h-1.2v4c0,0.4,0.2,0.6,0.6,0.6c0.2,0,0.4,0,0.5-0.1h0v0.8c-0.2,0-0.5,0.1-0.8,0.1
		c-0.8,0-1.4-0.3-1.4-1.2v-4.2h-0.9V242.2z"/>
	<path d="M260,239.8h1v1.2h-1V239.8z M260,242.2h1v6.2h-1V242.2z"/>
	<path d="M261.9,245.3c0-1.8,1.2-3.3,3-3.3c1.9,0,3,1.5,3,3.3c0,1.8-1.1,3.3-3,3.3C263.1,248.5,261.9,247.1,261.9,245.3z
		 M266.9,245.3c0-1.4-0.7-2.5-2-2.5s-2,1.1-2,2.5c0,1.4,0.7,2.4,2,2.4S266.9,246.6,266.9,245.3z"/>
	<path d="M269.9,243L269.9,243c0.5-0.6,1.1-1,2-1c1.3,0,2.1,0.7,2.1,2v4.4h-1v-4.3c0-0.8-0.5-1.3-1.4-1.3c-1,0-1.7,0.7-1.7,1.7v3.8
		h-1v-6.2h1V243z"/>
	<path d="M279,247.5L279,247.5c-0.4,0.5-1,1-2.1,1c-1.2,0-2.1-0.6-2.1-1.7c0-1.5,1.2-1.8,2.7-2c0.9-0.1,1.5-0.2,1.5-0.9
		c0-0.7-0.5-1.1-1.4-1.1c-1,0-1.5,0.4-1.5,1.4h-0.9c0-1.2,0.8-2.1,2.5-2.1c1.3,0,2.3,0.5,2.3,2v2.9c0,0.5,0.1,0.8,0.7,0.7h0v0.7
		c-0.1,0-0.3,0.1-0.5,0.1C279.5,248.4,279.1,248.1,279,247.5z M279.1,246.1V245c-0.3,0.2-0.9,0.4-1.4,0.5c-1,0.2-1.8,0.3-1.8,1.3
		c0,0.8,0.6,1,1.3,1C278.5,247.7,279.1,246.8,279.1,246.1z"/>
	<path d="M281.4,239.8h1v8.6h-1V239.8z"/>
	<path d="M285.6,239.8h1v1.2h-1V239.8z M285.6,242.2h1v6.2h-1V242.2z"/>
	<path d="M288.9,243L288.9,243c0.5-0.6,1.1-1,2-1c1.3,0,2.1,0.7,2.1,2v4.4h-1v-4.3c0-0.8-0.5-1.3-1.4-1.3c-1,0-1.7,0.7-1.7,1.7v3.8
		h-1v-6.2h1V243z"/>
	<path d="M293.8,242.2h0.9v-1c0-1.1,0.6-1.5,1.6-1.5c0.2,0,0.4,0,0.5,0v0.8c-0.2,0-0.2,0-0.3,0c-0.6,0-0.9,0.2-0.9,0.7v0.9h1.2v0.8
		h-1.2v5.4h-1v-5.4h-0.9V242.2z M297.6,239.8h1v8.6h-1V239.8z"/>
	<path d="M303.9,248.4v-0.9h0c-0.4,0.6-1,1-1.9,1c-1.3,0-2.1-0.8-2.1-2.1v-4.3h1v4.3c0,0.8,0.5,1.3,1.4,1.3c1,0,1.6-0.7,1.6-1.7
		v-3.8h1v6.2H303.9z"/>
	<path d="M305.8,245.3c0-1.8,1.2-3.3,2.9-3.3c1.9,0,2.9,1.4,2.9,3.5h-4.8c0.1,1.3,0.8,2.2,2,2.2c0.9,0,1.5-0.4,1.7-1.3h0.9
		c-0.3,1.3-1.3,2.1-2.7,2.1C307,248.5,305.8,247.1,305.8,245.3z M306.9,244.8h3.7c-0.1-1.2-0.7-2-1.8-2
		C307.6,242.8,307,243.6,306.9,244.8z"/>
	<path d="M313.6,243L313.6,243c0.5-0.6,1.1-1,2-1c1.3,0,2.1,0.7,2.1,2v4.4h-1v-4.3c0-0.8-0.5-1.3-1.4-1.3c-1,0-1.7,0.7-1.7,1.7v3.8
		h-1v-6.2h1V243z"/>
	<path d="M318.6,245.3c0-1.8,1.2-3.3,3-3.3c1.5,0,2.4,0.8,2.7,2.2h-1c-0.1-0.8-0.7-1.4-1.7-1.4c-1.3,0-2,1.1-2,2.5
		c0,1.4,0.7,2.4,2,2.4c1,0,1.6-0.6,1.7-1.5h1c-0.1,1.5-1.1,2.4-2.7,2.4C319.7,248.5,318.6,247.1,318.6,245.3z"/>
	<path d="M324.8,245.3c0-1.8,1.2-3.3,2.9-3.3c1.9,0,2.9,1.4,2.9,3.5h-4.8c0.1,1.3,0.8,2.2,2,2.2c0.9,0,1.5-0.4,1.7-1.3h0.9
		c-0.3,1.3-1.3,2.1-2.7,2.1C325.9,248.5,324.8,247.1,324.8,245.3z M325.8,244.8h3.7c-0.1-1.2-0.7-2-1.8-2
		C326.6,242.8,326,243.6,325.8,244.8z"/>
	<path d="M331.2,246.3h1c0.1,1.1,0.9,1.4,1.8,1.4c1,0,1.4-0.4,1.4-1c0-0.7-0.5-0.9-1.6-1.1c-1.2-0.3-2.3-0.5-2.3-1.9
		c0-1,0.8-1.7,2.2-1.7c1.5,0,2.3,0.7,2.4,1.9h-1c-0.1-0.8-0.5-1.2-1.5-1.2c-0.9,0-1.2,0.4-1.2,0.9c0,0.7,0.6,0.8,1.7,1
		c1.2,0.3,2.3,0.5,2.3,2c0,1.2-1,1.9-2.4,1.9C332.2,248.5,331.3,247.7,331.2,246.3z"/>
	<path d="M337.2,243.5h1.2v1.2h-1.2V243.5z M337.2,247.2h1.2v1.2h-1.2V247.2z"/>
</g>
<g class="st0">
	<path d="M217.6,256.8c0-1.4,0.9-2.4,2.3-2.4c1.1,0,1.8,0.6,2,1.6h-0.7c-0.1-0.6-0.5-1-1.3-1c-1,0-1.5,0.8-1.5,1.8
		c0,1,0.5,1.8,1.5,1.8c0.8,0,1.2-0.4,1.3-1.2h0.7c-0.1,1.1-0.8,1.8-2,1.8C218.5,259.3,217.6,258.2,217.6,256.8z"/>
	<path d="M225.5,259.2v-0.6h0c-0.3,0.5-0.7,0.7-1.4,0.7c-1,0-1.6-0.6-1.6-1.5v-3.2h0.7v3.2c0,0.6,0.4,1,1,1c0.7,0,1.2-0.6,1.2-1.3
		v-2.9h0.7v4.7H225.5z"/>
	<path d="M226.9,257.6h0.7c0.1,0.8,0.6,1,1.3,1c0.8,0,1.1-0.3,1.1-0.8c0-0.5-0.4-0.7-1.2-0.8c-0.9-0.2-1.7-0.4-1.7-1.4
		c0-0.8,0.6-1.3,1.7-1.3c1.2,0,1.7,0.5,1.8,1.5h-0.7c-0.1-0.6-0.4-0.9-1.1-0.9c-0.7,0-0.9,0.3-0.9,0.7c0,0.5,0.5,0.6,1.3,0.8
		c0.9,0.2,1.7,0.4,1.7,1.5c0,0.9-0.8,1.4-1.8,1.4C227.7,259.3,227,258.7,226.9,257.6z"/>
	<path d="M231.1,254.5h0.7V253h0.7v1.5h0.9v0.6h-0.9v3c0,0.3,0.2,0.4,0.5,0.4c0.1,0,0.3,0,0.4-0.1h0v0.6c-0.2,0-0.4,0.1-0.6,0.1
		c-0.6,0-1-0.2-1-0.9v-3.2h-0.7V254.5z"/>
	<path d="M233.9,256.8c0-1.4,0.9-2.4,2.3-2.4c1.4,0,2.2,1.1,2.2,2.4c0,1.3-0.8,2.4-2.2,2.4C234.8,259.3,233.9,258.2,233.9,256.8z
		 M237.6,256.8c0-1-0.5-1.8-1.5-1.8s-1.5,0.8-1.5,1.8c0,1,0.5,1.8,1.5,1.8S237.6,257.9,237.6,256.8z"/>
	<path d="M239.1,254.5h0.7v0.7h0c0.3-0.5,0.8-0.8,1.4-0.8c0.6,0,1,0.3,1.2,0.8h0c0.3-0.5,0.9-0.8,1.4-0.8c0.8,0,1.4,0.5,1.4,1.5v3.3
		h-0.7v-3.2c0-0.6-0.4-0.9-0.9-0.9c-0.6,0-1.1,0.5-1.1,1.3v2.9h-0.7v-3.2c0-0.6-0.3-0.9-0.8-0.9c-0.6,0-1.2,0.5-1.2,1.3v2.9h-0.7
		V254.5z"/>
	<path d="M246,256.8c0-1.4,0.9-2.4,2.2-2.4c1.4,0,2.1,1.1,2.1,2.6h-3.6c0.1,0.9,0.6,1.7,1.5,1.7c0.7,0,1.1-0.3,1.3-1h0.7
		c-0.2,1-0.9,1.6-2,1.6C246.8,259.3,246,258.2,246,256.8z M246.8,256.5h2.8c0-0.9-0.5-1.5-1.4-1.5
		C247.3,255,246.9,255.6,246.8,256.5z"/>
	<path d="M251.8,255.3L251.8,255.3c0.3-0.5,0.8-0.8,1.4-0.8c0.1,0,0.2,0,0.3,0.1v0.7h0c-0.1,0-0.2,0-0.3,0c-0.7,0-1.4,0.5-1.4,1.4
		v2.6h-0.7v-4.7h0.7V255.3z"/>
	<path d="M255.3,254.5h0.6v-0.7c0-0.8,0.5-1.1,1.2-1.1c0.2,0,0.3,0,0.4,0v0.6c-0.1,0-0.2,0-0.2,0c-0.5,0-0.6,0.1-0.6,0.5v0.7h0.9
		v0.6h-0.9v4.1h-0.7v-4.1h-0.6V254.5z"/>
	<path d="M257.8,256.8c0-1.4,0.9-2.4,2.2-2.4c1.4,0,2.1,1.1,2.1,2.6h-3.6c0.1,0.9,0.6,1.7,1.5,1.7c0.7,0,1.1-0.3,1.3-1h0.7
		c-0.2,1-0.9,1.6-2,1.6C258.7,259.3,257.8,258.2,257.8,256.8z M258.6,256.5h2.8c0-0.9-0.5-1.5-1.4-1.5
		C259.2,255,258.7,255.6,258.6,256.5z"/>
	<path d="M262.6,256.8c0-1.4,0.9-2.4,2.2-2.4c1.4,0,2.1,1.1,2.1,2.6h-3.6c0.1,0.9,0.6,1.7,1.5,1.7c0.7,0,1.1-0.3,1.3-1h0.7
		c-0.2,1-0.9,1.6-2,1.6C263.5,259.3,262.6,258.2,262.6,256.8z M263.4,256.5h2.8c0-0.9-0.5-1.5-1.4-1.5
		C264,255,263.5,255.6,263.4,256.5z"/>
	<path d="M267.4,256.8c0-1.5,0.9-2.4,2-2.4c0.7,0,1.2,0.3,1.5,0.8h0v-2.4h0.7v6.4h-0.7v-0.6h0c-0.4,0.5-0.8,0.7-1.4,0.7
		C268.2,259.3,267.4,258.3,267.4,256.8z M271,256.9c0-1.1-0.5-1.8-1.5-1.8c-0.9,0-1.3,0.8-1.3,1.8c0,1.1,0.5,1.8,1.3,1.8
		C270.5,258.7,271,257.9,271,256.9z"/>
	<path d="M273.4,258.5L273.4,258.5l0,0.6h-0.7v-6.4h0.7v2.4h0c0.4-0.5,0.8-0.8,1.5-0.8c1.2,0,2,0.9,2,2.4c0,1.5-0.7,2.4-2,2.4
		C274.2,259.3,273.8,259.1,273.4,258.5z M276.1,256.9c0-1-0.4-1.8-1.3-1.8c-1,0-1.5,0.8-1.5,1.8c0,1,0.5,1.8,1.5,1.8
		C275.7,258.7,276.1,257.9,276.1,256.9z"/>
	<path d="M280.5,258.5L280.5,258.5c-0.3,0.4-0.8,0.7-1.6,0.7c-0.9,0-1.6-0.4-1.6-1.3c0-1.1,0.9-1.3,2-1.5c0.7-0.1,1.1-0.2,1.1-0.7
		c0-0.5-0.4-0.8-1-0.8c-0.8,0-1.1,0.3-1.2,1h-0.7c0-0.9,0.6-1.6,1.9-1.6c1,0,1.7,0.4,1.7,1.5v2.2c0,0.4,0.1,0.6,0.5,0.5h0v0.5
		c-0.1,0-0.2,0.1-0.4,0.1C280.8,259.2,280.5,259,280.5,258.5z M280.5,257.4v-0.8c-0.2,0.2-0.7,0.3-1.1,0.3c-0.7,0.1-1.3,0.3-1.3,0.9
		c0,0.6,0.5,0.8,1,0.8C280,258.7,280.5,258,280.5,257.4z"/>
	<path d="M281.9,256.8c0-1.4,0.9-2.4,2.3-2.4c1.1,0,1.8,0.6,2,1.6h-0.7c-0.1-0.6-0.5-1-1.3-1c-1,0-1.5,0.8-1.5,1.8
		c0,1,0.5,1.8,1.5,1.8c0.8,0,1.2-0.4,1.3-1.2h0.7c-0.1,1.1-0.8,1.8-2,1.8C282.8,259.3,281.9,258.2,281.9,256.8z"/>
	<path d="M288.3,256.6l-0.7,0.6v1.9h-0.7v-6.4h0.7v3.8l2-2h0.9l-1.8,1.7l2,3h-0.9L288.3,256.6z"/>
	<path d="M291.3,259.9c0.2-0.1,0.4-0.2,0.4-0.7h-0.4v-0.9h0.9v0.9c0,0.7-0.4,1-0.9,1.1V259.9z"/>
	<path d="M294.2,256.8c0-1.5,0.9-2.4,2-2.4c0.7,0,1.2,0.3,1.5,0.8h0v-2.4h0.7v6.4h-0.7v-0.6h0c-0.4,0.5-0.8,0.7-1.4,0.7
		C295,259.3,294.2,258.3,294.2,256.8z M297.8,256.9c0-1.1-0.5-1.8-1.5-1.8c-0.9,0-1.3,0.8-1.3,1.8c0,1.1,0.5,1.8,1.3,1.8
		C297.3,258.7,297.8,257.9,297.8,256.9z"/>
	<path d="M302.3,258.5L302.3,258.5c-0.3,0.4-0.8,0.7-1.6,0.7c-0.9,0-1.6-0.4-1.6-1.3c0-1.1,0.9-1.3,2-1.5c0.7-0.1,1.1-0.2,1.1-0.7
		c0-0.5-0.4-0.8-1-0.8c-0.8,0-1.1,0.3-1.2,1h-0.7c0-0.9,0.6-1.6,1.9-1.6c1,0,1.7,0.4,1.7,1.5v2.2c0,0.4,0.1,0.6,0.5,0.5h0v0.5
		c-0.1,0-0.2,0.1-0.4,0.1C302.6,259.2,302.4,259,302.3,258.5z M302.3,257.4v-0.8c-0.2,0.2-0.7,0.3-1.1,0.3c-0.7,0.1-1.3,0.3-1.3,0.9
		c0,0.6,0.5,0.8,1,0.8C301.9,258.7,302.3,258,302.3,257.4z"/>
	<path d="M303.6,254.5h0.7V253h0.7v1.5h0.9v0.6H305v3c0,0.3,0.2,0.4,0.5,0.4c0.1,0,0.3,0,0.4-0.1h0v0.6c-0.2,0-0.4,0.1-0.6,0.1
		c-0.6,0-1-0.2-1-0.9v-3.2h-0.7V254.5z"/>
	<path d="M309.6,258.5L309.6,258.5c-0.3,0.4-0.8,0.7-1.6,0.7c-0.9,0-1.6-0.4-1.6-1.3c0-1.1,0.9-1.3,2-1.5c0.7-0.1,1.1-0.2,1.1-0.7
		c0-0.5-0.4-0.8-1-0.8c-0.8,0-1.1,0.3-1.2,1h-0.7c0-0.9,0.6-1.6,1.9-1.6c1,0,1.7,0.4,1.7,1.5v2.2c0,0.4,0.1,0.6,0.5,0.5h0v0.5
		c-0.1,0-0.2,0.1-0.4,0.1C309.9,259.2,309.6,259,309.6,258.5z M309.6,257.4v-0.8c-0.2,0.2-0.7,0.3-1.1,0.3c-0.7,0.1-1.3,0.3-1.3,0.9
		c0,0.6,0.5,0.8,1,0.8C309.1,258.7,309.6,258,309.6,257.4z"/>
	<path d="M311.3,259.9c0.2-0.1,0.4-0.2,0.4-0.7h-0.4v-0.9h0.9v0.9c0,0.7-0.4,1-0.9,1.1V259.9z"/>
	<path d="M314.2,254.5h0.6v-0.7c0-0.8,0.5-1.1,1.2-1.1c0.2,0,0.3,0,0.4,0v0.6c-0.1,0-0.2,0-0.2,0c-0.5,0-0.6,0.1-0.6,0.5v0.7h0.9
		v0.6h-0.9v4.1h-0.7v-4.1h-0.6V254.5z M317.1,252.7h0.7v0.9h-0.7V252.7z M317.1,254.5h0.7v4.7h-0.7V254.5z"/>
	<path d="M319.5,255.1L319.5,255.1c0.4-0.4,0.8-0.7,1.5-0.7c1,0,1.6,0.5,1.6,1.5v3.3h-0.7V256c0-0.6-0.4-0.9-1.1-0.9
		c-0.7,0-1.3,0.5-1.3,1.3v2.9h-0.7v-4.7h0.7V255.1z"/>
	<path d="M326.4,258.5L326.4,258.5c-0.3,0.4-0.8,0.7-1.6,0.7c-0.9,0-1.6-0.4-1.6-1.3c0-1.1,0.9-1.3,2-1.5c0.7-0.1,1.1-0.2,1.1-0.7
		c0-0.5-0.4-0.8-1-0.8c-0.8,0-1.1,0.3-1.2,1h-0.7c0-0.9,0.6-1.6,1.9-1.6c1,0,1.7,0.4,1.7,1.5v2.2c0,0.4,0.1,0.6,0.5,0.5h0v0.5
		c-0.1,0-0.2,0.1-0.4,0.1C326.7,259.2,326.5,259,326.4,258.5z M326.4,257.4v-0.8c-0.2,0.2-0.7,0.3-1.1,0.3c-0.7,0.1-1.3,0.3-1.3,0.9
		c0,0.6,0.5,0.8,1,0.8C326,258.7,326.4,258,326.4,257.4z"/>
	<path d="M328.9,255.1L328.9,255.1c0.4-0.4,0.8-0.7,1.5-0.7c1,0,1.6,0.5,1.6,1.5v3.3h-0.7V256c0-0.6-0.4-0.9-1.1-0.9
		c-0.7,0-1.3,0.5-1.3,1.3v2.9h-0.7v-4.7h0.7V255.1z"/>
	<path d="M332.6,256.8c0-1.4,0.9-2.4,2.3-2.4c1.1,0,1.8,0.6,2,1.6h-0.7c-0.1-0.6-0.5-1-1.3-1c-1,0-1.5,0.8-1.5,1.8
		c0,1,0.5,1.8,1.5,1.8c0.8,0,1.2-0.4,1.3-1.2h0.7c-0.1,1.1-0.8,1.8-2,1.8C333.5,259.3,332.6,258.2,332.6,256.8z"/>
	<path d="M337.6,252.7h0.7v0.9h-0.7V252.7z M337.6,254.5h0.7v4.7h-0.7V254.5z"/>
	<path d="M342.1,258.5L342.1,258.5c-0.3,0.4-0.8,0.7-1.6,0.7c-0.9,0-1.6-0.4-1.6-1.3c0-1.1,0.9-1.3,2-1.5c0.7-0.1,1.1-0.2,1.1-0.7
		c0-0.5-0.4-0.8-1-0.8c-0.8,0-1.1,0.3-1.2,1h-0.7c0-0.9,0.6-1.6,1.9-1.6c1,0,1.7,0.4,1.7,1.5v2.2c0,0.4,0.1,0.6,0.5,0.5h0v0.5
		c-0.1,0-0.2,0.1-0.4,0.1C342.5,259.2,342.2,259,342.1,258.5z M342.2,257.4v-0.8c-0.2,0.2-0.7,0.3-1.1,0.3c-0.7,0.1-1.3,0.3-1.3,0.9
		c0,0.6,0.5,0.8,1,0.8C341.7,258.7,342.2,258,342.2,257.4z"/>
	<path d="M343.9,252.7h0.7v6.4h-0.7V252.7z"/>
</g>
<g class="st0">
	<path d="M232.5,265.3h0.7v0.7h0c0.4-0.5,0.8-0.8,1.5-0.8c1.2,0,2,0.9,2,2.4c0,1.5-0.8,2.4-2,2.4c-0.6,0-1.1-0.2-1.5-0.7h0v2h-0.7
		V265.3z M236,267.7c0-1-0.4-1.8-1.3-1.8c-1,0-1.5,0.8-1.5,1.8s0.4,1.8,1.5,1.8C235.5,269.5,236,268.7,236,267.7z"/>
	<path d="M237.2,267.6c0-1.4,0.9-2.4,2.2-2.4c1.4,0,2.1,1.1,2.1,2.6h-3.6c0.1,0.9,0.6,1.7,1.5,1.7c0.7,0,1.1-0.3,1.3-1h0.7
		c-0.2,1-0.9,1.6-2,1.6C238,270.1,237.2,269,237.2,267.6z M238,267.3h2.8c0-0.9-0.5-1.5-1.4-1.5C238.5,265.8,238.1,266.4,238,267.3z
		"/>
	<path d="M243,266.1L243,266.1c0.3-0.5,0.8-0.8,1.4-0.8c0.1,0,0.2,0,0.3,0.1v0.7h0c-0.1,0-0.2,0-0.3,0c-0.7,0-1.3,0.5-1.3,1.4v2.6
		h-0.7v-4.7h0.7V266.1z"/>
	<path d="M245,265.3h0.6v-0.7c0-0.8,0.5-1.1,1.2-1.1c0.2,0,0.3,0,0.4,0v0.6c-0.1,0-0.2,0-0.2,0c-0.5,0-0.6,0.1-0.6,0.5v0.7h0.9v0.6
		h-0.9v4.1h-0.7v-4.1H245V265.3z"/>
	<path d="M247.6,267.6c0-1.4,0.9-2.4,2.3-2.4c1.4,0,2.2,1.1,2.2,2.4c0,1.3-0.8,2.4-2.2,2.4C248.4,270.1,247.6,269,247.6,267.6z
		 M251.3,267.6c0-1-0.5-1.8-1.5-1.8s-1.5,0.8-1.5,1.8c0,1,0.5,1.8,1.5,1.8S251.3,268.7,251.3,267.6z"/>
	<path d="M253.5,266.1L253.5,266.1c0.3-0.5,0.8-0.8,1.4-0.8c0.1,0,0.2,0,0.3,0.1v0.7h0c-0.1,0-0.2,0-0.3,0c-0.7,0-1.4,0.5-1.4,1.4
		v2.6h-0.7v-4.7h0.7V266.1z"/>
	<path d="M255.9,265.3h0.7v0.7h0c0.3-0.5,0.8-0.8,1.4-0.8c0.6,0,1,0.3,1.2,0.8h0c0.3-0.5,0.9-0.8,1.4-0.8c0.8,0,1.4,0.5,1.4,1.5v3.3
		h-0.7v-3.2c0-0.6-0.4-0.9-0.9-0.9c-0.6,0-1.1,0.5-1.1,1.3v2.9h-0.7v-3.2c0-0.6-0.3-0.9-0.8-0.9c-0.6,0-1.2,0.5-1.2,1.3v2.9h-0.7
		V265.3z"/>
	<path d="M265.9,269.3L265.9,269.3c-0.3,0.4-0.8,0.7-1.6,0.7c-0.9,0-1.6-0.4-1.6-1.3c0-1.1,0.9-1.3,2-1.5c0.7-0.1,1.1-0.2,1.1-0.7
		c0-0.5-0.4-0.8-1-0.8c-0.8,0-1.1,0.3-1.2,1H263c0-0.9,0.6-1.6,1.9-1.6c1,0,1.7,0.4,1.7,1.5v2.2c0,0.4,0.1,0.6,0.5,0.5h0v0.5
		c-0.1,0-0.2,0.1-0.4,0.1C266.2,270,266,269.8,265.9,269.3z M265.9,268.2v-0.8c-0.2,0.2-0.7,0.3-1.1,0.3c-0.7,0.1-1.3,0.3-1.3,0.9
		c0,0.6,0.5,0.8,1,0.8C265.5,269.5,265.9,268.8,265.9,268.2z"/>
	<path d="M268.4,265.9L268.4,265.9c0.4-0.4,0.8-0.7,1.5-0.7c1,0,1.6,0.5,1.6,1.5v3.3h-0.7v-3.2c0-0.6-0.4-0.9-1.1-0.9
		c-0.7,0-1.3,0.5-1.3,1.3v2.9h-0.7v-4.7h0.7V265.9z"/>
	<path d="M272.1,267.6c0-1.4,0.9-2.4,2.3-2.4c1.1,0,1.8,0.6,2,1.6h-0.7c-0.1-0.6-0.5-1-1.3-1c-1,0-1.5,0.8-1.5,1.8
		c0,1,0.5,1.8,1.5,1.8c0.8,0,1.2-0.4,1.3-1.2h0.7c-0.1,1.1-0.8,1.8-2,1.8C273,270.1,272.1,269,272.1,267.6z"/>
	<path d="M276.8,267.6c0-1.4,0.9-2.4,2.2-2.4c1.4,0,2.1,1.1,2.1,2.6h-3.6c0.1,0.9,0.6,1.7,1.5,1.7c0.7,0,1.1-0.3,1.3-1h0.7
		c-0.2,1-0.9,1.6-2,1.6C277.6,270.1,276.8,269,276.8,267.6z M277.6,267.3h2.8c0-0.9-0.5-1.5-1.4-1.5
		C278.1,265.8,277.7,266.4,277.6,267.3z"/>
	<path d="M281.7,270.7c0.2-0.1,0.4-0.2,0.4-0.7h-0.4v-0.9h0.9v0.9c0,0.7-0.4,1-0.9,1.1V270.7z"/>
	<path d="M284.6,267.6c0-1.4,0.9-2.4,2.3-2.4c1.1,0,1.8,0.6,2,1.6h-0.7c-0.1-0.6-0.5-1-1.3-1c-1,0-1.5,0.8-1.5,1.8
		c0,1,0.5,1.8,1.5,1.8c0.8,0,1.2-0.4,1.3-1.2h0.7c-0.1,1.1-0.8,1.8-2,1.8C285.5,270.1,284.6,269,284.6,267.6z"/>
	<path d="M289.3,267.6c0-1.4,0.9-2.4,2.3-2.4c1.4,0,2.2,1.1,2.2,2.4c0,1.3-0.8,2.4-2.2,2.4C290.1,270.1,289.3,269,289.3,267.6z
		 M293,267.6c0-1-0.5-1.8-1.5-1.8s-1.5,0.8-1.5,1.8c0,1,0.5,1.8,1.5,1.8S293,268.7,293,267.6z"/>
	<path d="M294.5,265.3h0.7v0.7h0c0.3-0.5,0.8-0.8,1.4-0.8c0.6,0,1,0.3,1.2,0.8h0c0.3-0.5,0.9-0.8,1.4-0.8c0.8,0,1.4,0.5,1.4,1.5v3.3
		h-0.7v-3.2c0-0.6-0.4-0.9-0.9-0.9c-0.6,0-1.1,0.5-1.1,1.3v2.9h-0.7v-3.2c0-0.6-0.3-0.9-0.8-0.9c-0.6,0-1.2,0.5-1.2,1.3v2.9h-0.7
		V265.3z"/>
	<path d="M301.6,265.3h0.7v0.7h0c0.4-0.5,0.8-0.8,1.5-0.8c1.2,0,2,0.9,2,2.4c0,1.5-0.8,2.4-2,2.4c-0.6,0-1.1-0.2-1.5-0.7h0v2h-0.7
		V265.3z M305.1,267.7c0-1-0.4-1.8-1.3-1.8c-1,0-1.5,0.8-1.5,1.8s0.4,1.8,1.5,1.8C304.7,269.5,305.1,268.7,305.1,267.7z"/>
	<path d="M306.3,267.6c0-1.4,0.9-2.4,2.2-2.4c1.4,0,2.1,1.1,2.1,2.6h-3.6c0.1,0.9,0.6,1.7,1.5,1.7c0.7,0,1.1-0.3,1.3-1h0.7
		c-0.2,1-0.9,1.6-2,1.6C307.2,270.1,306.3,269,306.3,267.6z M307.1,267.3h2.8c0-0.9-0.5-1.5-1.4-1.5
		C307.7,265.8,307.2,266.4,307.1,267.3z"/>
	<path d="M311,265.3h0.7v-1.5h0.7v1.5h0.9v0.6h-0.9v3c0,0.3,0.2,0.4,0.5,0.4c0.1,0,0.3,0,0.4-0.1h0v0.6c-0.2,0-0.4,0.1-0.6,0.1
		c-0.6,0-1-0.2-1-0.9v-3.2H311V265.3z"/>
	<path d="M314.1,263.5h0.7v0.9h-0.7V263.5z M314.1,265.3h0.7v4.7h-0.7V265.3z"/>
	<path d="M315.5,265.3h0.7v-1.5h0.7v1.5h0.9v0.6h-0.9v3c0,0.3,0.2,0.4,0.5,0.4c0.1,0,0.3,0,0.4-0.1h0v0.6c-0.2,0-0.4,0.1-0.6,0.1
		c-0.6,0-1-0.2-1-0.9v-3.2h-0.7V265.3z"/>
	<path d="M318.2,267.6c0-1.4,0.9-2.4,2.3-2.4c1.4,0,2.2,1.1,2.2,2.4c0,1.3-0.8,2.4-2.2,2.4C319.1,270.1,318.2,269,318.2,267.6z
		 M322,267.6c0-1-0.5-1.8-1.5-1.8s-1.5,0.8-1.5,1.8c0,1,0.5,1.8,1.5,1.8S322,268.7,322,267.6z"/>
	<path d="M324.2,266.1L324.2,266.1c0.3-0.5,0.8-0.8,1.4-0.8c0.1,0,0.2,0,0.3,0.1v0.7h0c-0.1,0-0.2,0-0.3,0c-0.7,0-1.3,0.5-1.3,1.4
		v2.6h-0.7v-4.7h0.7V266.1z"/>
	<path d="M326.3,268.4h0.7c0.1,0.8,0.6,1,1.3,1c0.8,0,1.1-0.3,1.1-0.8c0-0.5-0.4-0.7-1.2-0.8c-0.9-0.2-1.7-0.4-1.7-1.4
		c0-0.8,0.6-1.3,1.7-1.3c1.2,0,1.7,0.5,1.8,1.5h-0.7c-0.1-0.6-0.4-0.9-1.1-0.9c-0.7,0-0.9,0.3-0.9,0.7c0,0.5,0.5,0.6,1.3,0.8
		c0.9,0.2,1.7,0.4,1.7,1.5c0,0.9-0.8,1.4-1.8,1.4C327,270.1,326.3,269.5,326.3,268.4z"/>
</g>
<rect x="59" y="42" class="st1" width="140.7" height="58.5"/>
<g class="st0">
	<path d="M72.6,43.7h5.8v0.9h-4.7v2.7h3.9v0.9h-3.9v4h-1.1V43.7z"/>
	<path d="M82.9,52.3v-0.9h0c-0.4,0.6-1,1-1.9,1c-1.3,0-2.1-0.8-2.1-2.1v-4.3h1v4.3c0,0.8,0.5,1.3,1.4,1.3c1,0,1.6-0.7,1.6-1.7v-3.8
		h1v6.2H82.9z"/>
	<path d="M84.8,46.1h0.9v-2h1v2h1.2v0.8h-1.2v4c0,0.4,0.2,0.6,0.6,0.6c0.2,0,0.4,0,0.5-0.1h0v0.8c-0.2,0-0.5,0.1-0.8,0.1
		c-0.8,0-1.4-0.3-1.4-1.2v-4.2h-0.9V46.1z"/>
	<path d="M92.8,52.3v-0.9h0c-0.4,0.6-1,1-1.9,1c-1.3,0-2.1-0.8-2.1-2.1v-4.3h1v4.3c0,0.8,0.5,1.3,1.4,1.3c1,0,1.6-0.7,1.6-1.7v-3.8
		h1v6.2H92.8z"/>
	<path d="M96.1,47.1L96.1,47.1c0.4-0.6,1-1.1,1.9-1.1c0.2,0,0.3,0,0.4,0.1v0.9h0c-0.1,0-0.2-0.1-0.4-0.1c-1,0-1.8,0.7-1.8,1.9v3.4
		h-1v-6.2h1V47.1z"/>
	<path d="M98.6,49.2c0-1.8,1.2-3.3,2.9-3.3c1.9,0,2.9,1.4,2.9,3.5h-4.8c0.1,1.3,0.8,2.2,2,2.2c0.9,0,1.5-0.4,1.7-1.3h0.9
		c-0.3,1.3-1.3,2.1-2.7,2.1C99.7,52.5,98.6,51,98.6,49.2z M99.7,48.7h3.7c-0.1-1.2-0.7-2-1.8-2C100.4,46.7,99.8,47.6,99.7,48.7z"/>
	<path d="M105,50.3h1c0.1,1.1,0.9,1.4,1.8,1.4c1,0,1.4-0.4,1.4-1c0-0.7-0.5-0.9-1.6-1.1c-1.2-0.3-2.3-0.5-2.3-1.9
		c0-1,0.8-1.7,2.2-1.7c1.5,0,2.3,0.7,2.4,1.9h-1c-0.1-0.8-0.5-1.2-1.5-1.2c-0.9,0-1.2,0.4-1.2,0.9c0,0.7,0.6,0.8,1.7,1
		c1.2,0.3,2.3,0.5,2.3,2c0,1.2-1,1.9-2.4,1.9C106,52.5,105.1,51.7,105,50.3z"/>
	<path d="M110.6,46.1h0.9v-2h1v2h1.2v0.8h-1.2v4c0,0.4,0.2,0.6,0.6,0.6c0.2,0,0.4,0,0.5-0.1h0v0.8c-0.2,0-0.5,0.1-0.8,0.1
		c-0.8,0-1.4-0.3-1.4-1.2v-4.2h-0.9V46.1z"/>
	<path d="M118.5,51.5L118.5,51.5c-0.4,0.5-1,1-2.1,1c-1.2,0-2.1-0.6-2.1-1.7c0-1.5,1.2-1.8,2.7-2c0.9-0.1,1.5-0.2,1.5-0.9
		c0-0.7-0.5-1.1-1.4-1.1c-1,0-1.5,0.4-1.5,1.4h-0.9c0-1.2,0.8-2.1,2.5-2.1c1.3,0,2.3,0.5,2.3,2v3c0,0.5,0.1,0.8,0.7,0.7h0v0.7
		c-0.1,0-0.3,0.1-0.5,0.1C118.9,52.4,118.6,52.1,118.5,51.5z M118.5,50V49c-0.3,0.2-0.9,0.4-1.4,0.5c-1,0.2-1.8,0.3-1.8,1.3
		c0,0.8,0.6,1,1.3,1C117.9,51.7,118.5,50.7,118.5,50z"/>
	<path d="M120.3,46.1h0.9v-2h1v2h1.2v0.8h-1.2v4c0,0.4,0.2,0.6,0.6,0.6c0.2,0,0.4,0,0.5-0.1h0v0.8c-0.2,0-0.5,0.1-0.8,0.1
		c-0.8,0-1.4-0.3-1.4-1.2v-4.2h-0.9V46.1z"/>
	<path d="M124,49.2c0-1.8,1.2-3.3,2.9-3.3c1.9,0,2.9,1.4,2.9,3.5h-4.8c0.1,1.3,0.8,2.2,2,2.2c0.9,0,1.5-0.4,1.7-1.3h0.9
		c-0.3,1.3-1.3,2.1-2.7,2.1C125.1,52.5,124,51,124,49.2z M125,48.7h3.7c-0.1-1.2-0.7-2-1.8-2C125.7,46.7,125.1,47.6,125,48.7z"/>
	<path d="M132.6,43.7h1v1.2h-1V43.7z M132.6,46.1h1v6.2h-1V46.1z"/>
	<path d="M135.9,46.9L135.9,46.9c0.5-0.6,1.1-1,2-1c1.3,0,2.1,0.7,2.1,2v4.4h-1V48c0-0.8-0.5-1.3-1.4-1.3c-1,0-1.7,0.7-1.7,1.7v3.8
		h-1v-6.2h1V46.9z"/>
	<path d="M140.8,46.1h0.9v-1c0-1.1,0.6-1.5,1.6-1.5c0.2,0,0.4,0,0.5,0v0.8c-0.2,0-0.2,0-0.3,0c-0.6,0-0.9,0.2-0.9,0.7v0.9h1.2v0.8
		h-1.2v5.4h-1v-5.4h-0.9V46.1z M144.6,43.7h1v8.6h-1V43.7z"/>
	<path d="M150.9,52.3v-0.9h0c-0.4,0.6-1,1-1.9,1c-1.3,0-2.1-0.8-2.1-2.1v-4.3h1v4.3c0,0.8,0.5,1.3,1.4,1.3c1,0,1.6-0.7,1.6-1.7v-3.8
		h1v6.2H150.9z"/>
	<path d="M152.8,49.2c0-1.8,1.2-3.3,2.9-3.3c1.9,0,2.9,1.4,2.9,3.5h-4.8c0.1,1.3,0.8,2.2,2,2.2c0.9,0,1.5-0.4,1.7-1.3h0.9
		c-0.3,1.3-1.3,2.1-2.7,2.1C153.9,52.5,152.8,51,152.8,49.2z M153.9,48.7h3.7c-0.1-1.2-0.7-2-1.8-2C154.6,46.7,154,47.6,153.9,48.7z
		"/>
	<path d="M160.6,46.9L160.6,46.9c0.5-0.6,1.1-1,2-1c1.3,0,2.1,0.7,2.1,2v4.4h-1V48c0-0.8-0.5-1.3-1.4-1.3c-1,0-1.7,0.7-1.7,1.7v3.8
		h-1v-6.2h1V46.9z"/>
	<path d="M165.6,49.2c0-1.8,1.2-3.3,3-3.3c1.5,0,2.4,0.8,2.7,2.2h-1c-0.1-0.8-0.7-1.4-1.7-1.4c-1.3,0-2,1.1-2,2.5
		c0,1.4,0.7,2.4,2,2.4c1,0,1.6-0.6,1.7-1.5h1c-0.1,1.5-1.1,2.4-2.7,2.4C166.7,52.5,165.6,51,165.6,49.2z"/>
	<path d="M171.8,49.2c0-1.8,1.2-3.3,2.9-3.3c1.9,0,2.9,1.4,2.9,3.5h-4.8c0.1,1.3,0.8,2.2,2,2.2c0.9,0,1.5-0.4,1.7-1.3h0.9
		c-0.3,1.3-1.3,2.1-2.7,2.1C172.9,52.5,171.8,51,171.8,49.2z M172.8,48.7h3.7c-0.1-1.2-0.7-2-1.8-2C173.6,46.7,173,47.6,172.8,48.7z
		"/>
	<path d="M178.1,50.3h1c0.1,1.1,0.9,1.4,1.8,1.4c1,0,1.4-0.4,1.4-1c0-0.7-0.5-0.9-1.6-1.1c-1.2-0.3-2.3-0.5-2.3-1.9
		c0-1,0.8-1.7,2.2-1.7c1.5,0,2.3,0.7,2.4,1.9h-1c-0.1-0.8-0.5-1.2-1.5-1.2c-0.9,0-1.2,0.4-1.2,0.9c0,0.7,0.6,0.8,1.7,1
		c1.2,0.3,2.3,0.5,2.3,2c0,1.2-1,1.9-2.4,1.9C179.2,52.5,178.2,51.7,178.1,50.3z"/>
	<path d="M184.2,47.5h1.2v1.2h-1.2V47.5z M184.2,51.1h1.2v1.2h-1.2V51.1z"/>
</g>
<g class="st0">
	<path d="M74.2,59.1L74.2,59.1c0.4-0.4,0.8-0.7,1.5-0.7c1,0,1.6,0.5,1.6,1.5v3.3h-0.7v-3.2c0-0.6-0.4-0.9-1.1-0.9
		c-0.7,0-1.3,0.5-1.3,1.3v2.9h-0.7v-4.7h0.7V59.1z"/>
	<path d="M78,60.8c0-1.4,0.9-2.4,2.2-2.4c1.4,0,2.1,1.1,2.1,2.6h-3.6c0.1,0.9,0.6,1.7,1.5,1.7c0.7,0,1.1-0.3,1.3-1h0.7
		c-0.2,1-0.9,1.6-2,1.6C78.8,63.2,78,62.1,78,60.8z M78.7,60.4h2.8c0-0.9-0.5-1.5-1.4-1.5C79.3,58.9,78.8,59.6,78.7,60.4z"/>
	<path d="M82.5,58.5h0.8l0.8,2.9c0.1,0.4,0.3,1,0.3,1h0c0,0,0.1-0.6,0.2-1l0.8-2.9h0.8l0.8,2.9c0.1,0.4,0.2,1,0.2,1h0
		c0,0,0.1-0.6,0.3-1l0.9-2.9H89l-1.5,4.7h-0.7L86,60.3c-0.1-0.4-0.2-1-0.2-1h0c0,0-0.1,0.6-0.2,1l-0.8,2.8h-0.8L82.5,58.5z"/>
	<path d="M90.7,60.8c0-1.4,0.9-2.4,2.3-2.4c1.1,0,1.8,0.6,2,1.6h-0.7c-0.1-0.6-0.5-1-1.3-1c-1,0-1.5,0.8-1.5,1.8
		c0,1,0.5,1.8,1.5,1.8c0.8,0,1.2-0.4,1.3-1.2h0.7c-0.1,1.1-0.8,1.8-2,1.8C91.6,63.2,90.7,62.1,90.7,60.8z"/>
	<path d="M95.4,60.8c0-1.4,0.9-2.4,2.3-2.4c1.4,0,2.2,1.1,2.2,2.4c0,1.3-0.8,2.4-2.2,2.4C96.2,63.2,95.4,62.1,95.4,60.8z M99.1,60.8
		c0-1-0.5-1.8-1.5-1.8s-1.5,0.8-1.5,1.8c0,1,0.5,1.8,1.5,1.8S99.1,61.8,99.1,60.8z"/>
	<path d="M101.3,59.1L101.3,59.1c0.4-0.4,0.8-0.7,1.5-0.7c1,0,1.6,0.5,1.6,1.5v3.3h-0.7v-3.2c0-0.6-0.4-0.9-1.1-0.9
		c-0.7,0-1.3,0.5-1.3,1.3v2.9h-0.7v-4.7h0.7V59.1z"/>
	<path d="M105.1,60.8c0-1.4,0.9-2.4,2.3-2.4c1.1,0,1.8,0.6,2,1.6h-0.7c-0.1-0.6-0.5-1-1.3-1c-1,0-1.5,0.8-1.5,1.8
		c0,1,0.5,1.8,1.5,1.8c0.8,0,1.2-0.4,1.3-1.2h0.7c-0.1,1.1-0.8,1.8-2,1.8C105.9,63.2,105.1,62.1,105.1,60.8z"/>
	<path d="M109.7,60.8c0-1.4,0.9-2.4,2.2-2.4c1.4,0,2.1,1.1,2.1,2.6h-3.6c0.1,0.9,0.6,1.7,1.5,1.7c0.7,0,1.1-0.3,1.3-1h0.7
		c-0.2,1-0.9,1.6-2,1.6C110.6,63.2,109.7,62.1,109.7,60.8z M110.5,60.4h2.8c0-0.9-0.5-1.5-1.4-1.5C111.1,58.9,110.6,59.6,110.5,60.4
		z"/>
	<path d="M114.8,58.5h0.7v0.7h0c0.4-0.5,0.8-0.8,1.5-0.8c1.2,0,2,0.9,2,2.4c0,1.5-0.8,2.4-2,2.4c-0.6,0-1.1-0.2-1.5-0.7h0v2h-0.7
		V58.5z M118.3,60.8c0-1-0.4-1.8-1.3-1.8c-1,0-1.5,0.8-1.5,1.8s0.4,1.8,1.5,1.8C117.9,62.6,118.3,61.9,118.3,60.8z"/>
	<path d="M119.3,58.5h0.7V57h0.7v1.5h0.9v0.6h-0.9v3c0,0.3,0.2,0.4,0.5,0.4c0.1,0,0.3,0,0.4-0.1h0v0.6c-0.2,0-0.4,0.1-0.6,0.1
		c-0.6,0-1-0.2-1-0.9v-3.2h-0.7V58.5z"/>
	<path d="M122.1,61.6h0.7c0.1,0.8,0.6,1,1.3,1c0.8,0,1.1-0.3,1.1-0.8c0-0.5-0.4-0.7-1.2-0.8c-0.9-0.2-1.7-0.4-1.7-1.4
		c0-0.8,0.6-1.3,1.7-1.3c1.2,0,1.7,0.5,1.8,1.5h-0.7c-0.1-0.6-0.4-0.9-1.1-0.9c-0.7,0-0.9,0.3-0.9,0.7c0,0.5,0.5,0.6,1.3,0.8
		c0.9,0.2,1.7,0.4,1.7,1.5c0,0.9-0.8,1.4-1.8,1.4C122.9,63.3,122.2,62.6,122.1,61.6z"/>
	<path d="M126.6,63.9c0.2-0.1,0.4-0.2,0.4-0.7h-0.4v-0.9h0.9v0.9c0,0.7-0.4,1-0.9,1.1V63.9z"/>
	<path d="M129.8,56.7h0.7v6.4h-0.7V56.7z"/>
	<path d="M134.4,62.5L134.4,62.5c-0.3,0.4-0.8,0.7-1.6,0.7c-0.9,0-1.6-0.4-1.6-1.3c0-1.1,0.9-1.3,2-1.5c0.7-0.1,1.1-0.2,1.1-0.7
		c0-0.5-0.4-0.8-1-0.8c-0.8,0-1.1,0.3-1.2,1h-0.7c0-0.9,0.6-1.6,1.9-1.6c1,0,1.7,0.4,1.7,1.5v2.2c0,0.4,0.1,0.6,0.5,0.5h0v0.5
		c-0.1,0-0.2,0.1-0.4,0.1C134.7,63.2,134.5,62.9,134.4,62.5z M134.4,61.4v-0.8c-0.2,0.2-0.7,0.3-1.1,0.3c-0.7,0.1-1.3,0.3-1.3,0.9
		c0,0.6,0.5,0.8,1,0.8C134,62.6,134.4,61.9,134.4,61.4z"/>
	<path d="M135.8,58.5h0.7V57h0.7v1.5h0.9v0.6h-0.9v3c0,0.3,0.2,0.4,0.5,0.4c0.1,0,0.3,0,0.4-0.1h0v0.6c-0.2,0-0.4,0.1-0.6,0.1
		c-0.6,0-1-0.2-1-0.9v-3.2h-0.7V58.5z"/>
	<path d="M138.5,60.8c0-1.4,0.9-2.4,2.2-2.4c1.4,0,2.1,1.1,2.1,2.6h-3.6c0.1,0.9,0.6,1.7,1.5,1.7c0.7,0,1.1-0.3,1.3-1h0.7
		c-0.2,1-0.9,1.6-2,1.6C139.4,63.2,138.5,62.1,138.5,60.8z M139.3,60.4h2.8c0-0.9-0.5-1.5-1.4-1.5C139.9,58.9,139.4,59.6,139.3,60.4
		z"/>
	<path d="M144.3,59.2L144.3,59.2c0.3-0.5,0.8-0.8,1.4-0.8c0.1,0,0.2,0,0.3,0.1v0.7h0c-0.1,0-0.2,0-0.3,0c-0.7,0-1.4,0.5-1.4,1.4v2.6
		h-0.7v-4.7h0.7V59.2z"/>
	<path d="M149.3,62.5L149.3,62.5c-0.3,0.4-0.8,0.7-1.6,0.7c-0.9,0-1.6-0.4-1.6-1.3c0-1.1,0.9-1.3,2-1.5c0.7-0.1,1.1-0.2,1.1-0.7
		c0-0.5-0.4-0.8-1-0.8c-0.8,0-1.1,0.3-1.2,1h-0.7c0-0.9,0.6-1.6,1.9-1.6c1,0,1.7,0.4,1.7,1.5v2.2c0,0.4,0.1,0.6,0.5,0.5h0v0.5
		c-0.1,0-0.2,0.1-0.4,0.1C149.7,63.2,149.4,62.9,149.3,62.5z M149.4,61.4v-0.8c-0.2,0.2-0.7,0.3-1.1,0.3c-0.7,0.1-1.3,0.3-1.3,0.9
		c0,0.6,0.5,0.8,1,0.8C148.9,62.6,149.4,61.9,149.4,61.4z"/>
	<path d="M151.1,56.7h0.7v6.4h-0.7V56.7z"/>
	<path d="M154,58.5h0.7V57h0.7v1.5h0.9v0.6h-0.9v3c0,0.3,0.2,0.4,0.5,0.4c0.1,0,0.3,0,0.4-0.1h0v0.6c-0.2,0-0.4,0.1-0.6,0.1
		c-0.6,0-1-0.2-1-0.9v-3.2H154V58.5z"/>
	<path d="M157.8,59.1L157.8,59.1c0.4-0.4,0.8-0.7,1.5-0.7c1,0,1.6,0.5,1.6,1.5v3.3h-0.7v-3.2c0-0.6-0.4-0.9-1.1-0.9
		c-0.7,0-1.3,0.5-1.3,1.3v2.9h-0.7v-6.4h0.7V59.1z"/>
	<path d="M161.8,56.7h0.7v0.9h-0.7V56.7z M161.8,58.5h0.7v4.7h-0.7V58.5z"/>
	<path d="M164.3,59.1L164.3,59.1c0.4-0.4,0.8-0.7,1.5-0.7c1,0,1.6,0.5,1.6,1.5v3.3h-0.7v-3.2c0-0.6-0.4-0.9-1.1-0.9
		c-0.7,0-1.3,0.5-1.3,1.3v2.9h-0.7v-4.7h0.7V59.1z"/>
	<path d="M169.7,60.6l-0.7,0.6v1.9h-0.7v-6.4h0.7v3.8l2-2h0.9l-1.8,1.7l2,3h-0.9L169.7,60.6z"/>
	<path d="M172.7,56.7h0.7v0.9h-0.7V56.7z M172.7,58.5h0.7v4.7h-0.7V58.5z"/>
	<path d="M175.1,59.1L175.1,59.1c0.4-0.4,0.8-0.7,1.5-0.7c1,0,1.6,0.5,1.6,1.5v3.3h-0.7v-3.2c0-0.6-0.4-0.9-1.1-0.9
		c-0.7,0-1.3,0.5-1.3,1.3v2.9h-0.7v-4.7h0.7V59.1z"/>
	<path d="M179,63.4h0.7c0.1,0.5,0.6,0.7,1.3,0.7c0.9,0,1.3-0.4,1.3-1.2v-0.7h0c-0.3,0.4-0.7,0.7-1.4,0.7c-1.2,0-2-1-2-2.3
		c0-1.4,0.9-2.3,2-2.3c0.7,0,1.1,0.3,1.4,0.7h0v-0.6h0.7v4.4c0,1.2-0.8,1.8-2,1.8C179.8,64.7,179.1,64.2,179,63.4z M182.4,60.6
		c0-1-0.4-1.6-1.4-1.6c-0.9,0-1.3,0.7-1.3,1.7c0,1,0.5,1.7,1.3,1.7C182,62.3,182.4,61.6,182.4,60.6z"/>
	<path d="M183.9,63.9c0.2-0.1,0.4-0.2,0.4-0.7h-0.4v-0.9h0.9v0.9c0,0.7-0.4,1-0.9,1.1V63.9z"/>
</g>
<g class="st0">
	<path d="M66.3,69.3H67v0.7h0c0.4-0.5,0.8-0.8,1.5-0.8c1.2,0,2,0.9,2,2.4c0,1.5-0.8,2.4-2,2.4c-0.6,0-1.1-0.2-1.5-0.7h0v2h-0.7V69.3
		z M69.8,71.6c0-1-0.4-1.8-1.3-1.8c-1,0-1.5,0.8-1.5,1.8s0.4,1.8,1.5,1.8C69.3,73.4,69.8,72.7,69.8,71.6z"/>
	<path d="M74.1,73.3L74.1,73.3c-0.3,0.4-0.8,0.7-1.6,0.7c-0.9,0-1.6-0.4-1.6-1.3c0-1.1,0.9-1.3,2-1.5c0.7-0.1,1.1-0.2,1.1-0.7
		c0-0.5-0.4-0.8-1-0.8c-0.8,0-1.1,0.3-1.2,1h-0.7c0-0.9,0.6-1.6,1.9-1.6c1,0,1.7,0.4,1.7,1.5v2.2c0,0.4,0.1,0.6,0.5,0.5h0v0.5
		c-0.1,0-0.2,0.1-0.4,0.1C74.4,74,74.2,73.7,74.1,73.3z M74.1,72.2v-0.8c-0.2,0.2-0.7,0.3-1.1,0.3c-0.7,0.1-1.3,0.3-1.3,0.9
		c0,0.6,0.5,0.8,1,0.8C73.7,73.4,74.1,72.7,74.1,72.2z"/>
	<path d="M76.5,70L76.5,70c0.3-0.5,0.8-0.8,1.4-0.8c0.1,0,0.2,0,0.3,0.1V70h0c-0.1,0-0.2,0-0.3,0c-0.7,0-1.4,0.5-1.4,1.4v2.6h-0.7
		v-4.7h0.7V70z"/>
	<path d="M81.6,73.3L81.6,73.3C81.3,73.6,80.8,74,80,74c-0.9,0-1.6-0.4-1.6-1.3c0-1.1,0.9-1.3,2-1.5c0.7-0.1,1.1-0.2,1.1-0.7
		c0-0.5-0.4-0.8-1-0.8c-0.8,0-1.1,0.3-1.2,1h-0.7c0-0.9,0.6-1.6,1.9-1.6c1,0,1.7,0.4,1.7,1.5v2.2c0,0.4,0.1,0.6,0.5,0.5h0v0.5
		c-0.1,0-0.2,0.1-0.4,0.1C81.9,74,81.6,73.7,81.6,73.3z M81.6,72.2v-0.8c-0.2,0.2-0.7,0.3-1.1,0.3c-0.7,0.1-1.3,0.3-1.3,0.9
		c0,0.6,0.5,0.8,1,0.8C81.2,73.4,81.6,72.7,81.6,72.2z"/>
	<path d="M83.3,67.5h0.7v6.4h-0.7V67.5z"/>
	<path d="M85.1,67.5h0.7v6.4h-0.7V67.5z"/>
	<path d="M86.6,71.6c0-1.4,0.9-2.4,2.2-2.4c1.4,0,2.1,1.1,2.1,2.6h-3.6c0.1,0.9,0.6,1.7,1.5,1.7c0.7,0,1.1-0.3,1.3-1h0.7
		c-0.2,1-0.9,1.6-2,1.6C87.4,74,86.6,72.9,86.6,71.6z M87.4,71.2h2.8c0-0.9-0.5-1.5-1.4-1.5C87.9,69.7,87.5,70.4,87.4,71.2z"/>
	<path d="M91.7,67.5h0.7v6.4h-0.7V67.5z"/>
	<path d="M94.6,72.4h0.7c0.1,0.8,0.6,1,1.3,1c0.8,0,1.1-0.3,1.1-0.8c0-0.5-0.4-0.7-1.2-0.8c-0.9-0.2-1.7-0.4-1.7-1.4
		c0-0.8,0.6-1.3,1.7-1.3c1.2,0,1.7,0.5,1.8,1.5h-0.7c-0.1-0.6-0.4-0.9-1.1-0.9c-0.7,0-0.9,0.3-0.9,0.7c0,0.5,0.5,0.6,1.3,0.8
		c0.9,0.2,1.7,0.4,1.7,1.5c0,0.9-0.8,1.4-1.8,1.4C95.3,74.1,94.6,73.4,94.6,72.4z"/>
	<path d="M99,71.6c0-1.4,0.9-2.4,2.2-2.4c1.4,0,2.1,1.1,2.1,2.6h-3.6c0.1,0.9,0.6,1.7,1.5,1.7c0.7,0,1.1-0.3,1.3-1h0.7
		c-0.2,1-0.9,1.6-2,1.6C99.8,74,99,72.9,99,71.6z M99.8,71.2h2.8c0-0.9-0.5-1.5-1.4-1.5C100.3,69.7,99.9,70.4,99.8,71.2z"/>
	<path d="M103.8,71.6c0-1.4,0.9-2.4,2.3-2.4c1.1,0,1.8,0.6,2,1.6h-0.7c-0.1-0.6-0.5-1-1.3-1c-1,0-1.5,0.8-1.5,1.8
		c0,1,0.5,1.8,1.5,1.8c0.8,0,1.2-0.4,1.3-1.2h0.7c-0.1,1.1-0.8,1.8-2,1.8C104.7,74,103.8,72.9,103.8,71.6z"/>
	<path d="M108.4,69.3h0.7v-1.5h0.7v1.5h0.9v0.6h-0.9v3c0,0.3,0.2,0.4,0.5,0.4c0.1,0,0.3,0,0.4-0.1h0v0.6c-0.2,0-0.4,0.1-0.6,0.1
		c-0.6,0-1-0.2-1-0.9v-3.2h-0.7V69.3z"/>
	<path d="M111.2,71.6c0-1.4,0.9-2.4,2.3-2.4c1.4,0,2.2,1.1,2.2,2.4c0,1.3-0.8,2.4-2.2,2.4C112,74,111.2,72.9,111.2,71.6z
		 M114.9,71.6c0-1-0.5-1.8-1.5-1.8s-1.5,0.8-1.5,1.8c0,1,0.5,1.8,1.5,1.8S114.9,72.6,114.9,71.6z"/>
	<path d="M117.1,70L117.1,70c0.3-0.5,0.8-0.8,1.4-0.8c0.1,0,0.2,0,0.3,0.1V70h0c-0.1,0-0.2,0-0.3,0c-0.7,0-1.4,0.5-1.4,1.4v2.6h-0.7
		v-4.7h0.7V70z"/>
	<path d="M119.2,72.4h0.7c0.1,0.8,0.6,1,1.3,1c0.8,0,1.1-0.3,1.1-0.8c0-0.5-0.4-0.7-1.2-0.8c-0.9-0.2-1.7-0.4-1.7-1.4
		c0-0.8,0.6-1.3,1.7-1.3c1.2,0,1.7,0.5,1.8,1.5h-0.7c-0.1-0.6-0.4-0.9-1.1-0.9c-0.7,0-0.9,0.3-0.9,0.7c0,0.5,0.5,0.6,1.3,0.8
		c0.9,0.2,1.7,0.4,1.7,1.5c0,0.9-0.8,1.4-1.8,1.4C120,74.1,119.3,73.4,119.2,72.4z"/>
	<path d="M123.7,74.7c0.2-0.1,0.4-0.2,0.4-0.7h-0.4V73h0.9v0.9c0,0.7-0.4,1-0.9,1.1V74.7z"/>
	<path d="M126.6,69.3h0.6v-0.7c0-0.8,0.5-1.1,1.2-1.1c0.2,0,0.3,0,0.4,0v0.6c-0.1,0-0.2,0-0.2,0c-0.5,0-0.6,0.1-0.6,0.5v0.7h0.9v0.6
		H128v4.1h-0.7v-4.1h-0.6V69.3z"/>
	<path d="M132.5,73.9v-0.6h0c-0.3,0.5-0.7,0.7-1.4,0.7c-1,0-1.6-0.6-1.6-1.5v-3.2h0.7v3.2c0,0.6,0.4,1,1,1c0.7,0,1.2-0.6,1.2-1.3
		v-2.9h0.7v4.7H132.5z"/>
	<path d="M133.9,69.3h0.7v-1.5h0.7v1.5h0.9v0.6h-0.9v3c0,0.3,0.2,0.4,0.5,0.4c0.1,0,0.3,0,0.4-0.1h0v0.6c-0.2,0-0.4,0.1-0.6,0.1
		c-0.6,0-1-0.2-1-0.9v-3.2h-0.7V69.3z"/>
	<path d="M139.9,73.9v-0.6h0c-0.3,0.5-0.7,0.7-1.4,0.7c-1,0-1.6-0.6-1.6-1.5v-3.2h0.7v3.2c0,0.6,0.4,1,1,1c0.7,0,1.2-0.6,1.2-1.3
		v-2.9h0.7v4.7H139.9z"/>
	<path d="M142.4,70L142.4,70c0.3-0.5,0.8-0.8,1.4-0.8c0.1,0,0.2,0,0.3,0.1V70h0c-0.1,0-0.2,0-0.3,0c-0.7,0-1.4,0.5-1.4,1.4v2.6h-0.7
		v-4.7h0.7V70z"/>
	<path d="M144.3,71.6c0-1.4,0.9-2.4,2.2-2.4c1.4,0,2.1,1.1,2.1,2.6H145c0.1,0.9,0.6,1.7,1.5,1.7c0.7,0,1.1-0.3,1.3-1h0.7
		c-0.2,1-0.9,1.6-2,1.6C145.1,74,144.3,72.9,144.3,71.6z M145.1,71.2h2.8c0-0.9-0.5-1.5-1.4-1.5C145.6,69.7,145.2,70.4,145.1,71.2z"
		/>
	<path d="M150.5,71.6c0-1.4,0.9-2.4,2.3-2.4c1.1,0,1.8,0.6,2,1.6H154c-0.1-0.6-0.5-1-1.3-1c-1,0-1.5,0.8-1.5,1.8
		c0,1,0.5,1.8,1.5,1.8c0.8,0,1.2-0.4,1.3-1.2h0.7c-0.1,1.1-0.8,1.8-2,1.8C151.4,74,150.5,72.9,150.5,71.6z"/>
	<path d="M158.4,73.9v-0.6h0c-0.3,0.5-0.7,0.7-1.4,0.7c-1,0-1.6-0.6-1.6-1.5v-3.2h0.7v3.2c0,0.6,0.4,1,1,1c0.7,0,1.2-0.6,1.2-1.3
		v-2.9h0.7v4.7H158.4z"/>
	<path d="M159.8,72.4h0.7c0.1,0.8,0.6,1,1.3,1c0.8,0,1.1-0.3,1.1-0.8c0-0.5-0.4-0.7-1.2-0.8c-0.9-0.2-1.7-0.4-1.7-1.4
		c0-0.8,0.6-1.3,1.7-1.3c1.2,0,1.7,0.5,1.8,1.5h-0.7c-0.1-0.6-0.4-0.9-1.1-0.9c-0.7,0-0.9,0.3-0.9,0.7c0,0.5,0.5,0.6,1.3,0.8
		c0.9,0.2,1.7,0.4,1.7,1.5c0,0.9-0.8,1.4-1.8,1.4C160.6,74.1,159.9,73.4,159.8,72.4z"/>
	<path d="M164.1,69.3h0.7v-1.5h0.7v1.5h0.9v0.6h-0.9v3c0,0.3,0.2,0.4,0.5,0.4c0.1,0,0.3,0,0.4-0.1h0v0.6c-0.2,0-0.4,0.1-0.6,0.1
		c-0.6,0-1-0.2-1-0.9v-3.2h-0.7V69.3z"/>
	<path d="M166.8,71.6c0-1.4,0.9-2.4,2.3-2.4c1.4,0,2.2,1.1,2.2,2.4c0,1.3-0.8,2.4-2.2,2.4C167.7,74,166.8,72.9,166.8,71.6z
		 M170.6,71.6c0-1-0.5-1.8-1.5-1.8s-1.5,0.8-1.5,1.8c0,1,0.5,1.8,1.5,1.8S170.6,72.6,170.6,71.6z"/>
	<path d="M172,69.3h0.7v0.7h0c0.3-0.5,0.8-0.8,1.4-0.8c0.6,0,1,0.3,1.2,0.8h0c0.3-0.5,0.9-0.8,1.4-0.8c0.8,0,1.4,0.5,1.4,1.5v3.3
		h-0.7v-3.2c0-0.6-0.4-0.9-0.9-0.9c-0.6,0-1.1,0.5-1.1,1.3v2.9h-0.7v-3.2c0-0.6-0.3-0.9-0.8-0.9c-0.6,0-1.2,0.5-1.2,1.3v2.9H172
		V69.3z"/>
	<path d="M178.9,71.6c0-1.4,0.9-2.4,2.2-2.4c1.4,0,2.1,1.1,2.1,2.6h-3.6c0.1,0.9,0.6,1.7,1.5,1.7c0.7,0,1.1-0.3,1.3-1h0.7
		c-0.2,1-0.9,1.6-2,1.6C179.7,74,178.9,72.9,178.9,71.6z M179.7,71.2h2.8c0-0.9-0.5-1.5-1.4-1.5C180.3,69.7,179.8,70.4,179.7,71.2z"
		/>
	<path d="M184.7,70L184.7,70c0.3-0.5,0.8-0.8,1.4-0.8c0.1,0,0.2,0,0.3,0.1V70h0c-0.1,0-0.2,0-0.3,0c-0.7,0-1.4,0.5-1.4,1.4v2.6H184
		v-4.7h0.7V70z"/>
	<path d="M186.8,72.4h0.7c0.1,0.8,0.6,1,1.3,1c0.8,0,1.1-0.3,1.1-0.8c0-0.5-0.4-0.7-1.2-0.8c-0.9-0.2-1.7-0.4-1.7-1.4
		c0-0.8,0.6-1.3,1.7-1.3c1.2,0,1.7,0.5,1.8,1.5h-0.7c-0.1-0.6-0.4-0.9-1.1-0.9c-0.7,0-0.9,0.3-0.9,0.7c0,0.5,0.5,0.6,1.3,0.8
		c0.9,0.2,1.7,0.4,1.7,1.5c0,0.9-0.8,1.4-1.8,1.4C187.5,74.1,186.8,73.4,186.8,72.4z"/>
	<path d="M191.3,74.7c0.2-0.1,0.4-0.2,0.4-0.7h-0.4V73h0.9v0.9c0,0.7-0.4,1-0.9,1.1V74.7z"/>
</g>
<g class="st0">
	<path d="M100,80.7L100,80.7c0.4-0.4,0.8-0.7,1.5-0.7c1,0,1.6,0.5,1.6,1.5v3.3h-0.7v-3.2c0-0.6-0.4-0.9-1.1-0.9
		c-0.7,0-1.3,0.5-1.3,1.3v2.9h-0.7v-4.7h0.7V80.7z"/>
	<path d="M103.8,82.4c0-1.4,0.9-2.4,2.2-2.4c1.4,0,2.1,1.1,2.1,2.6h-3.6c0.1,0.9,0.6,1.7,1.5,1.7c0.7,0,1.1-0.3,1.3-1h0.7
		c-0.2,1-0.9,1.6-2,1.6C104.6,84.8,103.8,83.7,103.8,82.4z M104.5,82h2.8c0-0.9-0.5-1.5-1.4-1.5C105.1,80.5,104.6,81.2,104.5,82z"/>
	<path d="M108.3,80.1h0.8l0.8,2.9c0.1,0.4,0.3,1,0.3,1h0c0,0,0.1-0.6,0.2-1l0.8-2.9h0.8l0.8,2.9c0.1,0.4,0.2,1,0.2,1h0
		c0,0,0.1-0.6,0.3-1l0.9-2.9h0.8l-1.5,4.7h-0.7l-0.8-2.8c-0.1-0.4-0.2-1-0.2-1h0c0,0-0.1,0.6-0.2,1l-0.8,2.8h-0.8L108.3,80.1z"/>
	<path d="M117.5,84.1L117.5,84.1l0,0.6h-0.7v-6.4h0.7v2.4h0c0.4-0.5,0.8-0.8,1.5-0.8c1.2,0,2,0.9,2,2.4c0,1.5-0.7,2.4-2,2.4
		C118.3,84.9,117.9,84.6,117.5,84.1z M120.2,82.4c0-1-0.4-1.8-1.3-1.8c-1,0-1.5,0.8-1.5,1.8c0,1,0.5,1.8,1.5,1.8
		C119.8,84.2,120.2,83.5,120.2,82.4z"/>
	<path d="M121.4,82.4c0-1.4,0.9-2.4,2.2-2.4c1.4,0,2.1,1.1,2.1,2.6h-3.6c0.1,0.9,0.6,1.7,1.5,1.7c0.7,0,1.1-0.3,1.3-1h0.7
		c-0.2,1-0.9,1.6-2,1.6C122.3,84.8,121.4,83.7,121.4,82.4z M122.2,82h2.8c0-0.9-0.5-1.5-1.4-1.5C122.8,80.5,122.3,81.2,122.2,82z"/>
	<path d="M127.2,80.7L127.2,80.7c0.4-0.4,0.8-0.7,1.5-0.7c1,0,1.6,0.5,1.6,1.5v3.3h-0.7v-3.2c0-0.6-0.4-0.9-1.1-0.9
		c-0.7,0-1.3,0.5-1.3,1.3v2.9h-0.7v-6.4h0.7V80.7z"/>
	<path d="M134.1,84.1L134.1,84.1c-0.3,0.4-0.8,0.7-1.6,0.7c-0.9,0-1.6-0.4-1.6-1.3c0-1.1,0.9-1.3,2-1.5c0.7-0.1,1.1-0.2,1.1-0.7
		c0-0.5-0.4-0.8-1-0.8c-0.8,0-1.1,0.3-1.2,1h-0.7c0-0.9,0.6-1.6,1.9-1.6c1,0,1.7,0.4,1.7,1.5v2.2c0,0.4,0.1,0.6,0.5,0.5h0v0.5
		c-0.1,0-0.2,0.1-0.4,0.1C134.4,84.8,134.2,84.5,134.1,84.1z M134.1,83v-0.8c-0.2,0.2-0.7,0.3-1.1,0.3c-0.7,0.1-1.3,0.3-1.3,0.9
		c0,0.6,0.5,0.8,1,0.8C133.7,84.2,134.1,83.5,134.1,83z"/>
	<path d="M135.3,80.1h0.8l1,3c0.1,0.4,0.3,1,0.3,1h0c0,0,0.2-0.6,0.3-1l1-3h0.8l-1.7,4.7h-0.8L135.3,80.1z"/>
	<path d="M139.9,78.3h0.7v0.9h-0.7V78.3z M139.9,80.1h0.7v4.7h-0.7V80.1z"/>
	<path d="M141.4,82.4c0-1.4,0.9-2.4,2.3-2.4c1.4,0,2.2,1.1,2.2,2.4c0,1.3-0.8,2.4-2.2,2.4C142.2,84.8,141.4,83.7,141.4,82.4z
		 M145.1,82.4c0-1-0.5-1.8-1.5-1.8s-1.5,0.8-1.5,1.8c0,1,0.5,1.8,1.5,1.8S145.1,83.4,145.1,82.4z"/>
	<path d="M149.5,84.7v-0.6h0c-0.3,0.5-0.7,0.7-1.4,0.7c-1,0-1.6-0.6-1.6-1.5v-3.2h0.7v3.2c0,0.6,0.4,1,1,1c0.7,0,1.2-0.6,1.2-1.3
		v-2.9h0.7v4.7H149.5z"/>
	<path d="M152,80.8L152,80.8c0.3-0.5,0.8-0.8,1.4-0.8c0.1,0,0.2,0,0.3,0.1v0.7h0c-0.1,0-0.2,0-0.3,0c-0.7,0-1.4,0.5-1.4,1.4v2.6
		h-0.7v-4.7h0.7V80.8z"/>
	<path d="M154.1,83.2h0.7c0.1,0.8,0.6,1,1.3,1c0.8,0,1.1-0.3,1.1-0.8c0-0.5-0.4-0.7-1.2-0.8c-0.9-0.2-1.7-0.4-1.7-1.4
		c0-0.8,0.6-1.3,1.7-1.3c1.2,0,1.7,0.5,1.8,1.5H157c-0.1-0.6-0.4-0.9-1.1-0.9c-0.7,0-0.9,0.3-0.9,0.7c0,0.5,0.5,0.6,1.3,0.8
		c0.9,0.2,1.7,0.4,1.7,1.5c0,0.9-0.8,1.4-1.8,1.4C154.8,84.9,154.1,84.2,154.1,83.2z"/>
	<path d="M158.6,85.5c0.2-0.1,0.4-0.2,0.4-0.7h-0.4v-0.9h0.9v0.9c0,0.7-0.4,1-0.9,1.1V85.5z"/>
</g>
<g class="st0">
	<path d="M94.1,89.1h0.7V90h-0.7V89.1z M94.1,90.9h0.7v4.7h-0.7V90.9z"/>
	<path d="M96.5,91.5L96.5,91.5c0.4-0.4,0.8-0.7,1.5-0.7c1,0,1.6,0.5,1.6,1.5v3.3h-0.7v-3.2c0-0.6-0.4-0.9-1.1-0.9
		c-0.7,0-1.3,0.5-1.3,1.3v2.9h-0.7v-4.7h0.7V91.5z"/>
	<path d="M100,90.9h0.8l1,3c0.1,0.4,0.3,1,0.3,1h0c0,0,0.2-0.6,0.3-1l1-3h0.8l-1.7,4.7h-0.8L100,90.9z"/>
	<path d="M104.2,93.2c0-1.4,0.9-2.4,2.2-2.4c1.4,0,2.1,1.1,2.1,2.6H105c0.1,0.9,0.6,1.7,1.5,1.7c0.7,0,1.1-0.3,1.3-1h0.7
		c-0.2,1-0.9,1.6-2,1.6C105.1,95.6,104.2,94.5,104.2,93.2z M105,92.8h2.8c0-0.9-0.5-1.5-1.4-1.5C105.6,91.3,105.1,92,105,92.8z"/>
	<path d="M110,91.5L110,91.5c0.4-0.4,0.8-0.7,1.5-0.7c1,0,1.6,0.5,1.6,1.5v3.3h-0.7v-3.2c0-0.6-0.4-0.9-1.1-0.9
		c-0.7,0-1.3,0.5-1.3,1.3v2.9h-0.7v-4.7h0.7V91.5z"/>
	<path d="M113.7,90.9h0.7v-1.5h0.7v1.5h0.9v0.6h-0.9v3c0,0.3,0.2,0.4,0.5,0.4c0.1,0,0.3,0,0.4-0.1h0v0.6c-0.2,0-0.4,0.1-0.6,0.1
		c-0.6,0-1-0.2-1-0.9v-3.2h-0.7V90.9z"/>
	<path d="M119.6,94.9L119.6,94.9c-0.3,0.4-0.8,0.7-1.6,0.7c-0.9,0-1.6-0.4-1.6-1.3c0-1.1,0.9-1.3,2-1.5c0.7-0.1,1.1-0.2,1.1-0.7
		c0-0.5-0.4-0.8-1-0.8c-0.8,0-1.1,0.3-1.2,1h-0.7c0-0.9,0.6-1.6,1.9-1.6c1,0,1.7,0.4,1.7,1.5v2.2c0,0.4,0.1,0.6,0.5,0.5h0v0.5
		c-0.1,0-0.2,0.1-0.4,0.1C119.9,95.6,119.6,95.3,119.6,94.9z M119.6,93.8V93c-0.2,0.2-0.7,0.3-1.1,0.3c-0.7,0.1-1.3,0.3-1.3,0.9
		c0,0.6,0.5,0.8,1,0.8C119.2,95,119.6,94.3,119.6,93.8z"/>
	<path d="M122.1,94.9L122.1,94.9l0,0.6h-0.7v-6.4h0.7v2.4h0c0.4-0.5,0.8-0.8,1.5-0.8c1.2,0,2,0.9,2,2.4c0,1.5-0.7,2.4-2,2.4
		C122.9,95.7,122.4,95.4,122.1,94.9z M124.8,93.2c0-1-0.4-1.8-1.3-1.8c-1,0-1.5,0.8-1.5,1.8c0,1,0.5,1.8,1.5,1.8
		C124.4,95,124.8,94.3,124.8,93.2z"/>
	<path d="M126.3,89.1h0.7v6.4h-0.7V89.1z"/>
	<path d="M127.8,93.2c0-1.4,0.9-2.4,2.2-2.4c1.4,0,2.1,1.1,2.1,2.6h-3.6c0.1,0.9,0.6,1.7,1.5,1.7c0.7,0,1.1-0.3,1.3-1h0.7
		c-0.2,1-0.9,1.6-2,1.6C128.6,95.6,127.8,94.5,127.8,93.2z M128.5,92.8h2.8c0-0.9-0.5-1.5-1.4-1.5C129.1,91.3,128.6,92,128.5,92.8z"
		/>
	<path d="M134.3,90.9h0.7v0.7h0c0.3-0.5,0.8-0.8,1.4-0.8c0.6,0,1,0.3,1.2,0.8h0c0.3-0.5,0.9-0.8,1.4-0.8c0.8,0,1.4,0.5,1.4,1.5v3.3
		h-0.7v-3.2c0-0.6-0.4-0.9-0.9-0.9c-0.6,0-1.1,0.5-1.1,1.3v2.9H137v-3.2c0-0.6-0.3-0.9-0.8-0.9c-0.6,0-1.2,0.5-1.2,1.3v2.9h-0.7
		V90.9z"/>
	<path d="M144.3,94.9L144.3,94.9c-0.3,0.4-0.8,0.7-1.6,0.7c-0.9,0-1.6-0.4-1.6-1.3c0-1.1,0.9-1.3,2-1.5c0.7-0.1,1.1-0.2,1.1-0.7
		c0-0.5-0.4-0.8-1-0.8c-0.8,0-1.1,0.3-1.2,1h-0.7c0-0.9,0.6-1.6,1.9-1.6c1,0,1.7,0.4,1.7,1.5v2.2c0,0.4,0.1,0.6,0.5,0.5h0v0.5
		c-0.1,0-0.2,0.1-0.4,0.1C144.6,95.6,144.3,95.3,144.3,94.9z M144.3,93.8V93c-0.2,0.2-0.7,0.3-1.1,0.3c-0.7,0.1-1.3,0.3-1.3,0.9
		c0,0.6,0.5,0.8,1,0.8C143.8,95,144.3,94.3,144.3,93.8z"/>
	<path d="M146.7,91.6L146.7,91.6c0.3-0.5,0.8-0.8,1.4-0.8c0.1,0,0.2,0,0.3,0.1v0.7h0c-0.1,0-0.2,0-0.3,0c-0.7,0-1.4,0.5-1.4,1.4v2.6
		H146v-4.7h0.7V91.6z"/>
	<path d="M150.5,93l-0.7,0.6v1.9h-0.7v-6.4h0.7v3.8l2-2h0.9l-1.8,1.7l2,3h-0.9L150.5,93z"/>
	<path d="M153,93.2c0-1.4,0.9-2.4,2.2-2.4c1.4,0,2.1,1.1,2.1,2.6h-3.6c0.1,0.9,0.6,1.7,1.5,1.7c0.7,0,1.1-0.3,1.3-1h0.7
		c-0.2,1-0.9,1.6-2,1.6C153.8,95.6,153,94.5,153,93.2z M153.7,92.8h2.8c0-0.9-0.5-1.5-1.4-1.5C154.3,91.3,153.8,92,153.7,92.8z"/>
	<path d="M157.6,90.9h0.7v-1.5h0.7v1.5h0.9v0.6H159v3c0,0.3,0.2,0.4,0.5,0.4c0.1,0,0.3,0,0.4-0.1h0v0.6c-0.2,0-0.4,0.1-0.6,0.1
		c-0.6,0-1-0.2-1-0.9v-3.2h-0.7V90.9z"/>
	<path d="M160.4,94h0.7c0.1,0.8,0.6,1,1.3,1c0.8,0,1.1-0.3,1.1-0.8c0-0.5-0.4-0.7-1.2-0.8c-0.9-0.2-1.7-0.4-1.7-1.4
		c0-0.8,0.6-1.3,1.7-1.3c1.2,0,1.7,0.5,1.8,1.5h-0.7c-0.1-0.6-0.4-0.9-1.1-0.9c-0.7,0-0.9,0.3-0.9,0.7c0,0.5,0.5,0.6,1.3,0.8
		c0.9,0.2,1.7,0.4,1.7,1.5c0,0.9-0.8,1.4-1.8,1.4C161.2,95.7,160.5,95,160.4,94z"/>
</g>
<rect x="416.8" y="95.4" class="st1" width="132.1" height="49.6"/>
<g class="st0">
	<path d="M426.7,97.1h3.6c0.9,0,1.6,0.3,2,0.8c0.4,0.4,0.6,1,0.6,1.6c0,1.6-0.9,2.5-2.8,2.5h-2.3v3.6h-1.1V97.1z M427.8,101.2h2.3
		c1.2,0,1.8-0.6,1.8-1.6c0-1-0.6-1.6-1.7-1.6h-2.3V101.2z"/>
	<path d="M434.8,100.5L434.8,100.5c0.4-0.6,1-1.1,1.9-1.1c0.2,0,0.3,0,0.4,0.1v0.9h0c-0.1,0-0.2-0.1-0.4-0.1c-1,0-1.8,0.7-1.8,1.9
		v3.4h-1v-6.2h1V100.5z"/>
	<path d="M437.3,102.6c0-1.8,1.2-3.3,2.9-3.3c1.9,0,2.9,1.4,2.9,3.5h-4.8c0.1,1.3,0.8,2.2,2,2.2c0.9,0,1.5-0.4,1.7-1.3h0.9
		c-0.3,1.3-1.3,2.1-2.7,2.1C438.4,105.8,437.3,104.4,437.3,102.6z M438.3,102h3.7c-0.1-1.2-0.7-2-1.8-2
		C439.1,100.1,438.5,100.9,438.3,102z"/>
	<path d="M443.7,102.6c0-2.1,1.2-3.3,2.7-3.3c0.9,0,1.5,0.4,1.9,1h0v-3.2h1v8.6h-1v-0.8h0c-0.5,0.6-1,0.9-1.9,0.9
		C444.8,105.8,443.7,104.6,443.7,102.6z M448.5,102.6c0-1.4-0.7-2.4-2-2.4c-1.2,0-1.8,1.1-1.8,2.4c0,1.4,0.6,2.4,1.8,2.4
		C447.9,105,448.5,104,448.5,102.6z"/>
	<path d="M450.7,97.1h1v1.2h-1V97.1z M450.7,99.4h1v6.2h-1V99.4z"/>
	<path d="M452.6,102.6c0-1.8,1.2-3.3,3-3.3c1.5,0,2.4,0.8,2.7,2.2h-1c-0.1-0.8-0.7-1.4-1.7-1.4c-1.3,0-2,1.1-2,2.5
		c0,1.4,0.7,2.4,2,2.4c1,0,1.6-0.6,1.7-1.5h1c-0.1,1.5-1.1,2.4-2.7,2.4C453.8,105.8,452.6,104.4,452.6,102.6z"/>
	<path d="M458.8,99.4h0.9v-2h1v2h1.2v0.8h-1.2v4c0,0.4,0.2,0.6,0.6,0.6c0.2,0,0.4,0,0.5-0.1h0v0.8c-0.2,0-0.5,0.1-0.8,0.1
		c-0.8,0-1.4-0.3-1.4-1.2v-4.2h-0.9V99.4z"/>
	<path d="M466.7,104.8L466.7,104.8c-0.4,0.5-1,1-2.1,1c-1.2,0-2.1-0.6-2.1-1.7c0-1.5,1.2-1.8,2.7-2c0.9-0.1,1.5-0.2,1.5-0.9
		c0-0.7-0.5-1.1-1.4-1.1c-1,0-1.5,0.4-1.5,1.4h-0.9c0-1.2,0.8-2.1,2.5-2.1c1.3,0,2.3,0.5,2.3,2v3c0,0.5,0.1,0.8,0.7,0.7h0v0.7
		c-0.1,0-0.3,0.1-0.5,0.1C467.1,105.7,466.8,105.4,466.7,104.8z M466.7,103.4v-1.1c-0.3,0.2-0.9,0.4-1.4,0.5c-1,0.2-1.8,0.3-1.8,1.3
		c0,0.8,0.6,1,1.3,1C466.1,105,466.7,104.1,466.7,103.4z"/>
	<path d="M470,104.8L470,104.8l0,0.8h-1v-8.6h1v3.3h0c0.5-0.6,1.1-1,2-1c1.6,0,2.6,1.2,2.6,3.3c0,2-1,3.3-2.7,3.3
		C471.1,105.8,470.5,105.5,470,104.8z M473.7,102.6c0-1.4-0.6-2.4-1.7-2.4c-1.4,0-2,1.1-2,2.4c0,1.4,0.6,2.4,2,2.4
		C473.1,105,473.7,104,473.7,102.6z"/>
	<path d="M475.7,97.1h1v8.6h-1V97.1z"/>
	<path d="M477.6,102.6c0-1.8,1.2-3.3,2.9-3.3c1.9,0,2.9,1.4,2.9,3.5h-4.8c0.1,1.3,0.8,2.2,2,2.2c0.9,0,1.5-0.4,1.7-1.3h0.9
		c-0.3,1.3-1.3,2.1-2.7,2.1C478.7,105.8,477.6,104.4,477.6,102.6z M478.7,102h3.7c-0.1-1.2-0.7-2-1.8-2
		C479.4,100.1,478.8,100.9,478.7,102z"/>
	<path d="M486.3,97.1h1v1.2h-1V97.1z M486.3,99.4h1v6.2h-1V99.4z"/>
	<path d="M489.6,100.3L489.6,100.3c0.5-0.6,1.1-1,2-1c1.3,0,2.1,0.7,2.1,2v4.4h-1v-4.3c0-0.8-0.5-1.3-1.4-1.3c-1,0-1.7,0.7-1.7,1.7
		v3.8h-1v-6.2h1V100.3z"/>
	<path d="M494.5,99.4h0.9v-1c0-1.1,0.6-1.5,1.6-1.5c0.2,0,0.4,0,0.5,0v0.8c-0.2,0-0.2,0-0.3,0c-0.6,0-0.9,0.2-0.9,0.7v0.9h1.2v0.8
		h-1.2v5.4h-1v-5.4h-0.9V99.4z M498.3,97.1h1v8.6h-1V97.1z"/>
	<path d="M504.6,105.6v-0.9h0c-0.4,0.6-1,1-1.9,1c-1.3,0-2.1-0.8-2.1-2.1v-4.3h1v4.3c0,0.8,0.5,1.3,1.4,1.3c1,0,1.6-0.7,1.6-1.7
		v-3.8h1v6.2H504.6z"/>
	<path d="M506.5,102.6c0-1.8,1.2-3.3,2.9-3.3c1.9,0,2.9,1.4,2.9,3.5h-4.8c0.1,1.3,0.8,2.2,2,2.2c0.9,0,1.5-0.4,1.7-1.3h0.9
		c-0.3,1.3-1.3,2.1-2.7,2.1C507.6,105.8,506.5,104.4,506.5,102.6z M507.5,102h3.7c-0.1-1.2-0.7-2-1.8-2
		C508.3,100.1,507.7,100.9,507.5,102z"/>
	<path d="M514.2,100.3L514.2,100.3c0.5-0.6,1.1-1,2-1c1.3,0,2.1,0.7,2.1,2v4.4h-1v-4.3c0-0.8-0.5-1.3-1.4-1.3c-1,0-1.7,0.7-1.7,1.7
		v3.8h-1v-6.2h1V100.3z"/>
	<path d="M519.3,102.6c0-1.8,1.2-3.3,3-3.3c1.5,0,2.4,0.8,2.7,2.2h-1c-0.1-0.8-0.7-1.4-1.7-1.4c-1.3,0-2,1.1-2,2.5
		c0,1.4,0.7,2.4,2,2.4c1,0,1.6-0.6,1.7-1.5h1c-0.1,1.5-1.1,2.4-2.7,2.4C520.4,105.8,519.3,104.4,519.3,102.6z"/>
	<path d="M525.5,102.6c0-1.8,1.2-3.3,2.9-3.3c1.9,0,2.9,1.4,2.9,3.5h-4.8c0.1,1.3,0.8,2.2,2,2.2c0.9,0,1.5-0.4,1.7-1.3h0.9
		c-0.3,1.3-1.3,2.1-2.7,2.1C526.6,105.8,525.5,104.4,525.5,102.6z M526.5,102h3.7c-0.1-1.2-0.7-2-1.8-2
		C527.3,100.1,526.6,100.9,526.5,102z"/>
	<path d="M531.8,103.6h1c0.1,1.1,0.9,1.4,1.8,1.4c1,0,1.4-0.4,1.4-1c0-0.7-0.5-0.9-1.6-1.1c-1.2-0.3-2.3-0.5-2.3-1.9
		c0-1,0.8-1.7,2.2-1.7c1.5,0,2.3,0.7,2.4,1.9h-1c-0.1-0.8-0.5-1.2-1.5-1.2c-0.9,0-1.2,0.4-1.2,0.9c0,0.7,0.6,0.8,1.7,1
		c1.2,0.3,2.3,0.5,2.3,2c0,1.2-1,1.9-2.4,1.9C532.9,105.8,531.9,105,531.8,103.6z"/>
	<path d="M537.9,100.8h1.2v1.2h-1.2V100.8z M537.9,104.5h1.2v1.2h-1.2V104.5z"/>
</g>
<g class="st0">
	<path d="M433.5,110h5.1v0.7h-2.1v5.7h-0.8v-5.7h-2.1V110z"/>
	<path d="M439.3,112.6L439.3,112.6c0.3-0.5,0.8-0.8,1.4-0.8c0.1,0,0.2,0,0.3,0.1v0.7h0c-0.1,0-0.2,0-0.3,0c-0.7,0-1.4,0.5-1.4,1.4
		v2.6h-0.7v-4.7h0.7V112.6z"/>
	<path d="M441.3,114.1c0-1.4,0.9-2.4,2.2-2.4c1.4,0,2.1,1.1,2.1,2.6H442c0.1,0.9,0.6,1.7,1.5,1.7c0.7,0,1.1-0.3,1.3-1h0.7
		c-0.2,1-0.9,1.6-2,1.6C442.1,116.6,441.3,115.5,441.3,114.1z M442,113.7h2.8c0-0.9-0.5-1.5-1.4-1.5
		C442.6,112.3,442.1,112.9,442,113.7z"/>
	<path d="M447,112.4L447,112.4c0.4-0.4,0.8-0.7,1.5-0.7c1,0,1.6,0.5,1.6,1.5v3.3h-0.7v-3.2c0-0.6-0.4-0.9-1.1-0.9
		c-0.7,0-1.3,0.5-1.3,1.3v2.9h-0.7v-4.7h0.7V112.4z"/>
	<path d="M450.8,114.1c0-1.5,0.9-2.4,2-2.4c0.7,0,1.2,0.3,1.5,0.8h0V110h0.7v6.4h-0.7v-0.6h0c-0.4,0.5-0.8,0.7-1.4,0.7
		C451.6,116.6,450.8,115.6,450.8,114.1z M454.4,114.1c0-1.1-0.5-1.8-1.5-1.8c-0.9,0-1.3,0.8-1.3,1.8c0,1.1,0.5,1.8,1.3,1.8
		C453.9,116,454.4,115.2,454.4,114.1z"/>
	<path d="M455.7,114.9h0.7c0.1,0.8,0.6,1,1.3,1c0.8,0,1.1-0.3,1.1-0.8c0-0.5-0.4-0.7-1.2-0.8c-0.9-0.2-1.7-0.4-1.7-1.4
		c0-0.8,0.6-1.3,1.7-1.3c1.2,0,1.7,0.5,1.8,1.5h-0.7c-0.1-0.6-0.4-0.9-1.1-0.9c-0.7,0-0.9,0.3-0.9,0.7c0,0.5,0.5,0.6,1.3,0.8
		c0.9,0.2,1.7,0.4,1.7,1.5c0,0.9-0.8,1.4-1.8,1.4C456.5,116.6,455.8,116,455.7,114.9z"/>
	<path d="M460.3,117.2c0.2-0.1,0.4-0.2,0.4-0.7h-0.4v-0.9h0.9v0.9c0,0.7-0.4,1-0.9,1.1V117.2z"/>
	<path d="M463.2,114.1c0-1.4,0.9-2.4,2.2-2.4c1.4,0,2.1,1.1,2.1,2.6h-3.6c0.1,0.9,0.6,1.7,1.5,1.7c0.7,0,1.1-0.3,1.3-1h0.7
		c-0.2,1-0.9,1.6-2,1.6C464,116.6,463.2,115.5,463.2,114.1z M463.9,113.7h2.8c0-0.9-0.5-1.5-1.4-1.5
		C464.5,112.3,464,112.9,463.9,113.7z"/>
	<path d="M469.3,114l-1.5-2.2h0.8l1.1,1.7h0l1.2-1.7h0.8l-1.5,2.1l1.8,2.5h-0.9l-1.4-2h0l-1.4,2h-0.8L469.3,114z"/>
	<path d="M472.1,111.8h0.7v-1.5h0.7v1.5h0.9v0.6h-0.9v3c0,0.3,0.2,0.4,0.5,0.4c0.1,0,0.3,0,0.4-0.1h0v0.6c-0.2,0-0.4,0.1-0.6,0.1
		c-0.6,0-1-0.2-1-0.9v-3.2h-0.7V111.8z"/>
	<path d="M475.8,112.6L475.8,112.6c0.3-0.5,0.8-0.8,1.4-0.8c0.1,0,0.2,0,0.3,0.1v0.7h0c-0.1,0-0.2,0-0.3,0c-0.7,0-1.4,0.5-1.4,1.4
		v2.6h-0.7v-4.7h0.7V112.6z"/>
	<path d="M480.9,115.8L480.9,115.8c-0.3,0.4-0.8,0.7-1.6,0.7c-0.9,0-1.6-0.4-1.6-1.3c0-1.1,0.9-1.3,2-1.5c0.7-0.1,1.1-0.2,1.1-0.7
		c0-0.5-0.4-0.8-1-0.8c-0.8,0-1.1,0.3-1.2,1H478c0-0.9,0.6-1.6,1.9-1.6c1,0,1.7,0.4,1.7,1.5v2.2c0,0.4,0.1,0.6,0.5,0.5h0v0.5
		c-0.1,0-0.2,0.1-0.4,0.1C481.2,116.5,481,116.3,480.9,115.8z M480.9,114.7v-0.8c-0.2,0.2-0.7,0.3-1.1,0.3c-0.7,0.1-1.3,0.3-1.3,0.9
		c0,0.6,0.5,0.8,1,0.8C480.5,116,480.9,115.3,480.9,114.7z"/>
	<path d="M482.6,111.8h0.7v0.7h0c0.4-0.5,0.8-0.8,1.5-0.8c1.2,0,2,0.9,2,2.4c0,1.5-0.8,2.4-2,2.4c-0.6,0-1.1-0.2-1.5-0.7h0v2h-0.7
		V111.8z M486.1,114.1c0-1-0.4-1.8-1.3-1.8c-1,0-1.5,0.8-1.5,1.8s0.4,1.8,1.5,1.8C485.7,116,486.1,115.2,486.1,114.1z"/>
	<path d="M487.3,114.1c0-1.4,0.9-2.4,2.3-2.4c1.4,0,2.2,1.1,2.2,2.4c0,1.3-0.8,2.4-2.2,2.4C488.2,116.6,487.3,115.5,487.3,114.1z
		 M491.1,114.1c0-1-0.5-1.8-1.5-1.8s-1.5,0.8-1.5,1.8c0,1,0.5,1.8,1.5,1.8S491.1,115.1,491.1,114.1z"/>
	<path d="M492.6,110h0.7v6.4h-0.7V110z"/>
	<path d="M497.2,115.8L497.2,115.8c-0.3,0.4-0.8,0.7-1.6,0.7c-0.9,0-1.6-0.4-1.6-1.3c0-1.1,0.9-1.3,2-1.5c0.7-0.1,1.1-0.2,1.1-0.7
		c0-0.5-0.4-0.8-1-0.8c-0.8,0-1.1,0.3-1.2,1h-0.7c0-0.9,0.6-1.6,1.9-1.6c1,0,1.7,0.4,1.7,1.5v2.2c0,0.4,0.1,0.6,0.5,0.5h0v0.5
		c-0.1,0-0.2,0.1-0.4,0.1C497.5,116.5,497.2,116.3,497.2,115.8z M497.2,114.7v-0.8c-0.2,0.2-0.7,0.3-1.1,0.3
		c-0.7,0.1-1.3,0.3-1.3,0.9c0,0.6,0.5,0.8,1,0.8C496.7,116,497.2,115.3,497.2,114.7z"/>
	<path d="M498.5,111.8h0.7v-1.5h0.7v1.5h0.9v0.6h-0.9v3c0,0.3,0.2,0.4,0.5,0.4c0.1,0,0.3,0,0.4-0.1h0v0.6c-0.2,0-0.4,0.1-0.6,0.1
		c-0.6,0-1-0.2-1-0.9v-3.2h-0.7V111.8z"/>
	<path d="M501.3,114.1c0-1.4,0.9-2.4,2.2-2.4c1.4,0,2.1,1.1,2.1,2.6H502c0.1,0.9,0.6,1.7,1.5,1.7c0.7,0,1.1-0.3,1.3-1h0.7
		c-0.2,1-0.9,1.6-2,1.6C502.1,116.6,501.3,115.5,501.3,114.1z M502,113.7h2.8c0-0.9-0.5-1.5-1.4-1.5
		C502.6,112.3,502.1,112.9,502,113.7z"/>
	<path d="M506.1,114.1c0-1.5,0.9-2.4,2-2.4c0.7,0,1.2,0.3,1.5,0.8h0V110h0.7v6.4h-0.7v-0.6h0c-0.4,0.5-0.8,0.7-1.4,0.7
		C506.9,116.6,506.1,115.6,506.1,114.1z M509.6,114.1c0-1.1-0.5-1.8-1.5-1.8c-0.9,0-1.3,0.8-1.3,1.8c0,1.1,0.5,1.8,1.3,1.8
		C509.2,116,509.6,115.2,509.6,114.1z"/>
	<path d="M512.5,114.1c0-1.5,0.9-2.4,2-2.4c0.7,0,1.2,0.3,1.5,0.8h0V110h0.7v6.4H516v-0.6h0c-0.4,0.5-0.8,0.7-1.4,0.7
		C513.3,116.6,512.5,115.6,512.5,114.1z M516,114.1c0-1.1-0.5-1.8-1.5-1.8c-0.9,0-1.3,0.8-1.3,1.8c0,1.1,0.5,1.8,1.3,1.8
		C515.6,116,516,115.2,516,114.1z"/>
	<path d="M520.6,115.8L520.6,115.8c-0.3,0.4-0.8,0.7-1.6,0.7c-0.9,0-1.6-0.4-1.6-1.3c0-1.1,0.9-1.3,2-1.5c0.7-0.1,1.1-0.2,1.1-0.7
		c0-0.5-0.4-0.8-1-0.8c-0.8,0-1.1,0.3-1.2,1h-0.7c0-0.9,0.6-1.6,1.9-1.6c1,0,1.7,0.4,1.7,1.5v2.2c0,0.4,0.1,0.6,0.5,0.5h0v0.5
		c-0.1,0-0.2,0.1-0.4,0.1C520.9,116.5,520.6,116.3,520.6,115.8z M520.6,114.7v-0.8c-0.2,0.2-0.7,0.3-1.1,0.3
		c-0.7,0.1-1.3,0.3-1.3,0.9c0,0.6,0.5,0.8,1,0.8C520.1,116,520.6,115.3,520.6,114.7z"/>
	<path d="M521.9,111.8h0.7v-1.5h0.7v1.5h0.9v0.6h-0.9v3c0,0.3,0.2,0.4,0.5,0.4c0.1,0,0.3,0,0.4-0.1h0v0.6c-0.2,0-0.4,0.1-0.6,0.1
		c-0.6,0-1-0.2-1-0.9v-3.2h-0.7V111.8z"/>
	<path d="M527.8,115.8L527.8,115.8c-0.3,0.4-0.8,0.7-1.6,0.7c-0.9,0-1.6-0.4-1.6-1.3c0-1.1,0.9-1.3,2-1.5c0.7-0.1,1.1-0.2,1.1-0.7
		c0-0.5-0.4-0.8-1-0.8c-0.8,0-1.1,0.3-1.2,1h-0.7c0-0.9,0.6-1.6,1.9-1.6c1,0,1.7,0.4,1.7,1.5v2.2c0,0.4,0.1,0.6,0.5,0.5h0v0.5
		c-0.1,0-0.2,0.1-0.4,0.1C528.2,116.5,527.9,116.3,527.8,115.8z M527.9,114.7v-0.8c-0.2,0.2-0.7,0.3-1.1,0.3
		c-0.7,0.1-1.3,0.3-1.3,0.9c0,0.6,0.5,0.8,1,0.8C527.4,116,527.9,115.3,527.9,114.7z"/>
	<path d="M529.6,117.2c0.2-0.1,0.4-0.2,0.4-0.7h-0.4v-0.9h0.9v0.9c0,0.7-0.4,1-0.9,1.1V117.2z"/>
</g>
<g class="st0">
	<path d="M438.9,124.9c0-1.4,0.9-2.4,2.2-2.4c1.4,0,2.1,1.1,2.1,2.6h-3.6c0.1,0.9,0.6,1.7,1.5,1.7c0.7,0,1.1-0.3,1.3-1h0.7
		c-0.2,1-0.9,1.6-2,1.6C439.8,127.4,438.9,126.3,438.9,124.9z M439.7,124.5h2.8c0-0.9-0.5-1.5-1.4-1.5
		C440.3,123.1,439.8,123.7,439.7,124.5z"/>
	<path d="M444,122.6h0.7v0.7h0c0.3-0.5,0.8-0.8,1.4-0.8c0.6,0,1,0.3,1.2,0.8h0c0.3-0.5,0.9-0.8,1.4-0.8c0.8,0,1.4,0.5,1.4,1.5v3.3
		h-0.7V124c0-0.6-0.4-0.9-0.9-0.9c-0.6,0-1.1,0.5-1.1,1.3v2.9h-0.7V124c0-0.6-0.3-0.9-0.8-0.9c-0.6,0-1.2,0.5-1.2,1.3v2.9H444V122.6
		z"/>
	<path d="M450.9,124.9c0-1.4,0.9-2.4,2.2-2.4c1.4,0,2.1,1.1,2.1,2.6h-3.6c0.1,0.9,0.6,1.7,1.5,1.7c0.7,0,1.1-0.3,1.3-1h0.7
		c-0.2,1-0.9,1.6-2,1.6C451.7,127.4,450.9,126.3,450.9,124.9z M451.6,124.5h2.8c0-0.9-0.5-1.5-1.4-1.5
		C452.2,123.1,451.7,123.7,451.6,124.5z"/>
	<path d="M456.7,123.4L456.7,123.4c0.3-0.5,0.8-0.8,1.4-0.8c0.1,0,0.2,0,0.3,0.1v0.7h0c-0.1,0-0.2,0-0.3,0c-0.7,0-1.4,0.5-1.4,1.4
		v2.6h-0.7v-4.7h0.7V123.4z"/>
	<path d="M458.7,127.5h0.7c0.1,0.5,0.6,0.7,1.3,0.7c0.9,0,1.3-0.4,1.3-1.2v-0.7h0c-0.3,0.4-0.7,0.7-1.4,0.7c-1.2,0-2-1-2-2.3
		c0-1.4,0.9-2.3,2-2.3c0.7,0,1.1,0.3,1.4,0.7h0v-0.6h0.7v4.4c0,1.2-0.8,1.8-2,1.8C459.5,128.8,458.8,128.3,458.7,127.5z
		 M462.1,124.7c0-1-0.4-1.6-1.4-1.6c-0.9,0-1.3,0.7-1.3,1.7c0,1,0.5,1.7,1.3,1.7C461.7,126.5,462.1,125.7,462.1,124.7z"/>
	<path d="M463.7,120.8h0.7v0.9h-0.7V120.8z M463.7,122.6h0.7v4.7h-0.7V122.6z"/>
	<path d="M466.2,123.2L466.2,123.2c0.4-0.4,0.8-0.7,1.5-0.7c1,0,1.6,0.5,1.6,1.5v3.3h-0.7V124c0-0.6-0.4-0.9-1.1-0.9
		c-0.7,0-1.3,0.5-1.3,1.3v2.9h-0.7v-4.7h0.7V123.2z"/>
	<path d="M470.1,127.5h0.7c0.1,0.5,0.6,0.7,1.3,0.7c0.9,0,1.3-0.4,1.3-1.2v-0.7h0c-0.3,0.4-0.7,0.7-1.4,0.7c-1.2,0-2-1-2-2.3
		c0-1.4,0.9-2.3,2-2.3c0.7,0,1.1,0.3,1.4,0.7h0v-0.6h0.7v4.4c0,1.2-0.8,1.8-2,1.8C470.8,128.8,470.2,128.3,470.1,127.5z
		 M473.4,124.7c0-1-0.4-1.6-1.4-1.6c-0.9,0-1.3,0.7-1.3,1.7c0,1,0.5,1.7,1.3,1.7C473.1,126.5,473.4,125.7,473.4,124.7z"/>
	<path d="M476.2,122.6h0.7v-1.5h0.7v1.5h0.9v0.6h-0.9v3c0,0.3,0.2,0.4,0.5,0.4c0.1,0,0.3,0,0.4-0.1h0v0.6c-0.2,0-0.4,0.1-0.6,0.1
		c-0.6,0-1-0.2-1-0.9v-3.2h-0.7V122.6z"/>
	<path d="M479,124.9c0-1.4,0.9-2.4,2.2-2.4c1.4,0,2.1,1.1,2.1,2.6h-3.6c0.1,0.9,0.6,1.7,1.5,1.7c0.7,0,1.1-0.3,1.3-1h0.7
		c-0.2,1-0.9,1.6-2,1.6C479.8,127.4,479,126.3,479,124.9z M479.7,124.5h2.8c0-0.9-0.5-1.5-1.4-1.5
		C480.3,123.1,479.8,123.7,479.7,124.5z"/>
	<path d="M483.8,124.9c0-1.4,0.9-2.4,2.3-2.4c1.1,0,1.8,0.6,2,1.6h-0.7c-0.1-0.6-0.5-1-1.3-1c-1,0-1.5,0.8-1.5,1.8
		c0,1,0.5,1.8,1.5,1.8c0.8,0,1.2-0.4,1.3-1.2h0.7c-0.1,1.1-0.8,1.8-2,1.8C484.6,127.4,483.8,126.3,483.8,124.9z"/>
	<path d="M489.4,123.2L489.4,123.2c0.4-0.4,0.8-0.7,1.5-0.7c1,0,1.6,0.5,1.6,1.5v3.3h-0.7V124c0-0.6-0.4-0.9-1.1-0.9
		c-0.7,0-1.3,0.5-1.3,1.3v2.9h-0.7v-6.4h0.7V123.2z"/>
	<path d="M494.2,123.2L494.2,123.2c0.4-0.4,0.8-0.7,1.5-0.7c1,0,1.6,0.5,1.6,1.5v3.3h-0.7V124c0-0.6-0.4-0.9-1.1-0.9
		c-0.7,0-1.3,0.5-1.3,1.3v2.9h-0.7v-4.7h0.7V123.2z"/>
	<path d="M497.9,124.9c0-1.4,0.9-2.4,2.3-2.4c1.4,0,2.2,1.1,2.2,2.4c0,1.3-0.8,2.4-2.2,2.4C498.8,127.4,497.9,126.3,497.9,124.9z
		 M501.7,124.9c0-1-0.5-1.8-1.5-1.8s-1.5,0.8-1.5,1.8c0,1,0.5,1.8,1.5,1.8S501.7,125.9,501.7,124.9z"/>
	<path d="M503.2,120.8h0.7v6.4h-0.7V120.8z"/>
	<path d="M504.7,124.9c0-1.4,0.9-2.4,2.3-2.4c1.4,0,2.2,1.1,2.2,2.4c0,1.3-0.8,2.4-2.2,2.4C505.5,127.4,504.7,126.3,504.7,124.9z
		 M508.4,124.9c0-1-0.5-1.8-1.5-1.8s-1.5,0.8-1.5,1.8c0,1,0.5,1.8,1.5,1.8S508.4,125.9,508.4,124.9z"/>
	<path d="M509.8,127.5h0.7c0.1,0.5,0.6,0.7,1.3,0.7c0.9,0,1.3-0.4,1.3-1.2v-0.7h0c-0.3,0.4-0.7,0.7-1.4,0.7c-1.2,0-2-1-2-2.3
		c0-1.4,0.9-2.3,2-2.3c0.7,0,1.1,0.3,1.4,0.7h0v-0.6h0.7v4.4c0,1.2-0.8,1.8-2,1.8C510.5,128.8,509.9,128.3,509.8,127.5z
		 M513.1,124.7c0-1-0.4-1.6-1.4-1.6c-0.9,0-1.3,0.7-1.3,1.7c0,1,0.5,1.7,1.3,1.7C512.8,126.5,513.1,125.7,513.1,124.7z"/>
	<path d="M514.8,120.8h0.7v0.9h-0.7V120.8z M514.8,122.6h0.7v4.7h-0.7V122.6z"/>
	<path d="M516.2,124.9c0-1.4,0.9-2.4,2.2-2.4c1.4,0,2.1,1.1,2.1,2.6H517c0.1,0.9,0.6,1.7,1.5,1.7c0.7,0,1.1-0.3,1.3-1h0.7
		c-0.2,1-0.9,1.6-2,1.6C517.1,127.4,516.2,126.3,516.2,124.9z M517,124.5h2.8c0-0.9-0.5-1.5-1.4-1.5
		C517.6,123.1,517.1,123.7,517,124.5z"/>
	<path d="M521,125.7h0.7c0.1,0.8,0.6,1,1.3,1c0.8,0,1.1-0.3,1.1-0.8c0-0.5-0.4-0.7-1.2-0.8c-0.9-0.2-1.7-0.4-1.7-1.4
		c0-0.8,0.6-1.3,1.7-1.3c1.2,0,1.7,0.5,1.8,1.5H524c-0.1-0.6-0.4-0.9-1.1-0.9c-0.7,0-0.9,0.3-0.9,0.7c0,0.5,0.5,0.6,1.3,0.8
		c0.9,0.2,1.7,0.4,1.7,1.5c0,0.9-0.8,1.4-1.8,1.4C521.8,127.4,521.1,126.8,521,125.7z"/>
	<path d="M525.5,128c0.2-0.1,0.4-0.2,0.4-0.7h-0.4v-0.9h0.9v0.9c0,0.7-0.4,1-0.9,1.1V128z"/>
</g>
<g class="st0">
	<path d="M442.5,135.7c0-1.4,0.9-2.4,2.3-2.4c1.1,0,1.8,0.6,2,1.6H446c-0.1-0.6-0.5-1-1.3-1c-1,0-1.5,0.8-1.5,1.8
		c0,1,0.5,1.8,1.5,1.8c0.8,0,1.2-0.4,1.3-1.2h0.7c-0.1,1.1-0.8,1.8-2,1.8C443.4,138.2,442.5,137.1,442.5,135.7z"/>
	<path d="M447.2,135.7c0-1.4,0.9-2.4,2.3-2.4c1.4,0,2.2,1.1,2.2,2.4c0,1.3-0.8,2.4-2.2,2.4C448.1,138.2,447.2,137.1,447.2,135.7z
		 M450.9,135.7c0-1-0.5-1.8-1.5-1.8s-1.5,0.8-1.5,1.8c0,1,0.5,1.8,1.5,1.8S450.9,136.7,450.9,135.7z"/>
	<path d="M452.4,133.4h0.7v0.7h0c0.3-0.5,0.8-0.8,1.4-0.8c0.6,0,1,0.3,1.2,0.8h0c0.3-0.5,0.9-0.8,1.4-0.8c0.8,0,1.4,0.5,1.4,1.5v3.3
		h-0.7v-3.2c0-0.6-0.4-0.9-0.9-0.9c-0.6,0-1.1,0.5-1.1,1.3v2.9h-0.7v-3.2c0-0.6-0.3-0.9-0.8-0.9c-0.6,0-1.2,0.5-1.2,1.3v2.9h-0.7
		V133.4z"/>
	<path d="M459.6,133.4h0.7v0.7h0c0.4-0.5,0.8-0.8,1.5-0.8c1.2,0,2,0.9,2,2.4c0,1.5-0.8,2.4-2,2.4c-0.6,0-1.1-0.2-1.5-0.7h0v2h-0.7
		V133.4z M463.1,135.7c0-1-0.4-1.8-1.3-1.8c-1,0-1.5,0.8-1.5,1.8s0.4,1.8,1.5,1.8C462.6,137.6,463.1,136.8,463.1,135.7z"/>
	<path d="M464.3,135.7c0-1.4,0.9-2.4,2.2-2.4c1.4,0,2.1,1.1,2.1,2.6H465c0.1,0.9,0.6,1.7,1.5,1.7c0.7,0,1.1-0.3,1.3-1h0.7
		c-0.2,1-0.9,1.6-2,1.6C465.1,138.2,464.3,137.1,464.3,135.7z M465,135.3h2.8c0-0.9-0.5-1.5-1.4-1.5
		C465.6,133.9,465.1,134.5,465,135.3z"/>
	<path d="M468.9,133.4h0.7v-1.5h0.7v1.5h0.9v0.6h-0.9v3c0,0.3,0.2,0.4,0.5,0.4c0.1,0,0.3,0,0.4-0.1h0v0.6c-0.2,0-0.4,0.1-0.6,0.1
		c-0.6,0-1-0.2-1-0.9V134h-0.7V133.4z"/>
	<path d="M472,131.6h0.7v0.9H472V131.6z M472,133.4h0.7v4.7H472V133.4z"/>
	<path d="M473.4,133.4h0.7v-1.5h0.7v1.5h0.9v0.6h-0.9v3c0,0.3,0.2,0.4,0.5,0.4c0.1,0,0.3,0,0.4-0.1h0v0.6c-0.2,0-0.4,0.1-0.6,0.1
		c-0.6,0-1-0.2-1-0.9V134h-0.7V133.4z"/>
	<path d="M476.2,135.7c0-1.4,0.9-2.4,2.3-2.4c1.4,0,2.2,1.1,2.2,2.4c0,1.3-0.8,2.4-2.2,2.4C477,138.2,476.2,137.1,476.2,135.7z
		 M479.9,135.7c0-1-0.5-1.8-1.5-1.8s-1.5,0.8-1.5,1.8c0,1,0.5,1.8,1.5,1.8S479.9,136.7,479.9,135.7z"/>
	<path d="M482.1,134.2L482.1,134.2c0.3-0.5,0.8-0.8,1.4-0.8c0.1,0,0.2,0,0.3,0.1v0.7h0c-0.1,0-0.2,0-0.3,0c-0.7,0-1.4,0.5-1.4,1.4
		v2.6h-0.7v-4.7h0.7V134.2z"/>
	<path d="M485.6,136.5h0.7c0.1,0.8,0.6,1,1.3,1c0.8,0,1.1-0.3,1.1-0.8c0-0.5-0.4-0.7-1.2-0.8c-0.9-0.2-1.7-0.4-1.7-1.4
		c0-0.8,0.6-1.3,1.7-1.3c1.2,0,1.7,0.5,1.8,1.5h-0.7c-0.1-0.6-0.4-0.9-1.1-0.9c-0.7,0-0.9,0.3-0.9,0.7c0,0.5,0.5,0.6,1.3,0.8
		c0.9,0.2,1.7,0.4,1.7,1.5c0,0.9-0.8,1.4-1.8,1.4C486.4,138.2,485.7,137.6,485.6,136.5z"/>
	<path d="M489.8,133.4h0.7v-1.5h0.7v1.5h0.9v0.6h-0.9v3c0,0.3,0.2,0.4,0.5,0.4c0.1,0,0.3,0,0.4-0.1h0v0.6c-0.2,0-0.4,0.1-0.6,0.1
		c-0.6,0-1-0.2-1-0.9V134h-0.7V133.4z"/>
	<path d="M493.6,134.2L493.6,134.2c0.3-0.5,0.8-0.8,1.4-0.8c0.1,0,0.2,0,0.3,0.1v0.7h0c-0.1,0-0.2,0-0.3,0c-0.7,0-1.4,0.5-1.4,1.4
		v2.6h-0.7v-4.7h0.7V134.2z"/>
	<path d="M498.7,137.4L498.7,137.4c-0.3,0.4-0.8,0.7-1.6,0.7c-0.9,0-1.6-0.4-1.6-1.3c0-1.1,0.9-1.3,2-1.5c0.7-0.1,1.1-0.2,1.1-0.7
		c0-0.5-0.4-0.8-1-0.8c-0.8,0-1.1,0.3-1.2,1h-0.7c0-0.9,0.6-1.6,1.9-1.6c1,0,1.7,0.4,1.7,1.5v2.2c0,0.4,0.1,0.6,0.5,0.5h0v0.5
		c-0.1,0-0.2,0.1-0.4,0.1C499,138.1,498.7,137.9,498.7,137.4z M498.7,136.3v-0.8c-0.2,0.2-0.7,0.3-1.1,0.3c-0.7,0.1-1.3,0.3-1.3,0.9
		c0,0.6,0.5,0.8,1,0.8C498.2,137.6,498.7,136.9,498.7,136.3z"/>
	<path d="M500,133.4h0.7v-1.5h0.7v1.5h0.9v0.6h-0.9v3c0,0.3,0.2,0.4,0.5,0.4c0.1,0,0.3,0,0.4-0.1h0v0.6c-0.2,0-0.4,0.1-0.6,0.1
		c-0.6,0-1-0.2-1-0.9V134H500V133.4z"/>
	<path d="M502.8,135.7c0-1.4,0.9-2.4,2.2-2.4c1.4,0,2.1,1.1,2.1,2.6h-3.6c0.1,0.9,0.6,1.7,1.5,1.7c0.7,0,1.1-0.3,1.3-1h0.7
		c-0.2,1-0.9,1.6-2,1.6C503.6,138.2,502.8,137.1,502.8,135.7z M503.5,135.3h2.8c0-0.9-0.5-1.5-1.4-1.5
		C504.1,133.9,503.6,134.5,503.5,135.3z"/>
	<path d="M507.7,138.3h0.7c0.1,0.5,0.6,0.7,1.3,0.7c0.9,0,1.3-0.4,1.3-1.2v-0.7h0c-0.3,0.4-0.7,0.7-1.4,0.7c-1.2,0-2-1-2-2.3
		c0-1.4,0.9-2.3,2-2.3c0.7,0,1.1,0.3,1.4,0.7h0v-0.6h0.7v4.4c0,1.2-0.8,1.8-2,1.8C508.5,139.6,507.8,139.1,507.7,138.3z M511,135.5
		c0-1-0.4-1.6-1.4-1.6c-0.9,0-1.3,0.7-1.3,1.7c0,1,0.5,1.7,1.3,1.7C510.7,137.3,511,136.5,511,135.5z"/>
	<path d="M512.7,131.6h0.7v0.9h-0.7V131.6z M512.7,133.4h0.7v4.7h-0.7V133.4z"/>
	<path d="M514.2,135.7c0-1.4,0.9-2.4,2.2-2.4c1.4,0,2.1,1.1,2.1,2.6h-3.6c0.1,0.9,0.6,1.7,1.5,1.7c0.7,0,1.1-0.3,1.3-1h0.7
		c-0.2,1-0.9,1.6-2,1.6C515,138.2,514.2,137.1,514.2,135.7z M514.9,135.3h2.8c0-0.9-0.5-1.5-1.4-1.5
		C515.5,133.9,515,134.5,514.9,135.3z"/>
	<path d="M518.9,136.5h0.7c0.1,0.8,0.6,1,1.3,1c0.8,0,1.1-0.3,1.1-0.8c0-0.5-0.4-0.7-1.2-0.8c-0.9-0.2-1.7-0.4-1.7-1.4
		c0-0.8,0.6-1.3,1.7-1.3c1.2,0,1.7,0.5,1.8,1.5h-0.7c-0.1-0.6-0.4-0.9-1.1-0.9c-0.7,0-0.9,0.3-0.9,0.7c0,0.5,0.5,0.6,1.3,0.8
		c0.9,0.2,1.7,0.4,1.7,1.5c0,0.9-0.8,1.4-1.8,1.4C519.7,138.2,519,137.6,518.9,136.5z"/>
</g>
<line class="st2" x1="53" y1="22.7" x2="53" y2="282.3"/>
<g>
	<g>
		<line class="st2" x1="53" y1="282.3" x2="419.5" y2="118.5"/>
		<g>
			<polygon points="418.2,123.6 417.3,123.2 419.2,118.7 414.5,117.1 414.9,116.1 420.5,118.1 			"/>
		</g>
	</g>
</g>
<g>
	<g>
		<line class="st3" x1="142.6" y1="264.1" x2="142.6" y2="247.8"/>
		<g>
			<polygon points="144.7,249.4 144.3,249.8 142.6,248 141,249.8 140.6,249.4 142.6,247.2 			"/>
		</g>
	</g>
</g>
<g>
	<g>
		<line class="st3" x1="187.3" y1="247.7" x2="187.3" y2="228.1"/>
		<g>
			<polygon points="189.3,229.7 188.9,230.1 187.3,228.3 185.6,230.1 185.2,229.7 187.3,227.5 			"/>
		</g>
	</g>
</g>
<g>
	<g>
		<line class="st3" x1="232.1" y1="228.9" x2="232.1" y2="209.3"/>
		<g>
			<polygon points="234.1,210.9 233.8,211.3 232.1,209.5 230.4,211.3 230,210.9 232.1,208.7 			"/>
		</g>
	</g>
</g>
<g>
	<g>
		<line class="st3" x1="277.3" y1="209.7" x2="277.3" y2="190.1"/>
		<g>
			<polygon points="279.3,191.7 278.9,192.1 277.3,190.3 275.6,192.1 275.2,191.7 277.3,189.5 			"/>
		</g>
	</g>
</g>
<g>
	<g>
		<line class="st3" x1="137" y1="175.5" x2="137" y2="159.1"/>
		<g>
			<polygon points="139,173.8 138.7,173.5 137,175.3 135.3,173.5 135,173.8 137,176 			"/>
		</g>
	</g>
</g>
<g>
	<g>
		<line class="st3" x1="96.7" y1="224.4" x2="96.7" y2="208.1"/>
		<g>
			<polygon points="98.8,222.7 98.4,222.4 96.7,224.2 95,222.4 94.7,222.7 96.7,224.9 			"/>
		</g>
	</g>
</g>
<g>
	<g>
		<line class="st3" x1="178.6" y1="125.5" x2="178.6" y2="105.9"/>
		<g>
			<polygon points="180.7,123.9 180.3,123.5 178.6,125.3 176.9,123.5 176.6,123.9 178.6,126.1 			"/>
		</g>
	</g>
</g>
<g>
	<g>
		<line class="st3" x1="212.3" y1="83.6" x2="212.3" y2="63.9"/>
		<g>
			<polygon points="214.4,81.9 214,81.6 212.3,83.4 210.7,81.6 210.3,81.9 212.3,84.1 			"/>
		</g>
	</g>
</g>
<g>
	<g>
		<line class="st3" x1="322.5" y1="190.9" x2="322.5" y2="171.2"/>
		<g>
			<polygon points="324.5,172.9 324.1,173.2 322.5,171.4 320.8,173.2 320.4,172.9 322.5,170.7 			"/>
		</g>
	</g>
</g>
<line class="st4" x1="53.9" y1="283" x2="248.3" y2="49"/>
<g>
	<g>
		<line class="st2" x1="421.1" y1="284.3" x2="53.7" y2="284.3"/>
		<g>
			<polygon points="417.8,280.2 417.1,281 420.7,284.3 417.1,287.7 417.8,288.4 422.2,284.3 			"/>
		</g>
	</g>
</g>
<circle class="st5" cx="52.9" cy="283.3" r="7.1"/>
<g>
	<g>
		<defs>
			<polygon id="SVGID_1_" points="63.9,274.5 249,50.5 413.2,118.7 			"/>
		</defs>
		<clipPath id="SVGID_00000175317104698431126950000006227856565469981074_">
			<use xlink:href="#SVGID_1_"  style="overflow:visible;"/>
		</clipPath>
		<g style="clip-path:url(#SVGID_00000175317104698431126950000006227856565469981074_);">
			<line class="st7" x1="432.1" y1="67.4" x2="178.4" y2="374.7"/>
			<line class="st7" x1="428.4" y1="64.3" x2="174.7" y2="371.6"/>
			<line class="st7" x1="424.7" y1="61.3" x2="171" y2="368.6"/>
			<line class="st7" x1="421.1" y1="58.2" x2="167.3" y2="365.5"/>
			<line class="st7" x1="445.7" y1="80.9" x2="191.9" y2="388.2"/>
			<line class="st7" x1="442" y1="77.9" x2="188.2" y2="385.2"/>
			<line class="st7" x1="438.3" y1="74.8" x2="184.5" y2="382.1"/>
			<line class="st7" x1="434.6" y1="71.8" x2="180.8" y2="379.1"/>
			<line class="st7" x1="417.4" y1="55.2" x2="163.6" y2="362.4"/>
			<line class="st7" x1="413.7" y1="52.1" x2="159.9" y2="359.4"/>
			<line class="st7" x1="410" y1="49.1" x2="156.2" y2="356.3"/>
			<line class="st7" x1="406.3" y1="46" x2="152.5" y2="353.3"/>
			<line class="st7" x1="402.6" y1="43" x2="148.8" y2="350.2"/>
			<line class="st7" x1="398.9" y1="39.9" x2="145.1" y2="347.2"/>
			<line class="st7" x1="395.2" y1="36.9" x2="141.4" y2="344.1"/>
			<line class="st7" x1="391.5" y1="33.8" x2="137.7" y2="341.1"/>
			<line class="st7" x1="387.8" y1="30.8" x2="134" y2="338"/>
			<line class="st7" x1="384.1" y1="27.7" x2="130.3" y2="335"/>
			<line class="st7" x1="380.4" y1="24.7" x2="126.6" y2="331.9"/>
			<line class="st7" x1="376.7" y1="21.6" x2="122.9" y2="328.9"/>
			<line class="st7" x1="373" y1="18.6" x2="119.3" y2="325.8"/>
			<line class="st7" x1="369.3" y1="15.5" x2="115.6" y2="322.8"/>
			<line class="st7" x1="365.6" y1="12.5" x2="111.9" y2="319.7"/>
			<line class="st7" x1="361.9" y1="9.4" x2="108.2" y2="316.7"/>
			<line class="st7" x1="358.2" y1="6.3" x2="104.5" y2="313.6"/>
			<line class="st7" x1="354.6" y1="3.3" x2="100.8" y2="310.6"/>
			<line class="st7" x1="350.9" y1="0.2" x2="97.1" y2="307.5"/>
			<line class="st7" x1="347.2" y1="-2.8" x2="93.4" y2="304.5"/>
			<line class="st7" x1="343.5" y1="-5.9" x2="89.7" y2="301.4"/>
			<line class="st7" x1="339.8" y1="-8.9" x2="86" y2="298.4"/>
			<line class="st7" x1="336.1" y1="-12" x2="82.3" y2="295.3"/>
			<line class="st7" x1="332.4" y1="-15" x2="78.6" y2="292.3"/>
			<line class="st7" x1="328.7" y1="-18.1" x2="74.9" y2="289.2"/>
			<line class="st7" x1="325" y1="-21.1" x2="71.2" y2="286.2"/>
			<line class="st7" x1="321.3" y1="-24.2" x2="67.5" y2="283.1"/>
			<line class="st7" x1="317.6" y1="-27.2" x2="63.8" y2="280.1"/>
			<line class="st7" x1="313.9" y1="-30.3" x2="60.1" y2="277"/>
			<line class="st7" x1="310.2" y1="-33.3" x2="56.4" y2="274"/>
			<line class="st7" x1="306.5" y1="-36.4" x2="52.7" y2="270.9"/>
			<line class="st7" x1="302.8" y1="-39.4" x2="49.1" y2="267.9"/>
			<line class="st7" x1="299.1" y1="-42.5" x2="45.4" y2="264.8"/>
		</g>
	</g>
</g>
<circle class="st8" cx="247.6" cy="48.3" r="12.9"/>
<line class="st3" x1="313.8" y1="92.6" x2="343.5" y2="73.3"/>
</svg>
