<?xml version="1.0" encoding="utf-8"?>
<!-- Generator: Adobe Illustrator 26.5.0, SVG Export Plug-In . SVG Version: 6.00 Build 0)  -->
<svg version="1.1" id="Layer_1" xmlns="http://www.w3.org/2000/svg" xmlns:xlink="http://www.w3.org/1999/xlink" x="0px" y="0px"
	 viewBox="0 0 482.5 318.7" style="enable-background:new 0 0 482.5 318.7;" xml:space="preserve">
<style type="text/css">
	.st0{clip-path:url(#SVGID_00000044165979842736045210000001094611542052211110_);}
	.st1{fill:none;stroke:#C6C6C6;stroke-width:0.6604;stroke-miterlimit:10;}
	.st2{fill:none;stroke:#C6C6C6;stroke-width:0.6231;stroke-miterlimit:10;}
	.st3{fill:#EDEDED;}
	.st4{fill:none;stroke:#000000;stroke-miterlimit:10;}
	.st5{fill:none;stroke:#000000;stroke-miterlimit:10;stroke-dasharray:2.9674,2.9674,2.9674,2.9674;}
	.st6{fill:none;stroke:#000000;stroke-miterlimit:10;stroke-dasharray:2.9674,2.9674,2.9674,2.9674,2.9674,2.9674;}
	.st7{stroke:#EDEDED;stroke-width:2;stroke-miterlimit:10;}
	.st8{fill:none;stroke:#000000;stroke-miterlimit:10;stroke-dasharray:2.9592,2.9592,2.9592,2.9592,2.9592,2.9592;}
	.st9{fill:none;stroke:#000000;stroke-width:0.5;stroke-miterlimit:10;}
	.st10{fill:none;stroke:#000000;stroke-miterlimit:10;stroke-dasharray:2.8212,2.8212,2.8212,2.8212,2.8212,2.8212;}
	
		.st11{fill:none;stroke:#000000;stroke-width:0.9404;stroke-miterlimit:10;stroke-dasharray:2.8212,2.8212,2.8212,2.8212,2.8212,2.8212;}
	.st12{fill:none;stroke:#000000;stroke-miterlimit:10;stroke-dasharray:4.8948,4.8948,4.8948,4.8948,4.8948,4.8948;}
	.st13{opacity:0.5;}
	.st14{clip-path:url(#SVGID_00000150818946502424274230000005385077345256466328_);}
	.st15{fill:none;stroke:#000000;stroke-width:0.544;stroke-miterlimit:10;}
	.st16{fill:none;stroke:#000000;stroke-width:0.5467;stroke-miterlimit:10;}
	.st17{clip-path:url(#SVGID_00000172415935505748821290000015946773539151300798_);}
	.st18{fill:none;stroke:#000000;stroke-width:1.0063;stroke-miterlimit:10;}
	.st19{fill:none;stroke:#000000;stroke-miterlimit:10;stroke-dasharray:3,3,3,3,3,3;}
	.st20{fill:#EDEDED;stroke:#B2B2B2;stroke-width:0.9621;stroke-miterlimit:10;}
	.st21{fill:#B2B2B2;stroke:#EDEDED;stroke-width:2;stroke-miterlimit:10;}
	.st22{fill:#EDEDED;stroke:#000000;stroke-width:0.9621;stroke-miterlimit:10;}
	.st23{fill:none;stroke:#000000;stroke-width:1.0063;stroke-miterlimit:10;stroke-dasharray:3,3,3,3,3,3;}
	.st24{fill:#E30613;}
	.st25{fill:#FFFFFF;}
	.st26{fill:none;stroke:#000000;stroke-miterlimit:10;stroke-dasharray:2.958,2.958,2.958,2.958;}
	.st27{fill:none;stroke:#000000;stroke-miterlimit:10;stroke-dasharray:2.958,2.958,2.958,2.958,2.958,2.958;}
	.st28{fill:#EDEDED;stroke:#000000;stroke-miterlimit:10;}
	.st29{stroke:#000000;stroke-miterlimit:10;}
	.st30{fill:#EDEDED;stroke:#EDEDED;stroke-width:6.6444;stroke-miterlimit:10;}
	.st31{fill:none;stroke:#000000;stroke-miterlimit:10;stroke-dasharray:2.8686,2.8686,2.8686,2.8686,2.8686,2.8686;}
	
		.st32{fill:none;stroke:#000000;stroke-width:0.8791;stroke-miterlimit:10;stroke-dasharray:2.6373,2.6373,2.6373,2.6373,2.6373,2.6373;}
	
		.st33{fill:none;stroke:#000000;stroke-width:0.9913;stroke-miterlimit:10;stroke-dasharray:2.8435,2.8435,2.8435,2.8435,2.8435,2.8435;}
	.st34{clip-path:url(#SVGID_00000082347169674380736990000008195668645470030735_);}
	.st35{fill:#009640;}
	.st36{fill:none;stroke:#000000;stroke-width:0.9987;stroke-miterlimit:10;stroke-dasharray:4.726,4.726,4.726,4.726,4.726,4.726;}
	.st37{fill:none;stroke:#000000;stroke-miterlimit:10;stroke-dasharray:4.7837,4.7837,4.7837,4.7837,4.7837,4.7837;}
	.st38{fill:none;stroke:#000000;stroke-width:1.2451;stroke-miterlimit:10;}
	.st39{fill:none;stroke:#000000;stroke-width:0.6408;stroke-miterlimit:10;}
	.st40{fill:none;stroke:#000000;stroke-width:0.5917;stroke-miterlimit:10;}
	.st41{clip-path:url(#SVGID_00000166662914119512146460000001793068359830712708_);}
	.st42{fill:none;stroke:#000000;stroke-miterlimit:10;stroke-dasharray:4.1209,4.1209,4.1209,4.1209,4.1209,4.1209;}
	.st43{stroke:#FFFFFF;stroke-width:2.7473;stroke-miterlimit:10;}
	.st44{clip-path:url(#SVGID_00000170982945698384379610000001743101898485255556_);}
	.st45{stroke:#FFFFFF;stroke-width:4.988;stroke-miterlimit:10;}
	.st46{fill:none;stroke:#000000;stroke-width:0.9428;stroke-miterlimit:10;}
	.st47{stroke:#FFFFFF;stroke-width:2;stroke-miterlimit:10;}
	
		.st48{fill:none;stroke:#000000;stroke-width:0.7902;stroke-miterlimit:10;stroke-dasharray:2.3707,2.3707,2.3707,2.3707,2.3707,2.3707;}
</style>
<g>
	<path d="M27.9,188.9L27.9,188.9c0.9,0.6,1.3,1.6,1.3,2.7c0,2.4-1.8,4-4.4,4c-2.5,0-4.5-1.4-4.5-4.1c0-2,1.1-3.2,2.8-3.5v1.1
		c-1.1,0.2-1.8,1-1.8,2.4c0,2.1,1.5,3,3.6,3c2.1,0,3.5-1.2,3.5-3c0-1.8-1.2-2.6-2.6-2.6h-0.2v2.6h-0.9v-3.7h4.5v0.7L27.9,188.9z"/>
	<path d="M23.9,185.5L23.9,185.5c-0.6-0.4-1.1-1-1.1-1.9c0-0.2,0-0.3,0.1-0.4h0.9v0c0,0.1-0.1,0.2-0.1,0.4c0,1,0.7,1.8,1.9,1.8h3.4
		v1h-6.2v-1H23.9z"/>
	<path d="M26,183c-1.8,0-3.3-1.2-3.3-3c0-1.9,1.5-3,3.3-3s3.3,1.1,3.3,3C29.2,181.8,27.8,183,26,183z M26,178c-1.4,0-2.5,0.7-2.5,2
		c0,1.3,1.1,2,2.5,2s2.4-0.7,2.4-2C28.4,178.7,27.3,178,26,178z"/>
	<path d="M22.9,176.7v-1l3.8-1.1c0.5-0.1,1.3-0.3,1.3-0.3v0c0,0-0.8-0.2-1.3-0.3l-3.9-1v-1l3.9-1c0.5-0.1,1.3-0.3,1.3-0.3v0
		c0,0-0.8-0.2-1.3-0.3l-3.8-1.2v-1l6.2,2v1l-3.8,1c-0.5,0.1-1.3,0.3-1.3,0.3v0c0,0,0.8,0.2,1.3,0.3l3.8,1v1L22.9,176.7z"/>
	<path d="M22.9,167.6v-0.9h-2v-1h2v-1.2h0.8v1.2h4c0.4,0,0.6-0.2,0.6-0.6c0-0.2,0-0.4-0.1-0.5v0H29c0,0.2,0.1,0.5,0.1,0.8
		c0,0.8-0.3,1.4-1.2,1.4h-4.2v0.9H22.9z"/>
	<path d="M23.7,162.6L23.7,162.6c-0.6-0.5-1-1.1-1-2c0-1.3,0.7-2.1,2-2.1h4.4v1h-4.3c-0.8,0-1.3,0.5-1.3,1.4c0,1,0.7,1.7,1.7,1.7
		h3.8v1h-8.6v-1H23.7z"/>
	<path d="M22.9,155.3v-1h0.9v0c-0.6-0.5-1-1.1-1-2c0-1.6,1.2-2.7,3.3-2.7c2,0,3.3,1,3.3,2.7c0,0.8-0.3,1.4-0.9,2v0h2.7v1H22.9z
		 M26,150.6c-1.4,0-2.4,0.6-2.4,1.8c0,1.4,1.1,2,2.4,2s2.4-0.5,2.4-2C28.4,151.2,27.4,150.6,26,150.6z"/>
	<path d="M26,149c-1.8,0-3.3-1.2-3.3-3c0-1.9,1.5-3,3.3-3s3.3,1.1,3.3,3C29.2,147.9,27.8,149,26,149z M26,144c-1.4,0-2.5,0.7-2.5,2
		c0,1.3,1.1,2,2.5,2s2.4-0.7,2.4-2C28.4,144.7,27.3,144,26,144z"/>
	<path d="M22.9,142.6v-0.9h-2v-1h2v-1.2h0.8v1.2h4c0.4,0,0.6-0.2,0.6-0.6c0-0.2,0-0.4-0.1-0.5v0H29c0,0.2,0.1,0.5,0.1,0.8
		c0,0.8-0.3,1.4-1.2,1.4h-4.2v0.9H22.9z"/>
	<path d="M26,138.9c-1.8,0-3.3-1.2-3.3-2.9c0-1.9,1.4-2.9,3.5-2.9v4.8c1.3-0.1,2.2-0.8,2.2-2c0-0.9-0.4-1.5-1.3-1.7v-0.9
		c1.3,0.3,2.1,1.3,2.1,2.7C29.2,137.8,27.8,138.9,26,138.9z M25.5,137.9v-3.7c-1.2,0.1-2,0.7-2,1.8
		C23.5,137.1,24.3,137.7,25.5,137.9z"/>
	<path d="M23.7,131.2L23.7,131.2c-0.6-0.5-1-1.1-1-2c0-1.3,0.7-2.1,2-2.1h4.4v1h-4.3c-0.8,0-1.3,0.5-1.3,1.4c0,1,0.7,1.7,1.7,1.7
		h3.8v1h-6.2v-1H23.7z"/>
	<path d="M22.9,126.3v-0.9h-2v-1h2v-1.2h0.8v1.2h4c0.4,0,0.6-0.2,0.6-0.6c0-0.2,0-0.4-0.1-0.5v0H29c0,0.2,0.1,0.5,0.1,0.8
		c0,0.8-0.3,1.4-1.2,1.4h-4.2v0.9H22.9z"/>
	<path d="M20.5,122.2v-1h1.2v1H20.5z M22.9,122.2v-1h6.2v1H22.9z"/>
	<path d="M28.2,116.2L28.2,116.2c0.5,0.4,1,1,1,2.1c0,1.2-0.6,2.1-1.7,2.1c-1.5,0-1.8-1.2-2-2.7c-0.1-0.9-0.2-1.5-0.9-1.5
		c-0.7,0-1.1,0.5-1.1,1.4c0,1,0.4,1.5,1.4,1.5v0.9c-1.2,0-2.1-0.8-2.1-2.5c0-1.3,0.5-2.3,2-2.3h3c0.5,0,0.8-0.1,0.7-0.7v0H29
		c0,0.1,0.1,0.3,0.1,0.5C29.1,115.7,28.8,116.1,28.2,116.2z M26.8,116.1h-1.1c0.2,0.3,0.4,0.9,0.5,1.4c0.2,1,0.3,1.8,1.3,1.8
		c0.8,0,1-0.6,1-1.3C28.4,116.7,27.5,116.1,26.8,116.1z"/>
	<path d="M20.5,113.8v-1h8.6v1H20.5z"/>
</g>
<g>
	<path d="M373.7,215.8c-0.5-2.5,0.7-4.7,3.2-5.1c2-0.4,3.4,0.6,3.9,2.1l-1,0.2c-0.4-1-1.4-1.6-2.7-1.3c-1.9,0.3-2.6,2-2.3,4
		c0.4,2.1,1.8,3.2,3.5,2.9c1.6-0.3,2.1-1.5,2-2.8l1-0.2c0.1,0.8-0.1,1.9-0.6,2.6c-0.5,0.7-1.3,1.2-2.4,1.3
		C376.1,219.9,374.2,218.4,373.7,215.8z"/>
	<path d="M386.9,217.8l-0.2-0.8l0,0c-0.3,0.7-0.8,1.2-1.7,1.3c-1.3,0.2-2.2-0.4-2.4-1.6l-0.8-4.2l1-0.2l0.8,4.2
		c0.1,0.8,0.7,1.2,1.6,1c1-0.2,1.5-1,1.3-2l-0.7-3.8l1-0.2l1.1,6.1L386.9,217.8z"/>
	<path d="M389.2,212.1L389.2,212.1c0.3-0.7,0.8-1.3,1.6-1.4c0.2,0,0.3,0,0.4,0l0.2,0.9l0,0c-0.2,0-0.2,0-0.4,0
		c-0.9,0.2-1.6,1-1.4,2.2l0.6,3.4l-1,0.2l-1.1-6.1l1-0.2L389.2,212.1z"/>
	<path d="M393.3,211.4L393.3,211.4c0.3-0.7,0.8-1.3,1.6-1.4c0.2,0,0.3,0,0.4,0l0.2,0.9l0,0c-0.2,0-0.2,0-0.4,0
		c-0.9,0.2-1.6,1-1.4,2.2l0.6,3.4l-1,0.2l-1.1-6.1l1-0.2L393.3,211.4z"/>
	<path d="M396.2,213c-0.3-1.8,0.6-3.4,2.3-3.7c1.8-0.3,3.1,0.9,3.4,2.9l-4.7,0.9c0.3,1.2,1.1,2,2.4,1.8c0.9-0.2,1.4-0.7,1.5-1.6
		l0.9-0.2c0,1.4-0.9,2.3-2.2,2.5C397.8,216,396.5,214.7,396.2,213z M397.1,212.3l3.7-0.7c-0.3-1.2-1-1.8-2.1-1.6
		C397.5,210.2,397,211.1,397.1,212.3z"/>
	<path d="M403.3,209.3L403.3,209.3c0.4-0.7,0.9-1.1,1.8-1.3c1.3-0.2,2.2,0.3,2.4,1.6l0.8,4.3l-1,0.2l-0.8-4.2
		c-0.1-0.8-0.7-1.1-1.6-1c-1,0.2-1.6,1-1.4,2l0.7,3.8l-1,0.2l-1.1-6.1l1-0.2L403.3,209.3z"/>
	<path d="M408,207.6l0.9-0.2l-0.4-1.9l1-0.2l0.4,1.9l1.2-0.2l0.1,0.8l-1.2,0.2l0.7,4c0.1,0.4,0.3,0.5,0.7,0.5c0.2,0,0.4-0.1,0.5-0.2
		l0,0l0.2,0.8c-0.2,0.1-0.5,0.2-0.8,0.2c-0.8,0.1-1.4-0.1-1.6-0.9l-0.8-4.2l-0.9,0.2L408,207.6z"/>
	<path d="M414.9,213l0.9-0.2c0.2,0.7,0.9,0.8,1.8,0.6c1.1-0.2,1.7-0.8,1.5-1.9l-0.2-0.9l0,0c-0.3,0.7-0.8,1.1-1.6,1.3
		c-1.6,0.3-2.9-0.8-3.2-2.5c-0.3-1.9,0.6-3.2,2.1-3.5c0.9-0.2,1.5,0.1,2,0.6l0,0l-0.1-0.8l1-0.2l1.1,5.8c0.3,1.6-0.6,2.6-2.2,2.8
		C416.2,214.5,415.2,214.1,414.9,213z M418.6,208.6c-0.2-1.3-1-2.1-2.3-1.8c-1.1,0.2-1.6,1.2-1.3,2.5c0.2,1.3,1,2.1,2.1,1.9
		C418.6,211,418.8,209.9,418.6,208.6z"/>
	<path d="M420.5,208.5c-0.3-1.8,0.6-3.4,2.3-3.7c1.8-0.3,3.1,0.9,3.4,2.9l-4.7,0.9c0.3,1.2,1.1,2,2.4,1.8c0.9-0.2,1.4-0.7,1.5-1.6
		l0.9-0.2c0,1.4-0.9,2.3-2.2,2.5C422.1,211.5,420.8,210.3,420.5,208.5z M421.4,207.8l3.7-0.7c-0.3-1.2-1-1.8-2.1-1.6
		C421.8,205.7,421.3,206.7,421.4,207.8z"/>
	<path d="M427.7,204.9L427.7,204.9c0.4-0.7,0.9-1.1,1.8-1.3c1.3-0.2,2.2,0.3,2.4,1.6l0.8,4.3l-1,0.2l-0.8-4.2
		c-0.1-0.8-0.7-1.1-1.6-1c-1,0.2-1.5,1-1.4,2l0.7,3.8l-1,0.2l-1.1-6.1l1-0.2L427.7,204.9z"/>
	<path d="M433,206.2c-0.3-1.8,0.6-3.4,2.3-3.7c1.8-0.3,3.1,0.9,3.4,2.9l-4.7,0.9c0.3,1.2,1.1,2,2.4,1.8c0.9-0.2,1.4-0.7,1.5-1.6
		l0.9-0.2c0,1.4-0.9,2.3-2.2,2.5C434.7,209.2,433.3,208,433,206.2z M433.9,205.6l3.7-0.7c-0.3-1.2-1-1.8-2.1-1.6
		C434.3,203.5,433.9,204.4,433.9,205.6z"/>
	<path d="M440.2,202.8L440.2,202.8c0.3-0.7,0.8-1.3,1.6-1.4c0.2,0,0.3,0,0.4,0l0.2,0.9l0,0c-0.2,0-0.2,0-0.4,0
		c-0.9,0.2-1.6,1-1.4,2.2l0.6,3.4l-1,0.2l-1.1-6.1l1-0.2L440.2,202.8z"/>
	<path d="M447.6,205.8L447.6,205.8c-0.3,0.5-0.8,1.2-1.9,1.3c-1.2,0.2-2.2-0.2-2.4-1.3c-0.3-1.4,0.8-1.9,2.3-2.5
		c0.8-0.3,1.4-0.5,1.3-1.1c-0.1-0.7-0.7-1-1.6-0.8c-1,0.2-1.4,0.7-1.3,1.6l-0.9,0.2c-0.2-1.2,0.4-2.2,2.1-2.5
		c1.3-0.2,2.3,0.1,2.6,1.5l0.5,2.9c0.1,0.5,0.3,0.7,0.8,0.5l0,0l0.1,0.7c-0.1,0.1-0.3,0.1-0.5,0.2
		C448.2,206.7,447.8,206.4,447.6,205.8z M447.4,204.4l-0.2-1c-0.3,0.3-0.8,0.5-1.3,0.7c-0.9,0.4-1.7,0.7-1.5,1.6
		c0.1,0.8,0.8,0.9,1.4,0.8C447.1,206.2,447.5,205.1,447.4,204.4z"/>
	<path d="M448.4,200.3l0.9-0.2l-0.4-1.9l1-0.2l0.4,1.9l1.2-0.2l0.1,0.8l-1.2,0.2l0.7,4c0.1,0.4,0.3,0.5,0.7,0.5
		c0.2,0,0.4-0.1,0.5-0.2l0,0l0.2,0.8c-0.2,0.1-0.5,0.2-0.8,0.2c-0.8,0.1-1.4-0.1-1.6-0.9l-0.8-4.2l-0.9,0.2L448.4,200.3z"/>
	<path d="M452,197.2l1-0.2l0.2,1.2l-1,0.2L452,197.2z M452.4,199.5l1-0.2l1.1,6.1l-1,0.2L452.4,199.5z"/>
	<path d="M454.9,202.2c-0.3-1.8,0.5-3.4,2.4-3.7c1.8-0.3,3.2,0.9,3.5,2.7c0.3,1.8-0.5,3.4-2.4,3.7
		C456.6,205.2,455.2,204,454.9,202.2z M459.8,201.3c-0.2-1.3-1.1-2.3-2.4-2.1c-1.3,0.2-1.8,1.4-1.5,2.8c0.2,1.3,1.1,2.3,2.4,2
		C459.6,203.9,460,202.7,459.8,201.3z"/>
	<path d="M462.3,198.6L462.3,198.6c0.4-0.7,0.9-1.1,1.8-1.3c1.3-0.2,2.2,0.3,2.4,1.6l0.8,4.3l-1,0.2l-0.8-4.2
		c-0.1-0.8-0.7-1.1-1.6-1c-1,0.2-1.6,1-1.4,2l0.7,3.8l-1,0.2l-1.1-6.1l1-0.2L462.3,198.6z"/>
</g>
<g>
	<path d="M391.4,147.1l1-0.5l6.1,3.8c0.4,0.3,1,0.7,1,0.7l0,0l-3-6.4l0.9-0.4l3.6,7.8l-1,0.5l-6.1-3.8c-0.4-0.3-1-0.7-1-0.7l0,0
		l3,6.4l-0.9,0.4L391.4,147.1z"/>
	<path d="M400.8,148.8c-0.8-1.6-0.3-3.5,1.3-4.2c1.7-0.8,3.2,0.1,4.1,2l-4.4,2c0.6,1.1,1.6,1.7,2.8,1.2c0.8-0.4,1.2-1,1-1.9l0.9-0.4
		c0.3,1.3-0.3,2.4-1.5,3C403.2,151.3,401.6,150.4,400.8,148.8z M401.5,147.9l3.4-1.6c-0.6-1.1-1.5-1.5-2.5-1
		C401.4,145.8,401.2,146.8,401.5,147.9z"/>
	<path d="M408.2,145.2l-3.1-1.8l1-0.5l2.3,1.4l0,0l0.4-2.7l1-0.4l-0.7,3.4l3.6,2l-1,0.5l-2.8-1.6l0,0l-0.5,3.2l-1,0.5L408.2,145.2z"
		/>
	<path d="M410.2,141l0.8-0.4l-0.8-1.8l0.9-0.4l0.8,1.8l1.1-0.5l0.3,0.7l-1.1,0.5l1.7,3.7c0.2,0.4,0.4,0.4,0.8,0.3
		c0.2-0.1,0.3-0.2,0.4-0.3l0,0l0.4,0.8c-0.2,0.1-0.4,0.3-0.7,0.4c-0.7,0.3-1.4,0.3-1.7-0.5l-1.8-3.9l-0.8,0.4L410.2,141z"/>
	<path d="M418.3,144.5l0.8-0.4c0.4,0.6,1.1,0.5,1.9,0.1c1-0.5,1.4-1.2,0.9-2.2l-0.4-0.8l0,0c-0.2,0.7-0.5,1.3-1.3,1.6
		c-1.5,0.7-3,0-3.8-1.6c-0.8-1.8-0.2-3.3,1.1-3.9c0.8-0.4,1.5-0.3,2.1,0.1l0,0l-0.3-0.7l0.9-0.4l2.5,5.3c0.7,1.5,0,2.6-1.5,3.3
		C419.9,145.6,418.8,145.4,418.3,144.5z M420.8,139.2c-0.6-1.2-1.4-1.7-2.6-1.2c-1.1,0.5-1.2,1.6-0.6,2.8c0.6,1.2,1.5,1.8,2.5,1.3
		C421.3,141.5,421.3,140.4,420.8,139.2z"/>
	<path d="M422.6,138.7c-0.8-1.6-0.3-3.5,1.3-4.2c1.7-0.8,3.2,0.1,4.1,2l-4.4,2c0.6,1.1,1.6,1.7,2.8,1.2c0.8-0.4,1.2-1,1-1.9l0.9-0.4
		c0.3,1.3-0.3,2.4-1.5,3C424.9,141.2,423.3,140.3,422.6,138.7z M423.3,137.8l3.4-1.6c-0.6-1.1-1.5-1.5-2.5-1
		C423.1,135.7,422.9,136.7,423.3,137.8z"/>
	<path d="M428.6,133.3L428.6,133.3c0.2-0.7,0.6-1.3,1.4-1.7c1.2-0.5,2.2-0.2,2.7,0.9l1.8,3.9l-0.9,0.4l-1.8-3.9
		c-0.3-0.7-1-0.9-1.8-0.6c-0.9,0.4-1.3,1.3-0.8,2.3l1.6,3.5l-0.9,0.4l-2.6-5.6l0.9-0.4L428.6,133.3z"/>
	<path d="M434.1,133.3c-0.8-1.6-0.3-3.5,1.3-4.2c1.7-0.8,3.2,0.1,4.1,2l-4.4,2c0.6,1.1,1.6,1.7,2.8,1.2c0.8-0.4,1.2-1,1-1.9l0.9-0.4
		c0.3,1.3-0.3,2.4-1.5,3C436.5,135.8,434.9,134.9,434.1,133.3z M434.8,132.4l3.4-1.6c-0.6-1.1-1.5-1.5-2.5-1
		C434.7,130.3,434.5,131.3,434.8,132.4z"/>
	<path d="M440.2,128.2L440.2,128.2c0.1-0.7,0.5-1.4,1.2-1.8c0.2-0.1,0.3-0.1,0.4-0.1l0.4,0.8l0,0c-0.2,0-0.2,0-0.4,0.1
		c-0.9,0.4-1.3,1.4-0.8,2.5l1.4,3.1l-0.9,0.4l-2.6-5.6l0.9-0.4L440.2,128.2z"/>
	<path d="M448.1,129.3L448.1,129.3c-0.1,0.6-0.5,1.3-1.5,1.8c-1.1,0.5-2.1,0.4-2.6-0.7c-0.6-1.3,0.3-2.1,1.6-3
		c0.7-0.5,1.3-0.8,1-1.4c-0.3-0.6-0.9-0.8-1.7-0.4c-0.9,0.4-1.2,1-0.8,1.9l-0.8,0.4c-0.5-1.1-0.1-2.3,1.4-2.9
		c1.2-0.6,2.3-0.5,2.9,0.8l1.2,2.7c0.2,0.5,0.4,0.7,0.9,0.3l0,0l0.3,0.6c-0.1,0.1-0.2,0.2-0.4,0.3
		C448.9,129.9,448.5,129.8,448.1,129.3z M447.6,128l-0.4-1c-0.2,0.3-0.7,0.7-1.1,1c-0.8,0.6-1.4,1.1-1.1,1.9c0.3,0.8,1,0.6,1.6,0.4
		C447.7,129.7,447.9,128.6,447.6,128z"/>
	<path d="M447.5,123.7l0.8-0.4l-0.8-1.8l0.9-0.4l0.8,1.8l1.1-0.5l0.3,0.7l-1.1,0.5l1.7,3.7c0.2,0.4,0.4,0.4,0.8,0.3
		c0.2-0.1,0.4-0.2,0.4-0.3l0,0l0.4,0.8c-0.2,0.1-0.4,0.3-0.7,0.4c-0.7,0.3-1.4,0.3-1.7-0.5l-1.8-3.9l-0.8,0.4L447.5,123.7z"/>
	<path d="M450.2,119.8l0.9-0.4l0.5,1.1l-0.9,0.4L450.2,119.8z M451.2,121.9l0.9-0.4l2.6,5.6l-0.9,0.4L451.2,121.9z"/>
	<path d="M454.3,123.9c-0.8-1.6-0.3-3.4,1.3-4.2c1.7-0.8,3.3,0.1,4.1,1.7c0.8,1.6,0.4,3.4-1.3,4.2
		C456.7,126.4,455.1,125.6,454.3,123.9z M458.8,121.8c-0.6-1.2-1.6-1.9-2.8-1.4c-1.2,0.6-1.4,1.8-0.8,3.1c0.6,1.2,1.7,1.9,2.8,1.4
		C459.3,124.3,459.4,123.1,458.8,121.8z"/>
	<path d="M460.5,118.5L460.5,118.5c0.2-0.7,0.6-1.3,1.4-1.7c1.2-0.5,2.2-0.2,2.7,0.9l1.8,3.9l-0.9,0.4l-1.8-3.9
		c-0.3-0.7-1-0.9-1.8-0.6c-0.9,0.4-1.3,1.3-0.8,2.3l1.6,3.5l-0.9,0.4l-2.6-5.6l0.9-0.4L460.5,118.5z"/>
</g>
<g>
	<path d="M395.4,50.3l1-0.6l6.5,3c0.5,0.2,1.1,0.6,1.1,0.6l0,0l-3.7-6l0.9-0.5l4.5,7.3l-0.9,0.6l-6.5-3c-0.5-0.2-1.1-0.6-1.1-0.6
		l0,0l3.7,6l-0.9,0.5L395.4,50.3z"/>
	<path d="M404.9,50.9c-0.9-1.5-0.7-3.4,0.8-4.3c1.6-1,3.2-0.3,4.3,1.5l-4.1,2.5c0.7,1,1.8,1.5,2.9,0.8c0.8-0.5,1.1-1.2,0.8-2
		l0.8-0.5c0.5,1.3,0,2.4-1.2,3.2C407.6,53.1,405.9,52.4,404.9,50.9z M405.5,49.9l3.2-2c-0.7-1-1.6-1.3-2.6-0.7
		C405.2,47.8,405.1,48.9,405.5,49.9z"/>
	<path d="M408.4,45.1l0.9-0.5l2.9,2.7c0.4,0.4,1,1,1,1l0,0c0,0-0.3-0.8-0.4-1.3l-1.1-3.8l0.9-0.5l2.9,2.8c0.4,0.4,0.9,1,0.9,1l0,0
		c0,0-0.3-0.8-0.4-1.3l-1-3.9l0.9-0.5l1.5,6.3l-0.8,0.5l-2.8-2.7c-0.4-0.4-0.9-0.9-0.9-0.9l0,0c0,0,0.3,0.8,0.4,1.3l1.1,3.7
		l-0.9,0.5L408.4,45.1z"/>
	<path d="M421.4,44.8l0.8-0.5c0.4,0.5,1.1,0.4,1.9-0.1c1-0.6,1.2-1.4,0.7-2.3l-0.5-0.7l0,0c-0.1,0.7-0.3,1.3-1.1,1.8
		c-1.4,0.8-3,0.3-3.9-1.2c-1-1.6-0.6-3.2,0.7-4c0.8-0.5,1.4-0.5,2.1-0.2l0,0l-0.4-0.7l0.8-0.5l3.1,5c0.9,1.4,0.3,2.6-1.1,3.5
		C423.1,45.7,422,45.6,421.4,44.8z M423.2,39.3c-0.7-1.2-1.6-1.6-2.8-0.9c-1,0.6-1,1.7-0.3,2.8c0.7,1.2,1.7,1.6,2.7,1
		C424.1,41.5,423.9,40.4,423.2,39.3z"/>
	<path d="M425,38.5c-0.9-1.5-0.7-3.4,0.8-4.3c1.6-1,3.2-0.3,4.3,1.5l-4.1,2.5c0.7,1,1.8,1.5,2.9,0.8c0.8-0.5,1.1-1.2,0.8-2l0.8-0.5
		c0.5,1.3,0,2.4-1.2,3.2C427.6,40.7,425.9,40.1,425,38.5z M425.6,37.6l3.2-2c-0.7-1-1.6-1.3-2.6-0.7
		C425.2,35.5,425.1,36.5,425.6,37.6z"/>
	<path d="M430.3,32.5L430.3,32.5c0.1-0.7,0.4-1.4,1.2-1.9c1.1-0.7,2.1-0.5,2.8,0.6l2.3,3.7l-0.8,0.5l-2.2-3.6
		c-0.4-0.7-1.1-0.8-1.9-0.3c-0.8,0.5-1.1,1.5-0.6,2.4l2,3.2l-0.8,0.5l-3.3-5.3l0.8-0.5L430.3,32.5z"/>
	<path d="M435.8,31.9c-0.9-1.5-0.7-3.4,0.8-4.3c1.6-1,3.2-0.3,4.3,1.5l-4.1,2.5c0.7,1,1.8,1.5,2.9,0.8c0.8-0.5,1.1-1.2,0.8-2
		l0.8-0.5c0.5,1.3,0,2.4-1.2,3.2C438.5,34.1,436.7,33.4,435.8,31.9z M436.4,30.9l3.2-2c-0.7-1-1.6-1.3-2.6-0.7
		C436,28.8,435.9,29.9,436.4,30.9z"/>
	<path d="M441.3,26.1L441.3,26.1c0-0.7,0.3-1.5,1-1.9c0.2-0.1,0.2-0.1,0.4-0.1l0.5,0.8l0,0c-0.1,0-0.2,0.1-0.4,0.2
		c-0.8,0.5-1.2,1.6-0.5,2.5l1.8,2.9l-0.8,0.5l-3.3-5.3l0.8-0.5L441.3,26.1z"/>
	<path d="M449.3,26.2L449.3,26.2c-0.1,0.6-0.4,1.4-1.3,1.9c-1,0.6-2.1,0.6-2.7-0.4c-0.8-1.2,0.1-2.1,1.2-3.1c0.7-0.6,1.2-1,0.8-1.5
		c-0.4-0.6-1-0.7-1.8-0.2c-0.9,0.5-1.1,1.2-0.6,2l-0.8,0.5c-0.6-1-0.4-2.2,1-3.1c1.1-0.7,2.2-0.8,3,0.5l1.5,2.5
		c0.3,0.4,0.5,0.6,0.9,0.2l0,0l0.4,0.6c-0.1,0.1-0.2,0.2-0.4,0.4C450.1,26.8,449.7,26.7,449.3,26.2z M448.5,25l-0.6-0.9
		c-0.2,0.3-0.6,0.8-1,1.1c-0.7,0.7-1.3,1.2-0.8,2c0.4,0.7,1.1,0.5,1.6,0.2C448.9,26.7,448.9,25.6,448.5,25z"/>
	<path d="M448,20.7l0.8-0.5l-1-1.7l0.8-0.5l1,1.7l1-0.6l0.4,0.7l-1,0.6l2.1,3.4c0.2,0.4,0.5,0.4,0.8,0.2c0.2-0.1,0.3-0.3,0.4-0.3
		l0,0l0.4,0.7c-0.2,0.2-0.4,0.3-0.6,0.5c-0.7,0.4-1.3,0.4-1.8-0.3l-2.2-3.6l-0.8,0.5L448,20.7z"/>
	<path d="M450.2,16.5L451,16l0.6,1l-0.8,0.5L450.2,16.5z M451.5,18.6l0.8-0.5l3.3,5.3l-0.8,0.5L451.5,18.6z"/>
	<path d="M454.7,20.2c-0.9-1.5-0.7-3.4,0.8-4.3c1.6-1,3.3-0.3,4.3,1.2s0.8,3.4-0.8,4.3C457.4,22.4,455.7,21.7,454.7,20.2z M459,17.6
		c-0.7-1.2-1.9-1.7-3-1c-1.1,0.7-1.1,2-0.4,3.1c0.7,1.2,1.9,1.7,3,1C459.7,20,459.7,18.7,459,17.6z"/>
	<path d="M460.3,14.1L460.3,14.1c0.1-0.7,0.4-1.4,1.2-1.9c1.1-0.7,2.1-0.5,2.8,0.6l2.3,3.7l-0.8,0.5l-2.2-3.6
		c-0.4-0.7-1.1-0.8-1.9-0.3c-0.8,0.5-1.1,1.5-0.6,2.4l2,3.2l-0.8,0.5l-3.3-5.3l0.8-0.5L460.3,14.1z"/>
</g>
<g>
	<path d="M234.7,296h6.8v0.9h-2.9v7.6h-1.1V297h-2.9V296z"/>
	<path d="M242.5,296h1v1.2h-1V296z M242.5,298.4h1v6.2h-1V298.4z"/>
	<path d="M244.8,298.4h1v0.9h0c0.4-0.6,1-1,1.8-1c0.8,0,1.4,0.4,1.6,1.1h0c0.4-0.7,1.1-1.1,1.9-1.1c1.1,0,1.9,0.7,1.9,2v4.4h-1v-4.3
		c0-0.8-0.5-1.2-1.1-1.2c-0.8,0-1.5,0.7-1.5,1.7v3.9h-1v-4.3c0-0.8-0.4-1.2-1.1-1.2c-0.8,0-1.6,0.7-1.6,1.7v3.9h-1V298.4z"/>
	<path d="M253.9,301.5c0-1.8,1.2-3.3,2.9-3.3c1.9,0,2.9,1.4,2.9,3.5h-4.8c0.1,1.3,0.8,2.2,2,2.2c0.9,0,1.5-0.4,1.7-1.3h0.9
		c-0.3,1.3-1.3,2.1-2.7,2.1C255,304.8,253.9,303.3,253.9,301.5z M255,301h3.7c-0.1-1.2-0.7-2-1.8-2C255.7,299,255.1,299.9,255,301z"
		/>
</g>
<g>
	<g>
		<line class="st4" x1="40.9" y1="24.9" x2="40.9" y2="285.2"/>
		<g>
			<polygon points="36.8,28.2 37.6,28.9 40.9,25.3 44.3,28.9 45,28.2 40.9,23.8 			"/>
		</g>
	</g>
</g>
<g>
	<g>
		<line class="st4" x1="467.7" y1="285.2" x2="40.1" y2="285.2"/>
		<g>
			<polygon points="464.4,281.1 463.7,281.8 467.3,285.2 463.7,288.5 464.4,289.3 468.8,285.2 			"/>
		</g>
	</g>
</g>
<line class="st4" x1="41.7" y1="283.3" x2="468.6" y2="209.7"/>
<line class="st42" x1="190.7" y1="257.6" x2="467.9" y2="128.8"/>
<line class="st42" x1="41.7" y1="283.3" x2="468.6" y2="23"/>
<circle class="st43" cx="41.7" cy="283.3" r="7.1"/>
</svg>
