<?xml version="1.0" encoding="UTF-8"?><svg id="Layer_1" xmlns="http://www.w3.org/2000/svg" xmlns:xlink="http://www.w3.org/1999/xlink" viewBox="0 0 482.54 318.68"><defs><style>.cls-1,.cls-2,.cls-3,.cls-4{fill:none;}.cls-5{letter-spacing:0em;}.cls-6{letter-spacing:-.01em;}.cls-7{clip-path:url(#clippath);}.cls-8{letter-spacing:0em;}.cls-9{letter-spacing:0em;}.cls-2{stroke-dasharray:0 0 0 0 0 0 4.12 4.12 4.12 4.12 4.12 4.12;}.cls-2,.cls-10,.cls-3,.cls-4{stroke-miterlimit:10;}.cls-2,.cls-3,.cls-4{stroke:#1d1d1b;}.cls-11{letter-spacing:0em;}.cls-12,.cls-10,.cls-13{fill:#1d1d1b;}.cls-14{letter-spacing:-.01em;}.cls-15{letter-spacing:0em;}.cls-10{stroke:#fff;stroke-width:2.75px;}.cls-16{letter-spacing:0em;}.cls-17{letter-spacing:0em;}.cls-18{letter-spacing:0em;}.cls-13{font-family:MyriadPro-Regular, 'Myriad Pro';font-size:12px;}.cls-19{letter-spacing:0em;}.cls-20{letter-spacing:.01em;}.cls-21{letter-spacing:0em;}.cls-4{stroke-width:.5px;}</style><clipPath id="clippath"><polygon class="cls-1" points="-607.27 263.25 -562.84 263.55 -562.59 178.02 -493.07 178.02 -493.07 73.77 -477.28 73.77 -477.53 264.96 -216.87 264.96 -216.61 66.73 -183.43 66.73 -183.69 266.38 -93.64 266.38 -93.39 284.26 -608.05 284.26 -607.27 263.25"/></clipPath></defs><g class="cls-7"><g><line class="cls-4" x1="139.55" y1="317.24" x2="-270.95" y2="757.34"/><line class="cls-4" x1="132.56" y1="310.8" x2="-277.93" y2="750.9"/><line class="cls-4" x1="125.58" y1="304.36" x2="-284.92" y2="744.46"/><line class="cls-4" x1="118.59" y1="297.92" x2="-291.9" y2="738.03"/><line class="cls-4" x1="111.61" y1="291.48" x2="-298.89" y2="731.59"/><line class="cls-4" x1="104.63" y1="285.04" x2="-305.87" y2="725.15"/><line class="cls-4" x1="97.64" y1="278.6" x2="-312.85" y2="718.71"/><line class="cls-4" x1="90.66" y1="272.17" x2="-319.84" y2="712.27"/><line class="cls-4" x1="83.67" y1="265.73" x2="-326.82" y2="705.83"/><line class="cls-4" x1="76.69" y1="259.29" x2="-333.81" y2="699.39"/><line class="cls-4" x1="69.71" y1="252.85" x2="-340.79" y2="692.96"/><line class="cls-4" x1="62.72" y1="246.41" x2="-347.77" y2="686.52"/><line class="cls-4" x1="55.74" y1="239.97" x2="-354.76" y2="680.08"/><line class="cls-4" x1="48.75" y1="233.53" x2="-361.74" y2="673.64"/><line class="cls-4" x1="41.77" y1="227.1" x2="-368.73" y2="667.2"/><line class="cls-4" x1="34.79" y1="220.66" x2="-375.71" y2="660.76"/><line class="cls-4" x1="27.8" y1="214.22" x2="-382.69" y2="654.32"/><line class="cls-4" x1="20.82" y1="207.78" x2="-389.68" y2="647.89"/><line class="cls-4" x1="13.83" y1="201.34" x2="-396.66" y2="641.45"/><line class="cls-4" x1="6.85" y1="194.9" x2="-403.65" y2="635.01"/><line class="cls-4" x1="-.13" y1="188.46" x2="-410.63" y2="628.57"/></g></g><text class="cls-13" transform="translate(29.07 196.8) rotate(-90)"><tspan x="0" y="0">G</tspan><tspan class="cls-6" x="7.75" y="0">r</tspan><tspan class="cls-17" x="11.56" y="0">o</tspan><tspan class="cls-5" x="18.06" y="0">wth po</tspan><tspan class="cls-9" x="53.48" y="0">t</tspan><tspan class="cls-5" x="57.38" y="0">e</tspan><tspan class="cls-18" x="63.4" y="0">n</tspan><tspan x="70.01" y="0">tial</tspan></text><text class="cls-13" transform="translate(373.91 216.42) rotate(-10.35)"><tspan class="cls-14" x="0" y="0">C</tspan><tspan x="6.82" y="0">u</tspan><tspan class="cls-11" x="13.43" y="0">r</tspan><tspan class="cls-6" x="17.4" y="0">r</tspan><tspan class="cls-15" x="21.2" y="0">e</tspan><tspan class="cls-18" x="27.22" y="0">n</tspan><tspan class="cls-15" x="33.83" y="0">t gene</tspan><tspan class="cls-21" x="65.73" y="0">r</tspan><tspan class="cls-16" x="69.6" y="0">a</tspan><tspan class="cls-15" x="75.33" y="0">tion</tspan></text><text class="cls-13" transform="translate(393.89 155.4) rotate(-24.9)"><tspan x="0" y="0">N</tspan><tspan class="cls-8" x="7.9" y="0">e</tspan><tspan class="cls-20" x="13.87" y="0">x</tspan><tspan class="cls-15" x="19.58" y="0">t gene</tspan><tspan class="cls-19" x="51.49" y="0">r</tspan><tspan class="cls-18" x="55.35" y="0">a</tspan><tspan x="61.09" y="0">tion</tspan></text><text class="cls-13" transform="translate(398.98 58.16) rotate(-31.62)"><tspan x="0" y="0">New gene</tspan><tspan class="cls-19" x="50.68" y="0">r</tspan><tspan class="cls-18" x="54.54" y="0">a</tspan><tspan x="60.28" y="0">tion</tspan></text><text class="cls-13" transform="translate(234.93 304.61)"><tspan class="cls-14" x="0" y="0">T</tspan><tspan x="5.82" y="0">ime</tspan></text><g><line class="cls-3" x1="40.92" y1="24.9" x2="40.92" y2="285.18"/><polygon class="cls-12" points="36.83 28.21 37.56 28.89 40.92 25.28 44.27 28.89 45.01 28.21 40.92 23.81 36.83 28.21"/></g><g><line class="cls-3" x1="467.72" y1="285.18" x2="40.14" y2="285.18"/><polygon class="cls-12" points="464.4 281.09 463.72 281.82 467.33 285.18 463.72 288.53 464.4 289.27 468.8 285.18 464.4 281.09"/></g><line class="cls-3" x1="41.66" y1="283.29" x2="468.58" y2="209.68"/><line class="cls-2" x1="190.66" y1="257.6" x2="467.92" y2="128.81"/><line class="cls-2" x1="41.66" y1="283.29" x2="468.58" y2="22.99"/><circle class="cls-10" cx="41.66" cy="283.29" r="7.08"/></svg>