<svg width="564" height="380" viewBox="0 0 564 380" fill="none" xmlns="http://www.w3.org/2000/svg">
<path d="M10.5794 234.125C11.6949 234.868 12.1906 236.108 12.1906 237.471C12.1906 240.446 9.95974 242.429 6.73736 242.429C3.63891 242.429 1.16016 240.693 1.16016 237.347C1.16016 234.868 2.52347 233.381 4.63042 233.009V234.372C3.2671 234.62 2.39953 235.612 2.39953 237.347C2.39953 239.95 4.2586 241.065 6.8613 241.065C9.46399 241.065 11.1991 239.578 11.1991 237.347C11.1991 235.116 9.71187 234.125 7.97674 234.125H7.72886V237.347H6.61342V232.761H12.1906V233.629L10.5794 234.125Z" fill="black"/>
<path d="M5.62113 229.91C4.8775 229.415 4.25781 228.671 4.25781 227.556C4.25781 227.308 4.25781 227.184 4.38175 227.06H5.49719C5.49719 227.184 5.37325 227.308 5.37325 227.556C5.37325 228.795 6.24082 229.787 7.72807 229.787H11.942V231.026H4.25781V229.787H5.62113V229.91Z" fill="black"/>
<path d="M8.22471 226.812C5.99383 226.812 4.13477 225.325 4.13477 223.094C4.13477 220.739 5.99383 219.375 8.22471 219.375C10.4556 219.375 12.3147 220.739 12.3147 223.094C12.1907 225.325 10.4556 226.812 8.22471 226.812ZM8.22471 220.615C6.48958 220.615 5.12627 221.482 5.12627 223.094C5.12627 224.705 6.48958 225.573 8.22471 225.573C9.95984 225.573 11.1992 224.705 11.1992 223.094C11.1992 221.482 9.8359 220.615 8.22471 220.615Z" fill="black"/>
<path d="M4.38175 219.004V217.764L9.09139 216.401C9.71108 216.277 10.7026 216.029 10.7026 216.029C10.7026 216.029 9.71108 215.781 9.09139 215.657L4.25781 214.418V213.179L9.09139 211.939C9.71108 211.815 10.7026 211.567 10.7026 211.567C10.7026 211.567 9.71108 211.319 9.09139 211.195L4.38175 209.708V208.469L12.0659 210.948V212.187L7.35626 213.426C6.73657 213.55 5.74507 213.798 5.74507 213.798C5.74507 213.798 6.73657 214.046 7.35626 214.17L12.0659 215.409V216.649L4.38175 219.004Z" fill="black"/>
<path d="M4.38305 207.725V206.61H1.9043V205.37H4.38305V203.883H5.37456V205.37H10.3321C10.8278 205.37 11.0757 205.122 11.0757 204.627C11.0757 204.379 11.0757 204.131 10.9518 204.007H11.9433C11.9433 204.255 12.0672 204.627 12.0672 204.998C12.0672 205.99 11.6954 206.734 10.5799 206.734H5.37456V207.849H4.38305V207.725Z" fill="black"/>
<path d="M5.37315 201.528C4.62953 200.908 4.13377 200.165 4.13377 199.049C4.13377 197.438 5.00134 196.446 6.61253 196.446H12.0658V197.686H6.73647C5.74496 197.686 5.12528 198.306 5.12528 199.421C5.12528 200.66 5.99284 201.528 7.23222 201.528H11.9419V202.767H1.2832V201.528H5.37315Z" fill="black"/>
<path d="M4.38175 192.48V191.241H5.49719C4.75356 190.621 4.25781 189.878 4.25781 188.762C4.25781 186.779 5.74507 185.416 8.34776 185.416C10.8265 185.416 12.4377 186.655 12.4377 188.762C12.4377 189.754 12.0659 190.497 11.3223 191.241H14.6686V192.48H4.38175ZM8.22382 186.655C6.48869 186.655 5.24932 187.399 5.24932 188.886C5.24932 190.621 6.61263 191.365 8.22382 191.365C9.83502 191.365 11.1983 190.745 11.1983 188.886C11.1983 187.399 9.95895 186.655 8.22382 186.655Z" fill="black"/>
<path d="M8.22471 184.672C5.99383 184.672 4.13477 183.185 4.13477 180.954C4.13477 178.599 5.99383 177.236 8.22471 177.236C10.4556 177.236 12.3147 178.599 12.3147 180.954C12.1907 183.309 10.4556 184.672 8.22471 184.672ZM8.22471 178.475C6.48958 178.475 5.12627 179.343 5.12627 180.954C5.12627 182.565 6.48958 183.433 8.22471 183.433C9.95984 183.433 11.1992 182.565 11.1992 180.954C11.1992 179.343 9.8359 178.475 8.22471 178.475Z" fill="black"/>
<path d="M4.38305 176.74V175.624H1.9043V174.385H4.38305V172.898H5.37456V174.385H10.3321C10.8278 174.385 11.0757 174.137 11.0757 173.641C11.0757 173.393 11.0757 173.146 10.9518 173.022H11.9433C11.9433 173.27 12.0672 173.641 12.0672 174.013C12.0672 175.005 11.6954 175.748 10.5799 175.748H5.37456V176.864H4.38305V176.74Z" fill="black"/>
<path d="M8.22471 172.154C5.99383 172.154 4.13477 170.667 4.13477 168.56C4.13477 166.205 5.8699 164.965 8.47259 164.965V170.915C10.0838 170.791 11.1992 169.923 11.1992 168.436C11.1992 167.32 10.7035 166.577 9.58803 166.329V165.213C11.1992 165.585 12.1907 166.825 12.1907 168.56C12.1907 170.791 10.4556 172.154 8.22471 172.154ZM7.60502 170.915V166.329C6.11777 166.453 5.12627 167.196 5.12627 168.56C5.12627 169.923 6.11777 170.667 7.60502 170.915Z" fill="black"/>
<path d="M5.37414 162.611C4.63052 161.991 4.13477 161.247 4.13477 160.132C4.13477 158.52 5.00233 157.529 6.61352 157.529H12.0668V158.768H6.73746C5.74596 158.768 5.12627 159.388 5.12627 160.504C5.12627 161.743 5.99383 162.611 7.23321 162.611H11.9428V163.85H4.2587V162.611H5.37414Z" fill="black"/>
<path d="M4.38305 156.537V155.422H1.9043V154.183H4.38305V152.695H5.37456V154.183H10.3321C10.8278 154.183 11.0757 153.935 11.0757 153.439C11.0757 153.191 11.0757 152.943 10.9518 152.819H11.9433C11.9433 153.067 12.0672 153.439 12.0672 153.811C12.0672 154.802 11.6954 155.546 10.5799 155.546H5.37456V156.661H4.38305V156.537Z" fill="black"/>
<path d="M1.4082 151.456V150.216H2.89546V151.456H1.4082ZM4.38271 151.456V150.216H12.0669V151.456H4.38271Z" fill="black"/>
<path d="M10.9505 144.019C11.5701 144.515 12.1898 145.259 12.1898 146.622C12.1898 148.109 11.4462 149.225 10.0829 149.225C8.22382 149.225 7.85201 147.738 7.60413 145.878C7.4802 144.763 7.35626 144.019 6.48869 144.019C5.62113 144.019 5.12538 144.639 5.12538 145.755C5.12538 146.994 5.62113 147.614 6.86051 147.614V148.729C5.37325 148.729 4.25781 147.738 4.25781 145.631C4.25781 144.019 4.8775 142.78 6.73657 142.78H10.4547C11.0744 142.78 11.4462 142.656 11.3223 141.912H11.942C11.942 142.036 12.0659 142.284 12.0659 142.532C12.0659 143.4 11.6941 143.895 10.9505 144.019ZM9.21533 143.895H7.85201C8.09989 144.267 8.34776 145.011 8.4717 145.631C8.71958 146.87 8.84351 147.862 10.0829 147.862C11.0744 147.862 11.3223 147.118 11.3223 146.25C11.1983 144.639 10.0829 143.895 9.21533 143.895Z" fill="black"/>
<path d="M1.4082 141.045V139.805H12.0669V141.045H1.4082Z" fill="black"/>
<path d="M439.156 267.465C438.536 264.366 440.023 261.64 443.122 261.144C445.601 260.648 447.336 261.887 447.955 263.747L446.716 263.994C446.22 262.755 444.981 262.011 443.37 262.383C441.015 262.755 440.147 264.862 440.519 267.341C441.015 269.944 442.75 271.307 444.857 270.935C446.84 270.563 447.46 269.076 447.336 267.465L448.575 267.217C448.699 268.208 448.451 269.572 447.832 270.439C447.212 271.307 446.22 271.927 444.857 272.051C442.13 272.546 439.776 270.687 439.156 267.465Z" fill="black"/>
<path d="M455.516 269.944L455.268 268.952C454.896 269.82 454.277 270.439 453.161 270.563C451.55 270.811 450.435 270.067 450.187 268.58L449.195 263.375L450.435 263.127L451.426 268.332C451.55 269.324 452.294 269.82 453.409 269.572C454.649 269.324 455.268 268.332 455.02 267.093L454.153 262.383L455.392 262.135L456.756 269.696L455.516 269.944Z" fill="black"/>
<path d="M458.367 262.879C458.739 262.011 459.359 261.268 460.35 261.144C460.598 261.144 460.722 261.144 460.846 261.144L461.094 262.259C460.846 262.259 460.846 262.259 460.598 262.259C459.483 262.507 458.615 263.499 458.863 264.986L459.607 269.2L458.367 269.448L457.004 261.887L458.243 261.639L458.367 262.879Z" fill="black"/>
<path d="M463.447 262.011C463.819 261.144 464.439 260.4 465.43 260.276C465.678 260.276 465.802 260.276 465.926 260.276L466.174 261.392C465.926 261.392 465.926 261.392 465.678 261.392C464.563 261.639 463.695 262.631 463.943 264.118L464.687 268.332L463.447 268.58L462.084 261.02L463.323 260.772L463.447 262.011Z" fill="black"/>
<path d="M467.041 263.994C466.67 261.763 467.785 259.78 469.892 259.409C472.123 259.037 473.734 260.524 474.106 263.003L468.281 264.118C468.653 265.606 469.644 266.597 471.255 266.349C472.371 266.101 472.99 265.482 473.114 264.366L474.23 264.118C474.23 265.854 473.114 266.969 471.503 267.217C469.024 267.713 467.413 266.101 467.041 263.994ZM468.157 263.127L472.743 262.259C472.371 260.772 471.503 260.028 470.14 260.276C468.653 260.524 468.033 261.64 468.157 263.127Z" fill="black"/>
<path d="M475.841 259.409C476.336 258.541 476.956 258.045 478.072 257.797C479.683 257.549 480.798 258.169 481.046 259.78L482.038 265.11L480.798 265.358L479.807 260.152C479.683 259.161 478.939 258.789 477.824 258.913C476.584 259.161 475.841 260.152 476.089 261.392L476.956 266.101L475.717 266.349L474.354 258.789L475.593 258.541L475.841 259.409Z" fill="black"/>
<path d="M481.666 257.302L482.781 257.054L482.286 254.699L483.525 254.451L484.021 256.806L485.508 256.558L485.632 257.549L484.145 257.797L485.012 262.755C485.136 263.251 485.384 263.375 485.88 263.375C486.128 263.375 486.376 263.251 486.5 263.127L486.747 264.118C486.5 264.242 486.128 264.366 485.756 264.366C484.764 264.49 484.021 264.242 483.773 263.251L482.781 258.045L481.666 258.293V257.302Z" fill="black"/>
<path d="M490.219 263.994L491.334 263.747C491.582 264.614 492.45 264.738 493.565 264.49C494.929 264.242 495.672 263.499 495.424 262.135L495.176 261.02C494.805 261.887 494.185 262.383 493.193 262.631C491.21 263.003 489.599 261.64 489.227 259.533C488.856 257.178 489.971 255.566 491.83 255.195C492.946 254.947 493.689 255.319 494.309 255.938L494.185 254.947L495.424 254.699L496.788 261.887C497.16 263.87 496.044 265.11 494.061 265.358C491.83 265.854 490.591 265.358 490.219 263.994ZM494.805 258.541C494.557 256.93 493.565 255.938 491.954 256.31C490.591 256.558 489.971 257.797 490.343 259.409C490.591 261.02 491.582 262.011 492.946 261.763C494.805 261.516 495.053 260.152 494.805 258.541Z" fill="black"/>
<path d="M497.159 258.417C496.787 256.186 497.902 254.203 500.009 253.831C502.24 253.459 503.851 254.947 504.223 257.425L498.398 258.541C498.77 260.028 499.761 261.02 501.372 260.772C502.488 260.524 503.108 259.904 503.232 258.789L504.347 258.541C504.347 260.276 503.232 261.392 501.62 261.639C499.142 262.135 497.53 260.648 497.159 258.417ZM498.274 257.549L502.86 256.682C502.488 255.195 501.62 254.451 500.257 254.699C498.77 254.947 498.15 256.186 498.274 257.549Z" fill="black"/>
<path d="M506.083 253.955C506.579 253.088 507.198 252.592 508.314 252.344C509.925 252.096 511.04 252.716 511.288 254.327L512.28 259.656L511.04 259.904L510.049 254.699C509.925 253.707 509.181 253.335 508.066 253.459C506.827 253.707 506.207 254.699 506.331 255.938L507.198 260.648L505.959 260.896L504.596 253.335L505.835 253.088L506.083 253.955Z" fill="black"/>
<path d="M512.651 255.566C512.279 253.335 513.394 251.352 515.501 250.981C517.732 250.609 519.343 252.096 519.715 254.575L513.89 255.69C514.262 257.178 515.253 258.169 516.865 257.921C517.98 257.673 518.6 257.054 518.724 255.938L519.839 255.69C519.839 257.425 518.724 258.541 517.113 258.789C514.758 259.285 513.023 257.797 512.651 255.566ZM513.766 254.823L518.352 253.955C517.98 252.468 517.113 251.724 515.749 251.972C514.262 252.22 513.766 253.335 513.766 254.823Z" fill="black"/>
<path d="M521.574 251.352C521.946 250.485 522.566 249.741 523.557 249.617C523.805 249.617 523.929 249.617 524.053 249.617L524.301 250.733C524.053 250.733 524.053 250.733 523.805 250.733C522.69 250.981 521.822 251.972 522.07 253.459L522.814 257.673L521.574 257.921L520.211 250.361L521.45 250.113L521.574 251.352Z" fill="black"/>
<path d="M530.746 255.071C530.374 255.69 529.755 256.558 528.391 256.682C526.904 256.93 525.665 256.434 525.417 255.071C525.045 253.335 526.408 252.716 528.267 251.972C529.259 251.6 530.002 251.352 529.878 250.609C529.755 249.741 529.011 249.369 527.895 249.617C526.656 249.865 526.16 250.485 526.284 251.6L525.169 251.848C524.921 250.361 525.665 249.121 527.772 248.75C529.383 248.502 530.622 248.874 530.994 250.609L531.614 254.203C531.738 254.823 531.985 255.071 532.605 254.823L532.729 255.69C532.605 255.814 532.357 255.814 532.109 255.938C531.49 256.186 530.994 255.814 530.746 255.071ZM530.498 253.335L530.25 252.096C529.878 252.468 529.259 252.716 528.639 252.964C527.524 253.459 526.532 253.831 526.78 254.947C526.904 255.938 527.771 256.062 528.515 255.938C530.126 255.566 530.622 254.203 530.498 253.335Z" fill="black"/>
<path d="M531.738 248.254L532.854 248.006L532.358 245.651L533.597 245.403L534.093 247.758L535.58 247.51L535.704 248.502L534.217 248.75L535.085 253.707C535.209 254.203 535.456 254.327 535.952 254.327C536.2 254.327 536.448 254.203 536.572 254.079L536.82 255.071C536.572 255.195 536.2 255.318 535.828 255.318C534.837 255.442 534.093 255.195 533.845 254.203L532.854 248.997L531.738 249.245V248.254Z" fill="black"/>
<path d="M536.199 244.412L537.439 244.164L537.686 245.651L536.447 245.899L536.199 244.412ZM536.695 247.262L537.934 247.014L539.298 254.575L538.058 254.823L536.695 247.262Z" fill="black"/>
<path d="M539.793 250.609C539.421 248.378 540.413 246.395 542.767 246.023C544.998 245.651 546.733 247.138 547.105 249.369C547.477 251.6 546.485 253.583 544.131 253.955C541.9 254.327 540.165 252.84 539.793 250.609ZM545.866 249.493C545.618 247.882 544.502 246.643 542.891 246.89C541.28 247.138 540.66 248.626 541.032 250.361C541.28 251.972 542.396 253.211 544.007 252.84C545.618 252.716 546.114 251.228 545.866 249.493Z" fill="black"/>
<path d="M548.966 246.147C549.461 245.279 550.081 244.784 551.197 244.536C552.808 244.288 553.923 244.907 554.171 246.519L555.163 251.848L553.923 252.096L552.932 246.891C552.808 245.899 552.064 245.527 550.949 245.651C549.709 245.899 548.966 246.891 549.214 248.13L550.081 252.84L548.842 253.088L547.479 245.527L548.718 245.279L548.966 246.147Z" fill="black"/>
<path d="M461.092 182.317L462.331 181.698L469.891 186.407C470.387 186.779 471.131 187.275 471.131 187.275L467.413 179.343L468.528 178.847L472.99 188.514L471.75 189.134L464.19 184.424C463.694 184.052 462.951 183.557 462.951 183.557L466.669 191.489L465.554 191.985L461.092 182.317Z" fill="black"/>
<path d="M472.742 184.424C471.751 182.441 472.371 180.086 474.354 179.219C476.461 178.227 478.32 179.343 479.435 181.698L473.982 184.176C474.725 185.54 475.965 186.283 477.452 185.664C478.444 185.168 478.939 184.424 478.691 183.309L479.807 182.813C480.179 184.424 479.435 185.788 477.948 186.531C475.717 187.523 473.734 186.407 472.742 184.424ZM473.61 183.309L477.824 181.326C477.08 179.962 475.965 179.467 474.725 180.086C473.486 180.706 473.238 181.945 473.61 183.309Z" fill="black"/>
<path d="M481.914 179.962L478.072 177.731L479.312 177.112L482.162 178.847L482.658 175.501L483.897 175.005L483.03 179.219L487.492 181.698L486.252 182.317L482.782 180.334L482.162 184.3L480.923 184.92L481.914 179.962Z" fill="black"/>
<path d="M484.393 174.757L485.384 174.261L484.393 172.03L485.508 171.534L486.499 173.765L487.863 173.146L488.235 174.013L486.871 174.633L488.978 179.219C489.226 179.715 489.474 179.715 489.97 179.591C490.218 179.467 490.342 179.343 490.466 179.219L490.961 180.21C490.713 180.334 490.466 180.582 490.094 180.706C489.226 181.078 488.359 181.078 487.987 180.086L485.756 175.253L484.764 175.748L484.393 174.757Z" fill="black"/>
<path d="M494.431 179.095L495.423 178.599C495.919 179.343 496.786 179.219 497.778 178.723C499.017 178.103 499.513 177.236 498.893 175.996L498.397 175.005C498.15 175.872 497.778 176.616 496.786 176.988C494.927 177.855 493.068 176.988 492.077 175.005C491.085 172.774 491.829 170.915 493.44 170.171C494.431 169.675 495.299 169.799 496.043 170.295L495.671 169.427L496.786 168.932L499.885 175.501C500.752 177.36 499.885 178.723 498.026 179.591C496.414 180.458 495.051 180.21 494.431 179.095ZM497.53 172.526C496.786 171.039 495.795 170.419 494.308 171.039C492.944 171.658 492.82 173.022 493.564 174.509C494.308 175.996 495.423 176.74 496.662 176.12C498.15 175.377 498.15 174.013 497.53 172.526Z" fill="black"/>
<path d="M499.76 171.906C498.769 169.923 499.388 167.568 501.371 166.701C503.478 165.709 505.337 166.825 506.453 169.179L500.999 171.658C501.743 173.022 502.982 173.765 504.47 173.146C505.461 172.65 505.957 171.906 505.709 170.791L506.824 170.295C507.196 171.906 506.453 173.27 504.965 174.013C502.611 175.005 500.628 173.889 499.76 171.906ZM500.628 170.791L504.841 168.808C504.098 167.444 502.982 166.949 501.743 167.568C500.38 168.188 500.132 169.427 500.628 170.791Z" fill="black"/>
<path d="M507.197 165.213C507.445 164.346 507.941 163.602 508.932 163.106C510.42 162.487 511.659 162.859 512.279 164.222L514.509 169.056L513.394 169.551L511.163 164.718C510.791 163.85 509.924 163.602 508.932 163.974C507.817 164.47 507.321 165.585 507.941 166.825L509.924 171.163L508.808 171.658L505.586 164.718L506.701 164.222L507.197 165.213Z" fill="black"/>
<path d="M514.014 165.213C513.022 163.23 513.642 160.876 515.625 160.008C517.732 159.016 519.591 160.132 520.707 162.487L515.253 164.966C515.997 166.329 517.236 167.073 518.724 166.453C519.715 165.957 520.211 165.213 519.963 164.098L521.078 163.602C521.45 165.213 520.707 166.577 519.219 167.32C516.988 168.312 515.005 167.196 514.014 165.213ZM514.881 164.098L519.095 162.115C518.352 160.752 517.236 160.256 515.997 160.875C514.758 161.495 514.51 162.735 514.881 164.098Z" fill="black"/>
<path d="M521.574 158.892C521.698 158.025 522.194 157.157 523.061 156.662C523.309 156.538 523.433 156.538 523.557 156.538L524.053 157.529C523.805 157.529 523.805 157.529 523.557 157.653C522.442 158.149 521.946 159.388 522.566 160.752L524.301 164.594L523.185 165.09L519.963 158.149L521.078 157.653L521.574 158.892Z" fill="black"/>
<path d="M531.364 160.256C531.24 160.999 530.745 161.867 529.505 162.487C528.142 163.106 526.902 162.982 526.283 161.619C525.539 160.008 526.655 159.016 528.266 157.901C529.133 157.281 529.877 156.909 529.505 156.166C529.133 155.422 528.39 155.174 527.398 155.67C526.283 156.166 525.911 156.909 526.407 158.025L525.415 158.521C524.796 157.157 525.291 155.67 527.15 154.926C528.638 154.183 530.001 154.307 530.745 155.918L532.232 159.264C532.48 159.884 532.728 160.132 533.347 159.636L533.719 160.38C533.595 160.504 533.471 160.628 533.223 160.752C532.356 160.999 531.86 160.876 531.364 160.256ZM530.745 158.645L530.249 157.405C530.001 157.777 529.381 158.273 528.886 158.645C527.894 159.388 527.15 160.008 527.522 160.999C527.894 161.991 528.762 161.743 529.505 161.495C530.869 160.752 531.116 159.388 530.745 158.645Z" fill="black"/>
<path d="M530.621 153.315L531.613 152.819L530.621 150.588L531.737 150.093L532.728 152.324L534.091 151.704L534.463 152.571L533.1 153.191L535.207 157.777C535.455 158.273 535.703 158.273 536.198 158.149C536.446 158.025 536.694 157.901 536.694 157.777L537.19 158.769C536.942 158.892 536.694 159.14 536.322 159.264C535.455 159.636 534.587 159.636 534.215 158.645L531.984 153.811L530.993 154.307L530.621 153.315Z" fill="black"/>
<path d="M533.967 148.481L535.082 147.986L535.702 149.349L534.586 149.845L533.967 148.481ZM535.206 151.084L536.322 150.588L539.544 157.529L538.429 158.025L535.206 151.084Z" fill="black"/>
<path d="M539.049 153.563C538.058 151.58 538.677 149.349 540.66 148.357C542.767 147.366 544.75 148.481 545.742 150.464C546.733 152.447 546.237 154.678 544.131 155.67C542.024 156.661 540.041 155.67 539.049 153.563ZM544.626 150.96C543.883 149.473 542.643 148.605 541.156 149.225C539.669 149.969 539.421 151.456 540.165 153.067C540.908 154.554 542.271 155.422 543.635 154.802C545.246 154.059 545.37 152.571 544.626 150.96Z" fill="black"/>
<path d="M546.732 146.87C546.98 146.003 547.476 145.259 548.467 144.763C549.955 144.143 551.194 144.515 551.814 145.879L554.045 150.712L552.929 151.208L550.698 146.374C550.326 145.507 549.459 145.259 548.467 145.631C547.352 146.126 546.856 147.242 547.476 148.481L549.459 152.819L548.343 153.315L545.121 146.374L546.237 145.879L546.732 146.87Z" fill="black"/>
<path d="M466.051 62.3423L467.29 61.5987L475.346 65.3169C475.966 65.5648 476.709 66.0606 476.709 66.0606L472.124 58.6241L473.239 58.0044L478.816 67.0521L477.701 67.7957L469.645 64.0775C469.025 63.8296 468.282 63.3339 468.282 63.3339L472.867 70.7703L471.752 71.39L466.051 62.3423Z" fill="black"/>
<path d="M477.825 63.086C476.709 61.2269 476.957 58.872 478.816 57.7566C480.799 56.5172 482.782 57.3848 484.145 59.6157L479.064 62.7142C479.932 63.9536 481.295 64.5733 482.658 63.7057C483.65 63.086 484.022 62.2185 483.65 61.2269L484.641 60.6072C485.261 62.2185 484.641 63.5818 483.154 64.5733C481.171 65.8127 479.064 64.9452 477.825 63.086ZM478.568 61.8466L482.534 59.3678C481.667 58.1284 480.551 57.7566 479.312 58.5002C478.196 59.2439 478.073 60.6072 478.568 61.8466Z" fill="black"/>
<path d="M482.162 55.8975L483.278 55.2778L486.872 58.6242C487.368 59.1199 488.111 59.8636 488.111 59.8636C488.111 59.8636 487.739 58.872 487.615 58.2523L486.252 53.5426L487.368 52.9229L490.962 56.3932C491.457 56.889 492.077 57.6326 492.077 57.6326C492.077 57.6326 491.705 56.6411 491.581 56.0214L490.342 51.1877L491.457 50.568L493.317 58.3763L492.325 58.996L488.855 55.6496C488.359 55.1538 487.739 54.5341 487.739 54.5341C487.739 54.5341 488.111 55.5256 488.235 56.1453L489.598 60.7312L488.483 61.3509L482.162 55.8975Z" fill="black"/>
<path d="M498.275 55.5255L499.266 54.9058C499.762 55.5255 500.629 55.4016 501.621 54.7819C502.86 54.0383 503.108 53.0467 502.488 51.9313L501.869 51.0637C501.745 51.9313 501.497 52.6749 500.505 53.2946C498.77 54.2861 496.787 53.6664 495.672 51.8073C494.432 49.8243 494.928 47.8412 496.539 46.8497C497.531 46.23 498.275 46.23 499.142 46.6018L498.646 45.7342L499.638 45.1145L503.48 51.3116C504.595 53.0467 503.852 54.534 502.117 55.6495C500.381 56.641 499.018 56.5171 498.275 55.5255ZM500.505 48.7088C499.638 47.2215 498.522 46.7257 497.035 47.5933C495.796 48.337 495.796 49.7003 496.663 51.0637C497.531 52.551 498.77 53.0467 500.01 52.3031C501.621 51.4355 501.373 50.0721 500.505 48.7088Z" fill="black"/>
<path d="M502.737 47.7173C501.621 45.8581 501.869 43.5033 503.728 42.3878C505.711 41.1484 507.694 42.016 509.058 44.2469L503.976 47.3454C504.844 48.5849 506.207 49.2046 507.57 48.337C508.562 47.7173 508.934 46.8497 508.562 45.8581L509.553 45.2384C510.173 46.8497 509.553 48.213 508.066 49.2046C505.959 50.444 503.852 49.7003 502.737 47.7173ZM503.48 46.6018L507.446 44.123C506.579 42.8836 505.463 42.5117 504.224 43.2554C502.985 43.999 502.861 45.2384 503.48 46.6018Z" fill="black"/>
<path d="M509.305 40.2809C509.428 39.4133 509.8 38.5457 510.792 37.926C512.155 37.0584 513.394 37.3063 514.262 38.6697L517.113 43.2555L516.121 43.8752L513.395 39.4133C512.899 38.5457 512.031 38.4218 511.04 39.0415C510.048 39.6612 509.676 40.9006 510.296 42.0161L512.775 45.9822L511.783 46.6019L507.693 40.033L508.685 39.4133L509.305 40.2809Z" fill="black"/>
<path d="M516.122 39.5372C515.006 37.6781 515.254 35.3232 517.113 34.2077C519.096 32.9683 521.079 33.8359 522.442 36.0669L517.361 39.1654C518.228 40.4048 519.592 41.0245 520.955 40.1569C521.947 39.5372 522.318 38.6696 521.947 37.6781L522.938 37.0584C523.558 38.6696 522.938 40.033 521.451 41.0245C519.468 42.2639 517.237 41.3963 516.122 39.5372ZM516.865 38.2978L520.831 35.819C519.964 34.5796 518.848 34.2077 517.609 34.9514C516.369 35.695 516.245 37.0584 516.865 38.2978Z" fill="black"/>
<path d="M522.937 32.3487C522.937 31.4811 523.309 30.4896 524.177 29.9938C524.425 29.8699 524.425 29.8699 524.673 29.8699L525.292 30.8614C525.168 30.8614 525.044 30.9853 524.796 31.1093C523.805 31.729 523.309 33.0923 524.177 34.2078L526.408 37.8021L525.416 38.4218L521.326 31.8529L522.318 31.2332L522.937 32.3487Z" fill="black"/>
<path d="M532.854 32.4726C532.73 33.2162 532.358 34.2078 531.242 34.8275C530.003 35.5711 528.64 35.5711 527.896 34.3317C526.905 32.8444 528.02 31.7289 529.383 30.4895C530.251 29.7459 530.871 29.2501 530.375 28.6304C529.879 27.8868 529.136 27.7628 528.144 28.3825C527.029 29.0022 526.781 29.8698 527.4 30.8614L526.409 31.4811C525.665 30.2417 525.913 28.7544 527.648 27.6389C529.012 26.7713 530.375 26.6474 531.366 28.2586L533.226 31.3571C533.597 31.8529 533.845 32.1008 534.341 31.605L534.837 32.3487C534.713 32.4726 534.589 32.5965 534.341 32.8444C533.845 33.2162 533.349 33.0923 532.854 32.4726ZM531.862 30.9853L531.119 29.8698C530.871 30.2417 530.375 30.8614 529.879 31.2332C529.012 32.1008 528.268 32.7205 528.888 33.712C529.383 34.5796 530.251 34.3317 530.871 33.9599C532.358 33.0923 532.358 31.7289 531.862 30.9853Z" fill="black"/>
<path d="M531.242 25.6559L532.234 25.0362L530.994 22.9292L531.986 22.3094L533.225 24.4164L534.464 23.6728L534.96 24.5404L533.721 25.284L536.323 29.498C536.571 29.9938 536.943 29.9938 537.315 29.7459C537.563 29.622 537.687 29.3741 537.811 29.3741L538.307 30.2417C538.059 30.4896 537.811 30.6135 537.563 30.8614C536.695 31.3571 535.952 31.3571 535.332 30.4896L532.605 26.0277L531.614 26.6474L531.242 25.6559Z" fill="black"/>
<path d="M533.969 20.4503L534.96 19.8306L535.704 21.07L534.712 21.6897L533.969 20.4503ZM535.58 23.053L536.571 22.4333L540.661 29.0022L539.67 29.6219L535.58 23.053Z" fill="black"/>
<path d="M539.545 25.0362C538.43 23.177 538.678 20.8222 540.537 19.7067C542.52 18.4673 544.627 19.3349 545.866 21.194C547.106 23.0531 546.858 25.408 544.875 26.5234C542.892 27.7629 540.785 26.8953 539.545 25.0362ZM544.875 21.8137C544.007 20.3264 542.52 19.7067 541.157 20.5743C539.793 21.4419 539.793 23.0531 540.661 24.4165C541.528 25.9037 543.016 26.5234 544.379 25.6559C545.742 24.7883 545.742 23.177 544.875 21.8137Z" fill="black"/>
<path d="M546.486 17.4757C546.61 16.6081 546.982 15.7405 547.973 15.1208C549.337 14.2533 550.576 14.5011 551.444 15.8645L554.294 20.4503L553.303 21.07L550.576 16.6081C550.08 15.7405 549.213 15.6166 548.221 16.2363C547.23 16.856 546.858 18.0954 547.478 19.2109L549.956 23.177L548.965 23.7967L544.875 17.2278L545.866 16.6081L546.486 17.4757Z" fill="black"/>
<path d="M266.882 366.865H275.31V367.981H271.715V377.4H270.352V368.105H266.758V366.865H266.882Z" fill="black"/>
<path d="M276.549 366.865H277.788V368.353H276.549V366.865ZM276.549 369.84H277.788V377.524H276.549V369.84Z" fill="black"/>
<path d="M279.399 369.84H280.639V370.955C281.134 370.212 281.878 369.716 282.87 369.716C283.861 369.716 284.605 370.212 284.853 371.079C285.348 370.212 286.216 369.716 287.207 369.716C288.571 369.716 289.562 370.584 289.562 372.195V377.648H288.323V372.319C288.323 371.327 287.703 370.831 286.96 370.831C285.968 370.831 285.1 371.699 285.1 372.938V377.772H283.861V372.443C283.861 371.451 283.365 370.955 282.498 370.955C281.506 370.955 280.515 371.823 280.515 373.062V377.896H279.275V369.84H279.399Z" fill="black"/>
<path d="M290.678 373.682C290.678 371.451 292.165 369.592 294.272 369.592C296.627 369.592 297.866 371.327 297.866 373.93H291.917C292.041 375.541 292.909 376.657 294.396 376.657C295.511 376.657 296.255 376.161 296.503 375.045H297.618C297.246 376.657 296.007 377.648 294.272 377.648C292.041 377.772 290.678 375.913 290.678 373.682ZM292.041 373.062H296.627C296.503 371.575 295.759 370.584 294.396 370.584C292.909 370.584 292.165 371.699 292.041 373.062Z" fill="black"/>
<path d="M26.6914 30.8613V353.48" stroke="black" stroke-miterlimit="10"/>
<path d="M21.6094 34.9513L22.6009 35.8189L26.6908 31.357L30.9047 35.8189L31.7723 34.9513L26.6908 29.4979L21.6094 34.9513Z" fill="black"/>
<path d="M555.657 353.48H25.6992" stroke="black" stroke-miterlimit="10"/>
<path d="M551.567 348.398L550.699 349.266L555.161 353.48L550.699 357.57L551.567 358.561L557.02 353.48L551.567 348.398Z" fill="black"/>
<path d="M27.6816 351.125L556.772 259.904" stroke="black" stroke-miterlimit="10"/>
<path d="M212.35 319.272L555.905 159.636" stroke="black" stroke-miterlimit="10" stroke-dasharray="4.12 4.12"/>
<path d="M27.6816 351.125L556.772 28.5065" stroke="black" stroke-miterlimit="10" stroke-dasharray="4.12 4.12"/>
<path d="M27.6824 359.925C32.5423 359.925 36.482 355.985 36.482 351.125C36.482 346.265 32.5423 342.325 27.6824 342.325C22.8225 342.325 18.8828 346.265 18.8828 351.125C18.8828 355.985 22.8225 359.925 27.6824 359.925Z" fill="black" stroke="white" stroke-width="2.7473" stroke-miterlimit="10"/>
</svg>
