<svg width="600" height="306" viewBox="0 0 600 306" fill="none" xmlns="http://www.w3.org/2000/svg">
<mask id="mask0_1802_3164" style="mask-type:luminance" maskUnits="userSpaceOnUse" x="66" y="63" width="516" height="219">
<path d="M67.3503 260.34L111.78 260.64L112.03 175.12H181.55V70.87H197.34L197.09 262.06H457.75L458.01 63.82H491.19L490.93 263.48H580.98L581.24 281.36H66.5703L67.3503 260.34Z" fill="white"/>
</mask>
<g mask="url(#mask0_1802_3164)">
<path d="M339.16 -73.49L54.1299 271.63" stroke="#C6C6C6" stroke-width="0.66" stroke-miterlimit="10"/>
<path d="M335.459 -76.54L50.4395 268.57" stroke="#C6C6C6" stroke-width="0.66" stroke-miterlimit="10"/>
<path d="M331.77 -79.6L46.7402 265.52" stroke="#C6C6C6" stroke-width="0.66" stroke-miterlimit="10"/>
<path d="M328.07 -82.65L43.0498 262.47" stroke="#C6C6C6" stroke-width="0.66" stroke-miterlimit="10"/>
<path d="M352.57 -59.77L67.54 285.35" stroke="#C6C6C6" stroke-width="0.66" stroke-miterlimit="10"/>
<path d="M348.87 -62.82L63.8496 282.3" stroke="#C6C6C6" stroke-width="0.66" stroke-miterlimit="10"/>
<path d="M345.179 -65.87L60.1494 279.25" stroke="#C6C6C6" stroke-width="0.66" stroke-miterlimit="10"/>
<path d="M341.48 -68.92L56.46 276.2" stroke="#C6C6C6" stroke-width="0.66" stroke-miterlimit="10"/>
<path d="M324.38 -85.7L39.3496 259.42" stroke="#C6C6C6" stroke-width="0.66" stroke-miterlimit="10"/>
<path d="M320.68 -88.75L35.6602 256.37" stroke="#C6C6C6" stroke-width="0.66" stroke-miterlimit="10"/>
<path d="M316.99 -91.8L31.96 253.32" stroke="#C6C6C6" stroke-width="0.66" stroke-miterlimit="10"/>
<path d="M313.29 -94.85L28.2695 250.27" stroke="#C6C6C6" stroke-width="0.66" stroke-miterlimit="10"/>
<path d="M309.6 -97.9L24.5801 247.22" stroke="#C6C6C6" stroke-width="0.66" stroke-miterlimit="10"/>
<path d="M305.91 -100.95L20.8799 244.16" stroke="#C6C6C6" stroke-width="0.66" stroke-miterlimit="10"/>
<path d="M302.209 -104.01L17.1895 241.11" stroke="#C6C6C6" stroke-width="0.66" stroke-miterlimit="10"/>
<path d="M298.52 -107.06L13.4902 238.06" stroke="#C6C6C6" stroke-width="0.66" stroke-miterlimit="10"/>
<path d="M294.82 -110.11L9.7998 235.01" stroke="#C6C6C6" stroke-width="0.66" stroke-miterlimit="10"/>
<path d="M291.13 -113.16L6.09961 231.96" stroke="#C6C6C6" stroke-width="0.66" stroke-miterlimit="10"/>
<path d="M287.43 -116.21L2.41016 228.91" stroke="#C6C6C6" stroke-width="0.66" stroke-miterlimit="10"/>
<path d="M283.74 -119.26L-1.29004 225.86" stroke="#C6C6C6" stroke-width="0.66" stroke-miterlimit="10"/>
<path d="M280.04 -122.31L-4.98047 222.81" stroke="#C6C6C6" stroke-width="0.66" stroke-miterlimit="10"/>
<path d="M276.35 -125.36L-8.67969 219.75" stroke="#C6C6C6" stroke-width="0.66" stroke-miterlimit="10"/>
<path d="M272.65 -128.42L-12.3701 216.7" stroke="#C6C6C6" stroke-width="0.66" stroke-miterlimit="10"/>
<path d="M268.959 -131.47L-16.0605 213.65" stroke="#C6C6C6" stroke-width="0.66" stroke-miterlimit="10"/>
<path d="M265.26 -134.52L-19.7598 210.6" stroke="#C6C6C6" stroke-width="0.66" stroke-miterlimit="10"/>
<path d="M261.57 -137.57L-23.4502 207.55" stroke="#C6C6C6" stroke-width="0.66" stroke-miterlimit="10"/>
<path d="M257.88 -140.62L-27.1504 204.5" stroke="#C6C6C6" stroke-width="0.66" stroke-miterlimit="10"/>
<path d="M254.18 -143.67L-30.8398 201.45" stroke="#C6C6C6" stroke-width="0.66" stroke-miterlimit="10"/>
<path d="M250.49 -146.72L-34.54 198.4" stroke="#C6C6C6" stroke-width="0.66" stroke-miterlimit="10"/>
<path d="M246.79 -149.77L-38.2305 195.34" stroke="#C6C6C6" stroke-width="0.66" stroke-miterlimit="10"/>
<path d="M243.1 -152.83L-41.9297 192.29" stroke="#C6C6C6" stroke-width="0.66" stroke-miterlimit="10"/>
<path d="M239.4 -155.88L-45.6201 189.24" stroke="#C6C6C6" stroke-width="0.66" stroke-miterlimit="10"/>
<path d="M235.71 -158.93L-49.3203 186.19" stroke="#C6C6C6" stroke-width="0.66" stroke-miterlimit="10"/>
<path d="M232.01 -161.98L-53.0098 183.14" stroke="#C6C6C6" stroke-width="0.66" stroke-miterlimit="10"/>
<path d="M228.32 -165.03L-56.71 180.09" stroke="#C6C6C6" stroke-width="0.66" stroke-miterlimit="10"/>
<path d="M224.62 -168.08L-60.4004 177.04" stroke="#C6C6C6" stroke-width="0.66" stroke-miterlimit="10"/>
<path d="M220.93 -171.13L-64.0898 173.99" stroke="#C6C6C6" stroke-width="0.66" stroke-miterlimit="10"/>
<path d="M217.24 -174.18L-67.79 170.93" stroke="#C6C6C6" stroke-width="0.66" stroke-miterlimit="10"/>
<path d="M213.54 -177.24L-71.4805 167.88" stroke="#C6C6C6" stroke-width="0.66" stroke-miterlimit="10"/>
<path d="M209.85 -180.29L-75.1797 164.83" stroke="#C6C6C6" stroke-width="0.66" stroke-miterlimit="10"/>
<path d="M206.15 -183.34L-78.8701 161.78" stroke="#C6C6C6" stroke-width="0.66" stroke-miterlimit="10"/>
<path d="M639.58 179.5L385.81 486.77" stroke="#C6C6C6" stroke-width="0.62" stroke-miterlimit="10"/>
<path d="M635.879 176.44L382.109 483.72" stroke="#C6C6C6" stroke-width="0.62" stroke-miterlimit="10"/>
<path d="M632.19 173.39L378.42 480.67" stroke="#C6C6C6" stroke-width="0.62" stroke-miterlimit="10"/>
<path d="M628.5 170.34L374.72 477.62" stroke="#C6C6C6" stroke-width="0.62" stroke-miterlimit="10"/>
<path d="M653.129 193.05L399.359 500.33" stroke="#C6C6C6" stroke-width="0.62" stroke-miterlimit="10"/>
<path d="M649.44 190L395.66 497.28" stroke="#C6C6C6" stroke-width="0.62" stroke-miterlimit="10"/>
<path d="M645.74 186.95L391.97 494.22" stroke="#C6C6C6" stroke-width="0.62" stroke-miterlimit="10"/>
<path d="M642.05 183.89L388.28 491.17" stroke="#C6C6C6" stroke-width="0.62" stroke-miterlimit="10"/>
<path d="M624.8 167.29L371.03 474.57" stroke="#C6C6C6" stroke-width="0.62" stroke-miterlimit="10"/>
<path d="M621.11 164.24L367.33 471.52" stroke="#C6C6C6" stroke-width="0.62" stroke-miterlimit="10"/>
<path d="M617.41 161.19L363.64 468.47" stroke="#C6C6C6" stroke-width="0.62" stroke-miterlimit="10"/>
<path d="M613.719 158.14L359.939 465.41" stroke="#C6C6C6" stroke-width="0.62" stroke-miterlimit="10"/>
<path d="M610.02 155.09L356.25 462.36" stroke="#C6C6C6" stroke-width="0.62" stroke-miterlimit="10"/>
<path d="M606.33 152.03L352.55 459.31" stroke="#C6C6C6" stroke-width="0.62" stroke-miterlimit="10"/>
<path d="M602.629 148.98L348.859 456.26" stroke="#C6C6C6" stroke-width="0.62" stroke-miterlimit="10"/>
<path d="M598.94 145.93L345.17 453.21" stroke="#C6C6C6" stroke-width="0.62" stroke-miterlimit="10"/>
<path d="M595.24 142.88L341.47 450.16" stroke="#C6C6C6" stroke-width="0.62" stroke-miterlimit="10"/>
<path d="M591.55 139.83L337.78 447.11" stroke="#C6C6C6" stroke-width="0.62" stroke-miterlimit="10"/>
<path d="M587.86 136.78L334.08 444.06" stroke="#C6C6C6" stroke-width="0.62" stroke-miterlimit="10"/>
<path d="M584.16 133.73L330.39 441" stroke="#C6C6C6" stroke-width="0.62" stroke-miterlimit="10"/>
<path d="M580.469 130.67L326.689 437.95" stroke="#C6C6C6" stroke-width="0.62" stroke-miterlimit="10"/>
<path d="M576.77 127.62L323 434.9" stroke="#C6C6C6" stroke-width="0.62" stroke-miterlimit="10"/>
<path d="M573.08 124.57L319.3 431.85" stroke="#C6C6C6" stroke-width="0.62" stroke-miterlimit="10"/>
<path d="M569.379 121.52L315.609 428.8" stroke="#C6C6C6" stroke-width="0.62" stroke-miterlimit="10"/>
<path d="M565.69 118.47L311.91 425.75" stroke="#C6C6C6" stroke-width="0.62" stroke-miterlimit="10"/>
<path d="M561.99 115.42L308.22 422.7" stroke="#C6C6C6" stroke-width="0.62" stroke-miterlimit="10"/>
<path d="M558.3 112.37L304.53 419.65" stroke="#C6C6C6" stroke-width="0.62" stroke-miterlimit="10"/>
<path d="M554.6 109.32L300.83 416.59" stroke="#C6C6C6" stroke-width="0.62" stroke-miterlimit="10"/>
<path d="M550.91 106.26L297.14 413.54" stroke="#C6C6C6" stroke-width="0.62" stroke-miterlimit="10"/>
<path d="M547.209 103.21L293.439 410.49" stroke="#C6C6C6" stroke-width="0.62" stroke-miterlimit="10"/>
<path d="M543.52 100.16L289.75 407.44" stroke="#C6C6C6" stroke-width="0.62" stroke-miterlimit="10"/>
<path d="M539.83 97.11L286.05 404.39" stroke="#C6C6C6" stroke-width="0.62" stroke-miterlimit="10"/>
<path d="M536.129 94.06L282.359 401.34" stroke="#C6C6C6" stroke-width="0.62" stroke-miterlimit="10"/>
<path d="M532.44 91.01L278.66 398.29" stroke="#C6C6C6" stroke-width="0.62" stroke-miterlimit="10"/>
<path d="M528.74 87.96L274.97 395.24" stroke="#C6C6C6" stroke-width="0.62" stroke-miterlimit="10"/>
<path d="M525.05 84.91L271.27 392.18" stroke="#C6C6C6" stroke-width="0.62" stroke-miterlimit="10"/>
<path d="M521.35 81.85L267.58 389.13" stroke="#C6C6C6" stroke-width="0.62" stroke-miterlimit="10"/>
<path d="M517.66 78.8L263.88 386.08" stroke="#C6C6C6" stroke-width="0.62" stroke-miterlimit="10"/>
<path d="M513.959 75.75L260.189 383.03" stroke="#C6C6C6" stroke-width="0.62" stroke-miterlimit="10"/>
<path d="M510.27 72.7L256.5 379.98" stroke="#C6C6C6" stroke-width="0.62" stroke-miterlimit="10"/>
<path d="M506.57 69.65L252.8 376.93" stroke="#C6C6C6" stroke-width="0.62" stroke-miterlimit="10"/>
<path d="M489.509 53.26L204.489 398.38" stroke="#C6C6C6" stroke-width="0.66" stroke-miterlimit="10"/>
<path d="M485.819 50.21L200.789 395.33" stroke="#C6C6C6" stroke-width="0.66" stroke-miterlimit="10"/>
<path d="M482.12 47.16L197.1 392.28" stroke="#C6C6C6" stroke-width="0.66" stroke-miterlimit="10"/>
<path d="M478.429 44.11L193.399 389.23" stroke="#C6C6C6" stroke-width="0.66" stroke-miterlimit="10"/>
<path d="M502.919 66.99L217.899 412.11" stroke="#C6C6C6" stroke-width="0.66" stroke-miterlimit="10"/>
<path d="M499.229 63.94L214.199 409.06" stroke="#C6C6C6" stroke-width="0.66" stroke-miterlimit="10"/>
<path d="M495.53 60.89L210.51 406.01" stroke="#C6C6C6" stroke-width="0.66" stroke-miterlimit="10"/>
<path d="M491.84 57.84L206.81 402.95" stroke="#C6C6C6" stroke-width="0.66" stroke-miterlimit="10"/>
<path d="M474.73 41.06L189.71 386.18" stroke="#C6C6C6" stroke-width="0.66" stroke-miterlimit="10"/>
<path d="M471.04 38.01L186.01 383.13" stroke="#C6C6C6" stroke-width="0.66" stroke-miterlimit="10"/>
<path d="M467.339 34.96L182.319 380.07" stroke="#C6C6C6" stroke-width="0.66" stroke-miterlimit="10"/>
<path d="M463.649 31.9L178.619 377.02" stroke="#C6C6C6" stroke-width="0.66" stroke-miterlimit="10"/>
<path d="M459.95 28.85L174.93 373.97" stroke="#C6C6C6" stroke-width="0.66" stroke-miterlimit="10"/>
<path d="M456.259 25.8L171.239 370.92" stroke="#C6C6C6" stroke-width="0.66" stroke-miterlimit="10"/>
<path d="M452.569 22.75L167.539 367.87" stroke="#C6C6C6" stroke-width="0.66" stroke-miterlimit="10"/>
<path d="M448.87 19.7L163.85 364.82" stroke="#C6C6C6" stroke-width="0.66" stroke-miterlimit="10"/>
<path d="M445.179 16.65L160.149 361.77" stroke="#C6C6C6" stroke-width="0.66" stroke-miterlimit="10"/>
<path d="M441.48 13.6L156.46 358.72" stroke="#C6C6C6" stroke-width="0.66" stroke-miterlimit="10"/>
<path d="M437.79 10.55L152.76 355.66" stroke="#C6C6C6" stroke-width="0.66" stroke-miterlimit="10"/>
<path d="M434.089 7.48999L149.069 352.61" stroke="#C6C6C6" stroke-width="0.66" stroke-miterlimit="10"/>
<path d="M430.399 4.44L145.369 349.56" stroke="#C6C6C6" stroke-width="0.66" stroke-miterlimit="10"/>
<path d="M426.7 1.39L141.68 346.51" stroke="#C6C6C6" stroke-width="0.66" stroke-miterlimit="10"/>
<path d="M423.01 -1.66L137.979 343.46" stroke="#C6C6C6" stroke-width="0.66" stroke-miterlimit="10"/>
<path d="M419.309 -4.70999L134.289 340.41" stroke="#C6C6C6" stroke-width="0.66" stroke-miterlimit="10"/>
<path d="M415.62 -7.76001L130.6 337.36" stroke="#C6C6C6" stroke-width="0.66" stroke-miterlimit="10"/>
<path d="M411.919 -10.81L126.899 334.31" stroke="#C6C6C6" stroke-width="0.66" stroke-miterlimit="10"/>
<path d="M408.23 -13.86L123.21 331.25" stroke="#C6C6C6" stroke-width="0.66" stroke-miterlimit="10"/>
<path d="M404.54 -16.92L119.51 328.2" stroke="#C6C6C6" stroke-width="0.66" stroke-miterlimit="10"/>
<path d="M400.839 -19.97L115.819 325.15" stroke="#C6C6C6" stroke-width="0.66" stroke-miterlimit="10"/>
<path d="M397.149 -23.02L112.119 322.1" stroke="#C6C6C6" stroke-width="0.66" stroke-miterlimit="10"/>
<path d="M393.45 -26.07L108.43 319.05" stroke="#C6C6C6" stroke-width="0.66" stroke-miterlimit="10"/>
<path d="M389.759 -29.12L104.729 316" stroke="#C6C6C6" stroke-width="0.66" stroke-miterlimit="10"/>
<path d="M386.059 -32.17L101.039 312.95" stroke="#C6C6C6" stroke-width="0.66" stroke-miterlimit="10"/>
<path d="M382.37 -35.22L97.3398 309.9" stroke="#C6C6C6" stroke-width="0.66" stroke-miterlimit="10"/>
<path d="M378.669 -38.27L93.6494 306.84" stroke="#C6C6C6" stroke-width="0.66" stroke-miterlimit="10"/>
<path d="M374.979 -41.33L89.9492 303.79" stroke="#C6C6C6" stroke-width="0.66" stroke-miterlimit="10"/>
<path d="M371.28 -44.38L86.2598 300.74" stroke="#C6C6C6" stroke-width="0.66" stroke-miterlimit="10"/>
<path d="M367.589 -47.43L82.5693 297.69" stroke="#C6C6C6" stroke-width="0.66" stroke-miterlimit="10"/>
<path d="M363.899 -50.48L78.8691 294.64" stroke="#C6C6C6" stroke-width="0.66" stroke-miterlimit="10"/>
<path d="M360.2 -53.53L75.1797 291.59" stroke="#C6C6C6" stroke-width="0.66" stroke-miterlimit="10"/>
<path d="M356.509 -56.58L71.4795 288.54" stroke="#C6C6C6" stroke-width="0.66" stroke-miterlimit="10"/>
</g>
<path d="M68.2598 261.29H112.54V176.27H182.06V71.41H197.85V262.71H458.52V64.32H491.7V264.12H580.66" stroke="#1D1D1B" stroke-miterlimit="10"/>
<path d="M577.35 268.21L576.66 267.48L580.28 264.12L576.66 260.77L577.35 260.03L581.74 264.12L577.35 268.21Z" fill="#1D1D1B"/>
<path d="M30.3407 173.34C31.6717 173.34 32.7507 172.261 32.7507 170.93C32.7507 169.599 31.6717 168.52 30.3407 168.52C29.0097 168.52 27.9307 169.599 27.9307 170.93C27.9307 172.261 29.0097 173.34 30.3407 173.34Z" fill="#1D1D1B"/>
<path d="M34.4402 178.29V176.39C34.4402 174.97 33.3202 173.82 31.9402 173.82H31.7602C31.7002 174 31.6102 174.17 31.4802 174.32C30.9302 174.97 29.9802 175.03 29.3502 174.47C29.1502 174.29 29.0102 174.06 28.9302 173.82H28.7402C27.3602 173.82 26.2402 174.97 26.2402 176.39V178.39V181.63C26.2402 182.36 26.8202 182.96 27.5502 182.99C27.6302 183.03 27.7102 183.07 27.7902 183.11C27.7902 183.15 27.7802 183.18 27.7802 183.22V189.42C27.7802 190.12 28.3502 190.7 29.0602 190.7H29.2702C29.8802 190.7 30.3802 190.28 30.5102 189.71C30.6402 190.28 31.1502 190.7 31.7502 190.7H31.9602C32.6602 190.7 33.2402 190.13 33.2402 189.42V183.22C33.2402 183.14 33.2402 183.06 33.2202 182.99C33.9202 182.93 34.4602 182.35 34.4602 181.64V178.4C34.4602 178.4 34.4602 178.33 34.4502 178.3L34.4402 178.29Z" fill="#1D1D1B"/>
<path d="M49.8905 173.34C51.2215 173.34 52.3005 172.261 52.3005 170.93C52.3005 169.599 51.2215 168.52 49.8905 168.52C48.5595 168.52 47.4805 169.599 47.4805 170.93C47.4805 172.261 48.5595 173.34 49.8905 173.34Z" fill="#1D1D1B"/>
<path d="M53.99 178.29V176.39C53.99 174.97 52.87 173.82 51.49 173.82H51.31C51.25 174 51.16 174.17 51.03 174.32C50.48 174.97 49.53 175.03 48.9 174.47C48.7 174.29 48.56 174.06 48.48 173.82H48.29C46.91 173.82 45.79 174.97 45.79 176.39V178.39V181.63C45.79 182.36 46.37 182.96 47.1 182.99C47.18 183.03 47.26 183.07 47.34 183.11C47.34 183.15 47.33 183.18 47.33 183.22V189.42C47.33 190.12 47.9 190.7 48.61 190.7H48.82C49.43 190.7 49.93 190.28 50.06 189.71C50.19 190.28 50.7 190.7 51.3 190.7H51.51C52.21 190.7 52.79 190.13 52.79 189.42V183.22C52.79 183.14 52.79 183.06 52.77 182.99C53.47 182.93 54.01 182.35 54.01 181.64V178.4C54.01 178.4 54.01 178.33 54 178.3L53.99 178.29Z" fill="#1D1D1B"/>
<path d="M40.1106 171.92C41.7509 171.92 43.0806 170.59 43.0806 168.95C43.0806 167.31 41.7509 165.98 40.1106 165.98C38.4703 165.98 37.1406 167.31 37.1406 168.95C37.1406 170.59 38.4703 171.92 40.1106 171.92Z" fill="#1D1D1B"/>
<path d="M45.1505 177.99V175.65C45.1505 173.91 43.7805 172.49 42.0805 172.49H41.8505C41.7705 172.71 41.6605 172.92 41.5005 173.11C40.8305 173.9 39.6505 173.99 38.8805 173.29C38.6305 173.07 38.4605 172.79 38.3605 172.49H38.1305C36.4305 172.49 35.0605 173.9 35.0605 175.65V178.11V182.09C35.0605 182.99 35.7805 183.72 36.6705 183.76C36.7705 183.81 36.8605 183.86 36.9705 183.9C36.9705 183.95 36.9605 183.99 36.9605 184.04V191.66C36.9605 192.53 37.6605 193.23 38.5305 193.23H38.7905C39.5305 193.23 40.1505 192.71 40.3105 192.02C40.4705 192.71 41.0905 193.23 41.8305 193.23H42.0905C42.9605 193.23 43.6605 192.53 43.6605 191.66V184.04C43.6605 183.94 43.6505 183.85 43.6305 183.75C44.4905 183.68 45.1605 182.97 45.1605 182.09V178.11C45.1605 178.11 45.1605 178.03 45.1505 177.99Z" fill="#1D1D1B"/>
<path d="M40.1096 250.68C41.7499 250.68 43.0797 249.35 43.0797 247.71C43.0797 246.07 41.7499 244.74 40.1096 244.74C38.4694 244.74 37.1396 246.07 37.1396 247.71C37.1396 249.35 38.4694 250.68 40.1096 250.68Z" fill="#1D1D1B"/>
<path d="M45.1496 256.76V254.42C45.1496 252.68 43.7796 251.26 42.0796 251.26H41.8496C41.7696 251.48 41.6596 251.69 41.4996 251.88C40.8296 252.67 39.6496 252.76 38.8796 252.06C38.6296 251.84 38.4596 251.56 38.3596 251.26H38.1296C36.4296 251.26 35.0596 252.67 35.0596 254.42V256.88V260.86C35.0596 261.76 35.7796 262.49 36.6696 262.53C36.7696 262.58 36.8596 262.63 36.9696 262.67C36.9696 262.72 36.9596 262.76 36.9596 262.81V270.43C36.9596 271.3 37.6596 272 38.5296 272H38.7896C39.5296 272 40.1496 271.48 40.3096 270.79C40.4696 271.48 41.0896 272 41.8296 272H42.0896C42.9596 272 43.6596 271.3 43.6596 270.43V262.81C43.6596 262.71 43.6496 262.62 43.6296 262.52C44.4896 262.45 45.1596 261.74 45.1596 260.86V256.88C45.1596 256.88 45.1596 256.8 45.1496 256.76Z" fill="#1D1D1B"/>
<path d="M37.4708 84.42C37.0308 84.42 36.6208 84.27 36.2908 84.01C35.9608 84.27 35.5508 84.42 35.1108 84.42H34.9108C33.8608 84.42 33.0108 83.57 33.0108 82.52V77.04C32.1608 76.81 31.5508 76.04 31.5508 75.13V70.15C31.5508 68.42 32.9308 67.02 34.6208 67.02H35.2908L35.4508 67.49C35.5008 67.63 35.5708 67.74 35.6608 67.82C35.8308 67.98 36.0208 68.01 36.1408 68.01C36.3508 68.01 36.5508 67.91 36.6908 67.75C36.7508 67.68 36.8008 67.59 36.8308 67.49L36.9908 67.02H37.6608C39.3508 67.02 40.7308 68.43 40.7308 70.15V75.13C40.7308 75.93 40.2708 76.62 39.5808 76.93V82.52C39.5808 83.57 38.7308 84.42 37.6808 84.42H37.4808H37.4708Z" fill="#1D1D1B"/>
<path d="M37.6606 67.71C38.9706 67.71 40.0306 68.8 40.0306 70.15V71.96C40.0306 71.96 40.0306 72.02 40.0306 72.06V75.14C40.0306 75.82 39.5106 76.36 38.8506 76.42C38.8606 76.49 38.8706 76.57 38.8706 76.64V82.53C38.8706 83.2 38.3306 83.74 37.6606 83.74H37.4606C36.8906 83.74 36.4106 83.34 36.2806 82.8C36.1606 83.34 35.6806 83.74 35.1006 83.74H34.9006C34.2306 83.74 33.6906 83.2 33.6906 82.53V76.64C33.6906 76.64 33.6906 76.57 33.7006 76.53C33.6206 76.5 33.5506 76.46 33.4706 76.42C32.7806 76.39 32.2306 75.83 32.2306 75.13V72.05V70.15C32.2306 68.8 33.2906 67.71 34.6006 67.71H34.7806C34.8606 67.94 34.9906 68.16 35.1806 68.33C35.4506 68.57 35.7906 68.69 36.1206 68.69C36.5206 68.69 36.9206 68.52 37.2006 68.19C37.3206 68.04 37.4106 67.88 37.4706 67.71H37.6506M37.6506 66.33H36.4906L36.1706 67.26L36.1306 67.31L35.8106 66.38L34.7906 66.33H34.6106C32.5406 66.33 30.8506 68.05 30.8506 70.15V75.13C30.8506 76.17 31.4406 77.07 32.3106 77.51V82.52C32.3106 83.95 33.4706 85.12 34.9106 85.12H35.1106C35.5306 85.12 35.9306 85.02 36.2906 84.84C36.6506 85.02 37.0506 85.12 37.4706 85.12H37.6706C39.1006 85.12 40.2706 83.96 40.2706 82.52V77.33C40.9806 76.85 41.4306 76.04 41.4306 75.12V72.04C41.4306 71.98 41.4306 71.92 41.4306 71.86V70.14C41.4306 68.03 39.7406 66.32 37.6706 66.32L37.6506 66.33Z" fill="white"/>
<path d="M36.1399 67.6C35.4999 67.6 34.8899 67.37 34.3999 66.95C33.8699 66.49 33.5499 65.84 33.4999 65.14C33.4499 64.44 33.6799 63.76 34.1499 63.23C34.6499 62.66 35.3799 62.33 36.1399 62.33C36.7799 62.33 37.3899 62.56 37.8699 62.98C38.3999 63.44 38.7199 64.09 38.7699 64.79C38.8199 65.49 38.5899 66.17 38.1199 66.7C37.6199 67.27 36.8899 67.6 36.1299 67.6H36.1399Z" fill="#1D1D1B"/>
<path d="M36.1404 62.67C36.6804 62.67 37.2104 62.86 37.6504 63.24C38.6004 64.07 38.7004 65.52 37.8704 66.48C37.4204 67 36.7804 67.26 36.1404 67.26C35.6004 67.26 35.0704 67.07 34.6304 66.69C33.6804 65.86 33.5804 64.41 34.4104 63.45C34.8604 62.93 35.5004 62.67 36.1404 62.67ZM36.1404 61.98C35.2804 61.98 34.4604 62.35 33.8904 63C33.3704 63.6 33.1104 64.37 33.1604 65.16C33.2104 65.96 33.5704 66.68 34.1704 67.21C34.7104 67.69 35.4104 67.95 36.1304 67.95C36.9904 67.95 37.8104 67.58 38.3804 66.93C38.9004 66.33 39.1604 65.56 39.1104 64.77C39.0604 63.97 38.7004 63.25 38.1004 62.72C37.5604 62.24 36.8604 61.98 36.1404 61.98Z" fill="white"/>
<path d="M44.5011 84.42C44.0611 84.42 43.6511 84.27 43.3211 84.01C42.9911 84.27 42.5811 84.42 42.1411 84.42H41.9411C40.8911 84.42 40.0411 83.57 40.0411 82.52V77.04C39.1911 76.81 38.5811 76.04 38.5811 75.13V70.15C38.5811 68.42 39.9611 67.02 41.6511 67.02H42.3211L42.4811 67.49C42.5311 67.63 42.6011 67.74 42.6911 67.82C42.8611 67.98 43.0511 68.01 43.1711 68.01C43.3811 68.01 43.5811 67.91 43.7211 67.75C43.7811 67.68 43.8311 67.59 43.8611 67.49L44.0211 67.02H44.6911C46.3811 67.02 47.7611 68.43 47.7611 70.15V75.13C47.7611 75.93 47.3011 76.62 46.6111 76.93V82.52C46.6111 83.57 45.7611 84.42 44.7111 84.42H44.5111H44.5011Z" fill="#1D1D1B"/>
<path d="M44.6909 67.71C46.0009 67.71 47.0609 68.8 47.0609 70.15V71.96C47.0609 71.96 47.0609 72.02 47.0609 72.06V75.14C47.0609 75.82 46.5409 76.36 45.8809 76.42C45.8909 76.49 45.9009 76.57 45.9009 76.64V82.53C45.9009 83.2 45.3609 83.74 44.6909 83.74H44.4909C43.9209 83.74 43.4409 83.34 43.3109 82.8C43.1909 83.34 42.7109 83.74 42.1309 83.74H41.9309C41.2609 83.74 40.7209 83.2 40.7209 82.53V76.64C40.7209 76.64 40.7209 76.57 40.7309 76.53C40.6509 76.5 40.5809 76.46 40.5009 76.42C39.8109 76.39 39.2609 75.83 39.2609 75.13V72.05V70.15C39.2609 68.8 40.3209 67.71 41.6309 67.71H41.8109C41.8909 67.94 42.0209 68.16 42.2109 68.33C42.4809 68.57 42.8209 68.69 43.1509 68.69C43.5509 68.69 43.9509 68.52 44.2309 68.19C44.3509 68.04 44.4409 67.88 44.5009 67.71H44.6809M44.6809 66.33H43.5209L43.2009 67.26L43.1609 67.31L42.8409 66.38L41.8209 66.33H41.6409C39.5709 66.33 37.8809 68.05 37.8809 70.15V75.13C37.8809 76.17 38.4709 77.07 39.3409 77.51V82.52C39.3409 83.95 40.5009 85.12 41.9409 85.12H42.1409C42.5609 85.12 42.9609 85.02 43.3209 84.84C43.6709 85.02 44.0809 85.12 44.5009 85.12H44.7009C46.1309 85.12 47.3009 83.96 47.3009 82.52V77.33C48.0109 76.85 48.4609 76.04 48.4609 75.12V72.04C48.4609 71.98 48.4609 71.92 48.4609 71.86V70.14C48.4609 68.03 46.7709 66.32 44.7009 66.32L44.6809 66.33Z" fill="white"/>
<path d="M43.1702 67.6C42.5302 67.6 41.9202 67.37 41.4302 66.95C40.9002 66.49 40.5802 65.84 40.5302 65.14C40.4802 64.44 40.7102 63.76 41.1802 63.23C41.6802 62.66 42.4102 62.33 43.1702 62.33C43.8102 62.33 44.4202 62.56 44.9002 62.98C45.4302 63.44 45.7502 64.09 45.8002 64.79C45.8502 65.49 45.6202 66.17 45.1502 66.7C44.6502 67.27 43.9202 67.6 43.1602 67.6H43.1702Z" fill="#1D1D1B"/>
<path d="M43.1706 62.67C43.7106 62.67 44.2406 62.86 44.6806 63.24C45.6306 64.07 45.7306 65.52 44.9006 66.48C44.4506 67 43.8106 67.26 43.1706 67.26C42.6306 67.26 42.1006 67.07 41.6606 66.69C40.7106 65.86 40.6106 64.41 41.4406 63.45C41.8906 62.93 42.5306 62.67 43.1706 62.67ZM43.1706 61.98C42.3106 61.98 41.4906 62.35 40.9206 63C40.4006 63.6 40.1406 64.37 40.1906 65.16C40.2406 65.96 40.6006 66.68 41.2006 67.21C41.7406 67.69 42.4406 67.95 43.1606 67.95C44.0206 67.95 44.8406 67.58 45.4106 66.93C45.9306 66.33 46.1906 65.56 46.1406 64.77C46.0906 63.97 45.7306 63.25 45.1306 62.72C44.5906 62.24 43.8906 61.98 43.1706 61.98Z" fill="white"/>
<path d="M39.6702 63.38C39.0302 63.38 38.4202 63.15 37.9302 62.73C37.4002 62.27 37.0802 61.62 37.0302 60.92C36.9802 60.22 37.2102 59.54 37.6802 59.01C38.1802 58.44 38.9102 58.11 39.6702 58.11C40.3102 58.11 40.9202 58.34 41.4002 58.76C41.9302 59.22 42.2502 59.87 42.3002 60.57C42.3502 61.27 42.1202 61.95 41.6502 62.48C41.1502 63.05 40.4202 63.38 39.6602 63.38H39.6702Z" fill="#1D1D1B"/>
<path d="M39.6706 58.44C40.2106 58.44 40.7406 58.63 41.1806 59.01C42.1306 59.84 42.2306 61.29 41.4006 62.25C40.9506 62.77 40.3106 63.03 39.6706 63.03C39.1306 63.03 38.6006 62.84 38.1606 62.46C37.2106 61.63 37.1106 60.18 37.9406 59.22C38.3906 58.7 39.0306 58.44 39.6706 58.44ZM39.6706 57.75C38.8106 57.75 37.9906 58.12 37.4206 58.77C36.3406 60.01 36.4706 61.9 37.7006 62.98C38.2406 63.46 38.9406 63.72 39.6606 63.72C40.5206 63.72 41.3406 63.35 41.9106 62.7C42.9906 61.46 42.8606 59.57 41.6306 58.49C41.0906 58.01 40.3906 57.75 39.6706 57.75Z" fill="white"/>
<path d="M32.1903 90.45C31.7003 90.45 31.2503 90.23 30.9503 89.88C30.6503 90.23 30.2003 90.45 29.7103 90.45H29.5003C28.6003 90.45 27.8603 89.71 27.8603 88.81V82.74C26.9903 82.65 26.3203 81.92 26.3203 81.03V75.79C26.3203 74.17 27.6003 72.86 29.1803 72.86H29.6303L29.7103 73.11C29.7803 73.31 29.8903 73.48 30.0303 73.61C30.2403 73.8 30.5103 73.9 30.7803 73.9C31.1103 73.9 31.4203 73.75 31.6403 73.5C31.7303 73.39 31.8103 73.26 31.8603 73.11L31.9403 72.86H32.3803C33.9603 72.86 35.2403 74.18 35.2403 75.79V77.69C35.2403 77.69 35.2503 77.75 35.2503 77.79V81.03C35.2503 81.81 34.7503 82.46 34.0303 82.67V88.81C34.0303 89.71 33.2903 90.45 32.3903 90.45H32.1803H32.1903Z" fill="#1D1D1B"/>
<path d="M32.3904 73.22C33.7704 73.22 34.8904 74.37 34.8904 75.79V77.69C34.8904 77.69 34.9004 77.76 34.9004 77.79V81.03C34.9004 81.74 34.3504 82.32 33.6604 82.38C33.6704 82.46 33.6804 82.53 33.6804 82.61V88.81C33.6804 89.51 33.1104 90.09 32.4004 90.09H32.1904C31.5804 90.09 31.0804 89.67 30.9504 89.1C30.8204 89.67 30.3104 90.09 29.7104 90.09H29.5004C28.8004 90.09 28.2204 89.52 28.2204 88.81V82.61C28.2204 82.61 28.2204 82.54 28.2304 82.5C28.1504 82.47 28.0704 82.43 27.9904 82.38C27.2604 82.35 26.6804 81.76 26.6804 81.03V75.79C26.6804 74.37 27.8004 73.22 29.1804 73.22H29.3704C29.4504 73.46 29.5904 73.69 29.7904 73.87C30.0804 74.13 30.4304 74.25 30.7804 74.25C31.2004 74.25 31.6204 74.07 31.9204 73.72C32.0504 73.57 32.1404 73.4 32.2004 73.22H32.3804M32.3804 72.49H31.6804L31.5104 72.98C31.4704 73.08 31.4204 73.17 31.3604 73.25C31.2104 73.43 31.0004 73.53 30.7804 73.53C30.6504 73.53 30.4504 73.5 30.2704 73.33C30.1704 73.24 30.1004 73.12 30.0504 72.98L29.8804 72.49H29.1704C27.3904 72.49 25.9404 73.97 25.9404 75.79V81.03C25.9404 81.99 26.5904 82.8 27.4804 83.04V88.81C27.4804 89.91 28.3804 90.81 29.4804 90.81H29.6904C30.1604 90.81 30.5904 90.65 30.9304 90.38C31.2704 90.65 31.7104 90.81 32.1704 90.81H32.3804C33.4904 90.81 34.3804 89.91 34.3804 88.81V82.92C35.1104 82.59 35.6004 81.87 35.6004 81.02V77.78C35.6004 77.78 35.6004 77.68 35.5904 77.64V75.78C35.5904 73.96 34.1404 72.48 32.3604 72.48L32.3804 72.49Z" fill="white"/>
<path d="M30.7906 73.11C30.1206 73.11 29.4706 72.87 28.9606 72.42C27.8106 71.41 27.6906 69.65 28.6906 68.5C29.2206 67.9 29.9806 67.55 30.7806 67.55C31.4506 67.55 32.1006 67.79 32.6106 68.24C33.7606 69.25 33.8806 71.01 32.8806 72.16C32.3506 72.76 31.5906 73.11 30.7906 73.11Z" fill="#1D1D1B"/>
<path d="M30.7909 67.92C31.3509 67.92 31.9209 68.12 32.3809 68.52C33.3809 69.4 33.4909 70.92 32.6109 71.93C32.1309 72.48 31.4609 72.76 30.7909 72.76C30.2309 72.76 29.6609 72.56 29.2009 72.16C28.2009 71.28 28.0909 69.76 28.9709 68.75C29.4509 68.2 30.1209 67.92 30.7909 67.92ZM30.7909 67.19C29.8809 67.19 29.0209 67.58 28.4209 68.27C27.2809 69.58 27.4209 71.56 28.7209 72.7C29.2909 73.2 30.0309 73.48 30.7909 73.48C31.7009 73.48 32.5609 73.09 33.1609 72.4C34.3009 71.09 34.1709 69.11 32.8609 67.97C32.2909 67.47 31.5509 67.19 30.7909 67.19Z" fill="white"/>
<path d="M50.8407 90.45C50.3507 90.45 49.9007 90.23 49.6007 89.88C49.3007 90.23 48.8507 90.45 48.3607 90.45H48.1507C47.2507 90.45 46.5107 89.71 46.5107 88.81V82.74C45.6407 82.65 44.9707 81.92 44.9707 81.03V75.79C44.9707 74.17 46.2507 72.86 47.8307 72.86H48.2807L48.3607 73.11C48.4307 73.31 48.5407 73.48 48.6807 73.61C48.8907 73.8 49.1607 73.9 49.4307 73.9C49.7607 73.9 50.0707 73.75 50.2907 73.5C50.3807 73.39 50.4607 73.26 50.5107 73.11L50.5907 72.86H51.0307C52.6107 72.86 53.8907 74.18 53.8907 75.79V77.69C53.8907 77.69 53.9007 77.75 53.9007 77.79V81.03C53.9007 81.81 53.4007 82.46 52.6807 82.67V88.81C52.6807 89.71 51.9407 90.45 51.0407 90.45H50.8307H50.8407Z" fill="#1D1D1B"/>
<path d="M51.0408 73.22C52.4208 73.22 53.5408 74.37 53.5408 75.79V77.69C53.5408 77.69 53.5508 77.76 53.5508 77.79V81.03C53.5508 81.74 53.0008 82.32 52.3108 82.38C52.3208 82.46 52.3308 82.53 52.3308 82.61V88.81C52.3308 89.51 51.7608 90.09 51.0508 90.09H50.8408C50.2308 90.09 49.7308 89.67 49.6008 89.1C49.4708 89.67 48.9608 90.09 48.3608 90.09H48.1508C47.4508 90.09 46.8708 89.52 46.8708 88.81V82.61C46.8708 82.61 46.8708 82.54 46.8808 82.5C46.8008 82.47 46.7208 82.43 46.6408 82.38C45.9108 82.35 45.3308 81.76 45.3308 81.03V75.79C45.3308 74.37 46.4508 73.22 47.8308 73.22H48.0208C48.1008 73.46 48.2408 73.69 48.4408 73.87C48.7308 74.13 49.0808 74.25 49.4308 74.25C49.8508 74.25 50.2708 74.07 50.5708 73.72C50.7008 73.57 50.7908 73.4 50.8508 73.22H51.0308M51.0308 72.49H50.3308L50.1608 72.98C50.1208 73.08 50.0708 73.17 50.0108 73.25C49.8608 73.43 49.6508 73.52 49.4308 73.52C49.3008 73.52 49.1008 73.49 48.9208 73.32C48.8208 73.23 48.7508 73.11 48.7008 72.97L48.5308 72.48H47.8208C46.0408 72.48 44.5908 73.96 44.5908 75.78V81.02C44.5908 81.98 45.2408 82.79 46.1308 83.03V88.8C46.1308 89.9 47.0308 90.8 48.1308 90.8H48.3408C48.8108 90.8 49.2408 90.64 49.5808 90.37C49.9208 90.64 50.3508 90.8 50.8208 90.8H51.0308C52.1308 90.8 53.0308 89.9 53.0308 88.8V82.91C53.7608 82.58 54.2508 81.86 54.2508 81.01V77.77C54.2508 77.77 54.2508 77.67 54.2408 77.62V75.76C54.2408 73.94 52.7908 72.46 51.0108 72.46L51.0308 72.49Z" fill="white"/>
<path d="M49.441 73.11C48.771 73.11 48.121 72.87 47.611 72.42C46.461 71.41 46.341 69.65 47.341 68.5C47.871 67.9 48.631 67.55 49.431 67.55C50.101 67.55 50.751 67.79 51.261 68.24C51.821 68.73 52.151 69.4 52.201 70.15C52.251 70.89 52.011 71.61 51.521 72.16C50.991 72.76 50.231 73.11 49.431 73.11H49.441Z" fill="#1D1D1B"/>
<path d="M49.4407 67.92C50.0007 67.92 50.5707 68.12 51.0307 68.52C52.0307 69.4 52.1407 70.92 51.2607 71.93C50.7807 72.48 50.1107 72.76 49.4407 72.76C48.8807 72.76 48.3107 72.56 47.8507 72.16C46.8507 71.28 46.7407 69.76 47.6207 68.75C48.1007 68.2 48.7707 67.92 49.4407 67.92ZM49.4407 67.19C48.5307 67.19 47.6707 67.58 47.0707 68.27C45.9307 69.58 46.0607 71.56 47.3707 72.7C47.9407 73.2 48.6807 73.48 49.4407 73.48C50.3507 73.48 51.2107 73.09 51.8107 72.4C52.3607 71.77 52.6407 70.96 52.5807 70.12C52.5207 69.28 52.1407 68.52 51.5107 67.97C50.9407 67.47 50.2007 67.19 49.4407 67.19Z" fill="white"/>
<path d="M41.711 94.21C41.121 94.21 40.581 93.94 40.231 93.5C39.881 93.94 39.351 94.21 38.751 94.21H38.491C37.451 94.21 36.611 93.37 36.611 92.33V85.04C35.581 84.96 34.791 84.11 34.791 83.07V76.83C34.791 74.94 36.291 73.41 38.131 73.41H38.611L38.691 73.66C38.781 73.91 38.911 74.12 39.091 74.28C39.351 74.51 39.681 74.64 40.031 74.64C40.441 74.64 40.841 74.46 41.111 74.14C41.231 74 41.321 73.84 41.381 73.66L41.461 73.41H41.941C43.781 73.41 45.281 74.95 45.281 76.83V79.09C45.281 79.09 45.291 79.17 45.291 79.21V83.07C45.291 83.98 44.691 84.74 43.841 84.97V92.33C43.841 93.37 43.001 94.21 41.961 94.21H41.701H41.711Z" fill="#1D1D1B"/>
<path d="M41.9506 73.76C43.5906 73.76 44.9206 75.13 44.9206 76.82V79.08C44.9206 79.08 44.9306 79.16 44.9306 79.2V83.06C44.9306 83.91 44.2806 84.59 43.4506 84.67C43.4706 84.76 43.4806 84.85 43.4806 84.95V92.33C43.4806 93.17 42.8006 93.85 41.9606 93.85H41.7006C40.9806 93.85 40.3806 93.35 40.2206 92.67C40.0606 93.34 39.4606 93.85 38.7406 93.85H38.4806C37.6406 93.85 36.9606 93.17 36.9606 92.33V84.95C36.9606 84.95 36.9606 84.86 36.9706 84.82C36.8706 84.78 36.7806 84.73 36.6806 84.68C35.8106 84.65 35.1206 83.94 35.1206 83.07V79.21V76.83C35.1206 75.14 36.4506 73.77 38.0906 73.77H38.3106C38.4106 74.06 38.5706 74.33 38.8106 74.55C39.1506 74.86 39.5706 75.01 39.9906 75.01C40.4906 75.01 40.9906 74.8 41.3506 74.38C41.5006 74.2 41.6106 73.99 41.6906 73.78H41.9106M41.9106 73.05H41.1706L41.0006 73.54C40.9506 73.68 40.8806 73.8 40.8006 73.91C40.6006 74.15 40.3006 74.29 40.0006 74.29C39.7406 74.29 39.5006 74.19 39.3006 74.02C39.1706 73.9 39.0606 73.74 39.0006 73.55L38.8306 73.06H38.0906C36.0506 73.06 34.3906 74.76 34.3906 76.85V83.09C34.3906 84.21 35.1706 85.14 36.2206 85.38V92.36C36.2206 93.6 37.2306 94.61 38.4706 94.61H38.7306C39.2906 94.61 39.8106 94.41 40.2106 94.06C40.6106 94.41 41.1306 94.61 41.6906 94.61H41.9506C43.1906 94.61 44.2006 93.6 44.2006 92.36V85.26C45.0606 84.91 45.6506 84.07 45.6506 83.09V79.23C45.6506 79.17 45.6506 79.12 45.6406 79.07V76.85C45.6406 74.76 43.9806 73.06 41.9406 73.06L41.9106 73.05Z" fill="white"/>
<path d="M40.0399 73.63C39.2399 73.63 38.4699 73.34 37.8699 72.81C36.4999 71.61 36.3599 69.52 37.5499 68.14C38.1799 67.42 39.0899 67.01 40.0399 67.01C40.8399 67.01 41.6099 67.3 42.2099 67.83C42.8799 68.41 43.2699 69.22 43.3299 70.1C43.3899 70.98 43.0999 71.83 42.5199 72.5C41.8899 73.22 40.9799 73.63 40.0299 73.63H40.0399Z" fill="#1D1D1B"/>
<path d="M40.0503 67.45C40.7203 67.45 41.3903 67.68 41.9403 68.16C43.1403 69.2 43.2603 71.02 42.2103 72.21C41.6403 72.86 40.8503 73.19 40.0403 73.19C39.3703 73.19 38.7003 72.96 38.1503 72.48C36.9503 71.44 36.8303 69.62 37.8803 68.42C38.4503 67.77 39.2403 67.44 40.0503 67.44M40.0503 66.57C38.9703 66.57 37.9403 67.04 37.2303 67.85C35.8703 69.4 36.0303 71.77 37.5903 73.13C38.2703 73.73 39.1503 74.05 40.0503 74.05C41.1303 74.05 42.1603 73.58 42.8703 72.77C43.5303 72.02 43.8503 71.05 43.7803 70.06C43.7103 69.07 43.2603 68.15 42.5103 67.5C41.8303 66.9 40.9503 66.58 40.0503 66.58V66.57Z" fill="white"/>
<path d="M581.13 282.13H67.1396" stroke="#1D1D1B" stroke-miterlimit="10"/>
<path d="M68.3096 176.28H365.03V281.19" stroke="#1D1D1B" stroke-miterlimit="10"/>
<path d="M360.939 277.88L361.669 277.2L365.019 280.8L368.379 277.2L369.109 277.88L365.019 282.27L360.939 277.88Z" fill="#1D1D1B"/>
<path d="M69.4004 71.49H271.48V280.44" stroke="#1D1D1B" stroke-miterlimit="10"/>
<path d="M267.4 277.12L268.13 276.44L271.48 280.05L274.84 276.44L275.57 277.12L271.48 281.52L267.4 277.12Z" fill="#1D1D1B"/>
<path d="M67.96 20.42V282.64" stroke="#1D1D1B" stroke-miterlimit="10"/>
</svg>
