<?xml version="1.0" encoding="UTF-8"?><svg id="Layer_1" xmlns="http://www.w3.org/2000/svg" xmlns:xlink="http://www.w3.org/1999/xlink" viewBox="0 0 600 305.13"><defs><style>.cls-1,.cls-2,.cls-3,.cls-4,.cls-5,.cls-6{fill:none;}.cls-2{stroke-dasharray:0 0 0 0 0 0 4.73 4.73 4.73 4.73 4.73 4.73;stroke-width:1px;}.cls-2,.cls-3,.cls-4{stroke:#1d1d1b;}.cls-2,.cls-3,.cls-4,.cls-5,.cls-6{stroke-miterlimit:10;}.cls-3{stroke-dasharray:0 0 0 0 0 0 4.78 4.78 4.78 4.78 4.78 4.78;}.cls-7{clip-path:url(#clippath);}.cls-8{fill:#fff;}.cls-9{fill:#1d1d1b;}.cls-5{stroke-width:.62px;}.cls-5,.cls-6{stroke:#c6c6c6;}.cls-6{stroke-width:.66px;}</style><clipPath id="clippath"><polygon class="cls-1" points="67.35 260.34 111.78 260.64 112.03 175.12 181.55 175.12 181.55 70.87 197.34 70.87 197.09 262.06 457.75 262.06 458.01 63.82 491.19 63.82 490.93 263.48 580.98 263.48 581.24 281.36 66.57 281.36 67.35 260.34"/></clipPath></defs><g class="cls-7"><g><g><line class="cls-6" x1="339.16" y1="-73.49" x2="54.13" y2="271.63"/><line class="cls-6" x1="335.46" y1="-76.54" x2="50.44" y2="268.57"/><line class="cls-6" x1="331.77" y1="-79.6" x2="46.74" y2="265.52"/><line class="cls-6" x1="328.07" y1="-82.65" x2="43.05" y2="262.47"/><line class="cls-6" x1="352.57" y1="-59.77" x2="67.54" y2="285.35"/><line class="cls-6" x1="348.87" y1="-62.82" x2="63.85" y2="282.3"/><line class="cls-6" x1="345.18" y1="-65.87" x2="60.15" y2="279.25"/><line class="cls-6" x1="341.48" y1="-68.92" x2="56.46" y2="276.2"/><line class="cls-6" x1="324.38" y1="-85.7" x2="39.35" y2="259.42"/><line class="cls-6" x1="320.68" y1="-88.75" x2="35.66" y2="256.37"/><line class="cls-6" x1="316.99" y1="-91.8" x2="31.96" y2="253.32"/><line class="cls-6" x1="313.29" y1="-94.85" x2="28.27" y2="250.27"/><line class="cls-6" x1="309.6" y1="-97.9" x2="24.58" y2="247.22"/><line class="cls-6" x1="305.91" y1="-100.95" x2="20.88" y2="244.16"/><line class="cls-6" x1="302.21" y1="-104.01" x2="17.19" y2="241.11"/><line class="cls-6" x1="298.52" y1="-107.06" x2="13.49" y2="238.06"/><line class="cls-6" x1="294.82" y1="-110.11" x2="9.8" y2="235.01"/><line class="cls-6" x1="291.13" y1="-113.16" x2="6.1" y2="231.96"/><line class="cls-6" x1="287.43" y1="-116.21" x2="2.41" y2="228.91"/><line class="cls-6" x1="283.74" y1="-119.26" x2="-1.29" y2="225.86"/><line class="cls-6" x1="280.04" y1="-122.31" x2="-4.98" y2="222.81"/><line class="cls-6" x1="276.35" y1="-125.36" x2="-8.68" y2="219.75"/><line class="cls-6" x1="272.65" y1="-128.42" x2="-12.37" y2="216.7"/><line class="cls-6" x1="268.96" y1="-131.47" x2="-16.06" y2="213.65"/><line class="cls-6" x1="265.26" y1="-134.52" x2="-19.76" y2="210.6"/><line class="cls-6" x1="261.57" y1="-137.57" x2="-23.45" y2="207.55"/><line class="cls-6" x1="257.88" y1="-140.62" x2="-27.15" y2="204.5"/><line class="cls-6" x1="254.18" y1="-143.67" x2="-30.84" y2="201.45"/><line class="cls-6" x1="250.49" y1="-146.72" x2="-34.54" y2="198.4"/><line class="cls-6" x1="246.79" y1="-149.77" x2="-38.23" y2="195.34"/><line class="cls-6" x1="243.1" y1="-152.83" x2="-41.93" y2="192.29"/><line class="cls-6" x1="239.4" y1="-155.88" x2="-45.62" y2="189.24"/><line class="cls-6" x1="235.71" y1="-158.93" x2="-49.32" y2="186.19"/><line class="cls-6" x1="232.01" y1="-161.98" x2="-53.01" y2="183.14"/><line class="cls-6" x1="228.32" y1="-165.03" x2="-56.71" y2="180.09"/><line class="cls-6" x1="224.62" y1="-168.08" x2="-60.4" y2="177.04"/><line class="cls-6" x1="220.93" y1="-171.13" x2="-64.09" y2="173.99"/><line class="cls-6" x1="217.24" y1="-174.18" x2="-67.79" y2="170.93"/><line class="cls-6" x1="213.54" y1="-177.24" x2="-71.48" y2="167.88"/><line class="cls-6" x1="209.85" y1="-180.29" x2="-75.18" y2="164.83"/><line class="cls-6" x1="206.15" y1="-183.34" x2="-78.87" y2="161.78"/></g><g><line class="cls-5" x1="639.58" y1="179.5" x2="385.81" y2="486.77"/><line class="cls-5" x1="635.88" y1="176.44" x2="382.11" y2="483.72"/><line class="cls-5" x1="632.19" y1="173.39" x2="378.42" y2="480.67"/><line class="cls-5" x1="628.5" y1="170.34" x2="374.72" y2="477.62"/><line class="cls-5" x1="653.13" y1="193.05" x2="399.36" y2="500.33"/><line class="cls-5" x1="649.44" y1="190" x2="395.66" y2="497.28"/><line class="cls-5" x1="645.74" y1="186.95" x2="391.97" y2="494.22"/><line class="cls-5" x1="642.05" y1="183.89" x2="388.28" y2="491.17"/><line class="cls-5" x1="624.8" y1="167.29" x2="371.03" y2="474.57"/><line class="cls-5" x1="621.11" y1="164.24" x2="367.33" y2="471.52"/><line class="cls-5" x1="617.41" y1="161.19" x2="363.64" y2="468.47"/><line class="cls-5" x1="613.72" y1="158.14" x2="359.94" y2="465.41"/><line class="cls-5" x1="610.02" y1="155.09" x2="356.25" y2="462.36"/><line class="cls-5" x1="606.33" y1="152.03" x2="352.55" y2="459.31"/><line class="cls-5" x1="602.63" y1="148.98" x2="348.86" y2="456.26"/><line class="cls-5" x1="598.94" y1="145.93" x2="345.17" y2="453.21"/><line class="cls-5" x1="595.24" y1="142.88" x2="341.47" y2="450.16"/><line class="cls-5" x1="591.55" y1="139.83" x2="337.78" y2="447.11"/><line class="cls-5" x1="587.86" y1="136.78" x2="334.08" y2="444.06"/><line class="cls-5" x1="584.16" y1="133.73" x2="330.39" y2="441"/><line class="cls-5" x1="580.47" y1="130.67" x2="326.69" y2="437.95"/><line class="cls-5" x1="576.77" y1="127.62" x2="323" y2="434.9"/><line class="cls-5" x1="573.08" y1="124.57" x2="319.3" y2="431.85"/><line class="cls-5" x1="569.38" y1="121.52" x2="315.61" y2="428.8"/><line class="cls-5" x1="565.69" y1="118.47" x2="311.91" y2="425.75"/><line class="cls-5" x1="561.99" y1="115.42" x2="308.22" y2="422.7"/><line class="cls-5" x1="558.3" y1="112.37" x2="304.53" y2="419.65"/><line class="cls-5" x1="554.6" y1="109.32" x2="300.83" y2="416.59"/><line class="cls-5" x1="550.91" y1="106.26" x2="297.14" y2="413.54"/><line class="cls-5" x1="547.21" y1="103.21" x2="293.44" y2="410.49"/><line class="cls-5" x1="543.52" y1="100.16" x2="289.75" y2="407.44"/><line class="cls-5" x1="539.83" y1="97.11" x2="286.05" y2="404.39"/><line class="cls-5" x1="536.13" y1="94.06" x2="282.36" y2="401.34"/><line class="cls-5" x1="532.44" y1="91.01" x2="278.66" y2="398.29"/><line class="cls-5" x1="528.74" y1="87.96" x2="274.97" y2="395.24"/><line class="cls-5" x1="525.05" y1="84.91" x2="271.27" y2="392.18"/><line class="cls-5" x1="521.35" y1="81.85" x2="267.58" y2="389.13"/><line class="cls-5" x1="517.66" y1="78.8" x2="263.88" y2="386.08"/><line class="cls-5" x1="513.96" y1="75.75" x2="260.19" y2="383.03"/><line class="cls-5" x1="510.27" y1="72.7" x2="256.5" y2="379.98"/><line class="cls-5" x1="506.57" y1="69.65" x2="252.8" y2="376.93"/></g><g><line class="cls-6" x1="489.51" y1="53.26" x2="204.49" y2="398.38"/><line class="cls-6" x1="485.82" y1="50.21" x2="200.79" y2="395.33"/><line class="cls-6" x1="482.12" y1="47.16" x2="197.1" y2="392.28"/><line class="cls-6" x1="478.43" y1="44.11" x2="193.4" y2="389.23"/><line class="cls-6" x1="502.92" y1="66.99" x2="217.9" y2="412.11"/><line class="cls-6" x1="499.23" y1="63.94" x2="214.2" y2="409.06"/><line class="cls-6" x1="495.53" y1="60.89" x2="210.51" y2="406.01"/><line class="cls-6" x1="491.84" y1="57.84" x2="206.81" y2="402.95"/><line class="cls-6" x1="474.73" y1="41.06" x2="189.71" y2="386.18"/><line class="cls-6" x1="471.04" y1="38.01" x2="186.01" y2="383.13"/><line class="cls-6" x1="467.34" y1="34.96" x2="182.32" y2="380.07"/><line class="cls-6" x1="463.65" y1="31.9" x2="178.62" y2="377.02"/><line class="cls-6" x1="459.95" y1="28.85" x2="174.93" y2="373.97"/><line class="cls-6" x1="456.26" y1="25.8" x2="171.24" y2="370.92"/><line class="cls-6" x1="452.57" y1="22.75" x2="167.54" y2="367.87"/><line class="cls-6" x1="448.87" y1="19.7" x2="163.85" y2="364.82"/><line class="cls-6" x1="445.18" y1="16.65" x2="160.15" y2="361.77"/><line class="cls-6" x1="441.48" y1="13.6" x2="156.46" y2="358.72"/><line class="cls-6" x1="437.79" y1="10.55" x2="152.76" y2="355.66"/><line class="cls-6" x1="434.09" y1="7.49" x2="149.07" y2="352.61"/><line class="cls-6" x1="430.4" y1="4.44" x2="145.37" y2="349.56"/><line class="cls-6" x1="426.7" y1="1.39" x2="141.68" y2="346.51"/><line class="cls-6" x1="423.01" y1="-1.66" x2="137.98" y2="343.46"/><line class="cls-6" x1="419.31" y1="-4.71" x2="134.29" y2="340.41"/><line class="cls-6" x1="415.62" y1="-7.76" x2="130.6" y2="337.36"/><line class="cls-6" x1="411.92" y1="-10.81" x2="126.9" y2="334.31"/><line class="cls-6" x1="408.23" y1="-13.86" x2="123.21" y2="331.25"/><line class="cls-6" x1="404.54" y1="-16.92" x2="119.51" y2="328.2"/><line class="cls-6" x1="400.84" y1="-19.97" x2="115.82" y2="325.15"/><line class="cls-6" x1="397.15" y1="-23.02" x2="112.12" y2="322.1"/><line class="cls-6" x1="393.45" y1="-26.07" x2="108.43" y2="319.05"/><line class="cls-6" x1="389.76" y1="-29.12" x2="104.73" y2="316"/><line class="cls-6" x1="386.06" y1="-32.17" x2="101.04" y2="312.95"/><line class="cls-6" x1="382.37" y1="-35.22" x2="97.34" y2="309.9"/><line class="cls-6" x1="378.67" y1="-38.27" x2="93.65" y2="306.84"/><line class="cls-6" x1="374.98" y1="-41.33" x2="89.95" y2="303.79"/><line class="cls-6" x1="371.28" y1="-44.38" x2="86.26" y2="300.74"/><line class="cls-6" x1="367.59" y1="-47.43" x2="82.57" y2="297.69"/><line class="cls-6" x1="363.9" y1="-50.48" x2="78.87" y2="294.64"/><line class="cls-6" x1="360.2" y1="-53.53" x2="75.18" y2="291.59"/><line class="cls-6" x1="356.51" y1="-56.58" x2="71.48" y2="288.54"/></g></g></g><g><polyline class="cls-4" points="68.26 261.29 112.54 261.29 112.54 176.27 182.06 176.27 182.06 71.41 197.85 71.41 197.85 262.71 458.52 262.71 458.52 64.32 491.7 64.32 491.7 264.12 580.66 264.12"/><polygon class="cls-9" points="577.35 268.21 576.66 267.48 580.28 264.12 576.66 260.77 577.35 260.03 581.74 264.12 577.35 268.21"/></g><g><g><circle class="cls-9" cx="30.34" cy="170.93" r="2.41"/><path class="cls-9" d="M34.44,178.29v-1.9c0-1.42-1.12-2.57-2.5-2.57h-.18c-.06,.18-.15,.35-.28,.5-.55,.65-1.5,.71-2.13,.15-.2-.18-.34-.41-.42-.65h-.19c-1.38,0-2.5,1.15-2.5,2.57v2s0,0,0,0v3.24c0,.73,.58,1.33,1.31,1.36,.08,.04,.16,.08,.24,.12,0,.04-.01,.07-.01,.11v6.2c0,.7,.57,1.28,1.28,1.28h.21c.61,0,1.11-.42,1.24-.99,.13,.57,.64,.99,1.24,.99h.21c.7,0,1.28-.57,1.28-1.28v-6.2c0-.08,0-.16-.02-.23,.7-.06,1.24-.64,1.24-1.35v-3.24s0-.07-.01-.1Z"/></g><g><circle class="cls-9" cx="49.89" cy="170.93" r="2.41"/><path class="cls-9" d="M53.99,178.29v-1.9c0-1.42-1.12-2.57-2.5-2.57h-.18c-.06,.18-.15,.35-.28,.5-.55,.65-1.5,.71-2.13,.15-.2-.18-.34-.41-.42-.65h-.19c-1.38,0-2.5,1.15-2.5,2.57v2s0,0,0,0v3.24c0,.73,.58,1.33,1.31,1.36,.08,.04,.16,.08,.24,.12,0,.04-.01,.07-.01,.11v6.2c0,.7,.57,1.28,1.28,1.28h.21c.61,0,1.11-.42,1.24-.99,.13,.57,.64,.99,1.24,.99h.21c.7,0,1.28-.57,1.28-1.28v-6.2c0-.08,0-.16-.02-.23,.7-.06,1.24-.64,1.24-1.35v-3.24s0-.07-.01-.1Z"/></g><g><circle class="cls-9" cx="40.11" cy="168.95" r="2.97"/><path class="cls-9" d="M45.15,177.99v-2.34c0-1.74-1.37-3.16-3.07-3.16h-.23c-.08,.22-.19,.43-.35,.62-.67,.79-1.85,.88-2.62,.18-.25-.22-.42-.5-.52-.8h-.23c-1.7,0-3.07,1.41-3.07,3.16v2.46s0,0,0,0v3.98c0,.9,.72,1.63,1.61,1.67,.1,.05,.19,.1,.3,.14,0,.05-.01,.09-.01,.14v7.62c0,.87,.7,1.57,1.57,1.57h.26c.74,0,1.36-.52,1.52-1.21,.16,.69,.78,1.21,1.52,1.21h.26c.87,0,1.57-.7,1.57-1.57v-7.62c0-.1-.01-.19-.03-.29,.86-.07,1.53-.78,1.53-1.66v-3.98s0-.08-.01-.12Z"/></g></g><g><circle class="cls-9" cx="40.11" cy="247.71" r="2.97"/><path class="cls-9" d="M45.15,256.76v-2.34c0-1.74-1.37-3.16-3.07-3.16h-.23c-.08,.22-.19,.43-.35,.62-.67,.79-1.85,.88-2.62,.18-.25-.22-.42-.5-.52-.8h-.23c-1.7,0-3.07,1.41-3.07,3.16v2.46s0,0,0,0v3.98c0,.9,.72,1.63,1.61,1.67,.1,.05,.19,.1,.3,.14,0,.05-.01,.09-.01,.14v7.62c0,.87,.7,1.57,1.57,1.57h.26c.74,0,1.36-.52,1.52-1.21,.16,.69,.78,1.21,1.52,1.21h.26c.87,0,1.57-.7,1.57-1.57v-7.62c0-.1-.01-.19-.03-.29,.86-.07,1.53-.78,1.53-1.66v-3.98s0-.08-.01-.12Z"/></g><g><g><path class="cls-9" d="M37.47,84.42c-.44,0-.85-.15-1.18-.41-.33,.26-.74,.41-1.18,.41h-.2c-1.05,0-1.9-.85-1.9-1.9v-5.48c-.85-.23-1.46-1-1.46-1.91v-4.98c0-1.73,1.38-3.13,3.07-3.13h.67l.16,.47c.05,.14,.12,.25,.21,.33,.17,.16,.36,.19,.48,.19,.21,0,.41-.1,.55-.26,.06-.07,.11-.16,.14-.26l.16-.47h.67c1.69,0,3.07,1.41,3.07,3.13v4.98c0,.8-.46,1.49-1.15,1.8v5.59c0,1.05-.85,1.9-1.9,1.9h-.2Z"/><path class="cls-8" d="M37.66,67.71c1.31,0,2.37,1.09,2.37,2.44v1.81s0,.06,0,.1v3.08c0,.68-.52,1.22-1.18,1.28,.01,.07,.02,.15,.02,.22v5.89c0,.67-.54,1.21-1.21,1.21h-.2c-.57,0-1.05-.4-1.18-.94-.12,.54-.6,.94-1.18,.94h-.2c-.67,0-1.21-.54-1.21-1.21v-5.89s0-.07,.01-.11c-.08-.03-.15-.07-.23-.11-.69-.03-1.24-.59-1.24-1.29v-3.08h0v-1.9c0-1.35,1.06-2.44,2.37-2.44h.18c.08,.23,.21,.45,.4,.62,.27,.24,.61,.36,.94,.36,.4,0,.8-.17,1.08-.5,.12-.15,.21-.31,.27-.48h.18m0-1.38h-1.16l-.32,.93-.04,.05-.32-.93-1.02-.05h-.18c-2.07,0-3.76,1.72-3.76,3.82v4.98c0,1.04,.59,1.94,1.46,2.38v5.01c0,1.43,1.16,2.6,2.6,2.6h.2c.42,0,.82-.1,1.18-.28,.36,.18,.76,.28,1.18,.28h.2c1.43,0,2.6-1.16,2.6-2.6v-5.19c.71-.48,1.16-1.29,1.16-2.21v-3.08c0-.06,0-.12,0-.18v-1.72c0-2.11-1.69-3.82-3.76-3.82h0Z"/></g><g><path class="cls-9" d="M36.14,67.6c-.64,0-1.25-.23-1.74-.65-.53-.46-.85-1.11-.9-1.81-.05-.7,.18-1.38,.65-1.91,.5-.57,1.23-.9,1.99-.9,.64,0,1.25,.23,1.73,.65,.53,.46,.85,1.11,.9,1.81,.05,.7-.18,1.38-.65,1.91-.5,.57-1.23,.9-1.99,.9Z"/><path class="cls-8" d="M36.14,62.67c.54,0,1.07,.19,1.51,.57,.95,.83,1.05,2.28,.22,3.24-.45,.52-1.09,.78-1.73,.78-.54,0-1.07-.19-1.51-.57-.95-.83-1.05-2.28-.22-3.24,.45-.52,1.09-.78,1.73-.78m0-.69h0c-.86,0-1.68,.37-2.25,1.02-.52,.6-.78,1.37-.73,2.16,.05,.8,.41,1.52,1.01,2.05,.54,.48,1.24,.74,1.96,.74,.86,0,1.68-.37,2.25-1.02,.52-.6,.78-1.37,.73-2.16-.05-.8-.41-1.52-1.01-2.05-.54-.48-1.24-.74-1.96-.74h0Z"/></g><g><path class="cls-9" d="M44.5,84.42c-.44,0-.85-.15-1.18-.41-.33,.26-.74,.41-1.18,.41h-.2c-1.05,0-1.9-.85-1.9-1.9v-5.48c-.85-.23-1.46-1-1.46-1.91v-4.98c0-1.73,1.38-3.13,3.07-3.13h.67l.16,.47c.05,.14,.12,.25,.21,.33,.17,.16,.36,.19,.48,.19,.21,0,.41-.1,.55-.26,.06-.07,.11-.16,.14-.26l.16-.47h.67c1.69,0,3.07,1.41,3.07,3.13v4.98c0,.8-.46,1.49-1.15,1.8v5.59c0,1.05-.85,1.9-1.9,1.9h-.2Z"/><path class="cls-8" d="M44.69,67.71c1.31,0,2.37,1.09,2.37,2.44v1.81s0,.06,0,.1v3.08c0,.68-.52,1.22-1.18,1.28,.01,.07,.02,.15,.02,.22v5.89c0,.67-.54,1.21-1.21,1.21h-.2c-.57,0-1.05-.4-1.18-.94-.12,.54-.6,.94-1.18,.94h-.2c-.67,0-1.21-.54-1.21-1.21v-5.89s0-.07,.01-.11c-.08-.03-.15-.07-.23-.11-.69-.03-1.24-.59-1.24-1.29v-3.08h0v-1.9c0-1.35,1.06-2.44,2.37-2.44h.18c.08,.23,.21,.45,.4,.62,.27,.24,.61,.36,.94,.36,.4,0,.8-.17,1.08-.5,.12-.15,.21-.31,.27-.48h.18m0-1.38h-1.16l-.32,.93-.04,.05-.32-.93-1.02-.05h-.18c-2.07,0-3.76,1.72-3.76,3.82v4.98c0,1.04,.59,1.94,1.46,2.38v5.01c0,1.43,1.16,2.6,2.6,2.6h.2c.42,0,.82-.1,1.18-.28,.35,.18,.76,.28,1.18,.28h.2c1.43,0,2.6-1.16,2.6-2.6v-5.19c.71-.48,1.16-1.29,1.16-2.21v-3.08c0-.06,0-.12,0-.18v-1.72c0-2.11-1.69-3.82-3.76-3.82h0Z"/></g><g><path class="cls-9" d="M43.17,67.6c-.64,0-1.25-.23-1.74-.65-.53-.46-.85-1.11-.9-1.81-.05-.7,.18-1.38,.65-1.91,.5-.57,1.23-.9,1.99-.9,.64,0,1.25,.23,1.73,.65,.53,.46,.85,1.11,.9,1.81,.05,.7-.18,1.38-.65,1.91-.5,.57-1.23,.9-1.99,.9Z"/><path class="cls-8" d="M43.17,62.67c.54,0,1.07,.19,1.51,.57,.95,.83,1.05,2.28,.22,3.24-.45,.52-1.09,.78-1.73,.78-.54,0-1.07-.19-1.51-.57-.95-.83-1.05-2.28-.22-3.24,.45-.52,1.09-.78,1.73-.78m0-.69h0c-.86,0-1.68,.37-2.25,1.02-.52,.6-.78,1.37-.73,2.16,.05,.8,.41,1.52,1.01,2.05,.54,.48,1.24,.74,1.96,.74,.86,0,1.68-.37,2.25-1.02,.52-.6,.78-1.37,.73-2.16-.05-.8-.41-1.52-1.01-2.05-.54-.48-1.24-.74-1.96-.74h0Z"/></g><g><path class="cls-9" d="M39.67,63.38c-.64,0-1.25-.23-1.74-.65-.53-.46-.85-1.11-.9-1.81-.05-.7,.18-1.38,.65-1.91,.5-.57,1.23-.9,1.99-.9,.64,0,1.25,.23,1.73,.65,.53,.46,.85,1.11,.9,1.81,.05,.7-.18,1.38-.65,1.91-.5,.57-1.23,.9-1.99,.9Z"/><path class="cls-8" d="M39.67,58.44c.54,0,1.07,.19,1.51,.57,.95,.83,1.05,2.28,.22,3.24-.45,.52-1.09,.78-1.73,.78-.54,0-1.07-.19-1.51-.57-.95-.83-1.05-2.28-.22-3.24,.45-.52,1.09-.78,1.73-.78m0-.69h0c-.86,0-1.68,.37-2.25,1.02-1.08,1.24-.95,3.13,.28,4.21,.54,.48,1.24,.74,1.96,.74,.86,0,1.68-.37,2.25-1.02,1.08-1.24,.95-3.13-.28-4.21-.54-.48-1.24-.74-1.96-.74h0Z"/></g><g><path class="cls-9" d="M32.19,90.45c-.49,0-.94-.22-1.24-.57-.3,.35-.75,.57-1.24,.57h-.21c-.9,0-1.64-.74-1.64-1.64v-6.07c-.87-.09-1.54-.82-1.54-1.71v-5.24c0-1.62,1.28-2.93,2.86-2.93h.45l.08,.25c.07,.2,.18,.37,.32,.5,.21,.19,.48,.29,.75,.29,.33,0,.64-.15,.86-.4,.09-.11,.17-.24,.22-.39l.08-.25h.44c1.58,0,2.86,1.32,2.86,2.93v1.9s.01,.06,.01,.1v3.24c0,.78-.5,1.43-1.22,1.64v6.14c0,.9-.74,1.64-1.64,1.64h-.21Z"/><path class="cls-8" d="M32.39,73.22c1.38,0,2.5,1.15,2.5,2.57v1.9s.01,.07,.01,.1v3.24c0,.71-.55,1.29-1.24,1.35,.01,.08,.02,.15,.02,.23v6.2c0,.7-.57,1.28-1.28,1.28h-.21c-.61,0-1.11-.42-1.24-.99-.13,.57-.64,.99-1.24,.99h-.21c-.7,0-1.28-.57-1.28-1.28v-6.2s0-.07,.01-.11c-.08-.03-.16-.07-.24-.12-.73-.03-1.31-.62-1.31-1.35v-5.24c0-1.42,1.12-2.57,2.5-2.57h.19c.08,.24,.22,.47,.42,.65,.29,.26,.64,.38,.99,.38,.42,0,.84-.18,1.14-.53,.13-.15,.22-.32,.28-.5h.18m0-.73h-.7l-.17,.49c-.04,.1-.09,.19-.15,.27-.15,.18-.36,.28-.58,.28-.13,0-.33-.03-.51-.2-.1-.09-.17-.21-.22-.35l-.17-.49h-.71c-1.78,0-3.23,1.48-3.23,3.3v5.24c0,.96,.65,1.77,1.54,2.01v5.77c0,1.1,.9,2,2,2h.21c.47,0,.9-.16,1.24-.43,.34,.27,.78,.43,1.24,.43h.21c1.11,0,2-.9,2-2v-5.89c.73-.33,1.22-1.05,1.22-1.9v-3.24s0-.1-.01-.14v-1.86c0-1.82-1.45-3.3-3.23-3.3h0Z"/></g><g><path class="cls-9" d="M30.79,73.11c-.67,0-1.32-.24-1.83-.69-1.15-1.01-1.27-2.77-.27-3.92,.53-.6,1.29-.95,2.09-.95,.67,0,1.32,.24,1.83,.69,1.15,1.01,1.27,2.77,.27,3.92-.53,.6-1.29,.95-2.09,.95Z"/><path class="cls-8" d="M30.79,67.92c.56,0,1.13,.2,1.59,.6,1,.88,1.11,2.4,.23,3.41-.48,.55-1.15,.83-1.82,.83-.56,0-1.13-.2-1.59-.6-1-.88-1.11-2.4-.23-3.41,.48-.55,1.15-.83,1.82-.83m0-.73h0c-.91,0-1.77,.39-2.37,1.08-1.14,1.31-1,3.29,.3,4.43,.57,.5,1.31,.78,2.07,.78,.91,0,1.77-.39,2.37-1.08,1.14-1.31,1.01-3.29-.3-4.43-.57-.5-1.31-.78-2.07-.78h0Z"/></g><g><path class="cls-9" d="M50.84,90.45c-.49,0-.94-.22-1.24-.57-.3,.35-.75,.57-1.24,.57h-.21c-.9,0-1.64-.74-1.64-1.64v-6.07c-.87-.09-1.54-.82-1.54-1.71v-5.24c0-1.62,1.28-2.93,2.86-2.93h.45l.08,.25c.07,.2,.18,.37,.32,.5,.21,.19,.48,.29,.75,.29,.33,0,.64-.15,.86-.4,.09-.11,.17-.24,.22-.39l.08-.25h.44c1.58,0,2.86,1.32,2.86,2.93v1.9s.01,.06,.01,.1v3.24c0,.78-.5,1.43-1.22,1.64v6.14c0,.9-.74,1.64-1.64,1.64h-.21Z"/><path class="cls-8" d="M51.04,73.22c1.38,0,2.5,1.15,2.5,2.57v1.9s.01,.07,.01,.1v3.24c0,.71-.55,1.29-1.24,1.35,.01,.08,.02,.15,.02,.23v6.2c0,.7-.57,1.28-1.28,1.28h-.21c-.61,0-1.11-.42-1.24-.99-.13,.57-.64,.99-1.24,.99h-.21c-.7,0-1.28-.57-1.28-1.28v-6.2s0-.07,.01-.11c-.08-.03-.16-.07-.24-.12-.73-.03-1.31-.62-1.31-1.35v-5.24c0-1.42,1.12-2.57,2.5-2.57h.19c.08,.24,.22,.47,.42,.65,.29,.26,.64,.38,.99,.38,.42,0,.84-.18,1.14-.53,.13-.15,.22-.32,.28-.5h.18m0-.73h-.7l-.17,.49c-.04,.1-.09,.19-.15,.27-.15,.18-.36,.27-.58,.27-.13,0-.33-.03-.51-.2-.1-.09-.17-.21-.22-.35l-.17-.49h-.71c-1.78,0-3.23,1.48-3.23,3.3v5.24c0,.96,.65,1.77,1.54,2.01v5.77c0,1.1,.9,2,2,2h.21c.47,0,.9-.16,1.24-.43,.34,.27,.77,.43,1.24,.43h.21c1.1,0,2-.9,2-2v-5.89c.73-.33,1.22-1.05,1.22-1.9v-3.24s0-.1-.01-.15v-1.86c0-1.82-1.45-3.3-3.23-3.3h0Z"/></g><g><path class="cls-9" d="M49.44,73.11c-.67,0-1.32-.24-1.83-.69-1.15-1.01-1.27-2.77-.27-3.92,.53-.6,1.29-.95,2.09-.95,.67,0,1.32,.24,1.83,.69,.56,.49,.89,1.16,.94,1.91,.05,.74-.19,1.46-.68,2.01-.53,.6-1.29,.95-2.09,.95Z"/><path class="cls-8" d="M49.44,67.92c.56,0,1.13,.2,1.59,.6,1,.88,1.11,2.4,.23,3.41-.48,.55-1.15,.83-1.82,.83-.56,0-1.13-.2-1.59-.6-1-.88-1.11-2.4-.23-3.41,.48-.55,1.15-.83,1.82-.83m0-.73h0c-.91,0-1.77,.39-2.37,1.08-1.14,1.31-1.01,3.29,.3,4.43,.57,.5,1.31,.78,2.07,.78,.91,0,1.77-.39,2.37-1.08,.55-.63,.83-1.44,.77-2.28s-.44-1.6-1.07-2.15c-.57-.5-1.31-.78-2.07-.78h0Z"/></g><g><path class="cls-9" d="M41.71,94.21c-.59,0-1.13-.27-1.48-.71-.35,.44-.88,.71-1.48,.71h-.26c-1.04,0-1.88-.84-1.88-1.88v-7.29s0,0,0,0c-1.03-.08-1.82-.93-1.82-1.97v-6.24c0-1.89,1.5-3.42,3.34-3.42h.48l.08,.25c.09,.25,.22,.46,.4,.62,.26,.23,.59,.36,.94,.36,.41,0,.81-.18,1.08-.5,.12-.14,.21-.3,.27-.48l.08-.25h.48c1.84,0,3.34,1.54,3.34,3.42v2.26s.01,.08,.01,.12v3.86c0,.91-.6,1.67-1.45,1.9v7.36c0,1.04-.84,1.88-1.88,1.88h-.26Z"/><path class="cls-8" d="M41.95,73.76c1.64,0,2.97,1.37,2.97,3.06v2.26s.01,.08,.01,.12v3.86c0,.85-.65,1.53-1.48,1.61,.02,.09,.03,.18,.03,.28v7.38c0,.84-.68,1.52-1.52,1.52h-.26c-.72,0-1.32-.5-1.48-1.18-.16,.67-.76,1.18-1.48,1.18h-.26c-.84,0-1.52-.68-1.52-1.52v-7.38s0-.09,.01-.13c-.1-.04-.19-.09-.29-.14-.87-.03-1.56-.74-1.56-1.61v-3.86h0v-2.38c0-1.69,1.33-3.06,2.97-3.06h.22c.1,.29,.26,.56,.5,.78,.34,.31,.76,.46,1.18,.46,.5,0,1-.21,1.36-.63,.15-.18,.26-.39,.34-.6h.22m0-.73h-.74l-.17,.49c-.05,.14-.12,.26-.2,.37-.2,.24-.5,.38-.8,.38-.26,0-.5-.1-.7-.27-.13-.12-.24-.28-.3-.47l-.17-.49h-.74c-2.04,0-3.7,1.7-3.7,3.79v6.24c0,1.12,.78,2.05,1.83,2.29v6.98c0,1.24,1.01,2.25,2.25,2.25h.26c.56,0,1.08-.2,1.48-.55,.4,.35,.92,.55,1.48,.55h.26c1.24,0,2.25-1.01,2.25-2.25v-7.1c.86-.35,1.45-1.19,1.45-2.17v-3.86c0-.06,0-.11-.01-.16v-2.22c0-2.09-1.66-3.79-3.7-3.79h0Z"/></g><g><path class="cls-9" d="M40.04,73.63c-.8,0-1.57-.29-2.17-.82-1.37-1.2-1.51-3.29-.32-4.67,.63-.72,1.54-1.13,2.49-1.13,.8,0,1.57,.29,2.17,.82,.67,.58,1.06,1.39,1.12,2.27s-.23,1.73-.81,2.4c-.63,.72-1.54,1.13-2.49,1.13Z"/><path class="cls-8" d="M40.05,67.45c.67,0,1.34,.23,1.89,.71,1.2,1.04,1.32,2.86,.27,4.05-.57,.65-1.36,.98-2.17,.98-.67,0-1.34-.23-1.89-.71-1.2-1.04-1.32-2.86-.27-4.06,.57-.65,1.36-.98,2.17-.98m0-.87h0c-1.08,0-2.11,.47-2.82,1.28-1.36,1.55-1.2,3.92,.36,5.28,.68,.6,1.56,.92,2.46,.92,1.08,0,2.11-.47,2.82-1.28,.66-.75,.98-1.72,.91-2.71s-.52-1.91-1.27-2.56c-.68-.6-1.56-.92-2.46-.92h0Z"/></g></g><line class="cls-4" x1="581.13" y1="282.13" x2="67.14" y2="282.13"/><g><polyline class="cls-2" points="68.31 176.28 365.03 176.28 365.03 281.19"/><polygon class="cls-9" points="360.94 277.88 361.67 277.2 365.02 280.8 368.38 277.2 369.11 277.88 365.02 282.27 360.94 277.88"/></g><g><polyline class="cls-3" points="69.4 71.49 271.48 71.49 271.48 280.44"/><polygon class="cls-9" points="267.4 277.12 268.13 276.44 271.48 280.05 274.84 276.44 275.57 277.12 271.48 281.52 267.4 277.12"/></g><line class="cls-4" x1="67.96" y1="20.42" x2="67.96" y2="282.64"/></svg>