<svg width="512" height="512" viewBox="0 0 512 512" fill="none" xmlns="http://www.w3.org/2000/svg">
<g clip-path="url(#clip0_595_545)">
<path d="M0.338867 -0.169312H512.339V511.831H0.338867V-0.169312Z" fill="black"/>
<path d="M44.3081 351.87H133.489V380.374H78.1178V399.282H123.894V425.472H78.1178V467.579H44.3081V351.87V351.87ZM142.972 351.87H196.367C229.725 351.87 252.867 373.262 252.867 409.95C252.867 446.638 230.854 467.579 194.956 467.579H143.028V351.87H142.972ZM192.19 439.583C207.712 439.583 218.55 429.536 218.55 409.95C218.55 390.364 208.333 379.866 192.19 379.866H176.838V439.583H192.19Z" fill="white"/>
<path d="M262.124 411.756C262.124 377.777 282.5 351.418 316.987 351.418C344.024 351.418 360.336 366.94 363.44 388.332H349.217C346.451 373.939 334.993 364.061 316.705 364.061C291.305 364.061 277.082 384.607 277.082 411.813C277.082 439.018 292.773 459.225 316.874 459.225C338.718 459.225 349.104 444.324 350.515 427.335H364.908C364.739 438.849 359.263 451.775 350.966 459.846C342.895 467.748 331.042 471.981 316.31 471.981C283.46 471.981 262.124 446.92 262.124 411.756V411.756ZM370.552 427.955C370.552 403.685 386.074 383.929 411.022 383.929C435.97 383.929 451.323 403.685 451.323 427.955C451.323 452.226 436.14 471.981 411.022 471.981C385.905 471.981 370.552 452.226 370.552 427.955ZM437.889 427.955C437.889 409.498 428.802 394.767 411.022 394.767C393.243 394.767 383.986 409.498 383.986 427.955C383.986 446.413 393.186 460.975 411.022 460.975C428.858 460.975 437.889 446.413 437.889 427.955ZM454.54 453.694H470.232V469.724H454.54V453.694Z" fill="white"/>
</g>
<defs>
<clipPath id="clip0_595_545">
<rect width="512" height="512" fill="white"/>
</clipPath>
</defs>
</svg>
