<?xml version="1.0" standalone="no"?>
<!DOCTYPE svg PUBLIC "-//W3C//DTD SVG 20010904//EN"
 "http://www.w3.org/TR/2001/REC-SVG-20010904/DTD/svg10.dtd">
<svg version="1.0" xmlns="http://www.w3.org/2000/svg"
 width="700.000000pt" height="700.000000pt" viewBox="0 0 700.000000 700.000000"
 preserveAspectRatio="xMidYMid meet">
<metadata>
Created by potrace 1.14, written by Peter Selinger 2001-2017
</metadata>
<g transform="translate(0.000000,700.000000) scale(0.100000,-0.100000)"
fill="#000000" stroke="none">
<path d="M10 3500 l0 -3500 3495 0 3495 0 0 3500 0 3500 -3495 0 -3495 0 0
-3500z m4415 -1310 c50 -6 113 -18 140 -26 210 -68 353 -226 400 -441 l7 -33
-101 0 c-92 0 -101 2 -101 19 0 10 -16 50 -35 89 -78 155 -233 232 -443 219
-235 -14 -405 -163 -474 -415 -29 -105 -31 -345 -4 -442 46 -169 154 -315 278
-379 95 -48 210 -68 310 -53 214 31 351 169 383 387 l7 45 99 0 99 0 0 -28 c0
-51 -39 -184 -76 -257 -69 -141 -187 -242 -338 -291 -118 -39 -316 -45 -436
-15 -121 30 -219 82 -306 164 -115 108 -183 228 -226 407 -30 120 -30 340 0
460 43 179 111 299 226 407 110 103 238 163 387 182 91 12 104 12 204 1z
m-2595 -195 l0 -195 -380 0 -380 0 0 -130 0 -130 310 0 310 0 0 -180 0 -180
-310 0 -310 0 0 -285 0 -285 -235 0 -235 0 0 783 c0 431 3 787 7 790 3 4 280
7 615 7 l608 0 0 -195z m1103 162 c107 -33 163 -61 244 -121 190 -140 299
-415 279 -706 -26 -370 -205 -603 -536 -696 -58 -16 -117 -18 -517 -22 l-453
-3 0 791 0 791 448 -3 447 -4 88 -27z m2809 -418 c202 -42 367 -218 412 -441
70 -341 -98 -657 -389 -733 -76 -19 -214 -19 -290 0 -194 51 -341 209 -391
420 -24 106 -15 296 19 395 63 179 205 313 375 354 70 18 193 20 264 5z m688
-1049 l0 -110 -110 0 -110 0 0 110 0 110 110 0 110 0 0 -110z"/>
<path d="M2420 1400 l0 -412 153 4 c137 4 158 7 207 30 79 35 125 80 160 152
95 200 42 479 -109 575 -66 42 -109 51 -268 58 l-143 6 0 -413z"/>
<path d="M5515 1587 c-161 -54 -248 -187 -261 -400 -14 -215 67 -386 214 -455
49 -23 70 -27 152 -27 117 0 177 24 244 95 85 90 118 189 117 350 0 162 -33
260 -117 350 -60 64 -127 92 -229 97 -48 2 -96 -2 -120 -10z"/>
</g>
</svg>
